M48
; DRILL file {KiCad 8.0.7} date 2025-05-30T15:57:11-0400
; FORMAT={-:-/ absolute / inch / decimal}
; #@! TF.CreationDate,2025-05-30T15:57:11-04:00
; #@! TF.GenerationSoftware,Kicad,Pcbnew,8.0.7
; #@! TF.FileFunction,Plated,1,2,PTH
FMAT,2
INCH
; #@! TA.AperFunction,Plated,PTH,ViaDrill
T1C0.0118
; #@! TA.AperFunction,Plated,PTH,ComponentDrill
T2C0.0236
; #@! TA.AperFunction,Plated,PTH,ComponentDrill
T3C0.0276
%
G90
G05
T1
X5.57Y-1.18
X5.6Y-1.57
X5.61Y-1.52
X5.62Y-1.36
X5.65Y-1.2
X5.73Y-1.2
X5.87Y-1.41
X5.93Y-1.3817
X6.08Y-1.2
X6.15Y-1.2
X6.21Y-1.21
X6.25Y-1.21
X6.25Y-1.3083
X6.29Y-1.53
X6.29Y-1.5791
X6.58Y-1.53
X6.87Y-1.65
X6.93Y-1.0
X6.98Y-1.29
X7.08Y-0.9415
X7.11Y-1.06
X7.13Y-0.96
X7.22Y-1.29
X7.34Y-1.05
X7.35Y-1.36
X7.41Y-1.33
X7.62Y-1.7
X7.62Y-1.7385
X7.63Y-1.3
X7.65Y-1.34
X7.69Y-1.45
X7.79Y-1.1
T3
X5.5138Y-1.4262
X5.5138Y-1.6538
T2
G00X5.3807Y-1.3699
M15
G01X5.3571Y-1.3699
M16
G05
G00X5.3807Y-1.7101
M15
G01X5.3571Y-1.7101
M16
G05
G00X5.5524Y-1.3699
M15
G01X5.5169Y-1.3699
M16
G05
G00X5.5524Y-1.7101
M15
G01X5.5169Y-1.7101
M16
G05
M30
