%TF.GenerationSoftware,KiCad,Pcbnew,8.0.7*%
%TF.CreationDate,2025-06-04T10:30:57-04:00*%
%TF.ProjectId,weiland-esp32,7765696c-616e-4642-9d65-737033322e6b,rev?*%
%TF.SameCoordinates,Original*%
%TF.FileFunction,Legend,Top*%
%TF.FilePolarity,Positive*%
%FSLAX46Y46*%
G04 Gerber Fmt 4.6, Leading zero omitted, Abs format (unit mm)*
G04 Created by KiCad (PCBNEW 8.0.7) date 2025-06-04 10:30:57*
%MOMM*%
%LPD*%
G01*
G04 APERTURE LIST*
G04 Aperture macros list*
%AMRoundRect*
0 Rectangle with rounded corners*
0 $1 Rounding radius*
0 $2 $3 $4 $5 $6 $7 $8 $9 X,Y pos of 4 corners*
0 Add a 4 corners polygon primitive as box body*
4,1,4,$2,$3,$4,$5,$6,$7,$8,$9,$2,$3,0*
0 Add four circle primitives for the rounded corners*
1,1,$1+$1,$2,$3*
1,1,$1+$1,$4,$5*
1,1,$1+$1,$6,$7*
1,1,$1+$1,$8,$9*
0 Add four rect primitives between the rounded corners*
20,1,$1+$1,$2,$3,$4,$5,0*
20,1,$1+$1,$4,$5,$6,$7,0*
20,1,$1+$1,$6,$7,$8,$9,0*
20,1,$1+$1,$8,$9,$2,$3,0*%
G04 Aperture macros list end*
%ADD10C,0.100000*%
%ADD11C,0.150000*%
%ADD12C,0.120000*%
%ADD13C,0.250000*%
%ADD14C,0.127000*%
%ADD15C,0.200000*%
%ADD16C,0.152400*%
%ADD17RoundRect,0.140000X-0.170000X0.140000X-0.170000X-0.140000X0.170000X-0.140000X0.170000X0.140000X0*%
%ADD18RoundRect,0.102000X-0.280000X-0.300000X0.280000X-0.300000X0.280000X0.300000X-0.280000X0.300000X0*%
%ADD19C,3.200000*%
%ADD20R,0.600000X1.550000*%
%ADD21R,1.200000X1.800000*%
%ADD22R,2.600000X0.740000*%
%ADD23R,2.600000X0.800000*%
%ADD24C,1.000000*%
%ADD25RoundRect,0.135000X0.185000X-0.135000X0.185000X0.135000X-0.185000X0.135000X-0.185000X-0.135000X0*%
%ADD26RoundRect,0.102000X0.280000X0.300000X-0.280000X0.300000X-0.280000X-0.300000X0.280000X-0.300000X0*%
%ADD27RoundRect,0.140000X-0.140000X-0.170000X0.140000X-0.170000X0.140000X0.170000X-0.140000X0.170000X0*%
%ADD28RoundRect,0.140000X0.140000X0.170000X-0.140000X0.170000X-0.140000X-0.170000X0.140000X-0.170000X0*%
%ADD29RoundRect,0.197160X-0.174840X-0.204840X0.174840X-0.204840X0.174840X0.204840X-0.174840X0.204840X0*%
%ADD30RoundRect,0.085050X0.481950X-0.671950X0.481950X0.671950X-0.481950X0.671950X-0.481950X-0.671950X0*%
%ADD31RoundRect,0.113550X1.608450X-0.643450X1.608450X0.643450X-1.608450X0.643450X-1.608450X-0.643450X0*%
%ADD32C,0.700000*%
%ADD33R,1.100000X0.550000*%
%ADD34R,1.100000X0.300000*%
%ADD35O,2.000000X1.100000*%
%ADD36O,1.800000X1.200000*%
%ADD37R,1.500000X0.900000*%
%ADD38R,0.900000X1.500000*%
%ADD39R,0.900000X0.900000*%
%ADD40RoundRect,0.102000X0.300000X-0.280000X0.300000X0.280000X-0.300000X0.280000X-0.300000X-0.280000X0*%
%ADD41R,1.550000X0.600000*%
%ADD42R,1.800000X1.200000*%
%ADD43RoundRect,0.135000X-0.135000X-0.185000X0.135000X-0.185000X0.135000X0.185000X-0.135000X0.185000X0*%
%ADD44RoundRect,0.102000X0.250000X0.300000X-0.250000X0.300000X-0.250000X-0.300000X0.250000X-0.300000X0*%
%ADD45RoundRect,0.102000X0.400000X0.400000X-0.400000X0.400000X-0.400000X-0.400000X0.400000X-0.400000X0*%
%ADD46RoundRect,0.059250X0.462750X0.177750X-0.462750X0.177750X-0.462750X-0.177750X0.462750X-0.177750X0*%
%ADD47RoundRect,0.059250X0.177750X0.462750X-0.177750X0.462750X-0.177750X-0.462750X0.177750X-0.462750X0*%
%ADD48RoundRect,0.102000X0.550000X0.550000X-0.550000X0.550000X-0.550000X-0.550000X0.550000X-0.550000X0*%
%ADD49R,0.863600X0.254000*%
%ADD50R,1.701800X2.489200*%
G04 APERTURE END LIST*
D10*
X193740074Y-37552419D02*
X193263884Y-37552419D01*
X193263884Y-37552419D02*
X193216265Y-38028609D01*
X193216265Y-38028609D02*
X193263884Y-37980990D01*
X193263884Y-37980990D02*
X193359122Y-37933371D01*
X193359122Y-37933371D02*
X193597217Y-37933371D01*
X193597217Y-37933371D02*
X193692455Y-37980990D01*
X193692455Y-37980990D02*
X193740074Y-38028609D01*
X193740074Y-38028609D02*
X193787693Y-38123847D01*
X193787693Y-38123847D02*
X193787693Y-38361942D01*
X193787693Y-38361942D02*
X193740074Y-38457180D01*
X193740074Y-38457180D02*
X193692455Y-38504800D01*
X193692455Y-38504800D02*
X193597217Y-38552419D01*
X193597217Y-38552419D02*
X193359122Y-38552419D01*
X193359122Y-38552419D02*
X193263884Y-38504800D01*
X193263884Y-38504800D02*
X193216265Y-38457180D01*
X194073408Y-37552419D02*
X194406741Y-38552419D01*
X194406741Y-38552419D02*
X194740074Y-37552419D01*
D11*
X148369580Y-30982857D02*
X148417200Y-31030476D01*
X148417200Y-31030476D02*
X148464819Y-31173333D01*
X148464819Y-31173333D02*
X148464819Y-31268571D01*
X148464819Y-31268571D02*
X148417200Y-31411428D01*
X148417200Y-31411428D02*
X148321961Y-31506666D01*
X148321961Y-31506666D02*
X148226723Y-31554285D01*
X148226723Y-31554285D02*
X148036247Y-31601904D01*
X148036247Y-31601904D02*
X147893390Y-31601904D01*
X147893390Y-31601904D02*
X147702914Y-31554285D01*
X147702914Y-31554285D02*
X147607676Y-31506666D01*
X147607676Y-31506666D02*
X147512438Y-31411428D01*
X147512438Y-31411428D02*
X147464819Y-31268571D01*
X147464819Y-31268571D02*
X147464819Y-31173333D01*
X147464819Y-31173333D02*
X147512438Y-31030476D01*
X147512438Y-31030476D02*
X147560057Y-30982857D01*
X148464819Y-30030476D02*
X148464819Y-30601904D01*
X148464819Y-30316190D02*
X147464819Y-30316190D01*
X147464819Y-30316190D02*
X147607676Y-30411428D01*
X147607676Y-30411428D02*
X147702914Y-30506666D01*
X147702914Y-30506666D02*
X147750533Y-30601904D01*
X147798152Y-29173333D02*
X148464819Y-29173333D01*
X147417200Y-29411428D02*
X148131485Y-29649523D01*
X148131485Y-29649523D02*
X148131485Y-29030476D01*
D10*
X163273333Y-35222180D02*
X163225714Y-35269800D01*
X163225714Y-35269800D02*
X163082857Y-35317419D01*
X163082857Y-35317419D02*
X162987619Y-35317419D01*
X162987619Y-35317419D02*
X162844762Y-35269800D01*
X162844762Y-35269800D02*
X162749524Y-35174561D01*
X162749524Y-35174561D02*
X162701905Y-35079323D01*
X162701905Y-35079323D02*
X162654286Y-34888847D01*
X162654286Y-34888847D02*
X162654286Y-34745990D01*
X162654286Y-34745990D02*
X162701905Y-34555514D01*
X162701905Y-34555514D02*
X162749524Y-34460276D01*
X162749524Y-34460276D02*
X162844762Y-34365038D01*
X162844762Y-34365038D02*
X162987619Y-34317419D01*
X162987619Y-34317419D02*
X163082857Y-34317419D01*
X163082857Y-34317419D02*
X163225714Y-34365038D01*
X163225714Y-34365038D02*
X163273333Y-34412657D01*
X164130476Y-34317419D02*
X163940000Y-34317419D01*
X163940000Y-34317419D02*
X163844762Y-34365038D01*
X163844762Y-34365038D02*
X163797143Y-34412657D01*
X163797143Y-34412657D02*
X163701905Y-34555514D01*
X163701905Y-34555514D02*
X163654286Y-34745990D01*
X163654286Y-34745990D02*
X163654286Y-35126942D01*
X163654286Y-35126942D02*
X163701905Y-35222180D01*
X163701905Y-35222180D02*
X163749524Y-35269800D01*
X163749524Y-35269800D02*
X163844762Y-35317419D01*
X163844762Y-35317419D02*
X164035238Y-35317419D01*
X164035238Y-35317419D02*
X164130476Y-35269800D01*
X164130476Y-35269800D02*
X164178095Y-35222180D01*
X164178095Y-35222180D02*
X164225714Y-35126942D01*
X164225714Y-35126942D02*
X164225714Y-34888847D01*
X164225714Y-34888847D02*
X164178095Y-34793609D01*
X164178095Y-34793609D02*
X164130476Y-34745990D01*
X164130476Y-34745990D02*
X164035238Y-34698371D01*
X164035238Y-34698371D02*
X163844762Y-34698371D01*
X163844762Y-34698371D02*
X163749524Y-34745990D01*
X163749524Y-34745990D02*
X163701905Y-34793609D01*
X163701905Y-34793609D02*
X163654286Y-34888847D01*
D11*
X189856095Y-25222819D02*
X189856095Y-24222819D01*
X189856095Y-24699009D02*
X190427523Y-24699009D01*
X190427523Y-25222819D02*
X190427523Y-24222819D01*
X190808476Y-24222819D02*
X191427523Y-24222819D01*
X191427523Y-24222819D02*
X191094190Y-24603771D01*
X191094190Y-24603771D02*
X191237047Y-24603771D01*
X191237047Y-24603771D02*
X191332285Y-24651390D01*
X191332285Y-24651390D02*
X191379904Y-24699009D01*
X191379904Y-24699009D02*
X191427523Y-24794247D01*
X191427523Y-24794247D02*
X191427523Y-25032342D01*
X191427523Y-25032342D02*
X191379904Y-25127580D01*
X191379904Y-25127580D02*
X191332285Y-25175200D01*
X191332285Y-25175200D02*
X191237047Y-25222819D01*
X191237047Y-25222819D02*
X190951333Y-25222819D01*
X190951333Y-25222819D02*
X190856095Y-25175200D01*
X190856095Y-25175200D02*
X190808476Y-25127580D01*
X143073523Y-27283580D02*
X143025904Y-27331200D01*
X143025904Y-27331200D02*
X142883047Y-27378819D01*
X142883047Y-27378819D02*
X142787809Y-27378819D01*
X142787809Y-27378819D02*
X142644952Y-27331200D01*
X142644952Y-27331200D02*
X142549714Y-27235961D01*
X142549714Y-27235961D02*
X142502095Y-27140723D01*
X142502095Y-27140723D02*
X142454476Y-26950247D01*
X142454476Y-26950247D02*
X142454476Y-26807390D01*
X142454476Y-26807390D02*
X142502095Y-26616914D01*
X142502095Y-26616914D02*
X142549714Y-26521676D01*
X142549714Y-26521676D02*
X142644952Y-26426438D01*
X142644952Y-26426438D02*
X142787809Y-26378819D01*
X142787809Y-26378819D02*
X142883047Y-26378819D01*
X142883047Y-26378819D02*
X143025904Y-26426438D01*
X143025904Y-26426438D02*
X143073523Y-26474057D01*
X143502095Y-27378819D02*
X143502095Y-26378819D01*
X143502095Y-26378819D02*
X144073523Y-27378819D01*
X144073523Y-27378819D02*
X144073523Y-26378819D01*
X144454476Y-26378819D02*
X145073523Y-26378819D01*
X145073523Y-26378819D02*
X144740190Y-26759771D01*
X144740190Y-26759771D02*
X144883047Y-26759771D01*
X144883047Y-26759771D02*
X144978285Y-26807390D01*
X144978285Y-26807390D02*
X145025904Y-26855009D01*
X145025904Y-26855009D02*
X145073523Y-26950247D01*
X145073523Y-26950247D02*
X145073523Y-27188342D01*
X145073523Y-27188342D02*
X145025904Y-27283580D01*
X145025904Y-27283580D02*
X144978285Y-27331200D01*
X144978285Y-27331200D02*
X144883047Y-27378819D01*
X144883047Y-27378819D02*
X144597333Y-27378819D01*
X144597333Y-27378819D02*
X144502095Y-27331200D01*
X144502095Y-27331200D02*
X144454476Y-27283580D01*
D10*
X184912095Y-32087419D02*
X184912095Y-32896942D01*
X184912095Y-32896942D02*
X184959714Y-32992180D01*
X184959714Y-32992180D02*
X185007333Y-33039800D01*
X185007333Y-33039800D02*
X185102571Y-33087419D01*
X185102571Y-33087419D02*
X185293047Y-33087419D01*
X185293047Y-33087419D02*
X185388285Y-33039800D01*
X185388285Y-33039800D02*
X185435904Y-32992180D01*
X185435904Y-32992180D02*
X185483523Y-32896942D01*
X185483523Y-32896942D02*
X185483523Y-32087419D01*
X186388285Y-32087419D02*
X186197809Y-32087419D01*
X186197809Y-32087419D02*
X186102571Y-32135038D01*
X186102571Y-32135038D02*
X186054952Y-32182657D01*
X186054952Y-32182657D02*
X185959714Y-32325514D01*
X185959714Y-32325514D02*
X185912095Y-32515990D01*
X185912095Y-32515990D02*
X185912095Y-32896942D01*
X185912095Y-32896942D02*
X185959714Y-32992180D01*
X185959714Y-32992180D02*
X186007333Y-33039800D01*
X186007333Y-33039800D02*
X186102571Y-33087419D01*
X186102571Y-33087419D02*
X186293047Y-33087419D01*
X186293047Y-33087419D02*
X186388285Y-33039800D01*
X186388285Y-33039800D02*
X186435904Y-32992180D01*
X186435904Y-32992180D02*
X186483523Y-32896942D01*
X186483523Y-32896942D02*
X186483523Y-32658847D01*
X186483523Y-32658847D02*
X186435904Y-32563609D01*
X186435904Y-32563609D02*
X186388285Y-32515990D01*
X186388285Y-32515990D02*
X186293047Y-32468371D01*
X186293047Y-32468371D02*
X186102571Y-32468371D01*
X186102571Y-32468371D02*
X186007333Y-32515990D01*
X186007333Y-32515990D02*
X185959714Y-32563609D01*
X185959714Y-32563609D02*
X185912095Y-32658847D01*
X182435619Y-34747419D02*
X182435619Y-33747419D01*
X183435618Y-34747419D02*
X182864190Y-34747419D01*
X183149904Y-34747419D02*
X183149904Y-33747419D01*
X183149904Y-33747419D02*
X183054666Y-33890276D01*
X183054666Y-33890276D02*
X182959428Y-33985514D01*
X182959428Y-33985514D02*
X182864190Y-34033133D01*
X183911809Y-34747419D02*
X184102285Y-34747419D01*
X184102285Y-34747419D02*
X184197523Y-34699800D01*
X184197523Y-34699800D02*
X184245142Y-34652180D01*
X184245142Y-34652180D02*
X184340380Y-34509323D01*
X184340380Y-34509323D02*
X184387999Y-34318847D01*
X184387999Y-34318847D02*
X184387999Y-33937895D01*
X184387999Y-33937895D02*
X184340380Y-33842657D01*
X184340380Y-33842657D02*
X184292761Y-33795038D01*
X184292761Y-33795038D02*
X184197523Y-33747419D01*
X184197523Y-33747419D02*
X184007047Y-33747419D01*
X184007047Y-33747419D02*
X183911809Y-33795038D01*
X183911809Y-33795038D02*
X183864190Y-33842657D01*
X183864190Y-33842657D02*
X183816571Y-33937895D01*
X183816571Y-33937895D02*
X183816571Y-34175990D01*
X183816571Y-34175990D02*
X183864190Y-34271228D01*
X183864190Y-34271228D02*
X183911809Y-34318847D01*
X183911809Y-34318847D02*
X184007047Y-34366466D01*
X184007047Y-34366466D02*
X184197523Y-34366466D01*
X184197523Y-34366466D02*
X184292761Y-34318847D01*
X184292761Y-34318847D02*
X184340380Y-34271228D01*
X184340380Y-34271228D02*
X184387999Y-34175990D01*
D11*
X144383333Y-34094819D02*
X144050000Y-33618628D01*
X143811905Y-34094819D02*
X143811905Y-33094819D01*
X143811905Y-33094819D02*
X144192857Y-33094819D01*
X144192857Y-33094819D02*
X144288095Y-33142438D01*
X144288095Y-33142438D02*
X144335714Y-33190057D01*
X144335714Y-33190057D02*
X144383333Y-33285295D01*
X144383333Y-33285295D02*
X144383333Y-33428152D01*
X144383333Y-33428152D02*
X144335714Y-33523390D01*
X144335714Y-33523390D02*
X144288095Y-33571009D01*
X144288095Y-33571009D02*
X144192857Y-33618628D01*
X144192857Y-33618628D02*
X143811905Y-33618628D01*
X144716667Y-33094819D02*
X145335714Y-33094819D01*
X145335714Y-33094819D02*
X145002381Y-33475771D01*
X145002381Y-33475771D02*
X145145238Y-33475771D01*
X145145238Y-33475771D02*
X145240476Y-33523390D01*
X145240476Y-33523390D02*
X145288095Y-33571009D01*
X145288095Y-33571009D02*
X145335714Y-33666247D01*
X145335714Y-33666247D02*
X145335714Y-33904342D01*
X145335714Y-33904342D02*
X145288095Y-33999580D01*
X145288095Y-33999580D02*
X145240476Y-34047200D01*
X145240476Y-34047200D02*
X145145238Y-34094819D01*
X145145238Y-34094819D02*
X144859524Y-34094819D01*
X144859524Y-34094819D02*
X144764286Y-34047200D01*
X144764286Y-34047200D02*
X144716667Y-33999580D01*
D10*
X163083333Y-25782180D02*
X163035714Y-25829800D01*
X163035714Y-25829800D02*
X162892857Y-25877419D01*
X162892857Y-25877419D02*
X162797619Y-25877419D01*
X162797619Y-25877419D02*
X162654762Y-25829800D01*
X162654762Y-25829800D02*
X162559524Y-25734561D01*
X162559524Y-25734561D02*
X162511905Y-25639323D01*
X162511905Y-25639323D02*
X162464286Y-25448847D01*
X162464286Y-25448847D02*
X162464286Y-25305990D01*
X162464286Y-25305990D02*
X162511905Y-25115514D01*
X162511905Y-25115514D02*
X162559524Y-25020276D01*
X162559524Y-25020276D02*
X162654762Y-24925038D01*
X162654762Y-24925038D02*
X162797619Y-24877419D01*
X162797619Y-24877419D02*
X162892857Y-24877419D01*
X162892857Y-24877419D02*
X163035714Y-24925038D01*
X163035714Y-24925038D02*
X163083333Y-24972657D01*
X163988095Y-24877419D02*
X163511905Y-24877419D01*
X163511905Y-24877419D02*
X163464286Y-25353609D01*
X163464286Y-25353609D02*
X163511905Y-25305990D01*
X163511905Y-25305990D02*
X163607143Y-25258371D01*
X163607143Y-25258371D02*
X163845238Y-25258371D01*
X163845238Y-25258371D02*
X163940476Y-25305990D01*
X163940476Y-25305990D02*
X163988095Y-25353609D01*
X163988095Y-25353609D02*
X164035714Y-25448847D01*
X164035714Y-25448847D02*
X164035714Y-25686942D01*
X164035714Y-25686942D02*
X163988095Y-25782180D01*
X163988095Y-25782180D02*
X163940476Y-25829800D01*
X163940476Y-25829800D02*
X163845238Y-25877419D01*
X163845238Y-25877419D02*
X163607143Y-25877419D01*
X163607143Y-25877419D02*
X163511905Y-25829800D01*
X163511905Y-25829800D02*
X163464286Y-25782180D01*
D11*
X140899580Y-31212857D02*
X140947200Y-31260476D01*
X140947200Y-31260476D02*
X140994819Y-31403333D01*
X140994819Y-31403333D02*
X140994819Y-31498571D01*
X140994819Y-31498571D02*
X140947200Y-31641428D01*
X140947200Y-31641428D02*
X140851961Y-31736666D01*
X140851961Y-31736666D02*
X140756723Y-31784285D01*
X140756723Y-31784285D02*
X140566247Y-31831904D01*
X140566247Y-31831904D02*
X140423390Y-31831904D01*
X140423390Y-31831904D02*
X140232914Y-31784285D01*
X140232914Y-31784285D02*
X140137676Y-31736666D01*
X140137676Y-31736666D02*
X140042438Y-31641428D01*
X140042438Y-31641428D02*
X139994819Y-31498571D01*
X139994819Y-31498571D02*
X139994819Y-31403333D01*
X139994819Y-31403333D02*
X140042438Y-31260476D01*
X140042438Y-31260476D02*
X140090057Y-31212857D01*
X140994819Y-30260476D02*
X140994819Y-30831904D01*
X140994819Y-30546190D02*
X139994819Y-30546190D01*
X139994819Y-30546190D02*
X140137676Y-30641428D01*
X140137676Y-30641428D02*
X140232914Y-30736666D01*
X140232914Y-30736666D02*
X140280533Y-30831904D01*
X139994819Y-29927142D02*
X139994819Y-29308095D01*
X139994819Y-29308095D02*
X140375771Y-29641428D01*
X140375771Y-29641428D02*
X140375771Y-29498571D01*
X140375771Y-29498571D02*
X140423390Y-29403333D01*
X140423390Y-29403333D02*
X140471009Y-29355714D01*
X140471009Y-29355714D02*
X140566247Y-29308095D01*
X140566247Y-29308095D02*
X140804342Y-29308095D01*
X140804342Y-29308095D02*
X140899580Y-29355714D01*
X140899580Y-29355714D02*
X140947200Y-29403333D01*
X140947200Y-29403333D02*
X140994819Y-29498571D01*
X140994819Y-29498571D02*
X140994819Y-29784285D01*
X140994819Y-29784285D02*
X140947200Y-29879523D01*
X140947200Y-29879523D02*
X140899580Y-29927142D01*
X144788095Y-38854819D02*
X144788095Y-37854819D01*
X144788095Y-38331009D02*
X145359523Y-38331009D01*
X145359523Y-38854819D02*
X145359523Y-37854819D01*
X146264285Y-38188152D02*
X146264285Y-38854819D01*
X146026190Y-37807200D02*
X145788095Y-38521485D01*
X145788095Y-38521485D02*
X146407142Y-38521485D01*
D10*
X154717619Y-42867419D02*
X154717619Y-41867419D01*
X155717618Y-42867419D02*
X155146190Y-42867419D01*
X155431904Y-42867419D02*
X155431904Y-41867419D01*
X155431904Y-41867419D02*
X155336666Y-42010276D01*
X155336666Y-42010276D02*
X155241428Y-42105514D01*
X155241428Y-42105514D02*
X155146190Y-42153133D01*
X156574761Y-42200752D02*
X156574761Y-42867419D01*
X156336666Y-41819800D02*
X156098571Y-42534085D01*
X156098571Y-42534085D02*
X156717618Y-42534085D01*
X182747619Y-44297419D02*
X182747619Y-43297419D01*
X183747618Y-44297419D02*
X183176190Y-44297419D01*
X183461904Y-44297419D02*
X183461904Y-43297419D01*
X183461904Y-43297419D02*
X183366666Y-43440276D01*
X183366666Y-43440276D02*
X183271428Y-43535514D01*
X183271428Y-43535514D02*
X183176190Y-43583133D01*
X184652380Y-43297419D02*
X184176190Y-43297419D01*
X184176190Y-43297419D02*
X184128571Y-43773609D01*
X184128571Y-43773609D02*
X184176190Y-43725990D01*
X184176190Y-43725990D02*
X184271428Y-43678371D01*
X184271428Y-43678371D02*
X184509523Y-43678371D01*
X184509523Y-43678371D02*
X184604761Y-43725990D01*
X184604761Y-43725990D02*
X184652380Y-43773609D01*
X184652380Y-43773609D02*
X184699999Y-43868847D01*
X184699999Y-43868847D02*
X184699999Y-44106942D01*
X184699999Y-44106942D02*
X184652380Y-44202180D01*
X184652380Y-44202180D02*
X184604761Y-44249800D01*
X184604761Y-44249800D02*
X184509523Y-44297419D01*
X184509523Y-44297419D02*
X184271428Y-44297419D01*
X184271428Y-44297419D02*
X184176190Y-44249800D01*
X184176190Y-44249800D02*
X184128571Y-44202180D01*
X153312857Y-34147419D02*
X153312857Y-33147419D01*
X153312857Y-33147419D02*
X153693809Y-33147419D01*
X153693809Y-33147419D02*
X153789047Y-33195038D01*
X153789047Y-33195038D02*
X153836666Y-33242657D01*
X153836666Y-33242657D02*
X153884285Y-33337895D01*
X153884285Y-33337895D02*
X153884285Y-33480752D01*
X153884285Y-33480752D02*
X153836666Y-33575990D01*
X153836666Y-33575990D02*
X153789047Y-33623609D01*
X153789047Y-33623609D02*
X153693809Y-33671228D01*
X153693809Y-33671228D02*
X153312857Y-33671228D01*
X154312857Y-33766466D02*
X155074762Y-33766466D01*
X154693809Y-34147419D02*
X154693809Y-33385514D01*
X156074761Y-34147419D02*
X155503333Y-34147419D01*
X155789047Y-34147419D02*
X155789047Y-33147419D01*
X155789047Y-33147419D02*
X155693809Y-33290276D01*
X155693809Y-33290276D02*
X155598571Y-33385514D01*
X155598571Y-33385514D02*
X155503333Y-33433133D01*
D11*
X194039580Y-27742857D02*
X194087200Y-27790476D01*
X194087200Y-27790476D02*
X194134819Y-27933333D01*
X194134819Y-27933333D02*
X194134819Y-28028571D01*
X194134819Y-28028571D02*
X194087200Y-28171428D01*
X194087200Y-28171428D02*
X193991961Y-28266666D01*
X193991961Y-28266666D02*
X193896723Y-28314285D01*
X193896723Y-28314285D02*
X193706247Y-28361904D01*
X193706247Y-28361904D02*
X193563390Y-28361904D01*
X193563390Y-28361904D02*
X193372914Y-28314285D01*
X193372914Y-28314285D02*
X193277676Y-28266666D01*
X193277676Y-28266666D02*
X193182438Y-28171428D01*
X193182438Y-28171428D02*
X193134819Y-28028571D01*
X193134819Y-28028571D02*
X193134819Y-27933333D01*
X193134819Y-27933333D02*
X193182438Y-27790476D01*
X193182438Y-27790476D02*
X193230057Y-27742857D01*
X194134819Y-26790476D02*
X194134819Y-27361904D01*
X194134819Y-27076190D02*
X193134819Y-27076190D01*
X193134819Y-27076190D02*
X193277676Y-27171428D01*
X193277676Y-27171428D02*
X193372914Y-27266666D01*
X193372914Y-27266666D02*
X193420533Y-27361904D01*
X193230057Y-26409523D02*
X193182438Y-26361904D01*
X193182438Y-26361904D02*
X193134819Y-26266666D01*
X193134819Y-26266666D02*
X193134819Y-26028571D01*
X193134819Y-26028571D02*
X193182438Y-25933333D01*
X193182438Y-25933333D02*
X193230057Y-25885714D01*
X193230057Y-25885714D02*
X193325295Y-25838095D01*
X193325295Y-25838095D02*
X193420533Y-25838095D01*
X193420533Y-25838095D02*
X193563390Y-25885714D01*
X193563390Y-25885714D02*
X194134819Y-26457142D01*
X194134819Y-26457142D02*
X194134819Y-25838095D01*
X136208095Y-25304819D02*
X136208095Y-24304819D01*
X136208095Y-24781009D02*
X136779523Y-24781009D01*
X136779523Y-25304819D02*
X136779523Y-24304819D01*
X137779523Y-25304819D02*
X137208095Y-25304819D01*
X137493809Y-25304819D02*
X137493809Y-24304819D01*
X137493809Y-24304819D02*
X137398571Y-24447676D01*
X137398571Y-24447676D02*
X137303333Y-24542914D01*
X137303333Y-24542914D02*
X137208095Y-24590533D01*
D10*
X138423333Y-31577419D02*
X138090000Y-31101228D01*
X137851905Y-31577419D02*
X137851905Y-30577419D01*
X137851905Y-30577419D02*
X138232857Y-30577419D01*
X138232857Y-30577419D02*
X138328095Y-30625038D01*
X138328095Y-30625038D02*
X138375714Y-30672657D01*
X138375714Y-30672657D02*
X138423333Y-30767895D01*
X138423333Y-30767895D02*
X138423333Y-30910752D01*
X138423333Y-30910752D02*
X138375714Y-31005990D01*
X138375714Y-31005990D02*
X138328095Y-31053609D01*
X138328095Y-31053609D02*
X138232857Y-31101228D01*
X138232857Y-31101228D02*
X137851905Y-31101228D01*
X139375714Y-31577419D02*
X138804286Y-31577419D01*
X139090000Y-31577419D02*
X139090000Y-30577419D01*
X139090000Y-30577419D02*
X138994762Y-30720276D01*
X138994762Y-30720276D02*
X138899524Y-30815514D01*
X138899524Y-30815514D02*
X138804286Y-30863133D01*
X163063333Y-30852180D02*
X163015714Y-30899800D01*
X163015714Y-30899800D02*
X162872857Y-30947419D01*
X162872857Y-30947419D02*
X162777619Y-30947419D01*
X162777619Y-30947419D02*
X162634762Y-30899800D01*
X162634762Y-30899800D02*
X162539524Y-30804561D01*
X162539524Y-30804561D02*
X162491905Y-30709323D01*
X162491905Y-30709323D02*
X162444286Y-30518847D01*
X162444286Y-30518847D02*
X162444286Y-30375990D01*
X162444286Y-30375990D02*
X162491905Y-30185514D01*
X162491905Y-30185514D02*
X162539524Y-30090276D01*
X162539524Y-30090276D02*
X162634762Y-29995038D01*
X162634762Y-29995038D02*
X162777619Y-29947419D01*
X162777619Y-29947419D02*
X162872857Y-29947419D01*
X162872857Y-29947419D02*
X163015714Y-29995038D01*
X163015714Y-29995038D02*
X163063333Y-30042657D01*
X163539524Y-30947419D02*
X163730000Y-30947419D01*
X163730000Y-30947419D02*
X163825238Y-30899800D01*
X163825238Y-30899800D02*
X163872857Y-30852180D01*
X163872857Y-30852180D02*
X163968095Y-30709323D01*
X163968095Y-30709323D02*
X164015714Y-30518847D01*
X164015714Y-30518847D02*
X164015714Y-30137895D01*
X164015714Y-30137895D02*
X163968095Y-30042657D01*
X163968095Y-30042657D02*
X163920476Y-29995038D01*
X163920476Y-29995038D02*
X163825238Y-29947419D01*
X163825238Y-29947419D02*
X163634762Y-29947419D01*
X163634762Y-29947419D02*
X163539524Y-29995038D01*
X163539524Y-29995038D02*
X163491905Y-30042657D01*
X163491905Y-30042657D02*
X163444286Y-30137895D01*
X163444286Y-30137895D02*
X163444286Y-30375990D01*
X163444286Y-30375990D02*
X163491905Y-30471228D01*
X163491905Y-30471228D02*
X163539524Y-30518847D01*
X163539524Y-30518847D02*
X163634762Y-30566466D01*
X163634762Y-30566466D02*
X163825238Y-30566466D01*
X163825238Y-30566466D02*
X163920476Y-30518847D01*
X163920476Y-30518847D02*
X163968095Y-30471228D01*
X163968095Y-30471228D02*
X164015714Y-30375990D01*
X187285333Y-26016180D02*
X187237714Y-26063800D01*
X187237714Y-26063800D02*
X187094857Y-26111419D01*
X187094857Y-26111419D02*
X186999619Y-26111419D01*
X186999619Y-26111419D02*
X186856762Y-26063800D01*
X186856762Y-26063800D02*
X186761524Y-25968561D01*
X186761524Y-25968561D02*
X186713905Y-25873323D01*
X186713905Y-25873323D02*
X186666286Y-25682847D01*
X186666286Y-25682847D02*
X186666286Y-25539990D01*
X186666286Y-25539990D02*
X186713905Y-25349514D01*
X186713905Y-25349514D02*
X186761524Y-25254276D01*
X186761524Y-25254276D02*
X186856762Y-25159038D01*
X186856762Y-25159038D02*
X186999619Y-25111419D01*
X186999619Y-25111419D02*
X187094857Y-25111419D01*
X187094857Y-25111419D02*
X187237714Y-25159038D01*
X187237714Y-25159038D02*
X187285333Y-25206657D01*
X187618667Y-25111419D02*
X188237714Y-25111419D01*
X188237714Y-25111419D02*
X187904381Y-25492371D01*
X187904381Y-25492371D02*
X188047238Y-25492371D01*
X188047238Y-25492371D02*
X188142476Y-25539990D01*
X188142476Y-25539990D02*
X188190095Y-25587609D01*
X188190095Y-25587609D02*
X188237714Y-25682847D01*
X188237714Y-25682847D02*
X188237714Y-25920942D01*
X188237714Y-25920942D02*
X188190095Y-26016180D01*
X188190095Y-26016180D02*
X188142476Y-26063800D01*
X188142476Y-26063800D02*
X188047238Y-26111419D01*
X188047238Y-26111419D02*
X187761524Y-26111419D01*
X187761524Y-26111419D02*
X187666286Y-26063800D01*
X187666286Y-26063800D02*
X187618667Y-26016180D01*
X182689619Y-42875419D02*
X182689619Y-41875419D01*
X183689618Y-42875419D02*
X183118190Y-42875419D01*
X183403904Y-42875419D02*
X183403904Y-41875419D01*
X183403904Y-41875419D02*
X183308666Y-42018276D01*
X183308666Y-42018276D02*
X183213428Y-42113514D01*
X183213428Y-42113514D02*
X183118190Y-42161133D01*
X184546761Y-41875419D02*
X184356285Y-41875419D01*
X184356285Y-41875419D02*
X184261047Y-41923038D01*
X184261047Y-41923038D02*
X184213428Y-41970657D01*
X184213428Y-41970657D02*
X184118190Y-42113514D01*
X184118190Y-42113514D02*
X184070571Y-42303990D01*
X184070571Y-42303990D02*
X184070571Y-42684942D01*
X184070571Y-42684942D02*
X184118190Y-42780180D01*
X184118190Y-42780180D02*
X184165809Y-42827800D01*
X184165809Y-42827800D02*
X184261047Y-42875419D01*
X184261047Y-42875419D02*
X184451523Y-42875419D01*
X184451523Y-42875419D02*
X184546761Y-42827800D01*
X184546761Y-42827800D02*
X184594380Y-42780180D01*
X184594380Y-42780180D02*
X184641999Y-42684942D01*
X184641999Y-42684942D02*
X184641999Y-42446847D01*
X184641999Y-42446847D02*
X184594380Y-42351609D01*
X184594380Y-42351609D02*
X184546761Y-42303990D01*
X184546761Y-42303990D02*
X184451523Y-42256371D01*
X184451523Y-42256371D02*
X184261047Y-42256371D01*
X184261047Y-42256371D02*
X184165809Y-42303990D01*
X184165809Y-42303990D02*
X184118190Y-42351609D01*
X184118190Y-42351609D02*
X184070571Y-42446847D01*
X183959619Y-24841419D02*
X183959619Y-23841419D01*
X184388190Y-23936657D02*
X184435809Y-23889038D01*
X184435809Y-23889038D02*
X184531047Y-23841419D01*
X184531047Y-23841419D02*
X184769142Y-23841419D01*
X184769142Y-23841419D02*
X184864380Y-23889038D01*
X184864380Y-23889038D02*
X184911999Y-23936657D01*
X184911999Y-23936657D02*
X184959618Y-24031895D01*
X184959618Y-24031895D02*
X184959618Y-24127133D01*
X184959618Y-24127133D02*
X184911999Y-24269990D01*
X184911999Y-24269990D02*
X184340571Y-24841419D01*
X184340571Y-24841419D02*
X184959618Y-24841419D01*
X185340571Y-23936657D02*
X185388190Y-23889038D01*
X185388190Y-23889038D02*
X185483428Y-23841419D01*
X185483428Y-23841419D02*
X185721523Y-23841419D01*
X185721523Y-23841419D02*
X185816761Y-23889038D01*
X185816761Y-23889038D02*
X185864380Y-23936657D01*
X185864380Y-23936657D02*
X185911999Y-24031895D01*
X185911999Y-24031895D02*
X185911999Y-24127133D01*
X185911999Y-24127133D02*
X185864380Y-24269990D01*
X185864380Y-24269990D02*
X185292952Y-24841419D01*
X185292952Y-24841419D02*
X185911999Y-24841419D01*
X151220095Y-27143419D02*
X151220095Y-27952942D01*
X151220095Y-27952942D02*
X151267714Y-28048180D01*
X151267714Y-28048180D02*
X151315333Y-28095800D01*
X151315333Y-28095800D02*
X151410571Y-28143419D01*
X151410571Y-28143419D02*
X151601047Y-28143419D01*
X151601047Y-28143419D02*
X151696285Y-28095800D01*
X151696285Y-28095800D02*
X151743904Y-28048180D01*
X151743904Y-28048180D02*
X151791523Y-27952942D01*
X151791523Y-27952942D02*
X151791523Y-27143419D01*
X152220095Y-27238657D02*
X152267714Y-27191038D01*
X152267714Y-27191038D02*
X152362952Y-27143419D01*
X152362952Y-27143419D02*
X152601047Y-27143419D01*
X152601047Y-27143419D02*
X152696285Y-27191038D01*
X152696285Y-27191038D02*
X152743904Y-27238657D01*
X152743904Y-27238657D02*
X152791523Y-27333895D01*
X152791523Y-27333895D02*
X152791523Y-27429133D01*
X152791523Y-27429133D02*
X152743904Y-27571990D01*
X152743904Y-27571990D02*
X152172476Y-28143419D01*
X152172476Y-28143419D02*
X152791523Y-28143419D01*
D11*
X142421905Y-42964819D02*
X142421905Y-43774342D01*
X142421905Y-43774342D02*
X142469524Y-43869580D01*
X142469524Y-43869580D02*
X142517143Y-43917200D01*
X142517143Y-43917200D02*
X142612381Y-43964819D01*
X142612381Y-43964819D02*
X142802857Y-43964819D01*
X142802857Y-43964819D02*
X142898095Y-43917200D01*
X142898095Y-43917200D02*
X142945714Y-43869580D01*
X142945714Y-43869580D02*
X142993333Y-43774342D01*
X142993333Y-43774342D02*
X142993333Y-42964819D01*
X143421905Y-43917200D02*
X143564762Y-43964819D01*
X143564762Y-43964819D02*
X143802857Y-43964819D01*
X143802857Y-43964819D02*
X143898095Y-43917200D01*
X143898095Y-43917200D02*
X143945714Y-43869580D01*
X143945714Y-43869580D02*
X143993333Y-43774342D01*
X143993333Y-43774342D02*
X143993333Y-43679104D01*
X143993333Y-43679104D02*
X143945714Y-43583866D01*
X143945714Y-43583866D02*
X143898095Y-43536247D01*
X143898095Y-43536247D02*
X143802857Y-43488628D01*
X143802857Y-43488628D02*
X143612381Y-43441009D01*
X143612381Y-43441009D02*
X143517143Y-43393390D01*
X143517143Y-43393390D02*
X143469524Y-43345771D01*
X143469524Y-43345771D02*
X143421905Y-43250533D01*
X143421905Y-43250533D02*
X143421905Y-43155295D01*
X143421905Y-43155295D02*
X143469524Y-43060057D01*
X143469524Y-43060057D02*
X143517143Y-43012438D01*
X143517143Y-43012438D02*
X143612381Y-42964819D01*
X143612381Y-42964819D02*
X143850476Y-42964819D01*
X143850476Y-42964819D02*
X143993333Y-43012438D01*
X144755238Y-43441009D02*
X144898095Y-43488628D01*
X144898095Y-43488628D02*
X144945714Y-43536247D01*
X144945714Y-43536247D02*
X144993333Y-43631485D01*
X144993333Y-43631485D02*
X144993333Y-43774342D01*
X144993333Y-43774342D02*
X144945714Y-43869580D01*
X144945714Y-43869580D02*
X144898095Y-43917200D01*
X144898095Y-43917200D02*
X144802857Y-43964819D01*
X144802857Y-43964819D02*
X144421905Y-43964819D01*
X144421905Y-43964819D02*
X144421905Y-42964819D01*
X144421905Y-42964819D02*
X144755238Y-42964819D01*
X144755238Y-42964819D02*
X144850476Y-43012438D01*
X144850476Y-43012438D02*
X144898095Y-43060057D01*
X144898095Y-43060057D02*
X144945714Y-43155295D01*
X144945714Y-43155295D02*
X144945714Y-43250533D01*
X144945714Y-43250533D02*
X144898095Y-43345771D01*
X144898095Y-43345771D02*
X144850476Y-43393390D01*
X144850476Y-43393390D02*
X144755238Y-43441009D01*
X144755238Y-43441009D02*
X144421905Y-43441009D01*
X145945714Y-43964819D02*
X145374286Y-43964819D01*
X145660000Y-43964819D02*
X145660000Y-42964819D01*
X145660000Y-42964819D02*
X145564762Y-43107676D01*
X145564762Y-43107676D02*
X145469524Y-43202914D01*
X145469524Y-43202914D02*
X145374286Y-43250533D01*
D10*
X163083333Y-28232180D02*
X163035714Y-28279800D01*
X163035714Y-28279800D02*
X162892857Y-28327419D01*
X162892857Y-28327419D02*
X162797619Y-28327419D01*
X162797619Y-28327419D02*
X162654762Y-28279800D01*
X162654762Y-28279800D02*
X162559524Y-28184561D01*
X162559524Y-28184561D02*
X162511905Y-28089323D01*
X162511905Y-28089323D02*
X162464286Y-27898847D01*
X162464286Y-27898847D02*
X162464286Y-27755990D01*
X162464286Y-27755990D02*
X162511905Y-27565514D01*
X162511905Y-27565514D02*
X162559524Y-27470276D01*
X162559524Y-27470276D02*
X162654762Y-27375038D01*
X162654762Y-27375038D02*
X162797619Y-27327419D01*
X162797619Y-27327419D02*
X162892857Y-27327419D01*
X162892857Y-27327419D02*
X163035714Y-27375038D01*
X163035714Y-27375038D02*
X163083333Y-27422657D01*
X164035714Y-28327419D02*
X163464286Y-28327419D01*
X163750000Y-28327419D02*
X163750000Y-27327419D01*
X163750000Y-27327419D02*
X163654762Y-27470276D01*
X163654762Y-27470276D02*
X163559524Y-27565514D01*
X163559524Y-27565514D02*
X163464286Y-27613133D01*
D11*
X169348095Y-27954819D02*
X169348095Y-28764342D01*
X169348095Y-28764342D02*
X169395714Y-28859580D01*
X169395714Y-28859580D02*
X169443333Y-28907200D01*
X169443333Y-28907200D02*
X169538571Y-28954819D01*
X169538571Y-28954819D02*
X169729047Y-28954819D01*
X169729047Y-28954819D02*
X169824285Y-28907200D01*
X169824285Y-28907200D02*
X169871904Y-28859580D01*
X169871904Y-28859580D02*
X169919523Y-28764342D01*
X169919523Y-28764342D02*
X169919523Y-27954819D01*
X170919523Y-28954819D02*
X170348095Y-28954819D01*
X170633809Y-28954819D02*
X170633809Y-27954819D01*
X170633809Y-27954819D02*
X170538571Y-28097676D01*
X170538571Y-28097676D02*
X170443333Y-28192914D01*
X170443333Y-28192914D02*
X170348095Y-28240533D01*
X165296094Y-21099104D02*
X165772284Y-21099104D01*
X165200856Y-21384819D02*
X165534189Y-20384819D01*
X165534189Y-20384819D02*
X165867522Y-21384819D01*
X166200856Y-20718152D02*
X166200856Y-21384819D01*
X166200856Y-20813390D02*
X166248475Y-20765771D01*
X166248475Y-20765771D02*
X166343713Y-20718152D01*
X166343713Y-20718152D02*
X166486570Y-20718152D01*
X166486570Y-20718152D02*
X166581808Y-20765771D01*
X166581808Y-20765771D02*
X166629427Y-20861009D01*
X166629427Y-20861009D02*
X166629427Y-21384819D01*
X166962761Y-20718152D02*
X167343713Y-20718152D01*
X167105618Y-20384819D02*
X167105618Y-21241961D01*
X167105618Y-21241961D02*
X167153237Y-21337200D01*
X167153237Y-21337200D02*
X167248475Y-21384819D01*
X167248475Y-21384819D02*
X167343713Y-21384819D01*
X168057999Y-21337200D02*
X167962761Y-21384819D01*
X167962761Y-21384819D02*
X167772285Y-21384819D01*
X167772285Y-21384819D02*
X167677047Y-21337200D01*
X167677047Y-21337200D02*
X167629428Y-21241961D01*
X167629428Y-21241961D02*
X167629428Y-20861009D01*
X167629428Y-20861009D02*
X167677047Y-20765771D01*
X167677047Y-20765771D02*
X167772285Y-20718152D01*
X167772285Y-20718152D02*
X167962761Y-20718152D01*
X167962761Y-20718152D02*
X168057999Y-20765771D01*
X168057999Y-20765771D02*
X168105618Y-20861009D01*
X168105618Y-20861009D02*
X168105618Y-20956247D01*
X168105618Y-20956247D02*
X167629428Y-21051485D01*
X168534190Y-20718152D02*
X168534190Y-21384819D01*
X168534190Y-20813390D02*
X168581809Y-20765771D01*
X168581809Y-20765771D02*
X168677047Y-20718152D01*
X168677047Y-20718152D02*
X168819904Y-20718152D01*
X168819904Y-20718152D02*
X168915142Y-20765771D01*
X168915142Y-20765771D02*
X168962761Y-20861009D01*
X168962761Y-20861009D02*
X168962761Y-21384819D01*
X169438952Y-20718152D02*
X169438952Y-21384819D01*
X169438952Y-20813390D02*
X169486571Y-20765771D01*
X169486571Y-20765771D02*
X169581809Y-20718152D01*
X169581809Y-20718152D02*
X169724666Y-20718152D01*
X169724666Y-20718152D02*
X169819904Y-20765771D01*
X169819904Y-20765771D02*
X169867523Y-20861009D01*
X169867523Y-20861009D02*
X169867523Y-21384819D01*
X170772285Y-21384819D02*
X170772285Y-20861009D01*
X170772285Y-20861009D02*
X170724666Y-20765771D01*
X170724666Y-20765771D02*
X170629428Y-20718152D01*
X170629428Y-20718152D02*
X170438952Y-20718152D01*
X170438952Y-20718152D02*
X170343714Y-20765771D01*
X170772285Y-21337200D02*
X170677047Y-21384819D01*
X170677047Y-21384819D02*
X170438952Y-21384819D01*
X170438952Y-21384819D02*
X170343714Y-21337200D01*
X170343714Y-21337200D02*
X170296095Y-21241961D01*
X170296095Y-21241961D02*
X170296095Y-21146723D01*
X170296095Y-21146723D02*
X170343714Y-21051485D01*
X170343714Y-21051485D02*
X170438952Y-21003866D01*
X170438952Y-21003866D02*
X170677047Y-21003866D01*
X170677047Y-21003866D02*
X170772285Y-20956247D01*
X171962762Y-21099104D02*
X172438952Y-21099104D01*
X171867524Y-21384819D02*
X172200857Y-20384819D01*
X172200857Y-20384819D02*
X172534190Y-21384819D01*
X172867524Y-21384819D02*
X172867524Y-20718152D01*
X172867524Y-20908628D02*
X172915143Y-20813390D01*
X172915143Y-20813390D02*
X172962762Y-20765771D01*
X172962762Y-20765771D02*
X173058000Y-20718152D01*
X173058000Y-20718152D02*
X173153238Y-20718152D01*
X173867524Y-21337200D02*
X173772286Y-21384819D01*
X173772286Y-21384819D02*
X173581810Y-21384819D01*
X173581810Y-21384819D02*
X173486572Y-21337200D01*
X173486572Y-21337200D02*
X173438953Y-21241961D01*
X173438953Y-21241961D02*
X173438953Y-20861009D01*
X173438953Y-20861009D02*
X173486572Y-20765771D01*
X173486572Y-20765771D02*
X173581810Y-20718152D01*
X173581810Y-20718152D02*
X173772286Y-20718152D01*
X173772286Y-20718152D02*
X173867524Y-20765771D01*
X173867524Y-20765771D02*
X173915143Y-20861009D01*
X173915143Y-20861009D02*
X173915143Y-20956247D01*
X173915143Y-20956247D02*
X173438953Y-21051485D01*
X174772286Y-21384819D02*
X174772286Y-20861009D01*
X174772286Y-20861009D02*
X174724667Y-20765771D01*
X174724667Y-20765771D02*
X174629429Y-20718152D01*
X174629429Y-20718152D02*
X174438953Y-20718152D01*
X174438953Y-20718152D02*
X174343715Y-20765771D01*
X174772286Y-21337200D02*
X174677048Y-21384819D01*
X174677048Y-21384819D02*
X174438953Y-21384819D01*
X174438953Y-21384819D02*
X174343715Y-21337200D01*
X174343715Y-21337200D02*
X174296096Y-21241961D01*
X174296096Y-21241961D02*
X174296096Y-21146723D01*
X174296096Y-21146723D02*
X174343715Y-21051485D01*
X174343715Y-21051485D02*
X174438953Y-21003866D01*
X174438953Y-21003866D02*
X174677048Y-21003866D01*
X174677048Y-21003866D02*
X174772286Y-20956247D01*
D10*
X148603333Y-37302180D02*
X148555714Y-37349800D01*
X148555714Y-37349800D02*
X148412857Y-37397419D01*
X148412857Y-37397419D02*
X148317619Y-37397419D01*
X148317619Y-37397419D02*
X148174762Y-37349800D01*
X148174762Y-37349800D02*
X148079524Y-37254561D01*
X148079524Y-37254561D02*
X148031905Y-37159323D01*
X148031905Y-37159323D02*
X147984286Y-36968847D01*
X147984286Y-36968847D02*
X147984286Y-36825990D01*
X147984286Y-36825990D02*
X148031905Y-36635514D01*
X148031905Y-36635514D02*
X148079524Y-36540276D01*
X148079524Y-36540276D02*
X148174762Y-36445038D01*
X148174762Y-36445038D02*
X148317619Y-36397419D01*
X148317619Y-36397419D02*
X148412857Y-36397419D01*
X148412857Y-36397419D02*
X148555714Y-36445038D01*
X148555714Y-36445038D02*
X148603333Y-36492657D01*
X149174762Y-36825990D02*
X149079524Y-36778371D01*
X149079524Y-36778371D02*
X149031905Y-36730752D01*
X149031905Y-36730752D02*
X148984286Y-36635514D01*
X148984286Y-36635514D02*
X148984286Y-36587895D01*
X148984286Y-36587895D02*
X149031905Y-36492657D01*
X149031905Y-36492657D02*
X149079524Y-36445038D01*
X149079524Y-36445038D02*
X149174762Y-36397419D01*
X149174762Y-36397419D02*
X149365238Y-36397419D01*
X149365238Y-36397419D02*
X149460476Y-36445038D01*
X149460476Y-36445038D02*
X149508095Y-36492657D01*
X149508095Y-36492657D02*
X149555714Y-36587895D01*
X149555714Y-36587895D02*
X149555714Y-36635514D01*
X149555714Y-36635514D02*
X149508095Y-36730752D01*
X149508095Y-36730752D02*
X149460476Y-36778371D01*
X149460476Y-36778371D02*
X149365238Y-36825990D01*
X149365238Y-36825990D02*
X149174762Y-36825990D01*
X149174762Y-36825990D02*
X149079524Y-36873609D01*
X149079524Y-36873609D02*
X149031905Y-36921228D01*
X149031905Y-36921228D02*
X148984286Y-37016466D01*
X148984286Y-37016466D02*
X148984286Y-37206942D01*
X148984286Y-37206942D02*
X149031905Y-37302180D01*
X149031905Y-37302180D02*
X149079524Y-37349800D01*
X149079524Y-37349800D02*
X149174762Y-37397419D01*
X149174762Y-37397419D02*
X149365238Y-37397419D01*
X149365238Y-37397419D02*
X149460476Y-37349800D01*
X149460476Y-37349800D02*
X149508095Y-37302180D01*
X149508095Y-37302180D02*
X149555714Y-37206942D01*
X149555714Y-37206942D02*
X149555714Y-37016466D01*
X149555714Y-37016466D02*
X149508095Y-36921228D01*
X149508095Y-36921228D02*
X149460476Y-36873609D01*
X149460476Y-36873609D02*
X149365238Y-36825990D01*
D11*
X193567142Y-32999580D02*
X193519523Y-33047200D01*
X193519523Y-33047200D02*
X193376666Y-33094819D01*
X193376666Y-33094819D02*
X193281428Y-33094819D01*
X193281428Y-33094819D02*
X193138571Y-33047200D01*
X193138571Y-33047200D02*
X193043333Y-32951961D01*
X193043333Y-32951961D02*
X192995714Y-32856723D01*
X192995714Y-32856723D02*
X192948095Y-32666247D01*
X192948095Y-32666247D02*
X192948095Y-32523390D01*
X192948095Y-32523390D02*
X192995714Y-32332914D01*
X192995714Y-32332914D02*
X193043333Y-32237676D01*
X193043333Y-32237676D02*
X193138571Y-32142438D01*
X193138571Y-32142438D02*
X193281428Y-32094819D01*
X193281428Y-32094819D02*
X193376666Y-32094819D01*
X193376666Y-32094819D02*
X193519523Y-32142438D01*
X193519523Y-32142438D02*
X193567142Y-32190057D01*
X194519523Y-33094819D02*
X193948095Y-33094819D01*
X194233809Y-33094819D02*
X194233809Y-32094819D01*
X194233809Y-32094819D02*
X194138571Y-32237676D01*
X194138571Y-32237676D02*
X194043333Y-32332914D01*
X194043333Y-32332914D02*
X193948095Y-32380533D01*
X195471904Y-33094819D02*
X194900476Y-33094819D01*
X195186190Y-33094819D02*
X195186190Y-32094819D01*
X195186190Y-32094819D02*
X195090952Y-32237676D01*
X195090952Y-32237676D02*
X194995714Y-32332914D01*
X194995714Y-32332914D02*
X194900476Y-32380533D01*
D10*
X182689619Y-40081419D02*
X182689619Y-39081419D01*
X183689618Y-40081419D02*
X183118190Y-40081419D01*
X183403904Y-40081419D02*
X183403904Y-39081419D01*
X183403904Y-39081419D02*
X183308666Y-39224276D01*
X183308666Y-39224276D02*
X183213428Y-39319514D01*
X183213428Y-39319514D02*
X183118190Y-39367133D01*
X184261047Y-39509990D02*
X184165809Y-39462371D01*
X184165809Y-39462371D02*
X184118190Y-39414752D01*
X184118190Y-39414752D02*
X184070571Y-39319514D01*
X184070571Y-39319514D02*
X184070571Y-39271895D01*
X184070571Y-39271895D02*
X184118190Y-39176657D01*
X184118190Y-39176657D02*
X184165809Y-39129038D01*
X184165809Y-39129038D02*
X184261047Y-39081419D01*
X184261047Y-39081419D02*
X184451523Y-39081419D01*
X184451523Y-39081419D02*
X184546761Y-39129038D01*
X184546761Y-39129038D02*
X184594380Y-39176657D01*
X184594380Y-39176657D02*
X184641999Y-39271895D01*
X184641999Y-39271895D02*
X184641999Y-39319514D01*
X184641999Y-39319514D02*
X184594380Y-39414752D01*
X184594380Y-39414752D02*
X184546761Y-39462371D01*
X184546761Y-39462371D02*
X184451523Y-39509990D01*
X184451523Y-39509990D02*
X184261047Y-39509990D01*
X184261047Y-39509990D02*
X184165809Y-39557609D01*
X184165809Y-39557609D02*
X184118190Y-39605228D01*
X184118190Y-39605228D02*
X184070571Y-39700466D01*
X184070571Y-39700466D02*
X184070571Y-39890942D01*
X184070571Y-39890942D02*
X184118190Y-39986180D01*
X184118190Y-39986180D02*
X184165809Y-40033800D01*
X184165809Y-40033800D02*
X184261047Y-40081419D01*
X184261047Y-40081419D02*
X184451523Y-40081419D01*
X184451523Y-40081419D02*
X184546761Y-40033800D01*
X184546761Y-40033800D02*
X184594380Y-39986180D01*
X184594380Y-39986180D02*
X184641999Y-39890942D01*
X184641999Y-39890942D02*
X184641999Y-39700466D01*
X184641999Y-39700466D02*
X184594380Y-39605228D01*
X184594380Y-39605228D02*
X184546761Y-39557609D01*
X184546761Y-39557609D02*
X184451523Y-39509990D01*
D11*
X198325523Y-42623580D02*
X198277904Y-42671200D01*
X198277904Y-42671200D02*
X198135047Y-42718819D01*
X198135047Y-42718819D02*
X198039809Y-42718819D01*
X198039809Y-42718819D02*
X197896952Y-42671200D01*
X197896952Y-42671200D02*
X197801714Y-42575961D01*
X197801714Y-42575961D02*
X197754095Y-42480723D01*
X197754095Y-42480723D02*
X197706476Y-42290247D01*
X197706476Y-42290247D02*
X197706476Y-42147390D01*
X197706476Y-42147390D02*
X197754095Y-41956914D01*
X197754095Y-41956914D02*
X197801714Y-41861676D01*
X197801714Y-41861676D02*
X197896952Y-41766438D01*
X197896952Y-41766438D02*
X198039809Y-41718819D01*
X198039809Y-41718819D02*
X198135047Y-41718819D01*
X198135047Y-41718819D02*
X198277904Y-41766438D01*
X198277904Y-41766438D02*
X198325523Y-41814057D01*
X198754095Y-42718819D02*
X198754095Y-41718819D01*
X198754095Y-41718819D02*
X199325523Y-42718819D01*
X199325523Y-42718819D02*
X199325523Y-41718819D01*
X200325523Y-42718819D02*
X199754095Y-42718819D01*
X200039809Y-42718819D02*
X200039809Y-41718819D01*
X200039809Y-41718819D02*
X199944571Y-41861676D01*
X199944571Y-41861676D02*
X199849333Y-41956914D01*
X199849333Y-41956914D02*
X199754095Y-42004533D01*
D10*
X163053333Y-29727419D02*
X162720000Y-29251228D01*
X162481905Y-29727419D02*
X162481905Y-28727419D01*
X162481905Y-28727419D02*
X162862857Y-28727419D01*
X162862857Y-28727419D02*
X162958095Y-28775038D01*
X162958095Y-28775038D02*
X163005714Y-28822657D01*
X163005714Y-28822657D02*
X163053333Y-28917895D01*
X163053333Y-28917895D02*
X163053333Y-29060752D01*
X163053333Y-29060752D02*
X163005714Y-29155990D01*
X163005714Y-29155990D02*
X162958095Y-29203609D01*
X162958095Y-29203609D02*
X162862857Y-29251228D01*
X162862857Y-29251228D02*
X162481905Y-29251228D01*
X163434286Y-28822657D02*
X163481905Y-28775038D01*
X163481905Y-28775038D02*
X163577143Y-28727419D01*
X163577143Y-28727419D02*
X163815238Y-28727419D01*
X163815238Y-28727419D02*
X163910476Y-28775038D01*
X163910476Y-28775038D02*
X163958095Y-28822657D01*
X163958095Y-28822657D02*
X164005714Y-28917895D01*
X164005714Y-28917895D02*
X164005714Y-29013133D01*
X164005714Y-29013133D02*
X163958095Y-29155990D01*
X163958095Y-29155990D02*
X163386667Y-29727419D01*
X163386667Y-29727419D02*
X164005714Y-29727419D01*
D11*
X142603333Y-34084819D02*
X142270000Y-33608628D01*
X142031905Y-34084819D02*
X142031905Y-33084819D01*
X142031905Y-33084819D02*
X142412857Y-33084819D01*
X142412857Y-33084819D02*
X142508095Y-33132438D01*
X142508095Y-33132438D02*
X142555714Y-33180057D01*
X142555714Y-33180057D02*
X142603333Y-33275295D01*
X142603333Y-33275295D02*
X142603333Y-33418152D01*
X142603333Y-33418152D02*
X142555714Y-33513390D01*
X142555714Y-33513390D02*
X142508095Y-33561009D01*
X142508095Y-33561009D02*
X142412857Y-33608628D01*
X142412857Y-33608628D02*
X142031905Y-33608628D01*
X143460476Y-33418152D02*
X143460476Y-34084819D01*
X143222381Y-33037200D02*
X142984286Y-33751485D01*
X142984286Y-33751485D02*
X143603333Y-33751485D01*
D10*
X146366666Y-35307609D02*
X146033333Y-35307609D01*
X146033333Y-35831419D02*
X146033333Y-34831419D01*
X146033333Y-34831419D02*
X146509523Y-34831419D01*
X147223809Y-35307609D02*
X147366666Y-35355228D01*
X147366666Y-35355228D02*
X147414285Y-35402847D01*
X147414285Y-35402847D02*
X147461904Y-35498085D01*
X147461904Y-35498085D02*
X147461904Y-35640942D01*
X147461904Y-35640942D02*
X147414285Y-35736180D01*
X147414285Y-35736180D02*
X147366666Y-35783800D01*
X147366666Y-35783800D02*
X147271428Y-35831419D01*
X147271428Y-35831419D02*
X146890476Y-35831419D01*
X146890476Y-35831419D02*
X146890476Y-34831419D01*
X146890476Y-34831419D02*
X147223809Y-34831419D01*
X147223809Y-34831419D02*
X147319047Y-34879038D01*
X147319047Y-34879038D02*
X147366666Y-34926657D01*
X147366666Y-34926657D02*
X147414285Y-35021895D01*
X147414285Y-35021895D02*
X147414285Y-35117133D01*
X147414285Y-35117133D02*
X147366666Y-35212371D01*
X147366666Y-35212371D02*
X147319047Y-35259990D01*
X147319047Y-35259990D02*
X147223809Y-35307609D01*
X147223809Y-35307609D02*
X146890476Y-35307609D01*
X147842857Y-34926657D02*
X147890476Y-34879038D01*
X147890476Y-34879038D02*
X147985714Y-34831419D01*
X147985714Y-34831419D02*
X148223809Y-34831419D01*
X148223809Y-34831419D02*
X148319047Y-34879038D01*
X148319047Y-34879038D02*
X148366666Y-34926657D01*
X148366666Y-34926657D02*
X148414285Y-35021895D01*
X148414285Y-35021895D02*
X148414285Y-35117133D01*
X148414285Y-35117133D02*
X148366666Y-35259990D01*
X148366666Y-35259990D02*
X147795238Y-35831419D01*
X147795238Y-35831419D02*
X148414285Y-35831419D01*
X154028095Y-39867419D02*
X154028095Y-38867419D01*
X154028095Y-38867419D02*
X154599523Y-39867419D01*
X154599523Y-39867419D02*
X154599523Y-38867419D01*
X155599523Y-39867419D02*
X155028095Y-39867419D01*
X155313809Y-39867419D02*
X155313809Y-38867419D01*
X155313809Y-38867419D02*
X155218571Y-39010276D01*
X155218571Y-39010276D02*
X155123333Y-39105514D01*
X155123333Y-39105514D02*
X155028095Y-39153133D01*
X163013333Y-27032180D02*
X162965714Y-27079800D01*
X162965714Y-27079800D02*
X162822857Y-27127419D01*
X162822857Y-27127419D02*
X162727619Y-27127419D01*
X162727619Y-27127419D02*
X162584762Y-27079800D01*
X162584762Y-27079800D02*
X162489524Y-26984561D01*
X162489524Y-26984561D02*
X162441905Y-26889323D01*
X162441905Y-26889323D02*
X162394286Y-26698847D01*
X162394286Y-26698847D02*
X162394286Y-26555990D01*
X162394286Y-26555990D02*
X162441905Y-26365514D01*
X162441905Y-26365514D02*
X162489524Y-26270276D01*
X162489524Y-26270276D02*
X162584762Y-26175038D01*
X162584762Y-26175038D02*
X162727619Y-26127419D01*
X162727619Y-26127419D02*
X162822857Y-26127419D01*
X162822857Y-26127419D02*
X162965714Y-26175038D01*
X162965714Y-26175038D02*
X163013333Y-26222657D01*
X163394286Y-26222657D02*
X163441905Y-26175038D01*
X163441905Y-26175038D02*
X163537143Y-26127419D01*
X163537143Y-26127419D02*
X163775238Y-26127419D01*
X163775238Y-26127419D02*
X163870476Y-26175038D01*
X163870476Y-26175038D02*
X163918095Y-26222657D01*
X163918095Y-26222657D02*
X163965714Y-26317895D01*
X163965714Y-26317895D02*
X163965714Y-26413133D01*
X163965714Y-26413133D02*
X163918095Y-26555990D01*
X163918095Y-26555990D02*
X163346667Y-27127419D01*
X163346667Y-27127419D02*
X163965714Y-27127419D01*
X148542476Y-24095419D02*
X148875809Y-25095419D01*
X148875809Y-25095419D02*
X149209142Y-24095419D01*
X149447238Y-24095419D02*
X150066285Y-24095419D01*
X150066285Y-24095419D02*
X149732952Y-24476371D01*
X149732952Y-24476371D02*
X149875809Y-24476371D01*
X149875809Y-24476371D02*
X149971047Y-24523990D01*
X149971047Y-24523990D02*
X150018666Y-24571609D01*
X150018666Y-24571609D02*
X150066285Y-24666847D01*
X150066285Y-24666847D02*
X150066285Y-24904942D01*
X150066285Y-24904942D02*
X150018666Y-25000180D01*
X150018666Y-25000180D02*
X149971047Y-25047800D01*
X149971047Y-25047800D02*
X149875809Y-25095419D01*
X149875809Y-25095419D02*
X149590095Y-25095419D01*
X149590095Y-25095419D02*
X149494857Y-25047800D01*
X149494857Y-25047800D02*
X149447238Y-25000180D01*
D11*
X189826095Y-38912819D02*
X189826095Y-37912819D01*
X189826095Y-38389009D02*
X190397523Y-38389009D01*
X190397523Y-38912819D02*
X190397523Y-37912819D01*
X190826095Y-38008057D02*
X190873714Y-37960438D01*
X190873714Y-37960438D02*
X190968952Y-37912819D01*
X190968952Y-37912819D02*
X191207047Y-37912819D01*
X191207047Y-37912819D02*
X191302285Y-37960438D01*
X191302285Y-37960438D02*
X191349904Y-38008057D01*
X191349904Y-38008057D02*
X191397523Y-38103295D01*
X191397523Y-38103295D02*
X191397523Y-38198533D01*
X191397523Y-38198533D02*
X191349904Y-38341390D01*
X191349904Y-38341390D02*
X190778476Y-38912819D01*
X190778476Y-38912819D02*
X191397523Y-38912819D01*
D10*
X148563333Y-38572180D02*
X148515714Y-38619800D01*
X148515714Y-38619800D02*
X148372857Y-38667419D01*
X148372857Y-38667419D02*
X148277619Y-38667419D01*
X148277619Y-38667419D02*
X148134762Y-38619800D01*
X148134762Y-38619800D02*
X148039524Y-38524561D01*
X148039524Y-38524561D02*
X147991905Y-38429323D01*
X147991905Y-38429323D02*
X147944286Y-38238847D01*
X147944286Y-38238847D02*
X147944286Y-38095990D01*
X147944286Y-38095990D02*
X147991905Y-37905514D01*
X147991905Y-37905514D02*
X148039524Y-37810276D01*
X148039524Y-37810276D02*
X148134762Y-37715038D01*
X148134762Y-37715038D02*
X148277619Y-37667419D01*
X148277619Y-37667419D02*
X148372857Y-37667419D01*
X148372857Y-37667419D02*
X148515714Y-37715038D01*
X148515714Y-37715038D02*
X148563333Y-37762657D01*
X148896667Y-37667419D02*
X149563333Y-37667419D01*
X149563333Y-37667419D02*
X149134762Y-38667419D01*
X134790952Y-31557419D02*
X134314762Y-31557419D01*
X134314762Y-31557419D02*
X134314762Y-30557419D01*
X135124286Y-31033609D02*
X135457619Y-31033609D01*
X135600476Y-31557419D02*
X135124286Y-31557419D01*
X135124286Y-31557419D02*
X135124286Y-30557419D01*
X135124286Y-30557419D02*
X135600476Y-30557419D01*
X136029048Y-31557419D02*
X136029048Y-30557419D01*
X136029048Y-30557419D02*
X136267143Y-30557419D01*
X136267143Y-30557419D02*
X136410000Y-30605038D01*
X136410000Y-30605038D02*
X136505238Y-30700276D01*
X136505238Y-30700276D02*
X136552857Y-30795514D01*
X136552857Y-30795514D02*
X136600476Y-30985990D01*
X136600476Y-30985990D02*
X136600476Y-31128847D01*
X136600476Y-31128847D02*
X136552857Y-31319323D01*
X136552857Y-31319323D02*
X136505238Y-31414561D01*
X136505238Y-31414561D02*
X136410000Y-31509800D01*
X136410000Y-31509800D02*
X136267143Y-31557419D01*
X136267143Y-31557419D02*
X136029048Y-31557419D01*
X137552857Y-31557419D02*
X136981429Y-31557419D01*
X137267143Y-31557419D02*
X137267143Y-30557419D01*
X137267143Y-30557419D02*
X137171905Y-30700276D01*
X137171905Y-30700276D02*
X137076667Y-30795514D01*
X137076667Y-30795514D02*
X136981429Y-30843133D01*
X162608095Y-37257419D02*
X162608095Y-38066942D01*
X162608095Y-38066942D02*
X162655714Y-38162180D01*
X162655714Y-38162180D02*
X162703333Y-38209800D01*
X162703333Y-38209800D02*
X162798571Y-38257419D01*
X162798571Y-38257419D02*
X162989047Y-38257419D01*
X162989047Y-38257419D02*
X163084285Y-38209800D01*
X163084285Y-38209800D02*
X163131904Y-38162180D01*
X163131904Y-38162180D02*
X163179523Y-38066942D01*
X163179523Y-38066942D02*
X163179523Y-37257419D01*
X163560476Y-37257419D02*
X164179523Y-37257419D01*
X164179523Y-37257419D02*
X163846190Y-37638371D01*
X163846190Y-37638371D02*
X163989047Y-37638371D01*
X163989047Y-37638371D02*
X164084285Y-37685990D01*
X164084285Y-37685990D02*
X164131904Y-37733609D01*
X164131904Y-37733609D02*
X164179523Y-37828847D01*
X164179523Y-37828847D02*
X164179523Y-38066942D01*
X164179523Y-38066942D02*
X164131904Y-38162180D01*
X164131904Y-38162180D02*
X164084285Y-38209800D01*
X164084285Y-38209800D02*
X163989047Y-38257419D01*
X163989047Y-38257419D02*
X163703333Y-38257419D01*
X163703333Y-38257419D02*
X163608095Y-38209800D01*
X163608095Y-38209800D02*
X163560476Y-38162180D01*
D11*
X198016523Y-34825580D02*
X197968904Y-34873200D01*
X197968904Y-34873200D02*
X197826047Y-34920819D01*
X197826047Y-34920819D02*
X197730809Y-34920819D01*
X197730809Y-34920819D02*
X197587952Y-34873200D01*
X197587952Y-34873200D02*
X197492714Y-34777961D01*
X197492714Y-34777961D02*
X197445095Y-34682723D01*
X197445095Y-34682723D02*
X197397476Y-34492247D01*
X197397476Y-34492247D02*
X197397476Y-34349390D01*
X197397476Y-34349390D02*
X197445095Y-34158914D01*
X197445095Y-34158914D02*
X197492714Y-34063676D01*
X197492714Y-34063676D02*
X197587952Y-33968438D01*
X197587952Y-33968438D02*
X197730809Y-33920819D01*
X197730809Y-33920819D02*
X197826047Y-33920819D01*
X197826047Y-33920819D02*
X197968904Y-33968438D01*
X197968904Y-33968438D02*
X198016523Y-34016057D01*
X198445095Y-34920819D02*
X198445095Y-33920819D01*
X198445095Y-33920819D02*
X199016523Y-34920819D01*
X199016523Y-34920819D02*
X199016523Y-33920819D01*
X199921285Y-34254152D02*
X199921285Y-34920819D01*
X199683190Y-33873200D02*
X199445095Y-34587485D01*
X199445095Y-34587485D02*
X200064142Y-34587485D01*
X155590523Y-5142580D02*
X155542904Y-5190200D01*
X155542904Y-5190200D02*
X155400047Y-5237819D01*
X155400047Y-5237819D02*
X155304809Y-5237819D01*
X155304809Y-5237819D02*
X155161952Y-5190200D01*
X155161952Y-5190200D02*
X155066714Y-5094961D01*
X155066714Y-5094961D02*
X155019095Y-4999723D01*
X155019095Y-4999723D02*
X154971476Y-4809247D01*
X154971476Y-4809247D02*
X154971476Y-4666390D01*
X154971476Y-4666390D02*
X155019095Y-4475914D01*
X155019095Y-4475914D02*
X155066714Y-4380676D01*
X155066714Y-4380676D02*
X155161952Y-4285438D01*
X155161952Y-4285438D02*
X155304809Y-4237819D01*
X155304809Y-4237819D02*
X155400047Y-4237819D01*
X155400047Y-4237819D02*
X155542904Y-4285438D01*
X155542904Y-4285438D02*
X155590523Y-4333057D01*
X156019095Y-5237819D02*
X156019095Y-4237819D01*
X156019095Y-4237819D02*
X156590523Y-5237819D01*
X156590523Y-5237819D02*
X156590523Y-4237819D01*
X157542904Y-4237819D02*
X157066714Y-4237819D01*
X157066714Y-4237819D02*
X157019095Y-4714009D01*
X157019095Y-4714009D02*
X157066714Y-4666390D01*
X157066714Y-4666390D02*
X157161952Y-4618771D01*
X157161952Y-4618771D02*
X157400047Y-4618771D01*
X157400047Y-4618771D02*
X157495285Y-4666390D01*
X157495285Y-4666390D02*
X157542904Y-4714009D01*
X157542904Y-4714009D02*
X157590523Y-4809247D01*
X157590523Y-4809247D02*
X157590523Y-5047342D01*
X157590523Y-5047342D02*
X157542904Y-5142580D01*
X157542904Y-5142580D02*
X157495285Y-5190200D01*
X157495285Y-5190200D02*
X157400047Y-5237819D01*
X157400047Y-5237819D02*
X157161952Y-5237819D01*
X157161952Y-5237819D02*
X157066714Y-5190200D01*
X157066714Y-5190200D02*
X157019095Y-5142580D01*
D10*
X163173333Y-33802180D02*
X163125714Y-33849800D01*
X163125714Y-33849800D02*
X162982857Y-33897419D01*
X162982857Y-33897419D02*
X162887619Y-33897419D01*
X162887619Y-33897419D02*
X162744762Y-33849800D01*
X162744762Y-33849800D02*
X162649524Y-33754561D01*
X162649524Y-33754561D02*
X162601905Y-33659323D01*
X162601905Y-33659323D02*
X162554286Y-33468847D01*
X162554286Y-33468847D02*
X162554286Y-33325990D01*
X162554286Y-33325990D02*
X162601905Y-33135514D01*
X162601905Y-33135514D02*
X162649524Y-33040276D01*
X162649524Y-33040276D02*
X162744762Y-32945038D01*
X162744762Y-32945038D02*
X162887619Y-32897419D01*
X162887619Y-32897419D02*
X162982857Y-32897419D01*
X162982857Y-32897419D02*
X163125714Y-32945038D01*
X163125714Y-32945038D02*
X163173333Y-32992657D01*
X164030476Y-33230752D02*
X164030476Y-33897419D01*
X163792381Y-32849800D02*
X163554286Y-33564085D01*
X163554286Y-33564085D02*
X164173333Y-33564085D01*
D11*
X185727142Y-40969580D02*
X185679523Y-41017200D01*
X185679523Y-41017200D02*
X185536666Y-41064819D01*
X185536666Y-41064819D02*
X185441428Y-41064819D01*
X185441428Y-41064819D02*
X185298571Y-41017200D01*
X185298571Y-41017200D02*
X185203333Y-40921961D01*
X185203333Y-40921961D02*
X185155714Y-40826723D01*
X185155714Y-40826723D02*
X185108095Y-40636247D01*
X185108095Y-40636247D02*
X185108095Y-40493390D01*
X185108095Y-40493390D02*
X185155714Y-40302914D01*
X185155714Y-40302914D02*
X185203333Y-40207676D01*
X185203333Y-40207676D02*
X185298571Y-40112438D01*
X185298571Y-40112438D02*
X185441428Y-40064819D01*
X185441428Y-40064819D02*
X185536666Y-40064819D01*
X185536666Y-40064819D02*
X185679523Y-40112438D01*
X185679523Y-40112438D02*
X185727142Y-40160057D01*
X186679523Y-41064819D02*
X186108095Y-41064819D01*
X186393809Y-41064819D02*
X186393809Y-40064819D01*
X186393809Y-40064819D02*
X186298571Y-40207676D01*
X186298571Y-40207676D02*
X186203333Y-40302914D01*
X186203333Y-40302914D02*
X186108095Y-40350533D01*
X187298571Y-40064819D02*
X187393809Y-40064819D01*
X187393809Y-40064819D02*
X187489047Y-40112438D01*
X187489047Y-40112438D02*
X187536666Y-40160057D01*
X187536666Y-40160057D02*
X187584285Y-40255295D01*
X187584285Y-40255295D02*
X187631904Y-40445771D01*
X187631904Y-40445771D02*
X187631904Y-40683866D01*
X187631904Y-40683866D02*
X187584285Y-40874342D01*
X187584285Y-40874342D02*
X187536666Y-40969580D01*
X187536666Y-40969580D02*
X187489047Y-41017200D01*
X187489047Y-41017200D02*
X187393809Y-41064819D01*
X187393809Y-41064819D02*
X187298571Y-41064819D01*
X187298571Y-41064819D02*
X187203333Y-41017200D01*
X187203333Y-41017200D02*
X187155714Y-40969580D01*
X187155714Y-40969580D02*
X187108095Y-40874342D01*
X187108095Y-40874342D02*
X187060476Y-40683866D01*
X187060476Y-40683866D02*
X187060476Y-40445771D01*
X187060476Y-40445771D02*
X187108095Y-40255295D01*
X187108095Y-40255295D02*
X187155714Y-40160057D01*
X187155714Y-40160057D02*
X187203333Y-40112438D01*
X187203333Y-40112438D02*
X187298571Y-40064819D01*
X197937523Y-26775580D02*
X197889904Y-26823200D01*
X197889904Y-26823200D02*
X197747047Y-26870819D01*
X197747047Y-26870819D02*
X197651809Y-26870819D01*
X197651809Y-26870819D02*
X197508952Y-26823200D01*
X197508952Y-26823200D02*
X197413714Y-26727961D01*
X197413714Y-26727961D02*
X197366095Y-26632723D01*
X197366095Y-26632723D02*
X197318476Y-26442247D01*
X197318476Y-26442247D02*
X197318476Y-26299390D01*
X197318476Y-26299390D02*
X197366095Y-26108914D01*
X197366095Y-26108914D02*
X197413714Y-26013676D01*
X197413714Y-26013676D02*
X197508952Y-25918438D01*
X197508952Y-25918438D02*
X197651809Y-25870819D01*
X197651809Y-25870819D02*
X197747047Y-25870819D01*
X197747047Y-25870819D02*
X197889904Y-25918438D01*
X197889904Y-25918438D02*
X197937523Y-25966057D01*
X198366095Y-26870819D02*
X198366095Y-25870819D01*
X198366095Y-25870819D02*
X198937523Y-26870819D01*
X198937523Y-26870819D02*
X198937523Y-25870819D01*
X199366095Y-25966057D02*
X199413714Y-25918438D01*
X199413714Y-25918438D02*
X199508952Y-25870819D01*
X199508952Y-25870819D02*
X199747047Y-25870819D01*
X199747047Y-25870819D02*
X199842285Y-25918438D01*
X199842285Y-25918438D02*
X199889904Y-25966057D01*
X199889904Y-25966057D02*
X199937523Y-26061295D01*
X199937523Y-26061295D02*
X199937523Y-26156533D01*
X199937523Y-26156533D02*
X199889904Y-26299390D01*
X199889904Y-26299390D02*
X199318476Y-26870819D01*
X199318476Y-26870819D02*
X199937523Y-26870819D01*
D10*
X187578095Y-35977419D02*
X187578095Y-36786942D01*
X187578095Y-36786942D02*
X187625714Y-36882180D01*
X187625714Y-36882180D02*
X187673333Y-36929800D01*
X187673333Y-36929800D02*
X187768571Y-36977419D01*
X187768571Y-36977419D02*
X187959047Y-36977419D01*
X187959047Y-36977419D02*
X188054285Y-36929800D01*
X188054285Y-36929800D02*
X188101904Y-36882180D01*
X188101904Y-36882180D02*
X188149523Y-36786942D01*
X188149523Y-36786942D02*
X188149523Y-35977419D01*
X189101904Y-35977419D02*
X188625714Y-35977419D01*
X188625714Y-35977419D02*
X188578095Y-36453609D01*
X188578095Y-36453609D02*
X188625714Y-36405990D01*
X188625714Y-36405990D02*
X188720952Y-36358371D01*
X188720952Y-36358371D02*
X188959047Y-36358371D01*
X188959047Y-36358371D02*
X189054285Y-36405990D01*
X189054285Y-36405990D02*
X189101904Y-36453609D01*
X189101904Y-36453609D02*
X189149523Y-36548847D01*
X189149523Y-36548847D02*
X189149523Y-36786942D01*
X189149523Y-36786942D02*
X189101904Y-36882180D01*
X189101904Y-36882180D02*
X189054285Y-36929800D01*
X189054285Y-36929800D02*
X188959047Y-36977419D01*
X188959047Y-36977419D02*
X188720952Y-36977419D01*
X188720952Y-36977419D02*
X188625714Y-36929800D01*
X188625714Y-36929800D02*
X188578095Y-36882180D01*
X146366666Y-33783609D02*
X146033333Y-33783609D01*
X146033333Y-34307419D02*
X146033333Y-33307419D01*
X146033333Y-33307419D02*
X146509523Y-33307419D01*
X147223809Y-33783609D02*
X147366666Y-33831228D01*
X147366666Y-33831228D02*
X147414285Y-33878847D01*
X147414285Y-33878847D02*
X147461904Y-33974085D01*
X147461904Y-33974085D02*
X147461904Y-34116942D01*
X147461904Y-34116942D02*
X147414285Y-34212180D01*
X147414285Y-34212180D02*
X147366666Y-34259800D01*
X147366666Y-34259800D02*
X147271428Y-34307419D01*
X147271428Y-34307419D02*
X146890476Y-34307419D01*
X146890476Y-34307419D02*
X146890476Y-33307419D01*
X146890476Y-33307419D02*
X147223809Y-33307419D01*
X147223809Y-33307419D02*
X147319047Y-33355038D01*
X147319047Y-33355038D02*
X147366666Y-33402657D01*
X147366666Y-33402657D02*
X147414285Y-33497895D01*
X147414285Y-33497895D02*
X147414285Y-33593133D01*
X147414285Y-33593133D02*
X147366666Y-33688371D01*
X147366666Y-33688371D02*
X147319047Y-33735990D01*
X147319047Y-33735990D02*
X147223809Y-33783609D01*
X147223809Y-33783609D02*
X146890476Y-33783609D01*
X148414285Y-34307419D02*
X147842857Y-34307419D01*
X148128571Y-34307419D02*
X148128571Y-33307419D01*
X148128571Y-33307419D02*
X148033333Y-33450276D01*
X148033333Y-33450276D02*
X147938095Y-33545514D01*
X147938095Y-33545514D02*
X147842857Y-33593133D01*
X182689619Y-41605419D02*
X182689619Y-40605419D01*
X183689618Y-41605419D02*
X183118190Y-41605419D01*
X183403904Y-41605419D02*
X183403904Y-40605419D01*
X183403904Y-40605419D02*
X183308666Y-40748276D01*
X183308666Y-40748276D02*
X183213428Y-40843514D01*
X183213428Y-40843514D02*
X183118190Y-40891133D01*
X184022952Y-40605419D02*
X184689618Y-40605419D01*
X184689618Y-40605419D02*
X184261047Y-41605419D01*
D12*
%TO.C,C14*%
X147210000Y-30232164D02*
X147210000Y-30447836D01*
X146490000Y-30232164D02*
X146490000Y-30447836D01*
D13*
%TO.C,CN3*%
X141058000Y-28724000D02*
X141058000Y-26114000D01*
X141978000Y-28724000D02*
X141058000Y-28724000D01*
X145958000Y-28724000D02*
X147038000Y-28724000D01*
X146038000Y-24464000D02*
X142138000Y-24464000D01*
X147038000Y-28724000D02*
X147038000Y-26124000D01*
X146638000Y-28234000D02*
G75*
G02*
X146398000Y-28234000I-120000J0D01*
G01*
X146398000Y-28234000D02*
G75*
G02*
X146638000Y-28234000I120000J0D01*
G01*
%TO.C,U6*%
X181783000Y-27505000D02*
X181783000Y-27635000D01*
X181783000Y-28845000D02*
X181783000Y-28905000D01*
X181783000Y-30115000D02*
X181783000Y-30175000D01*
X181783000Y-31385000D02*
X181783000Y-31505000D01*
X181783000Y-31505000D02*
X184983000Y-31505000D01*
X184983000Y-27505000D02*
X181783000Y-27505000D01*
X184983000Y-27605000D02*
X184983000Y-27505000D01*
X184983000Y-28875000D02*
X184983000Y-28875000D01*
X184983000Y-30145000D02*
X184983000Y-30145000D01*
X184983000Y-31505000D02*
X184983000Y-31415000D01*
D12*
%TO.C,I19*%
X181802000Y-33782000D02*
G75*
G02*
X180402000Y-33782000I-700000J0D01*
G01*
X180402000Y-33782000D02*
G75*
G02*
X181802000Y-33782000I700000J0D01*
G01*
%TO.C,R3*%
X142622000Y-36475641D02*
X142622000Y-36168359D01*
X143382000Y-36475641D02*
X143382000Y-36168359D01*
%TO.C,C13*%
X142072164Y-31200000D02*
X142287836Y-31200000D01*
X142072164Y-31920000D02*
X142287836Y-31920000D01*
%TO.C,I14*%
X158550000Y-42500000D02*
G75*
G02*
X157150000Y-42500000I-700000J0D01*
G01*
X157150000Y-42500000D02*
G75*
G02*
X158550000Y-42500000I700000J0D01*
G01*
%TO.C,I15*%
X181790000Y-42970000D02*
G75*
G02*
X180390000Y-42970000I-700000J0D01*
G01*
X180390000Y-42970000D02*
G75*
G02*
X181790000Y-42970000I700000J0D01*
G01*
%TO.C,P+1*%
X155386000Y-35306000D02*
G75*
G02*
X153986000Y-35306000I-700000J0D01*
G01*
X153986000Y-35306000D02*
G75*
G02*
X155386000Y-35306000I700000J0D01*
G01*
%TO.C,C12*%
X194617836Y-24470000D02*
X194402164Y-24470000D01*
X194617836Y-25190000D02*
X194402164Y-25190000D01*
%TO.C,C9*%
X159182836Y-29630000D02*
X158967164Y-29630000D01*
X159182836Y-30350000D02*
X158967164Y-30350000D01*
D14*
%TO.C,C3*%
X184208000Y-27235000D02*
X185208000Y-27235000D01*
X185208000Y-26275000D02*
X184208000Y-26275000D01*
D12*
%TO.C,I16*%
X181802000Y-40640000D02*
G75*
G02*
X180402000Y-40640000I-700000J0D01*
G01*
X180402000Y-40640000D02*
G75*
G02*
X181802000Y-40640000I700000J0D01*
G01*
%TO.C,I22*%
X183326000Y-24892000D02*
G75*
G02*
X181926000Y-24892000I-700000J0D01*
G01*
X181926000Y-24892000D02*
G75*
G02*
X183326000Y-24892000I700000J0D01*
G01*
D14*
%TO.C,U2*%
X150925500Y-26887500D02*
X157430500Y-26887500D01*
X150925500Y-30392500D02*
X150925500Y-26887500D01*
X157430500Y-26887500D02*
X157430500Y-30392500D01*
X157430500Y-30392500D02*
X150925500Y-30392500D01*
D15*
X151988000Y-33640000D02*
G75*
G02*
X151788000Y-33640000I-100000J0D01*
G01*
X151788000Y-33640000D02*
G75*
G02*
X151988000Y-33640000I100000J0D01*
G01*
D13*
%TO.C,USB1*%
X133780500Y-34616000D02*
X135400500Y-34616000D01*
X133780500Y-43616000D02*
X133780500Y-34616000D01*
X133930500Y-43686000D02*
X135400500Y-43686000D01*
X137360500Y-34616000D02*
X139350500Y-34616000D01*
X137360500Y-43686000D02*
X139350500Y-43686000D01*
D12*
%TO.C,U1*%
X161058000Y-17930000D02*
X161058000Y-24680000D01*
X161058000Y-17930000D02*
X179058000Y-17930000D01*
X161058000Y-42680000D02*
X161058000Y-43430000D01*
X161058000Y-43430000D02*
X161808000Y-43430000D01*
X161808000Y-43430000D02*
X163558000Y-43430000D01*
X178308000Y-43430000D02*
X176558000Y-43430000D01*
X179058000Y-17930000D02*
X179058000Y-24680000D01*
X179058000Y-23870000D02*
X161058000Y-23870000D01*
X179058000Y-42680000D02*
X179058000Y-43430000D01*
X179058000Y-43430000D02*
X178308000Y-43430000D01*
%TO.C,C11*%
X196347836Y-31730000D02*
X196132164Y-31730000D01*
X196347836Y-31010000D02*
X196132164Y-31010000D01*
%TO.C,I18*%
X181802000Y-36068000D02*
G75*
G02*
X180402000Y-36068000I-700000J0D01*
G01*
X180402000Y-36068000D02*
G75*
G02*
X181802000Y-36068000I700000J0D01*
G01*
%TO.C,CN1*%
X196390000Y-45010000D02*
X197580000Y-45010000D01*
X196390000Y-45510000D02*
X196390000Y-44610000D01*
X196450000Y-38550000D02*
X196450000Y-39450000D01*
X196450000Y-39050000D02*
X197650000Y-39050000D01*
X196890000Y-45010000D02*
X196890000Y-45510000D01*
X196890000Y-45510000D02*
X196890000Y-45010000D01*
X196950000Y-38550000D02*
X196950000Y-39050000D01*
X196950000Y-39050000D02*
X196950000Y-38550000D01*
X197580000Y-45010000D02*
X196390000Y-45010000D01*
X197580000Y-45010000D02*
X197580000Y-45510000D01*
X197580000Y-45510000D02*
X197580000Y-45010000D01*
X197650000Y-38550000D02*
X197650000Y-39050000D01*
X197650000Y-39050000D02*
X196450000Y-39050000D01*
X197650000Y-39050000D02*
X197650000Y-38550000D01*
X198730000Y-45510000D02*
X196390000Y-45510000D01*
X198800000Y-38550000D02*
X196450000Y-38550000D01*
X200630000Y-44410000D02*
X200630000Y-39610000D01*
X195820000Y-44760000D02*
G75*
G02*
X195810011Y-44760200I9J-250000D01*
G01*
%TO.C,R2*%
X158946359Y-28560000D02*
X159253641Y-28560000D01*
X158946359Y-29320000D02*
X159253641Y-29320000D01*
%TO.C,R4*%
X143740000Y-36453641D02*
X143740000Y-36146359D01*
X144500000Y-36453641D02*
X144500000Y-36146359D01*
%TO.C,N1*%
X155386000Y-37592000D02*
G75*
G02*
X153986000Y-37592000I-700000J0D01*
G01*
X153986000Y-37592000D02*
G75*
G02*
X155386000Y-37592000I700000J0D01*
G01*
D14*
%TO.C,C2*%
X158575000Y-27070000D02*
X159575000Y-27070000D01*
X159575000Y-26110000D02*
X158575000Y-26110000D01*
D12*
%TO.C,V3*%
X150052000Y-26416000D02*
G75*
G02*
X148652000Y-26416000I-700000J0D01*
G01*
X148652000Y-26416000D02*
G75*
G02*
X150052000Y-26416000I700000J0D01*
G01*
D15*
%TO.C,LED1*%
X137955000Y-32512000D02*
G75*
G02*
X137755000Y-32512000I-100000J0D01*
G01*
X137755000Y-32512000D02*
G75*
G02*
X137955000Y-32512000I100000J0D01*
G01*
D14*
%TO.C,U3*%
X156393000Y-36346000D02*
X156393000Y-36641000D01*
X156393000Y-36346000D02*
X156688000Y-36346000D01*
X156393000Y-39346000D02*
X156393000Y-39051000D01*
X156393000Y-39346000D02*
X156688000Y-39346000D01*
X159393000Y-36346000D02*
X159098000Y-36346000D01*
X159393000Y-36346000D02*
X159393000Y-36641000D01*
X159393000Y-39346000D02*
X159098000Y-39346000D01*
X159393000Y-39346000D02*
X159393000Y-39051000D01*
D15*
X160468000Y-38596000D02*
G75*
G02*
X160268000Y-38596000I-100000J0D01*
G01*
X160268000Y-38596000D02*
G75*
G02*
X160468000Y-38596000I100000J0D01*
G01*
D13*
%TO.C,CN4*%
X196270000Y-32420000D02*
X198720000Y-32420000D01*
X196270000Y-33380000D02*
X196270000Y-32420000D01*
X196270000Y-36420000D02*
X196270000Y-35450000D01*
X198120000Y-36420000D02*
X196270000Y-36420000D01*
X198120000Y-36420000D02*
X198720000Y-36420000D01*
X200570000Y-35380000D02*
X200570000Y-33450000D01*
%TO.C,CN5*%
X149638000Y-39498000D02*
X150608000Y-39498000D01*
X149638000Y-41348000D02*
X149638000Y-39498000D01*
X149638000Y-41348000D02*
X149638000Y-41948000D01*
X150678000Y-43798000D02*
X152608000Y-43798000D01*
X152678000Y-39498000D02*
X153638000Y-39498000D01*
X153638000Y-39498000D02*
X153638000Y-41948000D01*
D12*
%TO.C,C10*%
X185892164Y-38920000D02*
X186107836Y-38920000D01*
X185892164Y-39640000D02*
X186107836Y-39640000D01*
D13*
%TO.C,CN2*%
X196041000Y-24372000D02*
X198651000Y-24372000D01*
X196041000Y-25292000D02*
X196041000Y-24372000D01*
X196041000Y-29272000D02*
X196041000Y-30352000D01*
X196041000Y-30352000D02*
X198641000Y-30352000D01*
X200301000Y-29352000D02*
X200301000Y-25452000D01*
X196651000Y-29832000D02*
G75*
G02*
X196411000Y-29832000I-120000J0D01*
G01*
X196411000Y-29832000D02*
G75*
G02*
X196651000Y-29832000I120000J0D01*
G01*
D16*
%TO.C,U5*%
X183489600Y-38506400D02*
X186842400Y-38506400D01*
X186842400Y-35153600D02*
X183489600Y-35153600D01*
X182979060Y-35903829D02*
G75*
G02*
X182979060Y-35756171I-18860J73829D01*
G01*
D12*
%TO.C,I17*%
X181802000Y-38354000D02*
G75*
G02*
X180402000Y-38354000I-700000J0D01*
G01*
X180402000Y-38354000D02*
G75*
G02*
X181802000Y-38354000I700000J0D01*
G01*
%TD*%
%LPC*%
D17*
%TO.C,C14*%
X146850000Y-29860000D03*
X146850000Y-30820000D03*
%TD*%
D18*
%TO.C,C6*%
X157045000Y-35052000D03*
X157915000Y-35052000D03*
%TD*%
D19*
%TO.C,H3*%
X190570000Y-27280000D03*
%TD*%
D20*
%TO.C,CN3*%
X145518000Y-28864000D03*
X144518000Y-28864000D03*
X143518000Y-28864000D03*
X142518000Y-28864000D03*
D21*
X141218000Y-24984000D03*
X146818000Y-24984000D03*
%TD*%
D22*
%TO.C,U6*%
X181483000Y-28235000D03*
D23*
X185283000Y-28235000D03*
D22*
X181483000Y-29505000D03*
D23*
X185283000Y-29505000D03*
D22*
X181483000Y-30775000D03*
D23*
X185283000Y-30775000D03*
%TD*%
D24*
%TO.C,I19*%
X181102000Y-33782000D03*
%TD*%
D25*
%TO.C,R3*%
X143002000Y-36832000D03*
X143002000Y-35812000D03*
%TD*%
D26*
%TO.C,C5*%
X159485000Y-25440000D03*
X158615000Y-25440000D03*
%TD*%
D27*
%TO.C,C13*%
X141700000Y-31560000D03*
X142660000Y-31560000D03*
%TD*%
D19*
%TO.C,H4*%
X145542000Y-40894000D03*
%TD*%
D24*
%TO.C,I14*%
X157850000Y-42500000D03*
%TD*%
%TO.C,I15*%
X181090000Y-42970000D03*
%TD*%
%TO.C,P+1*%
X154686000Y-35306000D03*
%TD*%
D28*
%TO.C,C12*%
X194030000Y-24830000D03*
X194990000Y-24830000D03*
%TD*%
D19*
%TO.C,H1*%
X136906000Y-27432000D03*
%TD*%
D18*
%TO.C,R1*%
X137995000Y-32512000D03*
X138865000Y-32512000D03*
%TD*%
D28*
%TO.C,C9*%
X159555000Y-29990000D03*
X158595000Y-29990000D03*
%TD*%
D29*
%TO.C,C3*%
X184278000Y-26755000D03*
X185138000Y-26755000D03*
%TD*%
D24*
%TO.C,I16*%
X181102000Y-40640000D03*
%TD*%
%TO.C,I22*%
X182626000Y-24892000D03*
%TD*%
D30*
%TO.C,U2*%
X151888000Y-31985000D03*
X154178000Y-31985000D03*
X156468000Y-31985000D03*
D31*
X154178000Y-25295000D03*
%TD*%
D32*
%TO.C,USB1*%
X140050500Y-36226000D03*
X140050500Y-42006000D03*
D33*
X141130500Y-35916000D03*
X141130500Y-36716000D03*
D34*
X141130500Y-37366000D03*
X141130500Y-37866000D03*
X141130500Y-38366000D03*
X141130500Y-38866000D03*
X141130500Y-39366000D03*
X141130500Y-39866000D03*
X141130500Y-40366000D03*
X141130500Y-40866000D03*
D33*
X141130500Y-41516000D03*
X141130500Y-42316000D03*
D35*
X140580500Y-34796000D03*
D36*
X136370500Y-34796000D03*
D35*
X140580500Y-43436000D03*
D36*
X136370500Y-43436000D03*
%TD*%
D18*
%TO.C,C1*%
X158640000Y-27790000D03*
X159510000Y-27790000D03*
%TD*%
D37*
%TO.C,U1*%
X161308000Y-25420000D03*
X161308000Y-26690000D03*
X161308000Y-27960000D03*
X161308000Y-29230000D03*
X161308000Y-30500000D03*
X161308000Y-31770000D03*
X161308000Y-33040000D03*
X161308000Y-34310000D03*
X161308000Y-35580000D03*
X161308000Y-36850000D03*
X161308000Y-38120000D03*
X161308000Y-39390000D03*
X161308000Y-40660000D03*
X161308000Y-41930000D03*
D38*
X164338000Y-43180000D03*
X165608000Y-43180000D03*
X166878000Y-43180000D03*
X168148000Y-43180000D03*
X169418000Y-43180000D03*
X170688000Y-43180000D03*
X171958000Y-43180000D03*
X173228000Y-43180000D03*
X174498000Y-43180000D03*
X175768000Y-43180000D03*
D37*
X178808000Y-41930000D03*
X178808000Y-40660000D03*
X178808000Y-39390000D03*
X178808000Y-38120000D03*
X178808000Y-36850000D03*
X178808000Y-35580000D03*
X178808000Y-34310000D03*
X178808000Y-33040000D03*
X178808000Y-31770000D03*
X178808000Y-30500000D03*
X178808000Y-29230000D03*
X178808000Y-27960000D03*
X178808000Y-26690000D03*
X178808000Y-25420000D03*
D39*
X167158000Y-31740000D03*
X167158000Y-31740000D03*
X167158000Y-33140000D03*
X167158000Y-34540000D03*
X167158000Y-34540000D03*
X168558000Y-31740000D03*
X168558000Y-33140000D03*
X168558000Y-34540000D03*
X168558000Y-34540000D03*
X169958000Y-31740000D03*
X169958000Y-33140000D03*
X169958000Y-34540000D03*
%TD*%
D40*
%TO.C,C8*%
X150971000Y-37509000D03*
X150971000Y-36639000D03*
%TD*%
D28*
%TO.C,C11*%
X196720000Y-31370000D03*
X195760000Y-31370000D03*
%TD*%
D24*
%TO.C,I18*%
X181102000Y-36068000D03*
%TD*%
D41*
%TO.C,CN1*%
X196060000Y-44010000D03*
X196060000Y-43010000D03*
X196060000Y-42010000D03*
X196060000Y-41010000D03*
X196060000Y-40010000D03*
D42*
X199940000Y-45310000D03*
X199940000Y-38710000D03*
%TD*%
D43*
%TO.C,R2*%
X158590000Y-28940000D03*
X159610000Y-28940000D03*
%TD*%
D25*
%TO.C,R4*%
X144120000Y-36810000D03*
X144120000Y-35790000D03*
%TD*%
D44*
%TO.C,FB2*%
X152598000Y-35306000D03*
X151694000Y-35306000D03*
%TD*%
D24*
%TO.C,N1*%
X154686000Y-37592000D03*
%TD*%
D29*
%TO.C,C2*%
X158645000Y-26590000D03*
X159505000Y-26590000D03*
%TD*%
D24*
%TO.C,V3*%
X149352000Y-26416000D03*
%TD*%
D19*
%TO.C,H2*%
X190570000Y-40996000D03*
%TD*%
D40*
%TO.C,C7*%
X152146000Y-37519000D03*
X152146000Y-36649000D03*
%TD*%
D45*
%TO.C,LED1*%
X134805000Y-32512000D03*
X136455000Y-32512000D03*
%TD*%
D46*
%TO.C,U3*%
X159328000Y-38596000D03*
X159328000Y-38096000D03*
X159328000Y-37596000D03*
X159328000Y-37096000D03*
D47*
X158643000Y-36411000D03*
X158143000Y-36411000D03*
X157643000Y-36411000D03*
X157143000Y-36411000D03*
D46*
X156458000Y-37096000D03*
X156458000Y-37596000D03*
X156458000Y-38096000D03*
X156458000Y-38596000D03*
D47*
X157143000Y-39281000D03*
X157643000Y-39281000D03*
X158143000Y-39281000D03*
X158643000Y-39281000D03*
D48*
X157893000Y-37846000D03*
%TD*%
D41*
%TO.C,CN4*%
X195980000Y-34920000D03*
X195980000Y-33920000D03*
D42*
X199860000Y-32620000D03*
X199860000Y-36220000D03*
%TD*%
D20*
%TO.C,CN5*%
X151138000Y-39208000D03*
X152138000Y-39208000D03*
D21*
X153438000Y-43088000D03*
X149838000Y-43088000D03*
%TD*%
D26*
%TO.C,C4*%
X157915000Y-33528000D03*
X157045000Y-33528000D03*
%TD*%
D27*
%TO.C,C10*%
X185520000Y-39280000D03*
X186480000Y-39280000D03*
%TD*%
D41*
%TO.C,CN2*%
X195901000Y-28832000D03*
X195901000Y-27832000D03*
X195901000Y-26832000D03*
X195901000Y-25832000D03*
D42*
X199781000Y-24532000D03*
X199781000Y-30132000D03*
%TD*%
D49*
%TO.C,U5*%
X183726000Y-35829998D03*
X183726000Y-36330000D03*
X183726000Y-36829999D03*
X183726000Y-37329998D03*
X183726000Y-37830000D03*
X186606000Y-37830001D03*
X186606000Y-37329999D03*
X186606000Y-36830000D03*
X186606000Y-36330001D03*
X186606000Y-35829999D03*
D50*
X185166000Y-36830000D03*
%TD*%
D44*
%TO.C,FB1*%
X152598000Y-34036000D03*
X151694000Y-34036000D03*
%TD*%
D24*
%TO.C,I17*%
X181102000Y-38354000D03*
%TD*%
%LPD*%
M02*
