%TF.GenerationSoftware,KiCad,Pcbnew,8.0.7*%
%TF.CreationDate,2025-05-30T15:57:11-04:00*%
%TF.ProjectId,weiland-esp32,7765696c-616e-4642-9d65-737033322e6b,rev?*%
%TF.SameCoordinates,Original*%
%TF.FileFunction,Copper,L1,Top*%
%TF.FilePolarity,Positive*%
%FSLAX46Y46*%
G04 Gerber Fmt 4.6, Leading zero omitted, Abs format (unit mm)*
G04 Created by KiCad (PCBNEW 8.0.7) date 2025-05-30 15:57:11*
%MOMM*%
%LPD*%
G01*
G04 APERTURE LIST*
G04 Aperture macros list*
%AMRoundRect*
0 Rectangle with rounded corners*
0 $1 Rounding radius*
0 $2 $3 $4 $5 $6 $7 $8 $9 X,Y pos of 4 corners*
0 Add a 4 corners polygon primitive as box body*
4,1,4,$2,$3,$4,$5,$6,$7,$8,$9,$2,$3,0*
0 Add four circle primitives for the rounded corners*
1,1,$1+$1,$2,$3*
1,1,$1+$1,$4,$5*
1,1,$1+$1,$6,$7*
1,1,$1+$1,$8,$9*
0 Add four rect primitives between the rounded corners*
20,1,$1+$1,$2,$3,$4,$5,0*
20,1,$1+$1,$4,$5,$6,$7,0*
20,1,$1+$1,$6,$7,$8,$9,0*
20,1,$1+$1,$8,$9,$2,$3,0*%
G04 Aperture macros list end*
%TA.AperFunction,SMDPad,CuDef*%
%ADD10R,0.900000X0.900000*%
%TD*%
%TA.AperFunction,SMDPad,CuDef*%
%ADD11R,1.500000X0.900000*%
%TD*%
%TA.AperFunction,SMDPad,CuDef*%
%ADD12R,0.900000X1.500000*%
%TD*%
%TA.AperFunction,SMDPad,CuDef*%
%ADD13R,0.500000X0.600000*%
%TD*%
%TA.AperFunction,SMDPad,CuDef*%
%ADD14R,1.701800X2.489200*%
%TD*%
%TA.AperFunction,SMDPad,CuDef*%
%ADD15R,0.863600X0.254000*%
%TD*%
%TA.AperFunction,SMDPad,CuDef*%
%ADD16R,0.560000X0.600000*%
%TD*%
%TA.AperFunction,SMDPad,CuDef*%
%ADD17C,1.000000*%
%TD*%
%TA.AperFunction,SMDPad,CuDef*%
%ADD18R,0.600000X1.550000*%
%TD*%
%TA.AperFunction,SMDPad,CuDef*%
%ADD19R,1.200000X1.800000*%
%TD*%
%TA.AperFunction,SMDPad,CuDef*%
%ADD20R,0.800000X0.800000*%
%TD*%
%TA.AperFunction,SMDPad,CuDef*%
%ADD21R,0.600000X0.560000*%
%TD*%
%TA.AperFunction,SMDPad,CuDef*%
%ADD22R,1.550000X0.600000*%
%TD*%
%TA.AperFunction,SMDPad,CuDef*%
%ADD23R,1.800000X1.200000*%
%TD*%
%TA.AperFunction,SMDPad,CuDef*%
%ADD24RoundRect,0.135000X-0.185000X0.135000X-0.185000X-0.135000X0.185000X-0.135000X0.185000X0.135000X0*%
%TD*%
%TA.AperFunction,SMDPad,CuDef*%
%ADD25RoundRect,0.143100X-0.156900X0.126900X-0.156900X-0.126900X0.156900X-0.126900X0.156900X0.126900X0*%
%TD*%
%TA.AperFunction,SMDPad,CuDef*%
%ADD26RoundRect,0.140000X-0.140000X-0.170000X0.140000X-0.170000X0.140000X0.170000X-0.140000X0.170000X0*%
%TD*%
%TA.AperFunction,ComponentPad*%
%ADD27C,0.700000*%
%TD*%
%TA.AperFunction,SMDPad,CuDef*%
%ADD28R,1.100000X0.550000*%
%TD*%
%TA.AperFunction,SMDPad,CuDef*%
%ADD29R,1.100000X0.300000*%
%TD*%
%TA.AperFunction,ComponentPad*%
%ADD30O,2.000000X1.100000*%
%TD*%
%TA.AperFunction,ComponentPad*%
%ADD31O,1.800000X1.200000*%
%TD*%
%TA.AperFunction,SMDPad,CuDef*%
%ADD32RoundRect,0.143100X-0.126900X-0.156900X0.126900X-0.156900X0.126900X0.156900X-0.126900X0.156900X0*%
%TD*%
%TA.AperFunction,SMDPad,CuDef*%
%ADD33RoundRect,0.135000X0.185000X-0.135000X0.185000X0.135000X-0.185000X0.135000X-0.185000X-0.135000X0*%
%TD*%
%TA.AperFunction,SMDPad,CuDef*%
%ADD34RoundRect,0.069750X0.395250X-0.585250X0.395250X0.585250X-0.395250X0.585250X-0.395250X-0.585250X0*%
%TD*%
%TA.AperFunction,SMDPad,CuDef*%
%ADD35RoundRect,0.098250X1.521750X-0.556750X1.521750X0.556750X-1.521750X0.556750X-1.521750X-0.556750X0*%
%TD*%
%TA.AperFunction,SMDPad,CuDef*%
%ADD36R,2.600000X0.740000*%
%TD*%
%TA.AperFunction,SMDPad,CuDef*%
%ADD37R,2.600000X0.800000*%
%TD*%
%TA.AperFunction,SMDPad,CuDef*%
%ADD38RoundRect,0.033750X0.386250X0.101250X-0.386250X0.101250X-0.386250X-0.101250X0.386250X-0.101250X0*%
%TD*%
%TA.AperFunction,SMDPad,CuDef*%
%ADD39RoundRect,0.033750X0.101250X0.386250X-0.101250X0.386250X-0.101250X-0.386250X0.101250X-0.386250X0*%
%TD*%
%TA.AperFunction,SMDPad,CuDef*%
%ADD40R,1.100000X1.100000*%
%TD*%
%TA.AperFunction,ViaPad*%
%ADD41C,0.600000*%
%TD*%
%TA.AperFunction,Conductor*%
%ADD42C,0.200000*%
%TD*%
G04 APERTURE END LIST*
D10*
%TO.P,U1,39,GND*%
%TO.N,GND*%
X169958000Y-34540000D03*
X169958000Y-33140000D03*
X169958000Y-31740000D03*
X168558000Y-34540000D03*
X168558000Y-34540000D03*
X168558000Y-33140000D03*
X168558000Y-31740000D03*
X167158000Y-34540000D03*
X167158000Y-34540000D03*
X167158000Y-33140000D03*
X167158000Y-31740000D03*
X167158000Y-31740000D03*
D11*
%TO.P,U1,38,GND*%
X178808000Y-25420000D03*
%TO.P,U1,37,IO23*%
%TO.N,unconnected-(U1-IO23-Pad37)*%
X178808000Y-26690000D03*
%TO.P,U1,36,IO22*%
%TO.N,/IO22*%
X178808000Y-27960000D03*
%TO.P,U1,35,TXD0*%
%TO.N,/TXD0*%
X178808000Y-29230000D03*
%TO.P,U1,34,RXD0*%
%TO.N,/RXD0*%
X178808000Y-30500000D03*
%TO.P,U1,33,IO21*%
%TO.N,unconnected-(U1-IO21-Pad33)*%
X178808000Y-31770000D03*
%TO.P,U1,32,NC*%
%TO.N,unconnected-(U1-NC-Pad32)*%
X178808000Y-33040000D03*
%TO.P,U1,31,IO19*%
%TO.N,/IO19*%
X178808000Y-34310000D03*
%TO.P,U1,30,IO18*%
%TO.N,/IO18*%
X178808000Y-35580000D03*
%TO.P,U1,29,IO5*%
%TO.N,unconnected-(U1-IO5-Pad29)*%
X178808000Y-36850000D03*
%TO.P,U1,28,IO17*%
%TO.N,/IO17*%
X178808000Y-38120000D03*
%TO.P,U1,27,IO16*%
%TO.N,/IO16*%
X178808000Y-39390000D03*
%TO.P,U1,26,IO4*%
%TO.N,unconnected-(U1-IO4-Pad26)*%
X178808000Y-40660000D03*
%TO.P,U1,25,IO0*%
%TO.N,/IO0*%
X178808000Y-41930000D03*
D12*
%TO.P,U1,24,IO2*%
%TO.N,unconnected-(U1-IO2-Pad24)*%
X175768000Y-43180000D03*
%TO.P,U1,23,IO15*%
%TO.N,/IO15*%
X174498000Y-43180000D03*
%TO.P,U1,22,NC*%
%TO.N,unconnected-(U1-NC-Pad22)*%
X173228000Y-43180000D03*
%TO.P,U1,21,NC*%
%TO.N,unconnected-(U1-NC-Pad21)*%
X171958000Y-43180000D03*
%TO.P,U1,20,NC*%
%TO.N,unconnected-(U1-NC-Pad20)*%
X170688000Y-43180000D03*
%TO.P,U1,19,NC*%
%TO.N,unconnected-(U1-NC-Pad19)*%
X169418000Y-43180000D03*
%TO.P,U1,18,NC*%
%TO.N,unconnected-(U1-NC-Pad18)*%
X168148000Y-43180000D03*
%TO.P,U1,17,NC*%
%TO.N,unconnected-(U1-NC-Pad17)*%
X166878000Y-43180000D03*
%TO.P,U1,16,IO13*%
%TO.N,unconnected-(U1-IO13-Pad16)*%
X165608000Y-43180000D03*
%TO.P,U1,15,GND*%
%TO.N,GND*%
X164338000Y-43180000D03*
D11*
%TO.P,U1,14,IO12*%
%TO.N,unconnected-(U1-IO12-Pad14)*%
X161308000Y-41930000D03*
%TO.P,U1,13,IO14*%
%TO.N,/IO14*%
X161308000Y-40660000D03*
%TO.P,U1,12,IO27*%
%TO.N,unconnected-(U1-IO27-Pad12)*%
X161308000Y-39390000D03*
%TO.P,U1,11,IO26*%
%TO.N,unconnected-(U1-IO26-Pad11)*%
X161308000Y-38120000D03*
%TO.P,U1,10,IO25*%
%TO.N,unconnected-(U1-IO25-Pad10)*%
X161308000Y-36850000D03*
%TO.P,U1,9,IO33*%
%TO.N,unconnected-(U1-IO33-Pad9)*%
X161308000Y-35580000D03*
%TO.P,U1,8,IO32*%
%TO.N,unconnected-(U1-IO32-Pad8)*%
X161308000Y-34310000D03*
%TO.P,U1,7,IO35*%
%TO.N,unconnected-(U1-IO35-Pad7)*%
X161308000Y-33040000D03*
%TO.P,U1,6,IO34*%
%TO.N,unconnected-(U1-IO34-Pad6)*%
X161308000Y-31770000D03*
%TO.P,U1,5,SENSOR_VN*%
%TO.N,unconnected-(U1-SENSOR_VN-Pad5)*%
X161308000Y-30500000D03*
%TO.P,U1,4,SENSOR_VP*%
%TO.N,unconnected-(U1-SENSOR_VP-Pad4)*%
X161308000Y-29230000D03*
%TO.P,U1,3,EN*%
%TO.N,/EN*%
X161308000Y-27960000D03*
%TO.P,U1,2,3V3*%
%TO.N,+3.3V*%
X161308000Y-26690000D03*
%TO.P,U1,1,GND*%
%TO.N,GND*%
X161308000Y-25420000D03*
%TD*%
D13*
%TO.P,FB1,1*%
%TO.N,/PRE-OUTP*%
X152598000Y-34036000D03*
%TO.P,FB1,2*%
%TO.N,/OUTP*%
X151694000Y-34036000D03*
%TD*%
D14*
%TO.P,U5,11,EPAD*%
%TO.N,GND*%
X185166000Y-36830000D03*
D15*
%TO.P,U5,10,OUT1*%
%TO.N,/OUTA*%
X186606000Y-35829999D03*
%TO.P,U5,9,OUT2*%
%TO.N,/OUTB*%
X186606000Y-36330001D03*
%TO.P,U5,8,OUT3*%
%TO.N,/OUTC*%
X186606000Y-36830000D03*
%TO.P,U5,7,OUT4*%
%TO.N,/OUTD*%
X186606000Y-37329999D03*
%TO.P,U5,6,COM*%
%TO.N,unconnected-(U5-COM-Pad6)*%
X186606000Y-37830001D03*
%TO.P,U5,5,GND*%
%TO.N,GND*%
X183726000Y-37830000D03*
%TO.P,U5,4,IN4*%
%TO.N,/IO16*%
X183726000Y-37329998D03*
%TO.P,U5,3,IN3*%
%TO.N,/IO17*%
X183726000Y-36829999D03*
%TO.P,U5,2,IN2*%
%TO.N,/IO18*%
X183726000Y-36330000D03*
%TO.P,U5,1,IN1*%
%TO.N,/IO19*%
X183726000Y-35829998D03*
%TD*%
D16*
%TO.P,C6,1*%
%TO.N,+5V*%
X156923000Y-34515000D03*
%TO.P,C6,2*%
%TO.N,GND*%
X157793000Y-34515000D03*
%TD*%
D17*
%TO.P,I17,1,1*%
%TO.N,/IO17*%
X181102000Y-38354000D03*
%TD*%
D18*
%TO.P,CN5,1,1*%
%TO.N,/OUTN*%
X151138000Y-39208000D03*
%TO.P,CN5,2,2*%
%TO.N,/OUTP*%
X152138000Y-39208000D03*
D19*
%TO.P,CN5,3,3*%
%TO.N,GND*%
X153438000Y-43088000D03*
%TO.P,CN5,4,4*%
X149838000Y-43088000D03*
%TD*%
D20*
%TO.P,LED1,1,K*%
%TO.N,GND*%
X134805000Y-32512000D03*
%TO.P,LED1,2,A*%
%TO.N,Net-(LED1-A)*%
X136455000Y-32512000D03*
%TD*%
D21*
%TO.P,C7,1*%
%TO.N,/OUTP*%
X152146000Y-37519000D03*
%TO.P,C7,2*%
%TO.N,GND*%
X152146000Y-36649000D03*
%TD*%
D22*
%TO.P,CN2,1,1*%
%TO.N,/OUTD*%
X195901000Y-28832000D03*
%TO.P,CN2,2,2*%
%TO.N,+5V*%
X195901000Y-27832000D03*
%TO.P,CN2,3,3*%
%TO.N,/OUTC*%
X195901000Y-26832000D03*
%TO.P,CN2,4,4*%
%TO.N,+5V*%
X195901000Y-25832000D03*
D23*
%TO.P,CN2,5,5*%
%TO.N,GND*%
X199781000Y-24532000D03*
%TO.P,CN2,6,6*%
X199781000Y-30132000D03*
%TD*%
D22*
%TO.P,CN4,1,1*%
%TO.N,/OUTP*%
X195901000Y-33982000D03*
%TO.P,CN4,2,2*%
%TO.N,/OUTN*%
X195901000Y-32982000D03*
D23*
%TO.P,CN4,3,3*%
%TO.N,GND*%
X199781000Y-31682000D03*
%TO.P,CN4,4,4*%
X199781000Y-35282000D03*
%TD*%
D24*
%TO.P,R2,1*%
%TO.N,+3.3V*%
X159508000Y-27090000D03*
%TO.P,R2,2*%
%TO.N,/EN*%
X159508000Y-28110000D03*
%TD*%
D17*
%TO.P,I18,1,1*%
%TO.N,/IO18*%
X181102000Y-36068000D03*
%TD*%
%TO.P,N1,1,1*%
%TO.N,/PRE-OUTN*%
X154686000Y-37592000D03*
%TD*%
D21*
%TO.P,C1,1,1*%
%TO.N,GND*%
X159483000Y-30060000D03*
%TO.P,C1,2,2*%
%TO.N,+3.3V*%
X159483000Y-29190000D03*
%TD*%
%TO.P,C8,1*%
%TO.N,/OUTN*%
X150971000Y-37509000D03*
%TO.P,C8,2*%
%TO.N,GND*%
X150971000Y-36639000D03*
%TD*%
%TO.P,C4,1,1*%
%TO.N,GND*%
X159483000Y-31255000D03*
%TO.P,C4,2,2*%
%TO.N,+5V*%
X159483000Y-32125000D03*
%TD*%
D17*
%TO.P,V3,1,1*%
%TO.N,+3.3V*%
X149352000Y-26416000D03*
%TD*%
D22*
%TO.P,CN1,1,1*%
%TO.N,unconnected-(CN1-Pad1)*%
X195926000Y-42132000D03*
%TO.P,CN1,2,2*%
%TO.N,GND*%
X195926000Y-41132000D03*
%TO.P,CN1,3,3*%
%TO.N,/Dp*%
X195926000Y-40132000D03*
%TO.P,CN1,4,4*%
%TO.N,/Dn*%
X195926000Y-39132000D03*
%TO.P,CN1,5,5*%
%TO.N,+5V*%
X195926000Y-38132000D03*
D23*
%TO.P,CN1,6,6*%
%TO.N,GND*%
X199806000Y-43432000D03*
%TO.P,CN1,7,7*%
X199806000Y-36832000D03*
%TD*%
D25*
%TO.P,C2,1,1*%
%TO.N,GND*%
X159483000Y-25320000D03*
%TO.P,C2,2,2*%
%TO.N,+3.3V*%
X159483000Y-26180000D03*
%TD*%
D18*
%TO.P,CN3,1,1*%
%TO.N,/OUTB*%
X145518000Y-28864000D03*
%TO.P,CN3,2,2*%
%TO.N,+5V*%
X144518000Y-28864000D03*
%TO.P,CN3,3,3*%
%TO.N,/OUTA*%
X143518000Y-28864000D03*
%TO.P,CN3,4,4*%
%TO.N,+5V*%
X142518000Y-28864000D03*
D19*
%TO.P,CN3,5,5*%
%TO.N,GND*%
X141218000Y-24984000D03*
%TO.P,CN3,6,6*%
X146818000Y-24984000D03*
%TD*%
D17*
%TO.P,I22,1,1*%
%TO.N,/IO22*%
X182626000Y-24892000D03*
%TD*%
D26*
%TO.P,C9,1*%
%TO.N,/EN*%
X181753000Y-26755000D03*
%TO.P,C9,2*%
%TO.N,GND*%
X182713000Y-26755000D03*
%TD*%
D27*
%TO.P,USB1,*%
%TO.N,*%
X140050500Y-36226000D03*
X140050500Y-42006000D03*
D28*
%TO.P,USB1,1,GND*%
%TO.N,GND*%
X141130500Y-35916000D03*
%TO.P,USB1,2,VBUS*%
%TO.N,+5V*%
X141130500Y-36716000D03*
D29*
%TO.P,USB1,3,SBU2*%
%TO.N,unconnected-(USB1-SBU2-Pad3)*%
X141130500Y-37366000D03*
%TO.P,USB1,4,CC1*%
%TO.N,Net-(USB1-CC1)*%
X141130500Y-37866000D03*
%TO.P,USB1,5,DN2*%
%TO.N,/Dn*%
X141130500Y-38366000D03*
%TO.P,USB1,6,DP1*%
%TO.N,/Dp*%
X141130500Y-38866000D03*
%TO.P,USB1,7,DN1*%
%TO.N,/Dn*%
X141130500Y-39366000D03*
%TO.P,USB1,8,DP2*%
%TO.N,/Dp*%
X141130500Y-39866000D03*
%TO.P,USB1,9,SBU1*%
%TO.N,unconnected-(USB1-SBU1-Pad9)*%
X141130500Y-40366000D03*
%TO.P,USB1,10,CC2*%
%TO.N,unconnected-(USB1-CC2-Pad10)*%
X141130500Y-40866000D03*
D28*
%TO.P,USB1,11,VBUS*%
%TO.N,+5V*%
X141130500Y-41516000D03*
%TO.P,USB1,12,GND*%
%TO.N,GND*%
X141130500Y-42316000D03*
D30*
%TO.P,USB1,13,SHELL*%
X140580500Y-34796000D03*
D31*
X136370500Y-34796000D03*
D30*
%TO.P,USB1,14,SHELL*%
X140580500Y-43436000D03*
D31*
X136370500Y-43436000D03*
%TD*%
D32*
%TO.P,C3,1,1*%
%TO.N,GND*%
X184278000Y-26755000D03*
%TO.P,C3,2,2*%
%TO.N,+5V*%
X185138000Y-26755000D03*
%TD*%
D16*
%TO.P,R1,1,1*%
%TO.N,Net-(LED1-A)*%
X137995000Y-32512000D03*
%TO.P,R1,2,2*%
%TO.N,+3.3V*%
X138865000Y-32512000D03*
%TD*%
D17*
%TO.P,P+1,1,1*%
%TO.N,/PRE-OUTP*%
X154686000Y-35306000D03*
%TD*%
%TO.P,I15,1,1*%
%TO.N,/IO15*%
X181102000Y-43688000D03*
%TD*%
%TO.P,I14,1,1*%
%TO.N,/IO14*%
X157833000Y-43665000D03*
%TD*%
%TO.P,I16,1,1*%
%TO.N,/IO16*%
X181102000Y-40640000D03*
%TD*%
D16*
%TO.P,C5,1,1*%
%TO.N,GND*%
X154251000Y-33540000D03*
%TO.P,C5,2,2*%
%TO.N,+3.3V*%
X155121000Y-33540000D03*
%TD*%
D33*
%TO.P,R3,1,1*%
%TO.N,Net-(USB1-CC1)*%
X143002000Y-36832000D03*
%TO.P,R3,2,2*%
%TO.N,+5V*%
X143002000Y-35812000D03*
%TD*%
D34*
%TO.P,U2,1,ADJ(GND)*%
%TO.N,GND*%
X153068000Y-31985000D03*
%TO.P,U2,2,VOUT(TAB)*%
%TO.N,+3.3V*%
X155358000Y-31985000D03*
%TO.P,U2,3,VIN*%
%TO.N,+5V*%
X157648000Y-31985000D03*
D35*
%TO.P,U2,4,TAB*%
%TO.N,+3.3V*%
X155358000Y-25295000D03*
%TD*%
D17*
%TO.P,I19,1,1*%
%TO.N,/IO19*%
X181102000Y-33782000D03*
%TD*%
D13*
%TO.P,FB2,1*%
%TO.N,/PRE-OUTN*%
X152598000Y-35306000D03*
%TO.P,FB2,2*%
%TO.N,/OUTN*%
X151694000Y-35306000D03*
%TD*%
D36*
%TO.P,U6,1,1*%
%TO.N,/EN*%
X181483000Y-28235000D03*
D37*
%TO.P,U6,2,2*%
%TO.N,+5V*%
X185283000Y-28235000D03*
D36*
%TO.P,U6,3,3*%
%TO.N,/TXD0*%
X181483000Y-29505000D03*
D37*
%TO.P,U6,4,4*%
%TO.N,GND*%
X185283000Y-29505000D03*
D36*
%TO.P,U6,5,5*%
%TO.N,/RXD0*%
X181483000Y-30775000D03*
D37*
%TO.P,U6,6,6*%
%TO.N,/IO0*%
X185283000Y-30775000D03*
%TD*%
D38*
%TO.P,U3,1,DIN*%
%TO.N,/IO22*%
X159328000Y-38015000D03*
%TO.P,U3,2,GAIN_SLOT*%
%TO.N,GND*%
X159328000Y-37515000D03*
%TO.P,U3,3,GND*%
X159328000Y-37015000D03*
%TO.P,U3,4,SD_MODE*%
%TO.N,+3.3V*%
X159328000Y-36515000D03*
D39*
%TO.P,U3,5*%
%TO.N,N/C*%
X158643000Y-35830000D03*
%TO.P,U3,6*%
X158143000Y-35830000D03*
%TO.P,U3,7,VDD*%
%TO.N,+5V*%
X157643000Y-35830000D03*
%TO.P,U3,8,VDD__1*%
X157143000Y-35830000D03*
D38*
%TO.P,U3,9,OUTP*%
%TO.N,/PRE-OUTP*%
X156458000Y-36515000D03*
%TO.P,U3,10,OUTN*%
%TO.N,/PRE-OUTN*%
X156458000Y-37015000D03*
%TO.P,U3,11,GND__1*%
%TO.N,GND*%
X156458000Y-37515000D03*
%TO.P,U3,12*%
%TO.N,N/C*%
X156458000Y-38015000D03*
D39*
%TO.P,U3,13*%
X157143000Y-38700000D03*
%TO.P,U3,14,LRCLK*%
%TO.N,/IO14*%
X157643000Y-38700000D03*
%TO.P,U3,15,GND__2*%
%TO.N,GND*%
X158143000Y-38700000D03*
%TO.P,U3,16,BCLK*%
%TO.N,/IO15*%
X158643000Y-38700000D03*
D40*
%TO.P,U3,17,EP*%
%TO.N,GND*%
X157893000Y-37265000D03*
%TD*%
D41*
%TO.N,+5V*%
X157734000Y-30734000D03*
X186436000Y-26670000D03*
X197866000Y-27940000D03*
X195326000Y-36830000D03*
X141478000Y-29972000D03*
X142748000Y-34544000D03*
%TO.N,GND*%
X158750000Y-30734000D03*
X158750000Y-33232000D03*
X156210000Y-30480000D03*
X154432000Y-30480000D03*
X179832000Y-23914000D03*
X176022000Y-25400000D03*
%TO.N,/IO0*%
X177292000Y-32766000D03*
X183388000Y-32766000D03*
%TO.N,/IO22*%
X181102000Y-24384000D03*
X180594000Y-26924000D03*
X159766000Y-38862000D03*
X167132000Y-38862000D03*
%TO.N,/Dn*%
X142494000Y-38608000D03*
X193548000Y-43180000D03*
%TO.N,/Dp*%
X142240000Y-39878000D03*
X193548000Y-44158000D03*
%TO.N,/OUTP*%
X194310000Y-34036000D03*
X149098000Y-35814000D03*
%TO.N,/OUTN*%
X193802000Y-33020000D03*
X150622000Y-35094000D03*
%TO.N,/OUTB*%
X145542000Y-30480000D03*
%TO.N,/OUTA*%
X143510000Y-30480000D03*
X186690000Y-34544000D03*
%TO.N,/OUTB*%
X188214000Y-33782000D03*
%TO.N,/IO15*%
X159766000Y-40110000D03*
X174498000Y-41910000D03*
%TD*%
D42*
%TO.N,/EN*%
X161158000Y-28110000D02*
X161308000Y-27960000D01*
X159508000Y-28110000D02*
X161158000Y-28110000D01*
%TO.N,+5V*%
X157648000Y-30820000D02*
X157734000Y-30734000D01*
X157648000Y-31985000D02*
X157648000Y-30820000D01*
X186351000Y-26755000D02*
X186436000Y-26670000D01*
X185138000Y-26755000D02*
X186351000Y-26755000D01*
X197758000Y-27832000D02*
X197866000Y-27940000D01*
X195901000Y-27832000D02*
X197758000Y-27832000D01*
X195926000Y-37430000D02*
X195326000Y-36830000D01*
X195926000Y-38132000D02*
X195926000Y-37430000D01*
X142518000Y-28932000D02*
X141478000Y-29972000D01*
X142518000Y-28864000D02*
X142518000Y-28932000D01*
X143002000Y-34798000D02*
X142748000Y-34544000D01*
X143002000Y-35812000D02*
X143002000Y-34798000D01*
%TO.N,GND*%
X159271000Y-31255000D02*
X158750000Y-30734000D01*
X159483000Y-31255000D02*
X159271000Y-31255000D01*
%TO.N,+5V*%
X156923000Y-32710000D02*
X157648000Y-31985000D01*
X156923000Y-34515000D02*
X156923000Y-32710000D01*
%TO.N,Net-(LED1-A)*%
X137995000Y-32512000D02*
X136455000Y-32512000D01*
%TO.N,+5V*%
X143968000Y-27839000D02*
X144518000Y-28389000D01*
X143068000Y-27839000D02*
X143968000Y-27839000D01*
X142518000Y-28389000D02*
X143068000Y-27839000D01*
X144518000Y-28389000D02*
X144518000Y-28864000D01*
X142518000Y-28864000D02*
X142518000Y-28389000D01*
X159343000Y-31985000D02*
X159483000Y-32125000D01*
X157648000Y-31985000D02*
X159343000Y-31985000D01*
%TO.N,GND*%
X153068000Y-31844000D02*
X154432000Y-30480000D01*
X153068000Y-31985000D02*
X153068000Y-31844000D01*
X178808000Y-25420000D02*
X176042000Y-25420000D01*
X176042000Y-25420000D02*
X176022000Y-25400000D01*
X155448000Y-38105000D02*
X155448000Y-38608000D01*
X156038000Y-37515000D02*
X155448000Y-38105000D01*
X156458000Y-37515000D02*
X156038000Y-37515000D01*
%TO.N,/IO15*%
X178333000Y-43688000D02*
X181102000Y-43688000D01*
X174498000Y-41910000D02*
X176555000Y-41910000D01*
X176555000Y-41910000D02*
X178333000Y-43688000D01*
%TO.N,/IO0*%
X177602974Y-41930000D02*
X178808000Y-41930000D01*
X177232974Y-32825026D02*
X177232974Y-41560000D01*
X177292000Y-32766000D02*
X177232974Y-32825026D01*
X183388000Y-32670000D02*
X183388000Y-32766000D01*
X177232974Y-41560000D02*
X177602974Y-41930000D01*
X185283000Y-30775000D02*
X183388000Y-32670000D01*
%TO.N,/IO22*%
X182118000Y-24384000D02*
X182626000Y-24892000D01*
X181102000Y-24384000D02*
X182118000Y-24384000D01*
X179558000Y-27960000D02*
X180594000Y-26924000D01*
X178808000Y-27960000D02*
X179558000Y-27960000D01*
X167132000Y-38766000D02*
X177938000Y-27960000D01*
X167132000Y-38862000D02*
X167132000Y-38766000D01*
X177938000Y-27960000D02*
X178808000Y-27960000D01*
X159328000Y-38424000D02*
X159766000Y-38862000D01*
X159328000Y-38015000D02*
X159328000Y-38424000D01*
%TO.N,/Dp*%
X140380500Y-38866000D02*
X141130500Y-38866000D01*
X140330500Y-38916000D02*
X140380500Y-38866000D01*
X140330500Y-39816000D02*
X140330500Y-38916000D01*
X141130500Y-39866000D02*
X140380500Y-39866000D01*
X140380500Y-39866000D02*
X140330500Y-39816000D01*
%TO.N,+5V*%
X139700000Y-40665551D02*
X140550449Y-41516000D01*
X140550449Y-41516000D02*
X141130500Y-41516000D01*
X139700000Y-37596500D02*
X139700000Y-40665551D01*
X140580500Y-36716000D02*
X139700000Y-37596500D01*
X141130500Y-36716000D02*
X140580500Y-36716000D01*
%TO.N,/Dn*%
X141736000Y-39366000D02*
X141130500Y-39366000D01*
X142494000Y-38608000D02*
X141736000Y-39366000D01*
X142494000Y-38608000D02*
X142252000Y-38366000D01*
X142252000Y-38366000D02*
X141130500Y-38366000D01*
X193548000Y-41035000D02*
X193548000Y-43180000D01*
X195451000Y-39132000D02*
X193548000Y-41035000D01*
X195926000Y-39132000D02*
X195451000Y-39132000D01*
%TO.N,/Dp*%
X195351000Y-40132000D02*
X194856000Y-40627000D01*
X194856000Y-40627000D02*
X194856000Y-44158000D01*
X195926000Y-40132000D02*
X195351000Y-40132000D01*
X194856000Y-44158000D02*
X193548000Y-44158000D01*
X141142500Y-39878000D02*
X141130500Y-39866000D01*
X142240000Y-39878000D02*
X141142500Y-39878000D01*
%TO.N,/OUTP*%
X195847000Y-34036000D02*
X195901000Y-33982000D01*
X194310000Y-34036000D02*
X195847000Y-34036000D01*
X150018000Y-35814000D02*
X149098000Y-35814000D01*
X150018000Y-35814000D02*
X150018000Y-39663000D01*
X150018000Y-34036000D02*
X150018000Y-35814000D01*
%TO.N,/OUTN*%
X194056000Y-33020000D02*
X194094000Y-32982000D01*
X194094000Y-32982000D02*
X195901000Y-32982000D01*
X193802000Y-33020000D02*
X194056000Y-33020000D01*
X150834000Y-35306000D02*
X150622000Y-35094000D01*
X151694000Y-35306000D02*
X150834000Y-35306000D01*
%TO.N,/OUTP*%
X152138000Y-39683000D02*
X152138000Y-39208000D01*
X151435000Y-40386000D02*
X152138000Y-39683000D01*
X150018000Y-39663000D02*
X150741000Y-40386000D01*
X150741000Y-40386000D02*
X151435000Y-40386000D01*
X151694000Y-34036000D02*
X150018000Y-34036000D01*
%TO.N,/OUTB*%
X145542000Y-30480000D02*
X145542000Y-28888000D01*
X145542000Y-28888000D02*
X145518000Y-28864000D01*
%TO.N,/OUTA*%
X143510000Y-28872000D02*
X143518000Y-28864000D01*
X143510000Y-30480000D02*
X143510000Y-28872000D01*
X186606000Y-34628000D02*
X186690000Y-34544000D01*
X186606000Y-35829999D02*
X186606000Y-34628000D01*
%TO.N,/OUTB*%
X188214000Y-35353801D02*
X188214000Y-33782000D01*
X187237800Y-36330001D02*
X188214000Y-35353801D01*
X186606000Y-36330001D02*
X187237800Y-36330001D01*
%TO.N,/IO15*%
X174498000Y-41910000D02*
X174498000Y-43180000D01*
X158643000Y-38987000D02*
X159766000Y-40110000D01*
X158643000Y-38700000D02*
X158643000Y-38987000D01*
%TO.N,+5V*%
X196926000Y-27444000D02*
X196538000Y-27832000D01*
X196926000Y-26382000D02*
X196926000Y-27444000D01*
X196376000Y-25832000D02*
X196926000Y-26382000D01*
X195901000Y-25832000D02*
X196376000Y-25832000D01*
X196538000Y-27832000D02*
X195901000Y-27832000D01*
%TO.N,/OUTD*%
X196088000Y-28645000D02*
X195901000Y-28832000D01*
X195922799Y-28645000D02*
X196088000Y-28645000D01*
X187237800Y-37329999D02*
X195922799Y-28645000D01*
X186606000Y-37329999D02*
X187237800Y-37329999D01*
%TO.N,/OUTC*%
X187237800Y-36830000D02*
X194876000Y-29191800D01*
X195426000Y-26832000D02*
X195901000Y-26832000D01*
X186606000Y-36830000D02*
X187237800Y-36830000D01*
X194876000Y-29191800D02*
X194876000Y-27382000D01*
X194876000Y-27382000D02*
X195426000Y-26832000D01*
%TO.N,+3.3V*%
X160908000Y-27090000D02*
X161308000Y-26690000D01*
X159508000Y-27090000D02*
X160908000Y-27090000D01*
%TO.N,/EN*%
X161778000Y-27960000D02*
X161308000Y-27960000D01*
X165100000Y-24638000D02*
X161778000Y-27960000D01*
X179726000Y-24638000D02*
X165100000Y-24638000D01*
X181483000Y-26395000D02*
X179726000Y-24638000D01*
X181483000Y-28235000D02*
X181483000Y-26395000D01*
%TO.N,+5V*%
X185283000Y-26900000D02*
X185138000Y-26755000D01*
X185283000Y-28235000D02*
X185283000Y-26900000D01*
%TO.N,/TXD0*%
X181208000Y-29230000D02*
X181483000Y-29505000D01*
X178808000Y-29230000D02*
X181208000Y-29230000D01*
%TO.N,/RXD0*%
X178808000Y-30500000D02*
X181208000Y-30500000D01*
X181208000Y-30500000D02*
X181483000Y-30775000D01*
%TO.N,/IO16*%
X183257002Y-37329998D02*
X183726000Y-37329998D01*
X181102000Y-39485000D02*
X183257002Y-37329998D01*
X181102000Y-40640000D02*
X181102000Y-39485000D01*
X179852000Y-39390000D02*
X181102000Y-40640000D01*
X178808000Y-39390000D02*
X179852000Y-39390000D01*
%TO.N,/IO17*%
X182626001Y-36829999D02*
X183726000Y-36829999D01*
X181102000Y-38354000D02*
X182626001Y-36829999D01*
X178808000Y-38120000D02*
X180868000Y-38120000D01*
X180868000Y-38120000D02*
X181102000Y-38354000D01*
%TO.N,/IO18*%
X181364000Y-36330000D02*
X183726000Y-36330000D01*
X181102000Y-36068000D02*
X181364000Y-36330000D01*
X180614000Y-35580000D02*
X181102000Y-36068000D01*
X178808000Y-35580000D02*
X180614000Y-35580000D01*
%TO.N,/IO19*%
X181102000Y-33782000D02*
X183149998Y-35829998D01*
X183149998Y-35829998D02*
X183726000Y-35829998D01*
X180574000Y-34310000D02*
X181102000Y-33782000D01*
X178808000Y-34310000D02*
X180574000Y-34310000D01*
%TO.N,/IO14*%
X159183000Y-40660000D02*
X157833000Y-42010000D01*
X157833000Y-42010000D02*
X157833000Y-43665000D01*
X159183000Y-40660000D02*
X161308000Y-40660000D01*
X157643000Y-39120000D02*
X159183000Y-40660000D01*
X157643000Y-38700000D02*
X157643000Y-39120000D01*
%TO.N,+3.3V*%
X159503000Y-29210000D02*
X159483000Y-29190000D01*
X160308000Y-29210000D02*
X159503000Y-29210000D01*
X160308000Y-35535000D02*
X160308000Y-29210000D01*
X159328000Y-36515000D02*
X160308000Y-35535000D01*
%TO.N,+5V*%
X157643000Y-35830000D02*
X157143000Y-35830000D01*
X157143000Y-34735000D02*
X156923000Y-34515000D01*
X157143000Y-35830000D02*
X157143000Y-34735000D01*
%TO.N,GND*%
X157643000Y-37515000D02*
X157893000Y-37265000D01*
X156458000Y-37515000D02*
X157643000Y-37515000D01*
X157893000Y-37265000D02*
X158143000Y-37515000D01*
X158143000Y-37515000D02*
X158143000Y-38700000D01*
X159328000Y-37015000D02*
X159328000Y-37515000D01*
X159078000Y-37265000D02*
X159328000Y-37015000D01*
X157893000Y-37265000D02*
X159078000Y-37265000D01*
%TO.N,/OUTP*%
X152146000Y-39200000D02*
X152138000Y-39208000D01*
X152146000Y-37519000D02*
X152146000Y-39200000D01*
%TO.N,/OUTN*%
X150971000Y-39041000D02*
X151138000Y-39208000D01*
X150971000Y-37509000D02*
X150971000Y-39041000D01*
X150368000Y-37084000D02*
X150793000Y-37509000D01*
X150368000Y-36162000D02*
X150368000Y-37084000D01*
X151224000Y-35306000D02*
X150368000Y-36162000D01*
X150793000Y-37509000D02*
X150971000Y-37509000D01*
X151694000Y-35306000D02*
X151224000Y-35306000D01*
%TO.N,/PRE-OUTP*%
X154686000Y-35306000D02*
X153416000Y-34036000D01*
X153416000Y-34036000D02*
X152598000Y-34036000D01*
%TO.N,/PRE-OUTN*%
X152598000Y-35504000D02*
X152598000Y-35306000D01*
X154686000Y-37592000D02*
X152598000Y-35504000D01*
X155263000Y-37015000D02*
X154686000Y-37592000D01*
X156458000Y-37015000D02*
X155263000Y-37015000D01*
%TO.N,/PRE-OUTP*%
X154686000Y-35306000D02*
X155895000Y-36515000D01*
X155895000Y-36515000D02*
X156458000Y-36515000D01*
%TO.N,+5V*%
X142098000Y-36716000D02*
X143002000Y-35812000D01*
X141130500Y-36716000D02*
X142098000Y-36716000D01*
%TO.N,Net-(USB1-CC1)*%
X141130500Y-37866000D02*
X141968000Y-37866000D01*
X141968000Y-37866000D02*
X143002000Y-36832000D01*
%TO.N,+3.3V*%
X138865000Y-32512000D02*
X149352000Y-32512000D01*
X149352000Y-32512000D02*
X149352000Y-26416000D01*
X159483000Y-29190000D02*
X155378000Y-29190000D01*
X155358000Y-29210000D02*
X155358000Y-25295000D01*
X155358000Y-31985000D02*
X155358000Y-29210000D01*
X155378000Y-29190000D02*
X155358000Y-29210000D01*
X159483000Y-27065000D02*
X159508000Y-27090000D01*
X159483000Y-26180000D02*
X159483000Y-27065000D01*
X155358000Y-25295000D02*
X158598000Y-25295000D01*
X158598000Y-25295000D02*
X159483000Y-26180000D01*
X155358000Y-25295000D02*
X150473000Y-25295000D01*
X150473000Y-25295000D02*
X149352000Y-26416000D01*
X155358000Y-33303000D02*
X155121000Y-33540000D01*
X155358000Y-31985000D02*
X155358000Y-33303000D01*
%TD*%
%TA.AperFunction,Conductor*%
%TO.N,GND*%
G36*
X140164204Y-23634185D02*
G01*
X140209959Y-23686989D01*
X140219903Y-23756147D01*
X140196431Y-23812812D01*
X140174647Y-23841910D01*
X140174645Y-23841913D01*
X140124403Y-23976620D01*
X140124401Y-23976627D01*
X140118000Y-24036155D01*
X140118000Y-24734000D01*
X142318000Y-24734000D01*
X142318000Y-24036172D01*
X142317999Y-24036155D01*
X142311598Y-23976627D01*
X142311596Y-23976620D01*
X142261354Y-23841913D01*
X142261352Y-23841910D01*
X142239569Y-23812812D01*
X142215151Y-23747348D01*
X142230002Y-23679075D01*
X142279406Y-23629669D01*
X142338835Y-23614500D01*
X145697165Y-23614500D01*
X145764204Y-23634185D01*
X145809959Y-23686989D01*
X145819903Y-23756147D01*
X145796431Y-23812812D01*
X145774647Y-23841910D01*
X145774645Y-23841913D01*
X145724403Y-23976620D01*
X145724401Y-23976627D01*
X145718000Y-24036155D01*
X145718000Y-24734000D01*
X147918000Y-24734000D01*
X147918000Y-24036172D01*
X147917999Y-24036155D01*
X147911598Y-23976627D01*
X147911596Y-23976620D01*
X147861354Y-23841913D01*
X147861352Y-23841910D01*
X147839569Y-23812812D01*
X147815151Y-23747348D01*
X147830002Y-23679075D01*
X147879406Y-23629669D01*
X147938835Y-23614500D01*
X160934000Y-23614500D01*
X161001039Y-23634185D01*
X161046794Y-23686989D01*
X161058000Y-23738500D01*
X161058000Y-23880000D01*
X179058000Y-23880000D01*
X179058000Y-23738500D01*
X179077685Y-23671461D01*
X179130489Y-23625706D01*
X179182000Y-23614500D01*
X198287180Y-23614500D01*
X198354219Y-23634185D01*
X198399974Y-23686989D01*
X198409918Y-23756147D01*
X198403362Y-23781833D01*
X198387403Y-23824620D01*
X198387401Y-23824627D01*
X198381000Y-23884155D01*
X198381000Y-24282000D01*
X199657000Y-24282000D01*
X199724039Y-24301685D01*
X199769794Y-24354489D01*
X199781000Y-24406000D01*
X199781000Y-24532000D01*
X199907000Y-24532000D01*
X199974039Y-24551685D01*
X200019794Y-24604489D01*
X200031000Y-24656000D01*
X200031000Y-25632000D01*
X200728828Y-25632000D01*
X200728844Y-25631999D01*
X200788372Y-25625598D01*
X200788375Y-25625597D01*
X200796661Y-25622507D01*
X200866353Y-25617520D01*
X200927677Y-25651002D01*
X200961165Y-25712323D01*
X200964000Y-25738687D01*
X200964000Y-28925312D01*
X200944315Y-28992351D01*
X200891511Y-29038106D01*
X200822353Y-29048050D01*
X200796668Y-29041494D01*
X200788383Y-29038403D01*
X200788372Y-29038401D01*
X200728844Y-29032000D01*
X200031000Y-29032000D01*
X200031000Y-32782000D01*
X200728828Y-32782000D01*
X200728844Y-32781999D01*
X200788372Y-32775598D01*
X200788375Y-32775597D01*
X200796661Y-32772507D01*
X200866353Y-32767520D01*
X200927677Y-32801002D01*
X200961165Y-32862323D01*
X200964000Y-32888687D01*
X200964000Y-34075312D01*
X200944315Y-34142351D01*
X200891511Y-34188106D01*
X200822353Y-34198050D01*
X200796668Y-34191494D01*
X200788383Y-34188403D01*
X200788372Y-34188401D01*
X200728844Y-34182000D01*
X200031000Y-34182000D01*
X200031000Y-35611410D01*
X200053166Y-35652004D01*
X200056000Y-35678362D01*
X200056000Y-37932000D01*
X200753828Y-37932000D01*
X200753844Y-37931999D01*
X200821087Y-37924769D01*
X200821280Y-37926570D01*
X200881249Y-37929783D01*
X200937922Y-37970647D01*
X200963506Y-38035664D01*
X200964000Y-38046721D01*
X200964000Y-42217278D01*
X200944315Y-42284317D01*
X200891511Y-42330072D01*
X200822353Y-42340016D01*
X200814448Y-42338517D01*
X200753844Y-42332000D01*
X200056000Y-42332000D01*
X200056000Y-43308000D01*
X200036315Y-43375039D01*
X199983511Y-43420794D01*
X199932000Y-43432000D01*
X199806000Y-43432000D01*
X199806000Y-43558000D01*
X199786315Y-43625039D01*
X199733511Y-43670794D01*
X199682000Y-43682000D01*
X198406000Y-43682000D01*
X198406000Y-44079844D01*
X198412401Y-44139372D01*
X198412403Y-44139379D01*
X198465746Y-44282399D01*
X198464545Y-44282846D01*
X198477490Y-44342342D01*
X198453076Y-44407807D01*
X198397144Y-44449680D01*
X198353806Y-44457500D01*
X195244845Y-44457500D01*
X195177806Y-44437815D01*
X195132051Y-44385011D01*
X195122107Y-44315853D01*
X195133860Y-44281892D01*
X195132910Y-44281499D01*
X195136020Y-44273990D01*
X195136021Y-44273989D01*
X195156500Y-44197562D01*
X195156500Y-42784155D01*
X198406000Y-42784155D01*
X198406000Y-43182000D01*
X199556000Y-43182000D01*
X199556000Y-42332000D01*
X198858155Y-42332000D01*
X198798627Y-42338401D01*
X198798620Y-42338403D01*
X198663913Y-42388645D01*
X198663906Y-42388649D01*
X198548812Y-42474809D01*
X198548809Y-42474812D01*
X198462649Y-42589906D01*
X198462645Y-42589913D01*
X198412403Y-42724620D01*
X198412401Y-42724627D01*
X198406000Y-42784155D01*
X195156500Y-42784155D01*
X195156500Y-42756500D01*
X195176185Y-42689461D01*
X195228989Y-42643706D01*
X195280500Y-42632500D01*
X196720750Y-42632500D01*
X196720751Y-42632499D01*
X196735568Y-42629552D01*
X196779229Y-42620868D01*
X196779229Y-42620867D01*
X196779231Y-42620867D01*
X196845552Y-42576552D01*
X196889867Y-42510231D01*
X196889867Y-42510229D01*
X196889868Y-42510229D01*
X196901499Y-42451752D01*
X196901500Y-42451750D01*
X196901500Y-41968556D01*
X196921185Y-41901517D01*
X196951189Y-41869290D01*
X197058187Y-41789190D01*
X197058190Y-41789187D01*
X197144350Y-41674093D01*
X197144354Y-41674086D01*
X197194596Y-41539379D01*
X197194598Y-41539372D01*
X197200999Y-41479844D01*
X197201000Y-41479827D01*
X197201000Y-41382000D01*
X195280500Y-41382000D01*
X195213461Y-41362315D01*
X195167706Y-41309511D01*
X195156500Y-41258000D01*
X195156500Y-41006000D01*
X195176185Y-40938961D01*
X195228989Y-40893206D01*
X195280500Y-40882000D01*
X197201000Y-40882000D01*
X197201000Y-40784172D01*
X197200999Y-40784155D01*
X197194598Y-40724627D01*
X197194596Y-40724620D01*
X197144354Y-40589913D01*
X197144350Y-40589906D01*
X197058190Y-40474812D01*
X196951188Y-40394709D01*
X196909318Y-40338775D01*
X196901500Y-40295443D01*
X196901500Y-39812249D01*
X196901499Y-39812247D01*
X196889868Y-39753770D01*
X196889867Y-39753768D01*
X196854535Y-39700892D01*
X196833656Y-39634215D01*
X196852140Y-39566835D01*
X196854535Y-39563108D01*
X196870959Y-39538529D01*
X196889867Y-39510231D01*
X196889868Y-39510229D01*
X196901499Y-39451752D01*
X196901500Y-39451750D01*
X196901500Y-38812249D01*
X196901499Y-38812247D01*
X196889868Y-38753770D01*
X196889867Y-38753768D01*
X196854535Y-38700892D01*
X196833656Y-38634215D01*
X196852140Y-38566835D01*
X196854535Y-38563108D01*
X196856158Y-38560680D01*
X196889867Y-38510231D01*
X196889867Y-38510230D01*
X196889868Y-38510229D01*
X196900455Y-38457000D01*
X196901500Y-38451748D01*
X196901500Y-37812252D01*
X196901500Y-37812249D01*
X196901499Y-37812247D01*
X196889868Y-37753770D01*
X196889867Y-37753769D01*
X196845552Y-37687447D01*
X196779230Y-37643132D01*
X196779229Y-37643131D01*
X196720752Y-37631500D01*
X196720748Y-37631500D01*
X196350500Y-37631500D01*
X196283461Y-37611815D01*
X196237706Y-37559011D01*
X196226500Y-37507500D01*
X196226500Y-37479844D01*
X198406000Y-37479844D01*
X198412401Y-37539372D01*
X198412403Y-37539379D01*
X198462645Y-37674086D01*
X198462649Y-37674093D01*
X198548809Y-37789187D01*
X198548812Y-37789190D01*
X198663906Y-37875350D01*
X198663913Y-37875354D01*
X198798620Y-37925596D01*
X198798627Y-37925598D01*
X198858155Y-37931999D01*
X198858172Y-37932000D01*
X199556000Y-37932000D01*
X199556000Y-37082000D01*
X198406000Y-37082000D01*
X198406000Y-37479844D01*
X196226500Y-37479844D01*
X196226500Y-37390439D01*
X196223229Y-37378230D01*
X196206021Y-37314011D01*
X196166793Y-37246065D01*
X196166464Y-37245495D01*
X196166458Y-37245487D01*
X195865395Y-36944424D01*
X195831910Y-36883101D01*
X195830339Y-36839094D01*
X195831647Y-36830000D01*
X195811165Y-36687543D01*
X195751377Y-36556627D01*
X195657128Y-36447857D01*
X195536053Y-36370047D01*
X195536051Y-36370046D01*
X195536049Y-36370045D01*
X195536050Y-36370045D01*
X195397963Y-36329500D01*
X195397961Y-36329500D01*
X195254039Y-36329500D01*
X195254036Y-36329500D01*
X195115949Y-36370045D01*
X194994873Y-36447856D01*
X194900623Y-36556626D01*
X194900622Y-36556628D01*
X194840834Y-36687543D01*
X194820353Y-36830000D01*
X194840834Y-36972456D01*
X194889948Y-37079998D01*
X194900623Y-37103373D01*
X194994872Y-37212143D01*
X195115947Y-37289953D01*
X195115950Y-37289954D01*
X195115949Y-37289954D01*
X195168330Y-37305334D01*
X195251280Y-37329690D01*
X195254036Y-37330499D01*
X195254038Y-37330500D01*
X195350167Y-37330500D01*
X195417206Y-37350185D01*
X195437848Y-37366819D01*
X195490848Y-37419819D01*
X195524333Y-37481142D01*
X195519349Y-37550834D01*
X195477477Y-37606767D01*
X195412013Y-37631184D01*
X195403167Y-37631500D01*
X195131247Y-37631500D01*
X195072770Y-37643131D01*
X195072769Y-37643132D01*
X195006447Y-37687447D01*
X194962132Y-37753769D01*
X194962131Y-37753770D01*
X194950500Y-37812247D01*
X194950500Y-38451752D01*
X194962131Y-38510229D01*
X194962132Y-38510230D01*
X194997465Y-38563109D01*
X195018343Y-38629786D01*
X194999859Y-38697166D01*
X194997465Y-38700891D01*
X194962132Y-38753769D01*
X194962131Y-38753770D01*
X194950500Y-38812247D01*
X194950500Y-39156167D01*
X194930815Y-39223206D01*
X194914181Y-39243848D01*
X193307538Y-40850490D01*
X193303497Y-40855757D01*
X193247068Y-40896957D01*
X193177322Y-40901109D01*
X193116403Y-40866894D01*
X193083653Y-40805175D01*
X193082186Y-40796451D01*
X193080838Y-40786211D01*
X193018054Y-40551900D01*
X192925224Y-40327788D01*
X192803936Y-40117711D01*
X192734496Y-40027215D01*
X192656266Y-39925263D01*
X192656260Y-39925256D01*
X192484743Y-39753739D01*
X192484736Y-39753733D01*
X192292293Y-39606067D01*
X192292292Y-39606066D01*
X192292289Y-39606064D01*
X192101403Y-39495856D01*
X192082214Y-39484777D01*
X192082205Y-39484773D01*
X191858104Y-39391947D01*
X191623785Y-39329161D01*
X191383289Y-39297500D01*
X191383288Y-39297500D01*
X191140712Y-39297500D01*
X191140711Y-39297500D01*
X190900214Y-39329161D01*
X190665895Y-39391947D01*
X190441794Y-39484773D01*
X190441785Y-39484777D01*
X190231706Y-39606067D01*
X190039263Y-39753733D01*
X190039256Y-39753739D01*
X189867739Y-39925256D01*
X189867733Y-39925263D01*
X189720067Y-40117706D01*
X189598777Y-40327785D01*
X189598773Y-40327794D01*
X189505947Y-40551895D01*
X189476980Y-40660000D01*
X189443162Y-40786211D01*
X189434756Y-40850060D01*
X189411500Y-41026711D01*
X189411500Y-41269288D01*
X189443161Y-41509785D01*
X189505947Y-41744104D01*
X189598773Y-41968205D01*
X189598777Y-41968214D01*
X189600061Y-41970438D01*
X189720064Y-42178289D01*
X189720066Y-42178292D01*
X189720067Y-42178293D01*
X189867733Y-42370736D01*
X189867739Y-42370743D01*
X190039256Y-42542260D01*
X190039263Y-42542266D01*
X190089091Y-42580500D01*
X190231711Y-42689936D01*
X190441788Y-42811224D01*
X190665900Y-42904054D01*
X190900211Y-42966838D01*
X191080586Y-42990584D01*
X191140711Y-42998500D01*
X191140712Y-42998500D01*
X191383289Y-42998500D01*
X191431388Y-42992167D01*
X191623789Y-42966838D01*
X191858100Y-42904054D01*
X192082212Y-42811224D01*
X192292289Y-42689936D01*
X192484738Y-42542265D01*
X192656265Y-42370738D01*
X192803936Y-42178289D01*
X192925224Y-41968212D01*
X193005580Y-41774216D01*
X193008939Y-41766106D01*
X193052780Y-41711703D01*
X193119074Y-41689638D01*
X193186773Y-41706917D01*
X193234384Y-41758054D01*
X193247500Y-41813559D01*
X193247500Y-42716260D01*
X193227815Y-42783299D01*
X193217213Y-42797462D01*
X193122625Y-42906622D01*
X193122622Y-42906628D01*
X193062834Y-43037543D01*
X193042353Y-43180000D01*
X193062834Y-43322456D01*
X193111949Y-43430000D01*
X193122623Y-43453373D01*
X193216872Y-43562143D01*
X193216874Y-43562144D01*
X193216873Y-43562144D01*
X193220827Y-43564685D01*
X193266581Y-43617489D01*
X193276525Y-43686647D01*
X193247500Y-43750203D01*
X193220827Y-43773315D01*
X193216874Y-43775855D01*
X193122623Y-43884626D01*
X193122622Y-43884628D01*
X193062834Y-44015543D01*
X193042353Y-44158000D01*
X193064097Y-44309235D01*
X193062279Y-44309496D01*
X193062278Y-44368438D01*
X193024502Y-44427215D01*
X192960945Y-44456238D01*
X192943302Y-44457500D01*
X181616740Y-44457500D01*
X181549701Y-44437815D01*
X181503946Y-44385011D01*
X181494002Y-44315853D01*
X181523027Y-44252297D01*
X181534505Y-44240691D01*
X181630183Y-44155929D01*
X181726818Y-44015930D01*
X181787140Y-43856872D01*
X181807645Y-43688000D01*
X181787140Y-43519128D01*
X181726818Y-43360070D01*
X181720682Y-43351181D01*
X181689496Y-43306000D01*
X181630183Y-43220071D01*
X181502852Y-43107266D01*
X181502849Y-43107263D01*
X181352226Y-43028210D01*
X181187056Y-42987500D01*
X181016944Y-42987500D01*
X180851773Y-43028210D01*
X180701150Y-43107263D01*
X180573818Y-43220070D01*
X180573817Y-43220071D01*
X180503146Y-43322456D01*
X180495218Y-43333941D01*
X180440935Y-43377931D01*
X180393168Y-43387500D01*
X178508833Y-43387500D01*
X178441794Y-43367815D01*
X178421152Y-43351181D01*
X177838566Y-42768595D01*
X177805081Y-42707272D01*
X177810065Y-42637580D01*
X177851937Y-42581647D01*
X177917401Y-42557230D01*
X177973703Y-42566354D01*
X177979766Y-42568865D01*
X177979769Y-42568867D01*
X177979772Y-42568867D01*
X177979773Y-42568868D01*
X178038247Y-42580499D01*
X178038250Y-42580500D01*
X178038252Y-42580500D01*
X179577750Y-42580500D01*
X179577751Y-42580499D01*
X179597596Y-42576552D01*
X179636229Y-42568868D01*
X179636229Y-42568867D01*
X179636231Y-42568867D01*
X179702552Y-42524552D01*
X179746867Y-42458231D01*
X179746867Y-42458229D01*
X179746868Y-42458229D01*
X179756411Y-42410252D01*
X179758500Y-42399748D01*
X179758500Y-41460252D01*
X179758500Y-41460249D01*
X179758499Y-41460247D01*
X179746868Y-41401770D01*
X179746867Y-41401768D01*
X179721558Y-41363892D01*
X179700679Y-41297215D01*
X179719163Y-41229835D01*
X179721558Y-41226108D01*
X179746867Y-41188231D01*
X179746868Y-41188229D01*
X179758499Y-41129752D01*
X179758500Y-41129750D01*
X179758500Y-40190249D01*
X179758499Y-40190247D01*
X179746868Y-40131770D01*
X179746867Y-40131768D01*
X179721558Y-40093892D01*
X179700679Y-40027215D01*
X179719163Y-39959835D01*
X179721557Y-39956109D01*
X179737674Y-39931989D01*
X179746395Y-39918936D01*
X179800006Y-39874133D01*
X179869331Y-39865426D01*
X179932359Y-39895581D01*
X179937177Y-39900148D01*
X180385460Y-40348431D01*
X180418945Y-40409754D01*
X180418177Y-40465782D01*
X180416860Y-40471124D01*
X180396355Y-40640000D01*
X180416859Y-40808869D01*
X180416860Y-40808874D01*
X180477182Y-40967931D01*
X180522089Y-41032989D01*
X180573817Y-41107929D01*
X180664460Y-41188231D01*
X180701150Y-41220736D01*
X180846869Y-41297215D01*
X180851775Y-41299790D01*
X181016944Y-41340500D01*
X181187056Y-41340500D01*
X181352225Y-41299790D01*
X181485512Y-41229835D01*
X181502849Y-41220736D01*
X181502850Y-41220734D01*
X181502852Y-41220734D01*
X181630183Y-41107929D01*
X181726818Y-40967930D01*
X181787140Y-40808872D01*
X181807645Y-40640000D01*
X181787140Y-40471128D01*
X181787138Y-40471124D01*
X181752011Y-40378499D01*
X181726818Y-40312070D01*
X181630183Y-40172071D01*
X181502852Y-40059266D01*
X181497318Y-40056361D01*
X181468872Y-40041431D01*
X181418661Y-39992846D01*
X181402500Y-39931636D01*
X181402500Y-39660832D01*
X181422185Y-39593793D01*
X181438814Y-39573156D01*
X182733408Y-38278562D01*
X182794727Y-38245080D01*
X182864419Y-38250064D01*
X182920351Y-38291934D01*
X182937012Y-38314190D01*
X183052106Y-38400350D01*
X183052113Y-38400354D01*
X183186820Y-38450596D01*
X183186827Y-38450598D01*
X183246355Y-38456999D01*
X183246372Y-38457000D01*
X183599000Y-38457000D01*
X183599000Y-37954000D01*
X183618685Y-37886961D01*
X183671489Y-37841206D01*
X183723000Y-37830000D01*
X183729000Y-37830000D01*
X183796039Y-37849685D01*
X183841794Y-37902489D01*
X183853000Y-37954000D01*
X183853000Y-38457000D01*
X183950316Y-38457000D01*
X184017355Y-38476685D01*
X184024627Y-38481733D01*
X184073010Y-38517952D01*
X184073013Y-38517954D01*
X184207720Y-38568196D01*
X184207727Y-38568198D01*
X184267255Y-38574599D01*
X184267272Y-38574600D01*
X184916000Y-38574600D01*
X184916000Y-35085400D01*
X185416000Y-35085400D01*
X185416000Y-38574600D01*
X186064728Y-38574600D01*
X186064744Y-38574599D01*
X186124272Y-38568198D01*
X186124279Y-38568196D01*
X186258986Y-38517954D01*
X186258993Y-38517950D01*
X186374087Y-38431790D01*
X186374090Y-38431787D01*
X186460250Y-38316693D01*
X186460254Y-38316686D01*
X186489540Y-38238168D01*
X186531411Y-38182234D01*
X186596876Y-38157817D01*
X186605722Y-38157501D01*
X187057550Y-38157501D01*
X187057551Y-38157500D01*
X187072368Y-38154553D01*
X187116029Y-38145869D01*
X187116029Y-38145868D01*
X187116031Y-38145868D01*
X187182352Y-38101553D01*
X187226667Y-38035232D01*
X187226667Y-38035230D01*
X187226668Y-38035230D01*
X187237980Y-37978356D01*
X187238300Y-37976749D01*
X187238300Y-37736113D01*
X187257985Y-37669074D01*
X187310789Y-37623319D01*
X187330200Y-37616340D01*
X187353789Y-37610020D01*
X187422311Y-37570459D01*
X187478260Y-37514510D01*
X187478261Y-37514509D01*
X189062926Y-35929844D01*
X198381000Y-35929844D01*
X198387401Y-35989372D01*
X198387403Y-35989379D01*
X198409125Y-36047619D01*
X198414109Y-36117311D01*
X198413622Y-36119457D01*
X198412402Y-36124621D01*
X198406000Y-36184155D01*
X198406000Y-36582000D01*
X199556000Y-36582000D01*
X199556000Y-36502589D01*
X199533834Y-36461996D01*
X199531000Y-36435638D01*
X199531000Y-35532000D01*
X198381000Y-35532000D01*
X198381000Y-35929844D01*
X189062926Y-35929844D01*
X190358615Y-34634155D01*
X198381000Y-34634155D01*
X198381000Y-35032000D01*
X199531000Y-35032000D01*
X199531000Y-34182000D01*
X198833155Y-34182000D01*
X198773627Y-34188401D01*
X198773620Y-34188403D01*
X198638913Y-34238645D01*
X198638906Y-34238649D01*
X198523812Y-34324809D01*
X198523809Y-34324812D01*
X198437649Y-34439906D01*
X198437645Y-34439913D01*
X198387403Y-34574620D01*
X198387401Y-34574627D01*
X198381000Y-34634155D01*
X190358615Y-34634155D01*
X191972770Y-33020000D01*
X193296353Y-33020000D01*
X193316834Y-33162456D01*
X193376622Y-33293371D01*
X193376623Y-33293373D01*
X193470872Y-33402143D01*
X193591947Y-33479953D01*
X193591950Y-33479954D01*
X193591949Y-33479954D01*
X193730036Y-33520499D01*
X193730038Y-33520500D01*
X193822905Y-33520500D01*
X193889944Y-33540185D01*
X193935699Y-33592989D01*
X193945643Y-33662147D01*
X193916618Y-33725701D01*
X193890382Y-33755981D01*
X193884623Y-33762627D01*
X193884622Y-33762628D01*
X193824834Y-33893543D01*
X193804353Y-34036000D01*
X193824834Y-34178456D01*
X193884622Y-34309371D01*
X193884623Y-34309373D01*
X193978872Y-34418143D01*
X194099947Y-34495953D01*
X194099950Y-34495954D01*
X194099949Y-34495954D01*
X194201833Y-34525869D01*
X194211794Y-34528794D01*
X194238036Y-34536499D01*
X194238038Y-34536500D01*
X194238039Y-34536500D01*
X194381962Y-34536500D01*
X194381962Y-34536499D01*
X194520053Y-34495953D01*
X194641128Y-34418143D01*
X194674788Y-34379296D01*
X194733567Y-34341523D01*
X194768501Y-34336500D01*
X194854997Y-34336500D01*
X194922036Y-34356185D01*
X194958099Y-34391609D01*
X194981447Y-34426552D01*
X195047769Y-34470867D01*
X195047770Y-34470868D01*
X195106247Y-34482499D01*
X195106250Y-34482500D01*
X195106252Y-34482500D01*
X196695750Y-34482500D01*
X196695751Y-34482499D01*
X196710568Y-34479552D01*
X196754229Y-34470868D01*
X196754229Y-34470867D01*
X196754231Y-34470867D01*
X196820552Y-34426552D01*
X196864867Y-34360231D01*
X196864867Y-34360229D01*
X196864868Y-34360229D01*
X196876499Y-34301752D01*
X196876500Y-34301750D01*
X196876500Y-33662249D01*
X196876499Y-33662247D01*
X196864868Y-33603770D01*
X196864867Y-33603768D01*
X196829535Y-33550892D01*
X196808656Y-33484215D01*
X196827140Y-33416835D01*
X196829535Y-33413108D01*
X196834555Y-33405596D01*
X196864867Y-33360231D01*
X196864868Y-33360229D01*
X196876499Y-33301752D01*
X196876500Y-33301750D01*
X196876500Y-32662249D01*
X196876499Y-32662247D01*
X196864868Y-32603770D01*
X196864867Y-32603769D01*
X196820552Y-32537447D01*
X196754230Y-32493132D01*
X196754229Y-32493131D01*
X196695752Y-32481500D01*
X196695748Y-32481500D01*
X195106252Y-32481500D01*
X195106247Y-32481500D01*
X195047770Y-32493131D01*
X195047769Y-32493132D01*
X194981447Y-32537447D01*
X194937131Y-32603771D01*
X194936640Y-32604957D01*
X194934878Y-32607142D01*
X194930348Y-32613923D01*
X194929741Y-32613517D01*
X194892797Y-32659359D01*
X194826502Y-32681421D01*
X194822081Y-32681500D01*
X194227574Y-32681500D01*
X194160535Y-32661815D01*
X194133865Y-32638707D01*
X194133130Y-32637859D01*
X194133129Y-32637858D01*
X194133128Y-32637857D01*
X194012053Y-32560047D01*
X194012051Y-32560046D01*
X194012049Y-32560045D01*
X194012050Y-32560045D01*
X193873963Y-32519500D01*
X193873961Y-32519500D01*
X193730039Y-32519500D01*
X193730036Y-32519500D01*
X193591949Y-32560045D01*
X193470873Y-32637856D01*
X193470872Y-32637856D01*
X193470872Y-32637857D01*
X193469720Y-32639187D01*
X193376623Y-32746626D01*
X193376622Y-32746628D01*
X193316834Y-32877543D01*
X193296353Y-33020000D01*
X191972770Y-33020000D01*
X192662926Y-32329844D01*
X198381000Y-32329844D01*
X198387401Y-32389372D01*
X198387403Y-32389379D01*
X198437645Y-32524086D01*
X198437649Y-32524093D01*
X198523809Y-32639187D01*
X198523812Y-32639190D01*
X198638906Y-32725350D01*
X198638913Y-32725354D01*
X198773620Y-32775596D01*
X198773627Y-32775598D01*
X198833155Y-32781999D01*
X198833172Y-32782000D01*
X199531000Y-32782000D01*
X199531000Y-31932000D01*
X198381000Y-31932000D01*
X198381000Y-32329844D01*
X192662926Y-32329844D01*
X194212926Y-30779844D01*
X198381000Y-30779844D01*
X198387401Y-30839372D01*
X198387403Y-30839379D01*
X198396462Y-30863669D01*
X198401445Y-30933361D01*
X198396462Y-30950331D01*
X198387403Y-30974620D01*
X198387401Y-30974627D01*
X198381000Y-31034155D01*
X198381000Y-31432000D01*
X199531000Y-31432000D01*
X199531000Y-30382000D01*
X198381000Y-30382000D01*
X198381000Y-30779844D01*
X194212926Y-30779844D01*
X195508615Y-29484155D01*
X198381000Y-29484155D01*
X198381000Y-29882000D01*
X199531000Y-29882000D01*
X199531000Y-29032000D01*
X198833155Y-29032000D01*
X198773627Y-29038401D01*
X198773620Y-29038403D01*
X198638913Y-29088645D01*
X198638906Y-29088649D01*
X198523812Y-29174809D01*
X198523809Y-29174812D01*
X198437649Y-29289906D01*
X198437645Y-29289913D01*
X198387403Y-29424620D01*
X198387401Y-29424627D01*
X198381000Y-29484155D01*
X195508615Y-29484155D01*
X195623951Y-29368819D01*
X195685274Y-29335334D01*
X195711632Y-29332500D01*
X196695750Y-29332500D01*
X196695751Y-29332499D01*
X196710568Y-29329552D01*
X196754229Y-29320868D01*
X196754229Y-29320867D01*
X196754231Y-29320867D01*
X196820552Y-29276552D01*
X196864867Y-29210231D01*
X196864867Y-29210229D01*
X196864868Y-29210229D01*
X196876499Y-29151752D01*
X196876500Y-29151750D01*
X196876500Y-28512249D01*
X196876499Y-28512247D01*
X196864868Y-28453770D01*
X196864867Y-28453768D01*
X196829535Y-28400892D01*
X196808656Y-28334215D01*
X196827140Y-28266835D01*
X196829535Y-28263108D01*
X196836820Y-28252205D01*
X196864867Y-28210231D01*
X196864867Y-28210230D01*
X196864868Y-28210229D01*
X196865360Y-28209043D01*
X196867122Y-28206855D01*
X196871653Y-28200076D01*
X196872259Y-28200481D01*
X196909203Y-28154641D01*
X196975498Y-28132579D01*
X196979919Y-28132500D01*
X197324000Y-28132500D01*
X197391039Y-28152185D01*
X197436794Y-28204989D01*
X197436795Y-28204991D01*
X197440621Y-28213370D01*
X197440622Y-28213371D01*
X197440623Y-28213373D01*
X197534872Y-28322143D01*
X197655947Y-28399953D01*
X197655950Y-28399954D01*
X197655949Y-28399954D01*
X197794036Y-28440499D01*
X197794038Y-28440500D01*
X197794039Y-28440500D01*
X197937962Y-28440500D01*
X197937962Y-28440499D01*
X198076053Y-28399953D01*
X198197128Y-28322143D01*
X198291377Y-28213373D01*
X198351165Y-28082457D01*
X198371647Y-27940000D01*
X198351165Y-27797543D01*
X198291377Y-27666627D01*
X198197128Y-27557857D01*
X198076053Y-27480047D01*
X198076051Y-27480046D01*
X198076049Y-27480045D01*
X198076050Y-27480045D01*
X197937963Y-27439500D01*
X197937961Y-27439500D01*
X197794039Y-27439500D01*
X197794036Y-27439500D01*
X197655951Y-27480044D01*
X197634620Y-27493752D01*
X197606512Y-27511816D01*
X197539475Y-27531500D01*
X197350500Y-27531500D01*
X197283461Y-27511815D01*
X197237706Y-27459011D01*
X197226500Y-27407500D01*
X197226500Y-26342439D01*
X197219446Y-26316113D01*
X197206021Y-26266011D01*
X197182237Y-26224815D01*
X197166464Y-26197495D01*
X197166458Y-26197487D01*
X196912819Y-25943848D01*
X196879334Y-25882525D01*
X196876500Y-25856167D01*
X196876500Y-25512249D01*
X196876499Y-25512247D01*
X196864868Y-25453770D01*
X196864867Y-25453769D01*
X196820552Y-25387447D01*
X196754230Y-25343132D01*
X196754229Y-25343131D01*
X196695752Y-25331500D01*
X196695748Y-25331500D01*
X195106252Y-25331500D01*
X195106247Y-25331500D01*
X195047770Y-25343131D01*
X195047769Y-25343132D01*
X194981447Y-25387447D01*
X194937132Y-25453769D01*
X194937131Y-25453770D01*
X194925500Y-25512247D01*
X194925500Y-26151752D01*
X194937131Y-26210229D01*
X194937132Y-26210230D01*
X194972465Y-26263109D01*
X194993343Y-26329786D01*
X194974859Y-26397166D01*
X194972465Y-26400891D01*
X194937132Y-26453769D01*
X194937131Y-26453770D01*
X194925500Y-26512247D01*
X194925500Y-26856167D01*
X194905815Y-26923206D01*
X194889181Y-26943848D01*
X194635541Y-27197487D01*
X194635535Y-27197495D01*
X194595982Y-27266004D01*
X194595979Y-27266009D01*
X194575500Y-27342439D01*
X194575500Y-29015967D01*
X194555815Y-29083006D01*
X194539181Y-29103648D01*
X188726181Y-34916648D01*
X188664858Y-34950133D01*
X188595166Y-34945149D01*
X188539233Y-34903277D01*
X188514816Y-34837813D01*
X188514500Y-34828967D01*
X188514500Y-34245738D01*
X188534185Y-34178699D01*
X188544787Y-34164535D01*
X188545124Y-34164144D01*
X188545128Y-34164143D01*
X188639377Y-34055373D01*
X188699165Y-33924457D01*
X188719647Y-33782000D01*
X188699165Y-33639543D01*
X188639377Y-33508627D01*
X188545128Y-33399857D01*
X188424053Y-33322047D01*
X188424051Y-33322046D01*
X188424049Y-33322045D01*
X188424050Y-33322045D01*
X188285963Y-33281500D01*
X188285961Y-33281500D01*
X188142039Y-33281500D01*
X188142036Y-33281500D01*
X188003949Y-33322045D01*
X187882873Y-33399856D01*
X187882872Y-33399856D01*
X187882872Y-33399857D01*
X187872351Y-33411999D01*
X187788623Y-33508626D01*
X187788622Y-33508628D01*
X187728834Y-33639543D01*
X187708353Y-33782000D01*
X187728834Y-33924456D01*
X187781830Y-34040499D01*
X187788623Y-34055373D01*
X187882872Y-34164143D01*
X187882875Y-34164144D01*
X187883213Y-34164535D01*
X187912238Y-34228091D01*
X187913500Y-34245738D01*
X187913500Y-35177968D01*
X187893815Y-35245007D01*
X187877181Y-35265649D01*
X187439052Y-35703777D01*
X187377729Y-35737262D01*
X187308037Y-35732278D01*
X187252104Y-35690406D01*
X187229753Y-35640284D01*
X187229236Y-35637683D01*
X187226667Y-35624768D01*
X187200450Y-35585532D01*
X187182352Y-35558446D01*
X187116030Y-35514131D01*
X187116029Y-35514130D01*
X187057552Y-35502499D01*
X187057548Y-35502499D01*
X187030500Y-35502499D01*
X186963461Y-35482814D01*
X186917706Y-35430010D01*
X186906500Y-35378499D01*
X186906500Y-35067518D01*
X186926185Y-35000479D01*
X186963462Y-34963202D01*
X186991786Y-34945000D01*
X187021128Y-34926143D01*
X187115377Y-34817373D01*
X187175165Y-34686457D01*
X187195647Y-34544000D01*
X187175165Y-34401543D01*
X187115377Y-34270627D01*
X187021128Y-34161857D01*
X186900053Y-34084047D01*
X186900051Y-34084046D01*
X186900049Y-34084045D01*
X186900050Y-34084045D01*
X186761963Y-34043500D01*
X186761961Y-34043500D01*
X186618039Y-34043500D01*
X186618036Y-34043500D01*
X186479949Y-34084045D01*
X186358873Y-34161856D01*
X186264623Y-34270626D01*
X186264622Y-34270628D01*
X186204834Y-34401543D01*
X186184353Y-34544000D01*
X186204834Y-34686456D01*
X186226776Y-34734500D01*
X186264513Y-34817133D01*
X186264621Y-34817368D01*
X186264621Y-34817370D01*
X186264622Y-34817371D01*
X186264623Y-34817373D01*
X186275212Y-34829594D01*
X186304237Y-34893145D01*
X186305500Y-34910796D01*
X186305500Y-34980800D01*
X186285815Y-35047839D01*
X186233011Y-35093594D01*
X186163853Y-35103538D01*
X186138171Y-35096983D01*
X186124285Y-35091804D01*
X186124272Y-35091801D01*
X186064744Y-35085400D01*
X185416000Y-35085400D01*
X184916000Y-35085400D01*
X184267255Y-35085400D01*
X184207727Y-35091801D01*
X184207720Y-35091803D01*
X184073013Y-35142045D01*
X184073006Y-35142049D01*
X183957912Y-35228209D01*
X183957909Y-35228212D01*
X183871749Y-35343306D01*
X183871746Y-35343311D01*
X183842460Y-35421832D01*
X183800588Y-35477765D01*
X183735124Y-35502182D01*
X183726278Y-35502498D01*
X183298831Y-35502498D01*
X183231792Y-35482813D01*
X183211150Y-35466179D01*
X181818539Y-34073568D01*
X181785054Y-34012245D01*
X181785825Y-33956203D01*
X181787135Y-33950883D01*
X181787140Y-33950872D01*
X181807645Y-33782000D01*
X181787140Y-33613128D01*
X181726818Y-33454070D01*
X181726403Y-33453469D01*
X181689397Y-33399857D01*
X181630183Y-33314071D01*
X181502852Y-33201266D01*
X181502849Y-33201263D01*
X181352226Y-33122210D01*
X181187056Y-33081500D01*
X181016944Y-33081500D01*
X180851773Y-33122210D01*
X180701150Y-33201263D01*
X180573816Y-33314072D01*
X180477182Y-33454068D01*
X180416860Y-33613125D01*
X180416859Y-33613130D01*
X180396355Y-33782000D01*
X180407107Y-33870554D01*
X180395646Y-33939477D01*
X180348742Y-33991263D01*
X180284011Y-34009500D01*
X179882500Y-34009500D01*
X179815461Y-33989815D01*
X179769706Y-33937011D01*
X179758500Y-33885500D01*
X179758500Y-33840249D01*
X179758499Y-33840247D01*
X179746868Y-33781770D01*
X179746867Y-33781768D01*
X179721558Y-33743892D01*
X179700679Y-33677215D01*
X179719163Y-33609835D01*
X179721558Y-33606108D01*
X179746867Y-33568231D01*
X179746868Y-33568229D01*
X179757293Y-33515815D01*
X179758500Y-33509748D01*
X179758500Y-32766000D01*
X182882353Y-32766000D01*
X182902834Y-32908456D01*
X182962622Y-33039371D01*
X182962623Y-33039373D01*
X183056872Y-33148143D01*
X183177947Y-33225953D01*
X183177950Y-33225954D01*
X183177949Y-33225954D01*
X183285107Y-33257417D01*
X183307521Y-33263999D01*
X183316036Y-33266499D01*
X183316038Y-33266500D01*
X183316039Y-33266500D01*
X183459962Y-33266500D01*
X183459962Y-33266499D01*
X183598053Y-33225953D01*
X183719128Y-33148143D01*
X183813377Y-33039373D01*
X183873165Y-32908457D01*
X183893647Y-32766000D01*
X183880271Y-32672967D01*
X183890215Y-32603811D01*
X183915325Y-32567644D01*
X185071152Y-31411819D01*
X185132475Y-31378334D01*
X185158833Y-31375500D01*
X186602750Y-31375500D01*
X186602751Y-31375499D01*
X186617568Y-31372552D01*
X186661229Y-31363868D01*
X186661229Y-31363867D01*
X186661231Y-31363867D01*
X186727552Y-31319552D01*
X186771867Y-31253231D01*
X186771867Y-31253229D01*
X186771868Y-31253229D01*
X186783499Y-31194752D01*
X186783500Y-31194750D01*
X186783500Y-30441556D01*
X186803185Y-30374517D01*
X186833189Y-30342290D01*
X186940187Y-30262190D01*
X186940190Y-30262187D01*
X187026350Y-30147093D01*
X187026354Y-30147086D01*
X187076596Y-30012379D01*
X187076598Y-30012372D01*
X187082999Y-29952844D01*
X187083000Y-29952827D01*
X187083000Y-29755000D01*
X183483000Y-29755000D01*
X183483000Y-29952844D01*
X183489401Y-30012372D01*
X183489403Y-30012379D01*
X183539645Y-30147086D01*
X183539649Y-30147093D01*
X183625809Y-30262187D01*
X183625812Y-30262190D01*
X183732811Y-30342290D01*
X183774682Y-30398223D01*
X183782500Y-30441556D01*
X183782500Y-31194752D01*
X183794131Y-31253229D01*
X183794132Y-31253230D01*
X183838447Y-31319552D01*
X183904769Y-31363867D01*
X183904770Y-31363868D01*
X183951357Y-31373134D01*
X183963252Y-31375500D01*
X183963257Y-31375500D01*
X183969312Y-31376097D01*
X183969055Y-31378697D01*
X184025206Y-31395185D01*
X184070961Y-31447989D01*
X184080905Y-31517147D01*
X184051880Y-31580703D01*
X184045848Y-31587181D01*
X183403848Y-32229181D01*
X183342525Y-32262666D01*
X183316167Y-32265500D01*
X183316036Y-32265500D01*
X183177949Y-32306045D01*
X183056873Y-32383856D01*
X182962623Y-32492626D01*
X182962622Y-32492628D01*
X182902834Y-32623543D01*
X182882353Y-32766000D01*
X179758500Y-32766000D01*
X179758500Y-32570252D01*
X179758500Y-32570249D01*
X179758499Y-32570247D01*
X179746868Y-32511770D01*
X179746867Y-32511768D01*
X179721558Y-32473892D01*
X179700679Y-32407215D01*
X179719163Y-32339835D01*
X179721558Y-32336108D01*
X179746867Y-32298231D01*
X179746868Y-32298229D01*
X179758499Y-32239752D01*
X179758500Y-32239750D01*
X179758500Y-31300253D01*
X179758499Y-31300247D01*
X179756947Y-31292445D01*
X179763173Y-31222855D01*
X179806034Y-31167676D01*
X179871924Y-31144430D01*
X179939921Y-31160496D01*
X179988438Y-31210774D01*
X179993123Y-31220795D01*
X179994131Y-31223228D01*
X180038447Y-31289552D01*
X180104769Y-31333867D01*
X180104770Y-31333868D01*
X180163247Y-31345499D01*
X180163250Y-31345500D01*
X180163252Y-31345500D01*
X182802750Y-31345500D01*
X182802751Y-31345499D01*
X182817568Y-31342552D01*
X182861229Y-31333868D01*
X182861229Y-31333867D01*
X182861231Y-31333867D01*
X182927552Y-31289552D01*
X182971867Y-31223231D01*
X182971867Y-31223229D01*
X182971868Y-31223229D01*
X182980552Y-31179568D01*
X182983500Y-31164748D01*
X182983500Y-30385252D01*
X182983500Y-30385249D01*
X182983499Y-30385247D01*
X182971868Y-30326770D01*
X182971867Y-30326769D01*
X182927552Y-30260448D01*
X182901591Y-30243101D01*
X182856787Y-30189491D01*
X182848080Y-30120166D01*
X182878234Y-30057138D01*
X182901590Y-30036899D01*
X182927552Y-30019552D01*
X182971867Y-29953231D01*
X182971867Y-29953229D01*
X182971868Y-29953229D01*
X182983499Y-29894752D01*
X182983500Y-29894750D01*
X182983500Y-29115249D01*
X182983499Y-29115247D01*
X182971868Y-29056770D01*
X182971867Y-29056769D01*
X182927552Y-28990448D01*
X182902834Y-28973932D01*
X182901591Y-28973101D01*
X182856787Y-28919491D01*
X182848080Y-28850166D01*
X182878234Y-28787138D01*
X182901590Y-28766899D01*
X182927552Y-28749552D01*
X182971867Y-28683231D01*
X182971867Y-28683229D01*
X182971868Y-28683229D01*
X182983499Y-28624752D01*
X182983500Y-28624750D01*
X182983500Y-27845249D01*
X182983499Y-27845247D01*
X182971868Y-27786770D01*
X182971867Y-27786768D01*
X182937300Y-27735037D01*
X182916421Y-27668360D01*
X182934905Y-27600980D01*
X182986883Y-27554289D01*
X183005807Y-27547068D01*
X183109195Y-27517031D01*
X183248374Y-27434721D01*
X183248383Y-27434714D01*
X183362714Y-27320383D01*
X183362719Y-27320377D01*
X183397390Y-27261751D01*
X183448459Y-27214067D01*
X183517201Y-27201563D01*
X183581790Y-27228208D01*
X183610855Y-27261750D01*
X183638910Y-27309189D01*
X183638917Y-27309198D01*
X183753801Y-27424082D01*
X183753810Y-27424089D01*
X183840523Y-27475371D01*
X183888207Y-27526440D01*
X183900710Y-27595182D01*
X183874065Y-27659771D01*
X183846296Y-27685203D01*
X183838448Y-27690447D01*
X183794132Y-27756769D01*
X183794131Y-27756770D01*
X183782500Y-27815247D01*
X183782500Y-28568443D01*
X183762815Y-28635482D01*
X183732812Y-28667709D01*
X183625809Y-28747812D01*
X183539649Y-28862906D01*
X183539645Y-28862913D01*
X183489403Y-28997620D01*
X183489401Y-28997627D01*
X183483000Y-29057155D01*
X183483000Y-29255000D01*
X187083000Y-29255000D01*
X187083000Y-29057172D01*
X187082999Y-29057155D01*
X187076598Y-28997627D01*
X187076596Y-28997620D01*
X187026354Y-28862913D01*
X187026350Y-28862906D01*
X186940190Y-28747812D01*
X186833188Y-28667709D01*
X186791318Y-28611775D01*
X186783500Y-28568443D01*
X186783500Y-27815249D01*
X186783499Y-27815247D01*
X186771868Y-27756770D01*
X186771867Y-27756769D01*
X186727552Y-27690447D01*
X186661230Y-27646132D01*
X186661229Y-27646131D01*
X186602752Y-27634500D01*
X186602748Y-27634500D01*
X185707500Y-27634500D01*
X185640461Y-27614815D01*
X185594706Y-27562011D01*
X185583500Y-27510500D01*
X185583500Y-27310711D01*
X189411500Y-27310711D01*
X189411500Y-27553288D01*
X189443161Y-27793785D01*
X189505947Y-28028104D01*
X189598773Y-28252205D01*
X189598777Y-28252214D01*
X189612829Y-28276552D01*
X189720064Y-28462289D01*
X189720066Y-28462292D01*
X189720067Y-28462293D01*
X189867733Y-28654736D01*
X189867739Y-28654743D01*
X190039256Y-28826260D01*
X190039263Y-28826266D01*
X190108243Y-28879196D01*
X190231711Y-28973936D01*
X190441788Y-29095224D01*
X190665900Y-29188054D01*
X190900211Y-29250838D01*
X191080586Y-29274584D01*
X191140711Y-29282500D01*
X191140712Y-29282500D01*
X191383289Y-29282500D01*
X191431388Y-29276167D01*
X191623789Y-29250838D01*
X191858100Y-29188054D01*
X192082212Y-29095224D01*
X192292289Y-28973936D01*
X192484738Y-28826265D01*
X192656265Y-28654738D01*
X192803936Y-28462289D01*
X192925224Y-28252212D01*
X193018054Y-28028100D01*
X193080838Y-27793789D01*
X193112500Y-27553288D01*
X193112500Y-27310712D01*
X193112299Y-27309189D01*
X193099007Y-27208224D01*
X193080838Y-27070211D01*
X193018054Y-26835900D01*
X192925224Y-26611788D01*
X192803936Y-26401711D01*
X192699810Y-26266011D01*
X192656266Y-26209263D01*
X192656260Y-26209256D01*
X192484743Y-26037739D01*
X192484736Y-26037733D01*
X192292293Y-25890067D01*
X192292292Y-25890066D01*
X192292289Y-25890064D01*
X192082212Y-25768776D01*
X192082205Y-25768773D01*
X191858104Y-25675947D01*
X191670200Y-25625598D01*
X191623789Y-25613162D01*
X191623788Y-25613161D01*
X191623785Y-25613161D01*
X191383289Y-25581500D01*
X191383288Y-25581500D01*
X191140712Y-25581500D01*
X191140711Y-25581500D01*
X190900214Y-25613161D01*
X190665895Y-25675947D01*
X190441794Y-25768773D01*
X190441785Y-25768777D01*
X190231706Y-25890067D01*
X190039263Y-26037733D01*
X190039256Y-26037739D01*
X189867739Y-26209256D01*
X189867733Y-26209263D01*
X189720067Y-26401706D01*
X189598777Y-26611785D01*
X189598773Y-26611794D01*
X189505947Y-26835895D01*
X189443161Y-27070214D01*
X189411500Y-27310711D01*
X185583500Y-27310711D01*
X185583500Y-27179500D01*
X185603185Y-27112461D01*
X185655989Y-27066706D01*
X185707500Y-27055500D01*
X186073686Y-27055500D01*
X186140725Y-27075185D01*
X186225944Y-27129952D01*
X186225949Y-27129954D01*
X186364036Y-27170499D01*
X186364038Y-27170500D01*
X186364039Y-27170500D01*
X186507962Y-27170500D01*
X186507962Y-27170499D01*
X186646053Y-27129953D01*
X186767128Y-27052143D01*
X186861377Y-26943373D01*
X186921165Y-26812457D01*
X186941647Y-26670000D01*
X186921165Y-26527543D01*
X186861377Y-26396627D01*
X186767128Y-26287857D01*
X186646053Y-26210047D01*
X186646051Y-26210046D01*
X186646049Y-26210045D01*
X186646050Y-26210045D01*
X186507963Y-26169500D01*
X186507961Y-26169500D01*
X186364039Y-26169500D01*
X186364036Y-26169500D01*
X186225949Y-26210045D01*
X186104873Y-26287856D01*
X186010619Y-26396631D01*
X186010036Y-26397539D01*
X186009220Y-26398245D01*
X186004815Y-26403330D01*
X186004083Y-26402696D01*
X185957232Y-26443294D01*
X185905721Y-26454500D01*
X185654829Y-26454500D01*
X185587790Y-26434815D01*
X185553253Y-26401622D01*
X185550704Y-26397982D01*
X185550703Y-26397979D01*
X185465021Y-26312297D01*
X185465015Y-26312293D01*
X185355208Y-26261090D01*
X185355203Y-26261088D01*
X185355202Y-26261088D01*
X185355200Y-26261087D01*
X185355198Y-26261087D01*
X185305170Y-26254500D01*
X185019483Y-26254500D01*
X184952444Y-26234815D01*
X184921504Y-26206500D01*
X184917088Y-26200807D01*
X184802198Y-26085917D01*
X184802189Y-26085910D01*
X184662335Y-26003200D01*
X184528000Y-25964173D01*
X184528000Y-26631000D01*
X184508315Y-26698039D01*
X184455511Y-26743794D01*
X184404000Y-26755000D01*
X184278000Y-26755000D01*
X184278000Y-26881000D01*
X184258315Y-26948039D01*
X184205511Y-26993794D01*
X184154000Y-27005000D01*
X182837000Y-27005000D01*
X182769961Y-26985315D01*
X182724206Y-26932511D01*
X182713000Y-26881000D01*
X182713000Y-26755000D01*
X182587000Y-26755000D01*
X182519961Y-26735315D01*
X182474206Y-26682511D01*
X182463000Y-26631000D01*
X182463000Y-25950494D01*
X182963000Y-25950494D01*
X182963000Y-26505000D01*
X184028000Y-26505000D01*
X184028000Y-25964173D01*
X183893664Y-26003200D01*
X183753810Y-26085910D01*
X183753801Y-26085917D01*
X183638917Y-26200801D01*
X183638908Y-26200812D01*
X183610854Y-26248250D01*
X183559785Y-26295933D01*
X183491043Y-26308436D01*
X183426454Y-26281790D01*
X183397391Y-26248249D01*
X183362721Y-26189625D01*
X183362714Y-26189616D01*
X183248383Y-26075285D01*
X183248374Y-26075278D01*
X183109193Y-25992967D01*
X183109190Y-25992965D01*
X182963001Y-25950493D01*
X182963000Y-25950494D01*
X182463000Y-25950494D01*
X182462998Y-25950493D01*
X182316809Y-25992965D01*
X182316806Y-25992967D01*
X182177625Y-26075278D01*
X182177620Y-26075282D01*
X182063282Y-26189621D01*
X182058499Y-26195788D01*
X182056544Y-26194272D01*
X182014362Y-26233644D01*
X181945618Y-26246135D01*
X181942537Y-26245768D01*
X181932904Y-26244500D01*
X181932901Y-26244500D01*
X181808833Y-26244500D01*
X181741794Y-26224815D01*
X181721152Y-26208181D01*
X179910512Y-24397541D01*
X179910511Y-24397540D01*
X179887059Y-24384000D01*
X179887058Y-24383999D01*
X180596353Y-24383999D01*
X180616834Y-24526456D01*
X180652471Y-24604489D01*
X180676623Y-24657373D01*
X180770872Y-24766143D01*
X180891947Y-24843953D01*
X180891950Y-24843954D01*
X180891949Y-24843954D01*
X181030036Y-24884499D01*
X181030038Y-24884500D01*
X181030039Y-24884500D01*
X181173962Y-24884500D01*
X181173962Y-24884499D01*
X181312053Y-24843953D01*
X181433128Y-24766143D01*
X181466788Y-24727296D01*
X181525567Y-24689523D01*
X181560501Y-24684500D01*
X181805583Y-24684500D01*
X181872622Y-24704185D01*
X181918377Y-24756989D01*
X181928679Y-24823447D01*
X181920355Y-24891999D01*
X181940859Y-25060869D01*
X181940860Y-25060874D01*
X182001182Y-25219931D01*
X182052309Y-25294000D01*
X182097817Y-25359929D01*
X182203505Y-25453560D01*
X182225150Y-25472736D01*
X182364743Y-25546000D01*
X182375775Y-25551790D01*
X182540944Y-25592500D01*
X182711056Y-25592500D01*
X182876225Y-25551790D01*
X182979644Y-25497511D01*
X183026849Y-25472736D01*
X183026850Y-25472734D01*
X183026852Y-25472734D01*
X183154183Y-25359929D01*
X183250818Y-25219930D01*
X183266020Y-25179844D01*
X198381000Y-25179844D01*
X198387401Y-25239372D01*
X198387403Y-25239379D01*
X198437645Y-25374086D01*
X198437649Y-25374093D01*
X198523809Y-25489187D01*
X198523812Y-25489190D01*
X198638906Y-25575350D01*
X198638913Y-25575354D01*
X198773620Y-25625596D01*
X198773627Y-25625598D01*
X198833155Y-25631999D01*
X198833172Y-25632000D01*
X199531000Y-25632000D01*
X199531000Y-24782000D01*
X198381000Y-24782000D01*
X198381000Y-25179844D01*
X183266020Y-25179844D01*
X183311140Y-25060872D01*
X183331645Y-24892000D01*
X183311140Y-24723128D01*
X183298395Y-24689523D01*
X183251738Y-24566496D01*
X183250818Y-24564070D01*
X183243086Y-24552869D01*
X183216476Y-24514318D01*
X183154183Y-24424071D01*
X183026852Y-24311266D01*
X183026849Y-24311263D01*
X182876226Y-24232210D01*
X182711056Y-24191500D01*
X182540944Y-24191500D01*
X182540940Y-24191500D01*
X182456035Y-24212426D01*
X182386233Y-24209356D01*
X182338681Y-24179710D01*
X182302512Y-24143541D01*
X182302504Y-24143535D01*
X182233995Y-24103982D01*
X182233990Y-24103979D01*
X182208513Y-24097152D01*
X182157562Y-24083500D01*
X182157560Y-24083500D01*
X181560501Y-24083500D01*
X181493462Y-24063815D01*
X181466788Y-24040703D01*
X181462847Y-24036155D01*
X181433128Y-24001857D01*
X181312053Y-23924047D01*
X181312051Y-23924046D01*
X181312049Y-23924045D01*
X181312050Y-23924045D01*
X181173963Y-23883500D01*
X181173961Y-23883500D01*
X181030039Y-23883500D01*
X181030036Y-23883500D01*
X180891949Y-23924045D01*
X180770873Y-24001856D01*
X180676623Y-24110626D01*
X180676622Y-24110628D01*
X180616834Y-24241543D01*
X180596353Y-24383999D01*
X179887058Y-24383999D01*
X179887057Y-24383998D01*
X179841991Y-24357980D01*
X179841990Y-24357979D01*
X179816513Y-24351152D01*
X179765562Y-24337500D01*
X165060438Y-24337500D01*
X165022224Y-24347739D01*
X164984009Y-24357979D01*
X164984008Y-24357980D01*
X164938942Y-24383998D01*
X164938943Y-24383999D01*
X164915487Y-24397541D01*
X162470181Y-26842848D01*
X162408858Y-26876333D01*
X162339166Y-26871349D01*
X162283233Y-26829477D01*
X162258816Y-26764013D01*
X162258500Y-26755167D01*
X162258500Y-26406556D01*
X162278185Y-26339517D01*
X162308189Y-26307290D01*
X162415187Y-26227190D01*
X162415190Y-26227187D01*
X162501350Y-26112093D01*
X162501354Y-26112086D01*
X162551596Y-25977379D01*
X162551598Y-25977372D01*
X162557999Y-25917844D01*
X162558000Y-25917827D01*
X162558000Y-25670000D01*
X160052000Y-25670000D01*
X159984961Y-25650315D01*
X159939206Y-25597511D01*
X159934672Y-25576672D01*
X159928000Y-25570000D01*
X159607000Y-25570000D01*
X159539961Y-25550315D01*
X159494206Y-25497511D01*
X159483000Y-25446000D01*
X159483000Y-25320000D01*
X159357000Y-25320000D01*
X159289961Y-25300315D01*
X159244206Y-25247511D01*
X159233000Y-25196000D01*
X159233000Y-24552216D01*
X159232999Y-24552215D01*
X159733000Y-24552215D01*
X159733000Y-25070000D01*
X160289000Y-25070000D01*
X160356039Y-25089685D01*
X160401794Y-25142489D01*
X160406327Y-25163327D01*
X160413000Y-25170000D01*
X161058000Y-25170000D01*
X161558000Y-25170000D01*
X162558000Y-25170000D01*
X162558000Y-24922172D01*
X162557999Y-24922155D01*
X162551598Y-24862627D01*
X162551596Y-24862620D01*
X162501354Y-24727913D01*
X162501350Y-24727906D01*
X162415190Y-24612812D01*
X162415187Y-24612809D01*
X162300093Y-24526649D01*
X162300086Y-24526645D01*
X162165379Y-24476403D01*
X162165372Y-24476401D01*
X162105844Y-24470000D01*
X161558000Y-24470000D01*
X161558000Y-25170000D01*
X161058000Y-25170000D01*
X161058000Y-24470000D01*
X160510155Y-24470000D01*
X160450627Y-24476401D01*
X160450620Y-24476403D01*
X160315913Y-24526645D01*
X160315906Y-24526649D01*
X160200812Y-24612809D01*
X160181916Y-24638050D01*
X160125981Y-24679919D01*
X160056289Y-24684900D01*
X160019531Y-24670467D01*
X159897336Y-24598201D01*
X159897331Y-24598199D01*
X159741307Y-24552870D01*
X159741302Y-24552869D01*
X159733000Y-24552215D01*
X159232999Y-24552215D01*
X159224697Y-24552869D01*
X159224692Y-24552870D01*
X159068668Y-24598199D01*
X159068663Y-24598201D01*
X158928810Y-24680910D01*
X158928801Y-24680917D01*
X158813917Y-24795801D01*
X158813913Y-24795807D01*
X158732409Y-24933622D01*
X158681339Y-24981305D01*
X158625677Y-24994500D01*
X157302499Y-24994500D01*
X157235460Y-24974815D01*
X157189705Y-24922011D01*
X157178499Y-24870500D01*
X157178499Y-24693652D01*
X157178499Y-24693646D01*
X157175602Y-24668666D01*
X157147265Y-24604489D01*
X157130490Y-24566496D01*
X157130488Y-24566493D01*
X157130487Y-24566491D01*
X157051509Y-24487513D01*
X157011846Y-24470000D01*
X156949335Y-24442398D01*
X156924355Y-24439500D01*
X153791652Y-24439500D01*
X153791629Y-24439502D01*
X153766668Y-24442397D01*
X153766665Y-24442398D01*
X153664496Y-24487509D01*
X153664488Y-24487515D01*
X153585515Y-24566488D01*
X153585511Y-24566495D01*
X153540398Y-24668663D01*
X153540398Y-24668665D01*
X153537500Y-24693642D01*
X153537500Y-24870500D01*
X153517815Y-24937539D01*
X153465011Y-24983294D01*
X153413500Y-24994500D01*
X150433438Y-24994500D01*
X150395224Y-25004739D01*
X150357009Y-25014979D01*
X150357004Y-25014982D01*
X150288495Y-25054535D01*
X150288487Y-25054541D01*
X149639317Y-25703710D01*
X149577994Y-25737195D01*
X149521962Y-25736426D01*
X149437057Y-25715500D01*
X149437056Y-25715500D01*
X149266944Y-25715500D01*
X149101773Y-25756210D01*
X148951150Y-25835263D01*
X148823816Y-25948072D01*
X148727182Y-26088068D01*
X148666860Y-26247125D01*
X148666859Y-26247130D01*
X148646355Y-26416000D01*
X148666859Y-26584869D01*
X148666860Y-26584874D01*
X148727182Y-26743931D01*
X148758637Y-26789500D01*
X148823817Y-26883929D01*
X148951148Y-26996734D01*
X148985126Y-27014567D01*
X149035338Y-27063150D01*
X149051500Y-27124363D01*
X149051500Y-32087500D01*
X149031815Y-32154539D01*
X148979011Y-32200294D01*
X148927500Y-32211500D01*
X139448919Y-32211500D01*
X139381880Y-32191815D01*
X139336125Y-32139011D01*
X139334360Y-32134957D01*
X139333868Y-32133771D01*
X139289552Y-32067447D01*
X139223230Y-32023132D01*
X139223229Y-32023131D01*
X139164752Y-32011500D01*
X139164748Y-32011500D01*
X138565252Y-32011500D01*
X138565247Y-32011500D01*
X138506770Y-32023131D01*
X138506767Y-32023133D01*
X138498888Y-32028398D01*
X138432210Y-32049274D01*
X138364831Y-32030788D01*
X138361112Y-32028398D01*
X138353232Y-32023133D01*
X138353229Y-32023131D01*
X138294752Y-32011500D01*
X138294748Y-32011500D01*
X137695252Y-32011500D01*
X137695247Y-32011500D01*
X137636770Y-32023131D01*
X137636769Y-32023132D01*
X137570447Y-32067447D01*
X137526131Y-32133771D01*
X137525640Y-32134957D01*
X137523878Y-32137142D01*
X137519348Y-32143923D01*
X137518741Y-32143517D01*
X137481797Y-32189359D01*
X137415502Y-32211421D01*
X137411081Y-32211500D01*
X137179500Y-32211500D01*
X137112461Y-32191815D01*
X137066706Y-32139011D01*
X137057815Y-32098142D01*
X137056097Y-32098312D01*
X137055500Y-32092257D01*
X137055500Y-32092252D01*
X137053676Y-32083084D01*
X137043868Y-32033770D01*
X137043867Y-32033769D01*
X136999552Y-31967447D01*
X136933230Y-31923132D01*
X136933229Y-31923131D01*
X136874752Y-31911500D01*
X136874748Y-31911500D01*
X136035252Y-31911500D01*
X136035247Y-31911500D01*
X135976770Y-31923131D01*
X135976769Y-31923132D01*
X135910447Y-31967448D01*
X135900200Y-31982783D01*
X135846586Y-32027586D01*
X135777261Y-32036292D01*
X135714235Y-32006135D01*
X135680918Y-31957222D01*
X135648354Y-31869913D01*
X135648350Y-31869906D01*
X135562190Y-31754812D01*
X135562187Y-31754809D01*
X135447093Y-31668649D01*
X135447086Y-31668645D01*
X135312379Y-31618403D01*
X135312372Y-31618401D01*
X135252844Y-31612000D01*
X135055000Y-31612000D01*
X135055000Y-33412000D01*
X135252828Y-33412000D01*
X135252844Y-33411999D01*
X135312372Y-33405598D01*
X135312379Y-33405596D01*
X135447086Y-33355354D01*
X135447093Y-33355350D01*
X135562187Y-33269190D01*
X135562190Y-33269187D01*
X135648350Y-33154093D01*
X135648355Y-33154084D01*
X135680918Y-33066778D01*
X135722789Y-33010844D01*
X135788253Y-32986426D01*
X135856526Y-33001277D01*
X135900201Y-33041218D01*
X135910446Y-33056551D01*
X135976769Y-33100867D01*
X135976770Y-33100868D01*
X136035247Y-33112499D01*
X136035250Y-33112500D01*
X136035252Y-33112500D01*
X136874750Y-33112500D01*
X136874751Y-33112499D01*
X136889568Y-33109552D01*
X136933229Y-33100868D01*
X136933229Y-33100867D01*
X136933231Y-33100867D01*
X136999552Y-33056552D01*
X137043867Y-32990231D01*
X137043867Y-32990229D01*
X137043868Y-32990229D01*
X137052552Y-32946568D01*
X137055500Y-32931748D01*
X137055500Y-32931741D01*
X137056097Y-32925688D01*
X137058602Y-32925934D01*
X137075185Y-32869461D01*
X137127989Y-32823706D01*
X137179500Y-32812500D01*
X137411081Y-32812500D01*
X137478120Y-32832185D01*
X137523875Y-32884989D01*
X137525640Y-32889043D01*
X137526131Y-32890228D01*
X137570447Y-32956552D01*
X137636769Y-33000867D01*
X137636770Y-33000868D01*
X137695247Y-33012499D01*
X137695250Y-33012500D01*
X137695252Y-33012500D01*
X138294750Y-33012500D01*
X138294751Y-33012499D01*
X138309568Y-33009552D01*
X138353229Y-33000868D01*
X138353231Y-33000867D01*
X138361108Y-32995604D01*
X138427785Y-32974725D01*
X138495165Y-32993209D01*
X138498892Y-32995604D01*
X138506768Y-33000867D01*
X138506770Y-33000868D01*
X138565247Y-33012499D01*
X138565250Y-33012500D01*
X138565252Y-33012500D01*
X139164750Y-33012500D01*
X139164751Y-33012499D01*
X139179568Y-33009552D01*
X139223229Y-33000868D01*
X139223229Y-33000867D01*
X139223231Y-33000867D01*
X139289552Y-32956552D01*
X139333867Y-32890231D01*
X139333868Y-32890228D01*
X139334360Y-32889043D01*
X139336121Y-32886857D01*
X139340652Y-32880077D01*
X139341258Y-32880482D01*
X139378203Y-32834641D01*
X139444498Y-32812579D01*
X139448919Y-32812500D01*
X149391560Y-32812500D01*
X149391562Y-32812500D01*
X149467989Y-32792021D01*
X149536511Y-32752460D01*
X149592460Y-32696511D01*
X149632021Y-32627989D01*
X149637486Y-32607592D01*
X152103001Y-32607592D01*
X152117663Y-32718976D01*
X152117665Y-32718985D01*
X152175073Y-32857579D01*
X152266400Y-32976599D01*
X152385420Y-33067926D01*
X152524014Y-33125334D01*
X152524016Y-33125335D01*
X152635408Y-33139999D01*
X152817999Y-33139999D01*
X153318000Y-33139999D01*
X153347000Y-33139999D01*
X153414039Y-33159684D01*
X153459794Y-33212488D01*
X153471000Y-33263999D01*
X153471000Y-33290000D01*
X154001000Y-33290000D01*
X154001000Y-32693968D01*
X154020685Y-32626929D01*
X154032217Y-32613537D01*
X154033000Y-32607594D01*
X154033000Y-32235000D01*
X153318000Y-32235000D01*
X153318000Y-33139999D01*
X152817999Y-33139999D01*
X152818000Y-33139998D01*
X152818000Y-32235000D01*
X152103001Y-32235000D01*
X152103001Y-32607592D01*
X149637486Y-32607592D01*
X149652500Y-32551562D01*
X149652500Y-31362408D01*
X152103000Y-31362408D01*
X152103000Y-31735000D01*
X152818000Y-31735000D01*
X153318000Y-31735000D01*
X154032999Y-31735000D01*
X154032999Y-31362407D01*
X154018336Y-31251023D01*
X154018334Y-31251014D01*
X153960926Y-31112420D01*
X153869599Y-30993400D01*
X153750579Y-30902073D01*
X153611985Y-30844665D01*
X153611983Y-30844664D01*
X153500592Y-30830000D01*
X153318000Y-30830000D01*
X153318000Y-31735000D01*
X152818000Y-31735000D01*
X152818000Y-30830000D01*
X152635406Y-30830000D01*
X152524023Y-30844662D01*
X152524014Y-30844665D01*
X152385420Y-30902073D01*
X152266400Y-30993400D01*
X152175073Y-31112420D01*
X152117665Y-31251014D01*
X152117664Y-31251016D01*
X152103000Y-31362408D01*
X149652500Y-31362408D01*
X149652500Y-27124363D01*
X149672185Y-27057324D01*
X149718873Y-27014567D01*
X149752852Y-26996734D01*
X149880183Y-26883929D01*
X149976818Y-26743930D01*
X150037140Y-26584872D01*
X150057645Y-26416000D01*
X150037140Y-26247128D01*
X150037139Y-26247125D01*
X150035824Y-26241790D01*
X150038891Y-26171988D01*
X150068537Y-26124432D01*
X150561152Y-25631819D01*
X150622475Y-25598334D01*
X150648833Y-25595500D01*
X153413501Y-25595500D01*
X153480540Y-25615185D01*
X153526295Y-25667989D01*
X153537501Y-25719500D01*
X153537501Y-25896347D01*
X153537502Y-25896370D01*
X153540397Y-25921331D01*
X153540398Y-25921334D01*
X153585509Y-26023503D01*
X153585512Y-26023507D01*
X153585513Y-26023509D01*
X153664491Y-26102487D01*
X153766666Y-26147602D01*
X153791645Y-26150500D01*
X154933500Y-26150499D01*
X155000539Y-26170184D01*
X155046294Y-26222987D01*
X155057500Y-26274499D01*
X155057500Y-31005500D01*
X155037815Y-31072539D01*
X154985011Y-31118294D01*
X154942068Y-31127642D01*
X154942193Y-31128904D01*
X154936135Y-31129500D01*
X154857301Y-31145180D01*
X154767910Y-31204910D01*
X154708179Y-31294302D01*
X154692500Y-31373128D01*
X154692500Y-32596867D01*
X154693098Y-32602930D01*
X154690486Y-32603187D01*
X154685248Y-32661449D01*
X154642361Y-32716608D01*
X154576462Y-32739825D01*
X154569877Y-32740000D01*
X154501000Y-32740000D01*
X154501000Y-33416000D01*
X154481315Y-33483039D01*
X154428511Y-33528794D01*
X154377000Y-33540000D01*
X154251000Y-33540000D01*
X154251000Y-33666000D01*
X154231315Y-33733039D01*
X154178511Y-33778794D01*
X154127000Y-33790000D01*
X153624141Y-33790000D01*
X153562142Y-33773387D01*
X153531995Y-33755981D01*
X153531990Y-33755979D01*
X153506513Y-33749152D01*
X153455562Y-33735500D01*
X153455560Y-33735500D01*
X153151919Y-33735500D01*
X153084880Y-33715815D01*
X153039125Y-33663011D01*
X153037360Y-33658957D01*
X153036868Y-33657771D01*
X152992552Y-33591447D01*
X152926230Y-33547132D01*
X152926229Y-33547131D01*
X152867752Y-33535500D01*
X152867748Y-33535500D01*
X152328252Y-33535500D01*
X152328247Y-33535500D01*
X152269770Y-33547131D01*
X152269769Y-33547132D01*
X152214891Y-33583801D01*
X152148213Y-33604679D01*
X152080833Y-33586194D01*
X152077109Y-33583801D01*
X152022230Y-33547132D01*
X152022229Y-33547131D01*
X151963752Y-33535500D01*
X151963748Y-33535500D01*
X151424252Y-33535500D01*
X151424247Y-33535500D01*
X151365770Y-33547131D01*
X151365769Y-33547132D01*
X151299447Y-33591447D01*
X151255131Y-33657771D01*
X151254640Y-33658957D01*
X151252878Y-33661142D01*
X151248348Y-33667923D01*
X151247741Y-33667517D01*
X151210797Y-33713359D01*
X151144502Y-33735421D01*
X151140081Y-33735500D01*
X150057562Y-33735500D01*
X149978438Y-33735500D01*
X149940224Y-33745739D01*
X149902009Y-33755979D01*
X149902004Y-33755982D01*
X149833495Y-33795535D01*
X149833487Y-33795541D01*
X149777541Y-33851487D01*
X149777535Y-33851495D01*
X149737982Y-33920004D01*
X149737979Y-33920009D01*
X149717500Y-33996439D01*
X149717500Y-35389500D01*
X149697815Y-35456539D01*
X149645011Y-35502294D01*
X149593500Y-35513500D01*
X149556501Y-35513500D01*
X149489462Y-35493815D01*
X149462788Y-35470703D01*
X149458140Y-35465339D01*
X149429128Y-35431857D01*
X149308053Y-35354047D01*
X149308051Y-35354046D01*
X149308049Y-35354045D01*
X149308050Y-35354045D01*
X149169963Y-35313500D01*
X149169961Y-35313500D01*
X149026039Y-35313500D01*
X149026036Y-35313500D01*
X148887949Y-35354045D01*
X148766873Y-35431856D01*
X148672623Y-35540626D01*
X148672622Y-35540628D01*
X148612834Y-35671543D01*
X148592353Y-35814000D01*
X148612834Y-35956456D01*
X148669255Y-36079999D01*
X148672623Y-36087373D01*
X148766872Y-36196143D01*
X148887947Y-36273953D01*
X148887950Y-36273954D01*
X148887949Y-36273954D01*
X149026036Y-36314499D01*
X149026038Y-36314500D01*
X149026039Y-36314500D01*
X149169962Y-36314500D01*
X149169962Y-36314499D01*
X149308053Y-36273953D01*
X149429128Y-36196143D01*
X149462788Y-36157296D01*
X149521567Y-36119523D01*
X149556501Y-36114500D01*
X149593500Y-36114500D01*
X149660539Y-36134185D01*
X149706294Y-36186989D01*
X149717500Y-36238500D01*
X149717500Y-39702562D01*
X149733675Y-39762925D01*
X149737979Y-39778989D01*
X149760862Y-39818624D01*
X149765374Y-39826438D01*
X149777540Y-39847511D01*
X149777542Y-39847514D01*
X149777543Y-39847515D01*
X150149848Y-40219819D01*
X150500540Y-40570511D01*
X150556489Y-40626460D01*
X150556491Y-40626461D01*
X150556495Y-40626464D01*
X150607361Y-40655831D01*
X150625011Y-40666021D01*
X150701438Y-40686500D01*
X150701440Y-40686500D01*
X151474560Y-40686500D01*
X151474562Y-40686500D01*
X151550989Y-40666021D01*
X151619511Y-40626460D01*
X151675460Y-40570511D01*
X152026152Y-40219819D01*
X152087475Y-40186334D01*
X152113833Y-40183500D01*
X152457750Y-40183500D01*
X152457751Y-40183499D01*
X152472568Y-40180552D01*
X152516229Y-40171868D01*
X152516229Y-40171867D01*
X152516231Y-40171867D01*
X152582552Y-40127552D01*
X152626867Y-40061231D01*
X152626867Y-40061229D01*
X152626868Y-40061229D01*
X152635552Y-40017568D01*
X152638500Y-40002748D01*
X152638500Y-38413252D01*
X152638500Y-38413249D01*
X152638499Y-38413247D01*
X152626868Y-38354770D01*
X152626867Y-38354769D01*
X152582552Y-38288447D01*
X152506077Y-38237348D01*
X152507843Y-38234704D01*
X152468640Y-38203109D01*
X152446579Y-38136814D01*
X152446500Y-38132395D01*
X152446500Y-38102918D01*
X152466185Y-38035879D01*
X152518989Y-37990124D01*
X152523051Y-37988356D01*
X152524229Y-37987867D01*
X152524231Y-37987867D01*
X152590552Y-37943552D01*
X152634867Y-37877231D01*
X152634867Y-37877229D01*
X152634868Y-37877229D01*
X152645668Y-37822929D01*
X152646500Y-37818748D01*
X152646500Y-37465556D01*
X152666185Y-37398517D01*
X152696189Y-37366290D01*
X152803187Y-37286190D01*
X152803190Y-37286187D01*
X152889350Y-37171093D01*
X152889354Y-37171086D01*
X152939596Y-37036379D01*
X152939598Y-37036372D01*
X152945999Y-36976844D01*
X152946000Y-36976827D01*
X152946000Y-36899000D01*
X151277362Y-36899000D01*
X151243306Y-36889000D01*
X151095000Y-36889000D01*
X151027961Y-36869315D01*
X150982206Y-36816511D01*
X150971000Y-36765000D01*
X150971000Y-36513000D01*
X150990685Y-36445961D01*
X151043489Y-36400206D01*
X151095000Y-36389000D01*
X151839638Y-36389000D01*
X151873694Y-36399000D01*
X152968165Y-36399000D01*
X152980650Y-36392182D01*
X153050342Y-36397163D01*
X153094695Y-36425666D01*
X153969460Y-37300431D01*
X154002945Y-37361754D01*
X154002177Y-37417782D01*
X154000860Y-37423124D01*
X153980355Y-37592000D01*
X154000859Y-37760869D01*
X154000860Y-37760874D01*
X154061182Y-37919931D01*
X154108076Y-37987867D01*
X154157817Y-38059929D01*
X154254824Y-38145869D01*
X154285150Y-38172736D01*
X154413932Y-38240326D01*
X154435775Y-38251790D01*
X154600944Y-38292500D01*
X154771056Y-38292500D01*
X154936225Y-38251790D01*
X155042043Y-38196252D01*
X155086849Y-38172736D01*
X155086850Y-38172734D01*
X155086852Y-38172734D01*
X155214183Y-38059929D01*
X155310818Y-37919930D01*
X155347605Y-37822928D01*
X155389782Y-37767226D01*
X155455380Y-37743168D01*
X155523570Y-37758394D01*
X155572704Y-37808070D01*
X155578902Y-37821410D01*
X155602127Y-37880306D01*
X155602128Y-37880308D01*
X155690782Y-37997217D01*
X155792765Y-38074553D01*
X155834289Y-38130746D01*
X155839457Y-38149164D01*
X155851091Y-38207650D01*
X155879432Y-38250064D01*
X155902865Y-38285135D01*
X155946350Y-38314190D01*
X155980349Y-38336908D01*
X156048677Y-38350500D01*
X156048680Y-38350500D01*
X156683500Y-38350500D01*
X156750539Y-38370185D01*
X156796294Y-38422989D01*
X156807500Y-38474500D01*
X156807500Y-39109320D01*
X156807500Y-39109322D01*
X156807499Y-39109322D01*
X156821091Y-39177650D01*
X156832625Y-39194911D01*
X156872865Y-39255135D01*
X156912264Y-39281460D01*
X156950349Y-39306908D01*
X157018677Y-39320500D01*
X157018680Y-39320500D01*
X157267321Y-39320500D01*
X157297136Y-39314569D01*
X157328435Y-39308343D01*
X157398024Y-39314569D01*
X157440307Y-39342279D01*
X158670347Y-40572319D01*
X158703832Y-40633642D01*
X158698848Y-40703334D01*
X158670347Y-40747681D01*
X157648489Y-41769540D01*
X157592541Y-41825487D01*
X157592535Y-41825495D01*
X157552982Y-41894004D01*
X157552979Y-41894009D01*
X157542364Y-41933627D01*
X157533005Y-41968556D01*
X157532500Y-41970439D01*
X157532500Y-42956636D01*
X157512815Y-43023675D01*
X157466128Y-43066431D01*
X157432151Y-43084264D01*
X157432148Y-43084266D01*
X157380838Y-43129723D01*
X157304816Y-43197072D01*
X157208182Y-43337068D01*
X157147860Y-43496125D01*
X157147859Y-43496130D01*
X157127355Y-43665000D01*
X157147859Y-43833869D01*
X157147860Y-43833874D01*
X157208182Y-43992931D01*
X157263229Y-44072679D01*
X157303140Y-44130500D01*
X157304818Y-44132930D01*
X157426448Y-44240685D01*
X157463575Y-44299874D01*
X157462807Y-44369739D01*
X157424390Y-44428099D01*
X157360519Y-44456424D01*
X157344221Y-44457500D01*
X154558835Y-44457500D01*
X154491796Y-44437815D01*
X154446041Y-44385011D01*
X154436097Y-44315853D01*
X154459569Y-44259188D01*
X154481352Y-44230089D01*
X154481354Y-44230086D01*
X154531596Y-44095379D01*
X154531598Y-44095372D01*
X154537999Y-44035844D01*
X154538000Y-44035827D01*
X154538000Y-43338000D01*
X152338000Y-43338000D01*
X152338000Y-44035844D01*
X152344401Y-44095372D01*
X152344403Y-44095379D01*
X152394645Y-44230086D01*
X152394647Y-44230089D01*
X152416431Y-44259188D01*
X152440849Y-44324652D01*
X152425998Y-44392925D01*
X152376594Y-44442331D01*
X152317165Y-44457500D01*
X150958835Y-44457500D01*
X150891796Y-44437815D01*
X150846041Y-44385011D01*
X150836097Y-44315853D01*
X150859569Y-44259188D01*
X150881352Y-44230089D01*
X150881354Y-44230086D01*
X150931596Y-44095379D01*
X150931598Y-44095372D01*
X150937999Y-44035844D01*
X150938000Y-44035827D01*
X150938000Y-43338000D01*
X148738000Y-43338000D01*
X148738000Y-44035844D01*
X148744401Y-44095372D01*
X148744403Y-44095379D01*
X148794645Y-44230086D01*
X148794647Y-44230089D01*
X148816431Y-44259188D01*
X148840849Y-44324652D01*
X148825998Y-44392925D01*
X148776594Y-44442331D01*
X148717165Y-44457500D01*
X141793288Y-44457500D01*
X141726249Y-44437815D01*
X141680494Y-44385011D01*
X141670550Y-44315853D01*
X141699575Y-44252297D01*
X141705607Y-44245819D01*
X141846086Y-44105339D01*
X141846089Y-44105335D01*
X141960994Y-43933368D01*
X141960999Y-43933358D01*
X142040148Y-43742276D01*
X142040149Y-43742274D01*
X142051343Y-43686000D01*
X141197499Y-43686000D01*
X141214716Y-43676060D01*
X141270571Y-43620205D01*
X141310067Y-43551796D01*
X141330511Y-43475496D01*
X141330511Y-43396504D01*
X141310067Y-43320204D01*
X141270571Y-43251795D01*
X141214716Y-43195940D01*
X141197499Y-43186000D01*
X142051343Y-43186000D01*
X142040149Y-43129725D01*
X142040147Y-43129718D01*
X142017886Y-43075977D01*
X142010416Y-43006508D01*
X142033180Y-42954211D01*
X142123852Y-42833089D01*
X142123854Y-42833086D01*
X142174096Y-42698379D01*
X142174098Y-42698372D01*
X142180499Y-42638844D01*
X142180500Y-42638827D01*
X142180500Y-42566000D01*
X141254500Y-42566000D01*
X141187461Y-42546315D01*
X141141706Y-42493511D01*
X141130500Y-42442000D01*
X141130500Y-42190000D01*
X141150185Y-42122961D01*
X141202989Y-42077206D01*
X141254500Y-42066000D01*
X142180500Y-42066000D01*
X142180500Y-41993172D01*
X142180499Y-41993155D01*
X142174098Y-41933627D01*
X142174096Y-41933620D01*
X142123854Y-41798913D01*
X142123850Y-41798906D01*
X142037690Y-41683812D01*
X141930688Y-41603709D01*
X141888818Y-41547775D01*
X141881000Y-41504443D01*
X141881000Y-41221249D01*
X141880999Y-41221247D01*
X141867363Y-41152691D01*
X141867363Y-41104309D01*
X141880999Y-41035752D01*
X141881000Y-41035750D01*
X141881000Y-40772711D01*
X143691500Y-40772711D01*
X143691500Y-41015288D01*
X143721837Y-41245729D01*
X143723162Y-41255789D01*
X143726779Y-41269288D01*
X143785947Y-41490104D01*
X143868597Y-41689638D01*
X143878776Y-41714212D01*
X144000064Y-41924289D01*
X144000066Y-41924292D01*
X144000067Y-41924293D01*
X144147733Y-42116736D01*
X144147739Y-42116743D01*
X144319256Y-42288260D01*
X144319263Y-42288266D01*
X144426741Y-42370736D01*
X144511711Y-42435936D01*
X144721788Y-42557224D01*
X144874340Y-42620413D01*
X144930574Y-42643706D01*
X144945900Y-42650054D01*
X145180211Y-42712838D01*
X145360586Y-42736584D01*
X145420711Y-42744500D01*
X145420712Y-42744500D01*
X145663289Y-42744500D01*
X145711388Y-42738167D01*
X145903789Y-42712838D01*
X146138100Y-42650054D01*
X146362212Y-42557224D01*
X146572289Y-42435936D01*
X146764738Y-42288265D01*
X146912848Y-42140155D01*
X148738000Y-42140155D01*
X148738000Y-42838000D01*
X149588000Y-42838000D01*
X150088000Y-42838000D01*
X150938000Y-42838000D01*
X150938000Y-42140172D01*
X150937999Y-42140155D01*
X152338000Y-42140155D01*
X152338000Y-42838000D01*
X153188000Y-42838000D01*
X153688000Y-42838000D01*
X154538000Y-42838000D01*
X154538000Y-42140172D01*
X154537999Y-42140155D01*
X154531598Y-42080627D01*
X154531596Y-42080620D01*
X154481354Y-41945913D01*
X154481350Y-41945906D01*
X154395190Y-41830812D01*
X154395187Y-41830809D01*
X154280093Y-41744649D01*
X154280086Y-41744645D01*
X154145379Y-41694403D01*
X154145372Y-41694401D01*
X154085844Y-41688000D01*
X153688000Y-41688000D01*
X153688000Y-42838000D01*
X153188000Y-42838000D01*
X153188000Y-41688000D01*
X152790155Y-41688000D01*
X152730627Y-41694401D01*
X152730620Y-41694403D01*
X152595913Y-41744645D01*
X152595906Y-41744649D01*
X152480812Y-41830809D01*
X152480809Y-41830812D01*
X152394649Y-41945906D01*
X152394645Y-41945913D01*
X152344403Y-42080620D01*
X152344401Y-42080627D01*
X152338000Y-42140155D01*
X150937999Y-42140155D01*
X150931598Y-42080627D01*
X150931596Y-42080620D01*
X150881354Y-41945913D01*
X150881350Y-41945906D01*
X150795190Y-41830812D01*
X150795187Y-41830809D01*
X150680093Y-41744649D01*
X150680086Y-41744645D01*
X150545379Y-41694403D01*
X150545372Y-41694401D01*
X150485844Y-41688000D01*
X150088000Y-41688000D01*
X150088000Y-42838000D01*
X149588000Y-42838000D01*
X149588000Y-41688000D01*
X149190155Y-41688000D01*
X149130627Y-41694401D01*
X149130620Y-41694403D01*
X148995913Y-41744645D01*
X148995906Y-41744649D01*
X148880812Y-41830809D01*
X148880809Y-41830812D01*
X148794649Y-41945906D01*
X148794645Y-41945913D01*
X148744403Y-42080620D01*
X148744401Y-42080627D01*
X148738000Y-42140155D01*
X146912848Y-42140155D01*
X146936265Y-42116738D01*
X147083936Y-41924289D01*
X147205224Y-41714212D01*
X147298054Y-41490100D01*
X147360838Y-41255789D01*
X147392500Y-41015288D01*
X147392500Y-40772712D01*
X147360838Y-40532211D01*
X147298054Y-40297900D01*
X147205224Y-40073788D01*
X147083936Y-39863711D01*
X147006600Y-39762925D01*
X146936266Y-39671263D01*
X146936260Y-39671256D01*
X146764743Y-39499739D01*
X146764736Y-39499733D01*
X146572293Y-39352067D01*
X146572292Y-39352066D01*
X146572289Y-39352064D01*
X146386052Y-39244540D01*
X146362214Y-39230777D01*
X146362205Y-39230773D01*
X146138104Y-39137947D01*
X145903785Y-39075161D01*
X145663289Y-39043500D01*
X145663288Y-39043500D01*
X145420712Y-39043500D01*
X145420711Y-39043500D01*
X145180214Y-39075161D01*
X144945895Y-39137947D01*
X144721794Y-39230773D01*
X144721785Y-39230777D01*
X144511706Y-39352067D01*
X144319263Y-39499733D01*
X144319256Y-39499739D01*
X144147739Y-39671256D01*
X144147733Y-39671263D01*
X144000067Y-39863706D01*
X143878777Y-40073785D01*
X143878773Y-40073794D01*
X143785947Y-40297895D01*
X143723161Y-40532214D01*
X143691500Y-40772711D01*
X141881000Y-40772711D01*
X141881000Y-40696249D01*
X141869849Y-40640192D01*
X141869849Y-40591808D01*
X141881000Y-40535750D01*
X141881000Y-40459863D01*
X141900685Y-40392824D01*
X141953489Y-40347069D01*
X142022647Y-40337125D01*
X142039934Y-40340886D01*
X142168036Y-40378499D01*
X142168038Y-40378500D01*
X142168039Y-40378500D01*
X142311962Y-40378500D01*
X142311962Y-40378499D01*
X142440064Y-40340886D01*
X142450050Y-40337954D01*
X142450050Y-40337953D01*
X142450053Y-40337953D01*
X142571128Y-40260143D01*
X142665377Y-40151373D01*
X142725165Y-40020457D01*
X142745647Y-39878000D01*
X142725165Y-39735543D01*
X142665377Y-39604627D01*
X142571128Y-39495857D01*
X142450053Y-39418047D01*
X142450050Y-39418045D01*
X142386877Y-39399496D01*
X142328099Y-39361721D01*
X142299074Y-39298165D01*
X142309018Y-39229007D01*
X142334129Y-39192840D01*
X142382152Y-39144818D01*
X142443475Y-39111334D01*
X142469832Y-39108500D01*
X142565962Y-39108500D01*
X142565962Y-39108499D01*
X142704053Y-39067953D01*
X142825128Y-38990143D01*
X142919377Y-38881373D01*
X142979165Y-38750457D01*
X142999647Y-38608000D01*
X142979165Y-38465543D01*
X142919377Y-38334627D01*
X142825128Y-38225857D01*
X142704053Y-38148047D01*
X142704051Y-38148046D01*
X142704049Y-38148045D01*
X142704050Y-38148045D01*
X142565963Y-38107500D01*
X142565961Y-38107500D01*
X142450833Y-38107500D01*
X142383794Y-38087815D01*
X142338039Y-38035011D01*
X142328095Y-37965853D01*
X142357120Y-37902297D01*
X142363152Y-37895819D01*
X142920152Y-37338819D01*
X142981475Y-37305334D01*
X143007833Y-37302500D01*
X143226317Y-37302500D01*
X143242601Y-37300356D01*
X143275173Y-37296068D01*
X143382404Y-37246065D01*
X143466065Y-37162404D01*
X143516068Y-37055173D01*
X143522500Y-37006316D01*
X143522500Y-36657684D01*
X143516068Y-36608827D01*
X143466065Y-36501596D01*
X143382404Y-36417935D01*
X143374733Y-36410264D01*
X143377561Y-36407435D01*
X143346843Y-36369023D01*
X143339635Y-36299526D01*
X143371143Y-36237165D01*
X143374903Y-36233906D01*
X143374733Y-36233736D01*
X143418316Y-36190153D01*
X143466065Y-36142404D01*
X143516068Y-36035173D01*
X143522500Y-35986316D01*
X143522500Y-35637684D01*
X143520799Y-35624767D01*
X143516068Y-35588828D01*
X143516068Y-35588827D01*
X143466065Y-35481596D01*
X143382404Y-35397935D01*
X143382401Y-35397932D01*
X143374089Y-35394056D01*
X143321652Y-35347881D01*
X143302500Y-35281677D01*
X143302500Y-34758439D01*
X143301982Y-34756504D01*
X143282021Y-34682011D01*
X143264875Y-34652314D01*
X143248402Y-34584416D01*
X143249523Y-34572676D01*
X143253647Y-34544000D01*
X143233165Y-34401543D01*
X143173377Y-34270627D01*
X143079128Y-34161857D01*
X142958053Y-34084047D01*
X142958051Y-34084046D01*
X142958049Y-34084045D01*
X142958050Y-34084045D01*
X142819963Y-34043500D01*
X142819961Y-34043500D01*
X142676039Y-34043500D01*
X142676036Y-34043500D01*
X142537949Y-34084045D01*
X142416873Y-34161856D01*
X142322623Y-34270626D01*
X142322622Y-34270628D01*
X142262834Y-34401544D01*
X142262833Y-34401547D01*
X142260368Y-34418692D01*
X142231341Y-34482247D01*
X142172562Y-34520019D01*
X142102692Y-34520017D01*
X142043915Y-34482241D01*
X142023070Y-34448493D01*
X141961001Y-34298644D01*
X141960994Y-34298631D01*
X141846089Y-34126664D01*
X141846086Y-34126660D01*
X141699839Y-33980413D01*
X141699835Y-33980410D01*
X141527868Y-33865505D01*
X141527858Y-33865500D01*
X141336774Y-33786350D01*
X141336766Y-33786348D01*
X141133920Y-33746000D01*
X140830500Y-33746000D01*
X140830500Y-34496000D01*
X140330500Y-34496000D01*
X140330500Y-33746000D01*
X140027079Y-33746000D01*
X139824233Y-33786348D01*
X139824225Y-33786350D01*
X139633141Y-33865500D01*
X139633131Y-33865505D01*
X139461164Y-33980410D01*
X139461160Y-33980413D01*
X139314913Y-34126660D01*
X139314910Y-34126664D01*
X139200005Y-34298631D01*
X139200000Y-34298641D01*
X139120851Y-34489723D01*
X139120850Y-34489725D01*
X139109657Y-34546000D01*
X139963513Y-34546000D01*
X139946296Y-34555940D01*
X139890441Y-34611795D01*
X139850945Y-34680204D01*
X139830501Y-34756504D01*
X139830501Y-34835496D01*
X139850945Y-34911796D01*
X139890441Y-34980205D01*
X139946296Y-35036060D01*
X139963513Y-35046000D01*
X139109657Y-35046000D01*
X139120850Y-35102274D01*
X139120851Y-35102276D01*
X139200000Y-35293358D01*
X139200005Y-35293368D01*
X139314910Y-35465335D01*
X139314913Y-35465339D01*
X139461161Y-35611587D01*
X139548046Y-35669641D01*
X139592852Y-35723253D01*
X139601559Y-35792578D01*
X139574020Y-35850138D01*
X139574928Y-35850834D01*
X139571634Y-35855126D01*
X139571405Y-35855606D01*
X139570677Y-35856373D01*
X139569979Y-35857283D01*
X139490926Y-35994209D01*
X139490923Y-35994216D01*
X139450000Y-36146943D01*
X139450000Y-36305057D01*
X139488972Y-36450500D01*
X139490923Y-36457783D01*
X139490926Y-36457790D01*
X139569975Y-36594709D01*
X139569979Y-36594714D01*
X139569980Y-36594716D01*
X139681784Y-36706520D01*
X139681786Y-36706521D01*
X139681790Y-36706524D01*
X139799604Y-36774543D01*
X139818716Y-36785577D01*
X139822018Y-36786461D01*
X139824489Y-36787968D01*
X139826223Y-36788686D01*
X139826111Y-36788956D01*
X139881679Y-36822823D01*
X139912211Y-36885669D01*
X139903919Y-36955045D01*
X139877610Y-36993918D01*
X139515489Y-37356040D01*
X139459541Y-37411987D01*
X139459535Y-37411995D01*
X139419982Y-37480504D01*
X139419979Y-37480509D01*
X139411026Y-37513923D01*
X139399500Y-37556938D01*
X139399500Y-40705113D01*
X139419979Y-40781540D01*
X139422670Y-40786201D01*
X139422673Y-40786213D01*
X139422677Y-40786212D01*
X139459539Y-40850060D01*
X139459541Y-40850063D01*
X139855207Y-41245729D01*
X139888692Y-41307052D01*
X139883708Y-41376744D01*
X139841836Y-41432677D01*
X139825526Y-41441964D01*
X139825754Y-41442359D01*
X139681790Y-41525475D01*
X139681782Y-41525481D01*
X139569981Y-41637282D01*
X139569975Y-41637290D01*
X139490926Y-41774209D01*
X139490923Y-41774216D01*
X139450000Y-41926943D01*
X139450000Y-42085057D01*
X139490003Y-42234348D01*
X139490923Y-42237783D01*
X139490926Y-42237790D01*
X139569975Y-42374709D01*
X139574926Y-42381161D01*
X139572915Y-42382704D01*
X139600322Y-42432896D01*
X139595338Y-42502588D01*
X139553466Y-42558521D01*
X139548048Y-42562356D01*
X139461160Y-42620413D01*
X139314913Y-42766660D01*
X139314910Y-42766664D01*
X139200005Y-42938631D01*
X139200000Y-42938641D01*
X139120851Y-43129723D01*
X139120850Y-43129725D01*
X139109657Y-43186000D01*
X139963501Y-43186000D01*
X139946284Y-43195940D01*
X139890429Y-43251795D01*
X139850933Y-43320204D01*
X139830489Y-43396504D01*
X139830489Y-43475496D01*
X139850933Y-43551796D01*
X139890429Y-43620205D01*
X139946284Y-43676060D01*
X139963501Y-43686000D01*
X139109657Y-43686000D01*
X139120850Y-43742274D01*
X139120851Y-43742276D01*
X139200000Y-43933358D01*
X139200005Y-43933368D01*
X139314910Y-44105335D01*
X139314913Y-44105339D01*
X139455393Y-44245819D01*
X139488878Y-44307142D01*
X139483894Y-44376834D01*
X139442022Y-44432767D01*
X139376558Y-44457184D01*
X139367712Y-44457500D01*
X137503997Y-44457500D01*
X137436958Y-44437815D01*
X137391203Y-44385011D01*
X137381259Y-44315853D01*
X137410284Y-44252297D01*
X137416316Y-44245819D01*
X137509532Y-44152602D01*
X137611304Y-44012524D01*
X137689908Y-43858255D01*
X137743414Y-43693584D01*
X137744615Y-43686000D01*
X136837487Y-43686000D01*
X136854704Y-43676060D01*
X136910559Y-43620205D01*
X136950055Y-43551796D01*
X136970499Y-43475496D01*
X136970499Y-43396504D01*
X136950055Y-43320204D01*
X136910559Y-43251795D01*
X136854704Y-43195940D01*
X136837487Y-43186000D01*
X137744615Y-43186000D01*
X137744615Y-43185999D01*
X137743414Y-43178415D01*
X137689908Y-43013744D01*
X137611304Y-42859475D01*
X137509532Y-42719397D01*
X137387102Y-42596967D01*
X137247024Y-42495195D01*
X137092757Y-42416591D01*
X136928084Y-42363085D01*
X136757071Y-42336000D01*
X136620500Y-42336000D01*
X136620500Y-43136000D01*
X136120500Y-43136000D01*
X136120500Y-42336000D01*
X135983929Y-42336000D01*
X135812915Y-42363085D01*
X135648242Y-42416591D01*
X135493975Y-42495195D01*
X135353897Y-42596967D01*
X135231467Y-42719397D01*
X135129695Y-42859475D01*
X135051091Y-43013744D01*
X134997585Y-43178415D01*
X134996384Y-43185999D01*
X134996385Y-43186000D01*
X135903513Y-43186000D01*
X135886296Y-43195940D01*
X135830441Y-43251795D01*
X135790945Y-43320204D01*
X135770501Y-43396504D01*
X135770501Y-43475496D01*
X135790945Y-43551796D01*
X135830441Y-43620205D01*
X135886296Y-43676060D01*
X135903513Y-43686000D01*
X134996385Y-43686000D01*
X134997585Y-43693584D01*
X135051091Y-43858255D01*
X135129695Y-44012524D01*
X135231467Y-44152602D01*
X135324684Y-44245819D01*
X135358169Y-44307142D01*
X135353185Y-44376834D01*
X135311313Y-44432767D01*
X135245849Y-44457184D01*
X135237003Y-44457500D01*
X133424000Y-44457500D01*
X133356961Y-44437815D01*
X133311206Y-44385011D01*
X133300000Y-44333500D01*
X133300000Y-34545999D01*
X134996384Y-34545999D01*
X134996385Y-34546000D01*
X135903513Y-34546000D01*
X135886296Y-34555940D01*
X135830441Y-34611795D01*
X135790945Y-34680204D01*
X135770501Y-34756504D01*
X135770501Y-34835496D01*
X135790945Y-34911796D01*
X135830441Y-34980205D01*
X135886296Y-35036060D01*
X135903513Y-35046000D01*
X134996385Y-35046000D01*
X134997585Y-35053584D01*
X135051091Y-35218255D01*
X135129695Y-35372524D01*
X135231467Y-35512602D01*
X135353897Y-35635032D01*
X135493975Y-35736804D01*
X135648242Y-35815408D01*
X135812915Y-35868914D01*
X135983929Y-35896000D01*
X136120500Y-35896000D01*
X136120500Y-35096000D01*
X136620500Y-35096000D01*
X136620500Y-35896000D01*
X136757071Y-35896000D01*
X136928084Y-35868914D01*
X137092757Y-35815408D01*
X137247024Y-35736804D01*
X137387102Y-35635032D01*
X137509532Y-35512602D01*
X137611304Y-35372524D01*
X137689908Y-35218255D01*
X137743414Y-35053584D01*
X137744615Y-35046000D01*
X136837487Y-35046000D01*
X136854704Y-35036060D01*
X136910559Y-34980205D01*
X136950055Y-34911796D01*
X136970499Y-34835496D01*
X136970499Y-34756504D01*
X136950055Y-34680204D01*
X136910559Y-34611795D01*
X136854704Y-34555940D01*
X136837487Y-34546000D01*
X137744615Y-34546000D01*
X137744615Y-34545999D01*
X137743414Y-34538415D01*
X137689908Y-34373744D01*
X137611304Y-34219475D01*
X137509532Y-34079397D01*
X137387102Y-33956967D01*
X137247024Y-33855195D01*
X137092757Y-33776591D01*
X136928084Y-33723085D01*
X136757071Y-33696000D01*
X136620500Y-33696000D01*
X136620500Y-34496000D01*
X136120500Y-34496000D01*
X136120500Y-33696000D01*
X135983929Y-33696000D01*
X135812915Y-33723085D01*
X135648242Y-33776591D01*
X135493975Y-33855195D01*
X135353897Y-33956967D01*
X135231467Y-34079397D01*
X135129695Y-34219475D01*
X135051091Y-34373744D01*
X134997585Y-34538415D01*
X134996384Y-34545999D01*
X133300000Y-34545999D01*
X133300000Y-32959844D01*
X133905000Y-32959844D01*
X133911401Y-33019372D01*
X133911403Y-33019379D01*
X133961645Y-33154086D01*
X133961649Y-33154093D01*
X134047809Y-33269187D01*
X134047812Y-33269190D01*
X134162906Y-33355350D01*
X134162913Y-33355354D01*
X134297620Y-33405596D01*
X134297627Y-33405598D01*
X134357155Y-33411999D01*
X134357172Y-33412000D01*
X134555000Y-33412000D01*
X134555000Y-32762000D01*
X133905000Y-32762000D01*
X133905000Y-32959844D01*
X133300000Y-32959844D01*
X133300000Y-32064155D01*
X133905000Y-32064155D01*
X133905000Y-32262000D01*
X134555000Y-32262000D01*
X134555000Y-31612000D01*
X134357155Y-31612000D01*
X134297627Y-31618401D01*
X134297620Y-31618403D01*
X134162913Y-31668645D01*
X134162906Y-31668649D01*
X134047812Y-31754809D01*
X134047809Y-31754812D01*
X133961649Y-31869906D01*
X133961645Y-31869913D01*
X133911403Y-32004620D01*
X133911401Y-32004627D01*
X133905000Y-32064155D01*
X133300000Y-32064155D01*
X133300000Y-29972000D01*
X140972353Y-29972000D01*
X140992834Y-30114456D01*
X141039269Y-30216133D01*
X141052623Y-30245373D01*
X141146872Y-30354143D01*
X141267947Y-30431953D01*
X141267950Y-30431954D01*
X141267949Y-30431954D01*
X141406036Y-30472499D01*
X141406038Y-30472500D01*
X141406039Y-30472500D01*
X141549962Y-30472500D01*
X141549962Y-30472499D01*
X141688053Y-30431953D01*
X141809128Y-30354143D01*
X141903377Y-30245373D01*
X141963165Y-30114457D01*
X141983647Y-29972000D01*
X141982656Y-29965108D01*
X141992597Y-29895951D01*
X142038350Y-29843145D01*
X142105389Y-29823458D01*
X142129585Y-29825841D01*
X142139768Y-29827866D01*
X142139769Y-29827867D01*
X142148195Y-29829543D01*
X142198250Y-29839500D01*
X142198252Y-29839500D01*
X142837750Y-29839500D01*
X142837751Y-29839499D01*
X142852568Y-29836552D01*
X142896229Y-29827868D01*
X142896231Y-29827867D01*
X142949108Y-29792535D01*
X143015785Y-29771656D01*
X143083165Y-29790140D01*
X143086892Y-29792535D01*
X143149924Y-29834653D01*
X143148156Y-29837298D01*
X143187347Y-29868870D01*
X143209420Y-29935161D01*
X143209500Y-29939604D01*
X143209500Y-30016260D01*
X143189815Y-30083299D01*
X143179213Y-30097462D01*
X143084625Y-30206622D01*
X143084622Y-30206628D01*
X143024834Y-30337543D01*
X143004353Y-30480000D01*
X143024834Y-30622456D01*
X143084622Y-30753371D01*
X143084623Y-30753373D01*
X143178872Y-30862143D01*
X143299947Y-30939953D01*
X143299950Y-30939954D01*
X143299949Y-30939954D01*
X143438036Y-30980499D01*
X143438038Y-30980500D01*
X143438039Y-30980500D01*
X143581962Y-30980500D01*
X143581962Y-30980499D01*
X143720053Y-30939953D01*
X143841128Y-30862143D01*
X143935377Y-30753373D01*
X143995165Y-30622457D01*
X144015647Y-30480000D01*
X143995165Y-30337543D01*
X143935377Y-30206627D01*
X143935375Y-30206625D01*
X143935374Y-30206622D01*
X143840787Y-30097462D01*
X143811762Y-30033906D01*
X143810500Y-30016260D01*
X143810500Y-29946232D01*
X143830185Y-29879193D01*
X143882989Y-29833438D01*
X143887048Y-29831671D01*
X143896231Y-29827867D01*
X143949108Y-29792535D01*
X144015785Y-29771656D01*
X144083165Y-29790140D01*
X144086892Y-29792535D01*
X144139768Y-29827867D01*
X144139770Y-29827868D01*
X144198247Y-29839499D01*
X144198250Y-29839500D01*
X144198252Y-29839500D01*
X144837750Y-29839500D01*
X144837751Y-29839499D01*
X144852568Y-29836552D01*
X144896229Y-29827868D01*
X144896231Y-29827867D01*
X144949108Y-29792535D01*
X145015785Y-29771656D01*
X145083165Y-29790140D01*
X145086892Y-29792535D01*
X145139767Y-29827866D01*
X145139769Y-29827867D01*
X145141691Y-29828249D01*
X145145499Y-29830240D01*
X145151054Y-29832542D01*
X145150848Y-29833038D01*
X145203602Y-29860634D01*
X145238176Y-29921350D01*
X145241500Y-29949867D01*
X145241500Y-30016260D01*
X145221815Y-30083299D01*
X145211213Y-30097462D01*
X145116625Y-30206622D01*
X145116622Y-30206628D01*
X145056834Y-30337543D01*
X145036353Y-30480000D01*
X145056834Y-30622456D01*
X145116622Y-30753371D01*
X145116623Y-30753373D01*
X145210872Y-30862143D01*
X145331947Y-30939953D01*
X145331950Y-30939954D01*
X145331949Y-30939954D01*
X145470036Y-30980499D01*
X145470038Y-30980500D01*
X145470039Y-30980500D01*
X145613962Y-30980500D01*
X145613962Y-30980499D01*
X145752053Y-30939953D01*
X145873128Y-30862143D01*
X145967377Y-30753373D01*
X146027165Y-30622457D01*
X146047647Y-30480000D01*
X146027165Y-30337543D01*
X145967377Y-30206627D01*
X145967375Y-30206625D01*
X145967374Y-30206622D01*
X145872787Y-30097462D01*
X145843762Y-30033906D01*
X145842500Y-30016260D01*
X145842500Y-29930047D01*
X145862185Y-29863008D01*
X145897605Y-29826948D01*
X145962552Y-29783552D01*
X146006867Y-29717231D01*
X146006867Y-29717229D01*
X146006868Y-29717229D01*
X146018499Y-29658752D01*
X146018500Y-29658750D01*
X146018500Y-28069249D01*
X146018499Y-28069247D01*
X146006868Y-28010770D01*
X146006867Y-28010769D01*
X145962552Y-27944447D01*
X145896230Y-27900132D01*
X145896229Y-27900131D01*
X145837752Y-27888500D01*
X145837748Y-27888500D01*
X145198252Y-27888500D01*
X145198247Y-27888500D01*
X145139770Y-27900131D01*
X145139769Y-27900132D01*
X145086891Y-27935465D01*
X145020214Y-27956343D01*
X144952834Y-27937859D01*
X144949109Y-27935465D01*
X144896230Y-27900132D01*
X144896229Y-27900131D01*
X144837752Y-27888500D01*
X144837748Y-27888500D01*
X144493833Y-27888500D01*
X144426794Y-27868815D01*
X144406152Y-27852181D01*
X144152512Y-27598541D01*
X144152504Y-27598535D01*
X144083995Y-27558982D01*
X144083990Y-27558979D01*
X144058513Y-27552152D01*
X144007562Y-27538500D01*
X143028438Y-27538500D01*
X142990224Y-27548739D01*
X142952009Y-27558979D01*
X142952004Y-27558982D01*
X142883495Y-27598535D01*
X142883487Y-27598541D01*
X142629848Y-27852181D01*
X142568525Y-27885666D01*
X142542167Y-27888500D01*
X142198247Y-27888500D01*
X142139770Y-27900131D01*
X142139769Y-27900132D01*
X142073447Y-27944447D01*
X142029132Y-28010769D01*
X142029131Y-28010770D01*
X142017500Y-28069247D01*
X142017500Y-28956166D01*
X141997815Y-29023205D01*
X141981181Y-29043847D01*
X141589847Y-29435181D01*
X141528524Y-29468666D01*
X141502166Y-29471500D01*
X141406036Y-29471500D01*
X141267949Y-29512045D01*
X141146873Y-29589856D01*
X141052623Y-29698626D01*
X141052622Y-29698628D01*
X140992834Y-29829543D01*
X140972353Y-29972000D01*
X133300000Y-29972000D01*
X133300000Y-27310711D01*
X135055500Y-27310711D01*
X135055500Y-27553288D01*
X135087161Y-27793785D01*
X135149947Y-28028104D01*
X135242773Y-28252205D01*
X135242777Y-28252214D01*
X135256829Y-28276552D01*
X135364064Y-28462289D01*
X135364066Y-28462292D01*
X135364067Y-28462293D01*
X135511733Y-28654736D01*
X135511739Y-28654743D01*
X135683256Y-28826260D01*
X135683263Y-28826266D01*
X135752243Y-28879196D01*
X135875711Y-28973936D01*
X136085788Y-29095224D01*
X136309900Y-29188054D01*
X136544211Y-29250838D01*
X136724586Y-29274584D01*
X136784711Y-29282500D01*
X136784712Y-29282500D01*
X137027289Y-29282500D01*
X137075388Y-29276167D01*
X137267789Y-29250838D01*
X137502100Y-29188054D01*
X137726212Y-29095224D01*
X137936289Y-28973936D01*
X138128738Y-28826265D01*
X138300265Y-28654738D01*
X138447936Y-28462289D01*
X138569224Y-28252212D01*
X138662054Y-28028100D01*
X138724838Y-27793789D01*
X138756500Y-27553288D01*
X138756500Y-27310712D01*
X138756299Y-27309189D01*
X138743007Y-27208224D01*
X138724838Y-27070211D01*
X138662054Y-26835900D01*
X138569224Y-26611788D01*
X138447936Y-26401711D01*
X138343810Y-26266011D01*
X138300266Y-26209263D01*
X138300260Y-26209256D01*
X138128743Y-26037739D01*
X138128736Y-26037733D01*
X137990738Y-25931844D01*
X140118000Y-25931844D01*
X140124401Y-25991372D01*
X140124403Y-25991379D01*
X140174645Y-26126086D01*
X140174649Y-26126093D01*
X140260809Y-26241187D01*
X140260812Y-26241190D01*
X140375906Y-26327350D01*
X140375913Y-26327354D01*
X140510620Y-26377596D01*
X140510627Y-26377598D01*
X140570155Y-26383999D01*
X140570172Y-26384000D01*
X140968000Y-26384000D01*
X141468000Y-26384000D01*
X141865828Y-26384000D01*
X141865844Y-26383999D01*
X141925372Y-26377598D01*
X141925379Y-26377596D01*
X142060086Y-26327354D01*
X142060093Y-26327350D01*
X142175187Y-26241190D01*
X142175190Y-26241187D01*
X142261350Y-26126093D01*
X142261354Y-26126086D01*
X142311596Y-25991379D01*
X142311598Y-25991372D01*
X142317999Y-25931844D01*
X145718000Y-25931844D01*
X145724401Y-25991372D01*
X145724403Y-25991379D01*
X145774645Y-26126086D01*
X145774649Y-26126093D01*
X145860809Y-26241187D01*
X145860812Y-26241190D01*
X145975906Y-26327350D01*
X145975913Y-26327354D01*
X146110620Y-26377596D01*
X146110627Y-26377598D01*
X146170155Y-26383999D01*
X146170172Y-26384000D01*
X146568000Y-26384000D01*
X147068000Y-26384000D01*
X147465828Y-26384000D01*
X147465844Y-26383999D01*
X147525372Y-26377598D01*
X147525379Y-26377596D01*
X147660086Y-26327354D01*
X147660093Y-26327350D01*
X147775187Y-26241190D01*
X147775190Y-26241187D01*
X147861350Y-26126093D01*
X147861354Y-26126086D01*
X147911596Y-25991379D01*
X147911598Y-25991372D01*
X147917999Y-25931844D01*
X147918000Y-25931827D01*
X147918000Y-25234000D01*
X147068000Y-25234000D01*
X147068000Y-26384000D01*
X146568000Y-26384000D01*
X146568000Y-25234000D01*
X145718000Y-25234000D01*
X145718000Y-25931844D01*
X142317999Y-25931844D01*
X142318000Y-25931827D01*
X142318000Y-25234000D01*
X141468000Y-25234000D01*
X141468000Y-26384000D01*
X140968000Y-26384000D01*
X140968000Y-25234000D01*
X140118000Y-25234000D01*
X140118000Y-25931844D01*
X137990738Y-25931844D01*
X137936293Y-25890067D01*
X137936292Y-25890066D01*
X137936289Y-25890064D01*
X137726212Y-25768776D01*
X137726205Y-25768773D01*
X137502104Y-25675947D01*
X137314200Y-25625598D01*
X137267789Y-25613162D01*
X137267788Y-25613161D01*
X137267785Y-25613161D01*
X137027289Y-25581500D01*
X137027288Y-25581500D01*
X136784712Y-25581500D01*
X136784711Y-25581500D01*
X136544214Y-25613161D01*
X136309895Y-25675947D01*
X136085794Y-25768773D01*
X136085785Y-25768777D01*
X135875706Y-25890067D01*
X135683263Y-26037733D01*
X135683256Y-26037739D01*
X135511739Y-26209256D01*
X135511733Y-26209263D01*
X135364067Y-26401706D01*
X135242777Y-26611785D01*
X135242773Y-26611794D01*
X135149947Y-26835895D01*
X135087161Y-27070214D01*
X135055500Y-27310711D01*
X133300000Y-27310711D01*
X133300000Y-23738500D01*
X133319685Y-23671461D01*
X133372489Y-23625706D01*
X133424000Y-23614500D01*
X140097165Y-23614500D01*
X140164204Y-23634185D01*
G37*
%TD.AperFunction*%
%TA.AperFunction,Conductor*%
G36*
X177501039Y-24958185D02*
G01*
X177546794Y-25010989D01*
X177558000Y-25062500D01*
X177558000Y-25170000D01*
X178684000Y-25170000D01*
X178751039Y-25189685D01*
X178796794Y-25242489D01*
X178808000Y-25294000D01*
X178808000Y-25546000D01*
X178788315Y-25613039D01*
X178735511Y-25658794D01*
X178684000Y-25670000D01*
X177558000Y-25670000D01*
X177558000Y-25917844D01*
X177564401Y-25977372D01*
X177564403Y-25977379D01*
X177614645Y-26112086D01*
X177614649Y-26112093D01*
X177700809Y-26227187D01*
X177700812Y-26227190D01*
X177807811Y-26307290D01*
X177849682Y-26363223D01*
X177857500Y-26406556D01*
X177857500Y-27159752D01*
X177869131Y-27218229D01*
X177869132Y-27218230D01*
X177894442Y-27256109D01*
X177915320Y-27322787D01*
X177896835Y-27390167D01*
X177894442Y-27393891D01*
X177869132Y-27431769D01*
X177869131Y-27431770D01*
X177857500Y-27490247D01*
X177857500Y-27587897D01*
X177837815Y-27654936D01*
X177795502Y-27695283D01*
X177753492Y-27719538D01*
X177753486Y-27719542D01*
X171119681Y-34353348D01*
X171058358Y-34386833D01*
X170988666Y-34381849D01*
X170932733Y-34339977D01*
X170908316Y-34274513D01*
X170908000Y-34265667D01*
X170908000Y-34042172D01*
X170907999Y-34042155D01*
X170901598Y-33982627D01*
X170901597Y-33982623D01*
X170864564Y-33883334D01*
X170859580Y-33813642D01*
X170864564Y-33796666D01*
X170901597Y-33697376D01*
X170901598Y-33697372D01*
X170907999Y-33637844D01*
X170908000Y-33637827D01*
X170908000Y-33390000D01*
X170208000Y-33390000D01*
X170208000Y-34416000D01*
X170188315Y-34483039D01*
X170135511Y-34528794D01*
X170084000Y-34540000D01*
X169958000Y-34540000D01*
X169958000Y-34666000D01*
X169938315Y-34733039D01*
X169885511Y-34778794D01*
X169834000Y-34790000D01*
X168808000Y-34790000D01*
X168808000Y-35490000D01*
X169055828Y-35490000D01*
X169055844Y-35489999D01*
X169115372Y-35483598D01*
X169115376Y-35483597D01*
X169214666Y-35446564D01*
X169284358Y-35441580D01*
X169301334Y-35446564D01*
X169400623Y-35483597D01*
X169400627Y-35483598D01*
X169460155Y-35489999D01*
X169460172Y-35490000D01*
X169683667Y-35490000D01*
X169750706Y-35509685D01*
X169796461Y-35562489D01*
X169806405Y-35631647D01*
X169777380Y-35695203D01*
X169771348Y-35701681D01*
X167147848Y-38325181D01*
X167086525Y-38358666D01*
X167060167Y-38361500D01*
X167060036Y-38361500D01*
X166921949Y-38402045D01*
X166800873Y-38479856D01*
X166800872Y-38479856D01*
X166800872Y-38479857D01*
X166789493Y-38492989D01*
X166706623Y-38588626D01*
X166706622Y-38588628D01*
X166646834Y-38719543D01*
X166626353Y-38862000D01*
X166646834Y-39004456D01*
X166698311Y-39117172D01*
X166706623Y-39135373D01*
X166800872Y-39244143D01*
X166921947Y-39321953D01*
X166921950Y-39321954D01*
X166921949Y-39321954D01*
X167060036Y-39362499D01*
X167060038Y-39362500D01*
X167060039Y-39362500D01*
X167203962Y-39362500D01*
X167203962Y-39362499D01*
X167342053Y-39321953D01*
X167463128Y-39244143D01*
X167557377Y-39135373D01*
X167617165Y-39004457D01*
X167637647Y-38862000D01*
X167624271Y-38768967D01*
X167634215Y-38699811D01*
X167659325Y-38663644D01*
X177645819Y-28677151D01*
X177707142Y-28643666D01*
X177776834Y-28648650D01*
X177832767Y-28690522D01*
X177857184Y-28755986D01*
X177857500Y-28764832D01*
X177857500Y-29699752D01*
X177869131Y-29758229D01*
X177869132Y-29758230D01*
X177894442Y-29796109D01*
X177915320Y-29862787D01*
X177896835Y-29930167D01*
X177894442Y-29933891D01*
X177869132Y-29971769D01*
X177869131Y-29971770D01*
X177857500Y-30030247D01*
X177857500Y-30969752D01*
X177869131Y-31028229D01*
X177869132Y-31028230D01*
X177894442Y-31066109D01*
X177915320Y-31132787D01*
X177896835Y-31200167D01*
X177894442Y-31203891D01*
X177869132Y-31241769D01*
X177869131Y-31241770D01*
X177857500Y-31300247D01*
X177857500Y-32239752D01*
X177869131Y-32298226D01*
X177869540Y-32299213D01*
X177869789Y-32301537D01*
X177871515Y-32310210D01*
X177870739Y-32310364D01*
X177877010Y-32368682D01*
X177845737Y-32431162D01*
X177785650Y-32466816D01*
X177715824Y-32464325D01*
X177661267Y-32427872D01*
X177658560Y-32424748D01*
X177623128Y-32383857D01*
X177502053Y-32306047D01*
X177502051Y-32306046D01*
X177502049Y-32306045D01*
X177502050Y-32306045D01*
X177363963Y-32265500D01*
X177363961Y-32265500D01*
X177220039Y-32265500D01*
X177220036Y-32265500D01*
X177081949Y-32306045D01*
X176960873Y-32383856D01*
X176866623Y-32492626D01*
X176866622Y-32492628D01*
X176806834Y-32623543D01*
X176786353Y-32766000D01*
X176806834Y-32908456D01*
X176866622Y-33039371D01*
X176866623Y-33039373D01*
X176902186Y-33080415D01*
X176931212Y-33143970D01*
X176932474Y-33161618D01*
X176932474Y-41566172D01*
X176912789Y-41633211D01*
X176859985Y-41678966D01*
X176790827Y-41688910D01*
X176746477Y-41673561D01*
X176705633Y-41649981D01*
X176705629Y-41649978D01*
X176670994Y-41629981D01*
X176670991Y-41629979D01*
X176632775Y-41619739D01*
X176594562Y-41609500D01*
X176594560Y-41609500D01*
X174956501Y-41609500D01*
X174889462Y-41589815D01*
X174862788Y-41566703D01*
X174862328Y-41566172D01*
X174829128Y-41527857D01*
X174708053Y-41450047D01*
X174708051Y-41450046D01*
X174708049Y-41450045D01*
X174708050Y-41450045D01*
X174569963Y-41409500D01*
X174569961Y-41409500D01*
X174426039Y-41409500D01*
X174426036Y-41409500D01*
X174287949Y-41450045D01*
X174166873Y-41527856D01*
X174072623Y-41636626D01*
X174072622Y-41636628D01*
X174012834Y-41767543D01*
X173992353Y-41910000D01*
X174012834Y-42052456D01*
X174025059Y-42079225D01*
X174035002Y-42148384D01*
X174005976Y-42211939D01*
X173978293Y-42231909D01*
X173979923Y-42234348D01*
X173931891Y-42266442D01*
X173865213Y-42287320D01*
X173797833Y-42268835D01*
X173794109Y-42266442D01*
X173756230Y-42241132D01*
X173756229Y-42241131D01*
X173697752Y-42229500D01*
X173697748Y-42229500D01*
X172758252Y-42229500D01*
X172758247Y-42229500D01*
X172699770Y-42241131D01*
X172699769Y-42241132D01*
X172661891Y-42266442D01*
X172595213Y-42287320D01*
X172527833Y-42268835D01*
X172524109Y-42266442D01*
X172486230Y-42241132D01*
X172486229Y-42241131D01*
X172427752Y-42229500D01*
X172427748Y-42229500D01*
X171488252Y-42229500D01*
X171488247Y-42229500D01*
X171429770Y-42241131D01*
X171429769Y-42241132D01*
X171391891Y-42266442D01*
X171325213Y-42287320D01*
X171257833Y-42268835D01*
X171254109Y-42266442D01*
X171216230Y-42241132D01*
X171216229Y-42241131D01*
X171157752Y-42229500D01*
X171157748Y-42229500D01*
X170218252Y-42229500D01*
X170218247Y-42229500D01*
X170159770Y-42241131D01*
X170159769Y-42241132D01*
X170121891Y-42266442D01*
X170055213Y-42287320D01*
X169987833Y-42268835D01*
X169984109Y-42266442D01*
X169946230Y-42241132D01*
X169946229Y-42241131D01*
X169887752Y-42229500D01*
X169887748Y-42229500D01*
X168948252Y-42229500D01*
X168948247Y-42229500D01*
X168889770Y-42241131D01*
X168889769Y-42241132D01*
X168851891Y-42266442D01*
X168785213Y-42287320D01*
X168717833Y-42268835D01*
X168714109Y-42266442D01*
X168676230Y-42241132D01*
X168676229Y-42241131D01*
X168617752Y-42229500D01*
X168617748Y-42229500D01*
X167678252Y-42229500D01*
X167678247Y-42229500D01*
X167619770Y-42241131D01*
X167619769Y-42241132D01*
X167581891Y-42266442D01*
X167515213Y-42287320D01*
X167447833Y-42268835D01*
X167444109Y-42266442D01*
X167406230Y-42241132D01*
X167406229Y-42241131D01*
X167347752Y-42229500D01*
X167347748Y-42229500D01*
X166408252Y-42229500D01*
X166408247Y-42229500D01*
X166349770Y-42241131D01*
X166349769Y-42241132D01*
X166311891Y-42266442D01*
X166245213Y-42287320D01*
X166177833Y-42268835D01*
X166174109Y-42266442D01*
X166136230Y-42241132D01*
X166136229Y-42241131D01*
X166077752Y-42229500D01*
X166077748Y-42229500D01*
X165324556Y-42229500D01*
X165257517Y-42209815D01*
X165225290Y-42179811D01*
X165145190Y-42072812D01*
X165145187Y-42072809D01*
X165030093Y-41986649D01*
X165030086Y-41986645D01*
X164895379Y-41936403D01*
X164895372Y-41936401D01*
X164835844Y-41930000D01*
X164588000Y-41930000D01*
X164588000Y-43056000D01*
X164568315Y-43123039D01*
X164515511Y-43168794D01*
X164464000Y-43180000D01*
X164338000Y-43180000D01*
X164338000Y-43306000D01*
X164318315Y-43373039D01*
X164265511Y-43418794D01*
X164214000Y-43430000D01*
X163388000Y-43430000D01*
X163388000Y-43977844D01*
X163394401Y-44037372D01*
X163394403Y-44037379D01*
X163444645Y-44172086D01*
X163444647Y-44172089D01*
X163509850Y-44259188D01*
X163534268Y-44324652D01*
X163519417Y-44392926D01*
X163470012Y-44442331D01*
X163410584Y-44457500D01*
X158321779Y-44457500D01*
X158254740Y-44437815D01*
X158208985Y-44385011D01*
X158199041Y-44315853D01*
X158228066Y-44252297D01*
X158239552Y-44240685D01*
X158316980Y-44172089D01*
X158361183Y-44132929D01*
X158457818Y-43992930D01*
X158518140Y-43833872D01*
X158538645Y-43665000D01*
X158518140Y-43496128D01*
X158457818Y-43337070D01*
X158455658Y-43333941D01*
X158423476Y-43287318D01*
X158361183Y-43197071D01*
X158233852Y-43084266D01*
X158218059Y-43075977D01*
X158199872Y-43066431D01*
X158149661Y-43017846D01*
X158133500Y-42956636D01*
X158133500Y-42185833D01*
X158153185Y-42118794D01*
X158169819Y-42098152D01*
X159271152Y-40996819D01*
X159332475Y-40963334D01*
X159358833Y-40960500D01*
X160233500Y-40960500D01*
X160300539Y-40980185D01*
X160346294Y-41032989D01*
X160357500Y-41084500D01*
X160357500Y-41129752D01*
X160369131Y-41188229D01*
X160369132Y-41188230D01*
X160394442Y-41226109D01*
X160415320Y-41292787D01*
X160396835Y-41360167D01*
X160394442Y-41363891D01*
X160369132Y-41401769D01*
X160369131Y-41401770D01*
X160357500Y-41460247D01*
X160357500Y-42399752D01*
X160369131Y-42458229D01*
X160369132Y-42458230D01*
X160413447Y-42524552D01*
X160479769Y-42568867D01*
X160479770Y-42568868D01*
X160538247Y-42580499D01*
X160538250Y-42580500D01*
X160538252Y-42580500D01*
X162077750Y-42580500D01*
X162077751Y-42580499D01*
X162097596Y-42576552D01*
X162136229Y-42568868D01*
X162136229Y-42568867D01*
X162136231Y-42568867D01*
X162202552Y-42524552D01*
X162246867Y-42458231D01*
X162246867Y-42458229D01*
X162246868Y-42458229D01*
X162256411Y-42410252D01*
X162258500Y-42399748D01*
X162258500Y-42382155D01*
X163388000Y-42382155D01*
X163388000Y-42930000D01*
X164088000Y-42930000D01*
X164088000Y-41930000D01*
X163840155Y-41930000D01*
X163780627Y-41936401D01*
X163780620Y-41936403D01*
X163645913Y-41986645D01*
X163645906Y-41986649D01*
X163530812Y-42072809D01*
X163530809Y-42072812D01*
X163444649Y-42187906D01*
X163444645Y-42187913D01*
X163394403Y-42322620D01*
X163394401Y-42322627D01*
X163388000Y-42382155D01*
X162258500Y-42382155D01*
X162258500Y-41460252D01*
X162258500Y-41460249D01*
X162258499Y-41460247D01*
X162246868Y-41401770D01*
X162246867Y-41401768D01*
X162221558Y-41363892D01*
X162200679Y-41297215D01*
X162219163Y-41229835D01*
X162221558Y-41226108D01*
X162246867Y-41188231D01*
X162246868Y-41188229D01*
X162258499Y-41129752D01*
X162258500Y-41129750D01*
X162258500Y-40190249D01*
X162258499Y-40190247D01*
X162246868Y-40131770D01*
X162246867Y-40131768D01*
X162221558Y-40093892D01*
X162200679Y-40027215D01*
X162219163Y-39959835D01*
X162221558Y-39956108D01*
X162246867Y-39918231D01*
X162246868Y-39918229D01*
X162255639Y-39874133D01*
X162258500Y-39859748D01*
X162258500Y-38920252D01*
X162258500Y-38920249D01*
X162258499Y-38920247D01*
X162246868Y-38861770D01*
X162246867Y-38861768D01*
X162221558Y-38823892D01*
X162200679Y-38757215D01*
X162219163Y-38689835D01*
X162221558Y-38686108D01*
X162246867Y-38648231D01*
X162246868Y-38648229D01*
X162258499Y-38589752D01*
X162258500Y-38589750D01*
X162258500Y-37650249D01*
X162258499Y-37650247D01*
X162246868Y-37591770D01*
X162246867Y-37591768D01*
X162221558Y-37553892D01*
X162200679Y-37487215D01*
X162219163Y-37419835D01*
X162221558Y-37416108D01*
X162246867Y-37378231D01*
X162246868Y-37378229D01*
X162258499Y-37319752D01*
X162258500Y-37319750D01*
X162258500Y-36380249D01*
X162258499Y-36380247D01*
X162246868Y-36321770D01*
X162246867Y-36321768D01*
X162221558Y-36283892D01*
X162200679Y-36217215D01*
X162219163Y-36149835D01*
X162221558Y-36146108D01*
X162246867Y-36108231D01*
X162246868Y-36108229D01*
X162258499Y-36049752D01*
X162258500Y-36049750D01*
X162258500Y-35110249D01*
X162258499Y-35110247D01*
X162246868Y-35051770D01*
X162246867Y-35051768D01*
X162237563Y-35037844D01*
X166208000Y-35037844D01*
X166214401Y-35097372D01*
X166214403Y-35097379D01*
X166264645Y-35232086D01*
X166264649Y-35232093D01*
X166350809Y-35347187D01*
X166350812Y-35347190D01*
X166465906Y-35433350D01*
X166465913Y-35433354D01*
X166600620Y-35483596D01*
X166600627Y-35483598D01*
X166660155Y-35489999D01*
X166660172Y-35490000D01*
X166908000Y-35490000D01*
X167408000Y-35490000D01*
X167655828Y-35490000D01*
X167655844Y-35489999D01*
X167715372Y-35483598D01*
X167715376Y-35483597D01*
X167814666Y-35446564D01*
X167884358Y-35441580D01*
X167901334Y-35446564D01*
X168000623Y-35483597D01*
X168000627Y-35483598D01*
X168060155Y-35489999D01*
X168060172Y-35490000D01*
X168308000Y-35490000D01*
X168308000Y-34790000D01*
X167408000Y-34790000D01*
X167408000Y-35490000D01*
X166908000Y-35490000D01*
X166908000Y-34790000D01*
X166208000Y-34790000D01*
X166208000Y-35037844D01*
X162237563Y-35037844D01*
X162221558Y-35013892D01*
X162200679Y-34947215D01*
X162219163Y-34879835D01*
X162221558Y-34876108D01*
X162246867Y-34838231D01*
X162246868Y-34838229D01*
X162258499Y-34779752D01*
X162258500Y-34779750D01*
X162258500Y-33840249D01*
X162258499Y-33840247D01*
X162246868Y-33781770D01*
X162246867Y-33781768D01*
X162221558Y-33743892D01*
X162200679Y-33677215D01*
X162211479Y-33637844D01*
X166208000Y-33637844D01*
X166214401Y-33697372D01*
X166214403Y-33697383D01*
X166251434Y-33796668D01*
X166256418Y-33866360D01*
X166251434Y-33883332D01*
X166214403Y-33982616D01*
X166214401Y-33982627D01*
X166208000Y-34042155D01*
X166208000Y-34290000D01*
X166908000Y-34290000D01*
X167408000Y-34290000D01*
X168308000Y-34290000D01*
X168808000Y-34290000D01*
X169708000Y-34290000D01*
X169708000Y-33390000D01*
X168808000Y-33390000D01*
X168808000Y-34290000D01*
X168308000Y-34290000D01*
X168308000Y-33390000D01*
X167408000Y-33390000D01*
X167408000Y-34290000D01*
X166908000Y-34290000D01*
X166908000Y-33390000D01*
X166208000Y-33390000D01*
X166208000Y-33637844D01*
X162211479Y-33637844D01*
X162219163Y-33609835D01*
X162221558Y-33606108D01*
X162246867Y-33568231D01*
X162246868Y-33568229D01*
X162257293Y-33515815D01*
X162258500Y-33509748D01*
X162258500Y-32570252D01*
X162258500Y-32570249D01*
X162258499Y-32570247D01*
X162246868Y-32511770D01*
X162246867Y-32511768D01*
X162221558Y-32473892D01*
X162200679Y-32407215D01*
X162219163Y-32339835D01*
X162221558Y-32336108D01*
X162246867Y-32298231D01*
X162246868Y-32298229D01*
X162258499Y-32239752D01*
X162258500Y-32239750D01*
X162258500Y-32237844D01*
X166208000Y-32237844D01*
X166214401Y-32297372D01*
X166214403Y-32297383D01*
X166251434Y-32396668D01*
X166256418Y-32466360D01*
X166251434Y-32483332D01*
X166214403Y-32582616D01*
X166214401Y-32582627D01*
X166208000Y-32642155D01*
X166208000Y-32890000D01*
X166908000Y-32890000D01*
X167408000Y-32890000D01*
X168308000Y-32890000D01*
X168808000Y-32890000D01*
X169708000Y-32890000D01*
X170208000Y-32890000D01*
X170908000Y-32890000D01*
X170908000Y-32642172D01*
X170907999Y-32642155D01*
X170901598Y-32582627D01*
X170901597Y-32582623D01*
X170864564Y-32483334D01*
X170859580Y-32413642D01*
X170864564Y-32396666D01*
X170901597Y-32297376D01*
X170901598Y-32297372D01*
X170907999Y-32237844D01*
X170908000Y-32237827D01*
X170908000Y-31990000D01*
X170208000Y-31990000D01*
X170208000Y-32890000D01*
X169708000Y-32890000D01*
X169708000Y-31990000D01*
X168808000Y-31990000D01*
X168808000Y-32890000D01*
X168308000Y-32890000D01*
X168308000Y-31990000D01*
X167408000Y-31990000D01*
X167408000Y-32890000D01*
X166908000Y-32890000D01*
X166908000Y-31990000D01*
X166208000Y-31990000D01*
X166208000Y-32237844D01*
X162258500Y-32237844D01*
X162258500Y-31300249D01*
X162258499Y-31300247D01*
X162246945Y-31242155D01*
X166208000Y-31242155D01*
X166208000Y-31490000D01*
X166908000Y-31490000D01*
X167408000Y-31490000D01*
X168308000Y-31490000D01*
X168808000Y-31490000D01*
X169708000Y-31490000D01*
X170208000Y-31490000D01*
X170908000Y-31490000D01*
X170908000Y-31242172D01*
X170907999Y-31242155D01*
X170901598Y-31182627D01*
X170901596Y-31182620D01*
X170851354Y-31047913D01*
X170851350Y-31047906D01*
X170765190Y-30932812D01*
X170765187Y-30932809D01*
X170650093Y-30846649D01*
X170650086Y-30846645D01*
X170515379Y-30796403D01*
X170515372Y-30796401D01*
X170455844Y-30790000D01*
X170208000Y-30790000D01*
X170208000Y-31490000D01*
X169708000Y-31490000D01*
X169708000Y-30790000D01*
X169460155Y-30790000D01*
X169400627Y-30796401D01*
X169400616Y-30796403D01*
X169301332Y-30833434D01*
X169231640Y-30838418D01*
X169214668Y-30833434D01*
X169115383Y-30796403D01*
X169115372Y-30796401D01*
X169055844Y-30790000D01*
X168808000Y-30790000D01*
X168808000Y-31490000D01*
X168308000Y-31490000D01*
X168308000Y-30790000D01*
X168060155Y-30790000D01*
X168000627Y-30796401D01*
X168000616Y-30796403D01*
X167901332Y-30833434D01*
X167831640Y-30838418D01*
X167814668Y-30833434D01*
X167715383Y-30796403D01*
X167715372Y-30796401D01*
X167655844Y-30790000D01*
X167408000Y-30790000D01*
X167408000Y-31490000D01*
X166908000Y-31490000D01*
X166908000Y-30790000D01*
X166660155Y-30790000D01*
X166600627Y-30796401D01*
X166600620Y-30796403D01*
X166465913Y-30846645D01*
X166465906Y-30846649D01*
X166350812Y-30932809D01*
X166350809Y-30932812D01*
X166264649Y-31047906D01*
X166264645Y-31047913D01*
X166214403Y-31182620D01*
X166214401Y-31182627D01*
X166208000Y-31242155D01*
X162246945Y-31242155D01*
X162246868Y-31241770D01*
X162246867Y-31241768D01*
X162221558Y-31203892D01*
X162200679Y-31137215D01*
X162219163Y-31069835D01*
X162221558Y-31066108D01*
X162246867Y-31028231D01*
X162246868Y-31028229D01*
X162256361Y-30980499D01*
X162258500Y-30969748D01*
X162258500Y-30030252D01*
X162258500Y-30030249D01*
X162258499Y-30030247D01*
X162246868Y-29971770D01*
X162246867Y-29971768D01*
X162221558Y-29933892D01*
X162200679Y-29867215D01*
X162219163Y-29799835D01*
X162221558Y-29796108D01*
X162246867Y-29758231D01*
X162246868Y-29758229D01*
X162258499Y-29699752D01*
X162258500Y-29699750D01*
X162258500Y-28760249D01*
X162258499Y-28760247D01*
X162246868Y-28701770D01*
X162246867Y-28701768D01*
X162221558Y-28663892D01*
X162200679Y-28597215D01*
X162219163Y-28529835D01*
X162221558Y-28526108D01*
X162246867Y-28488231D01*
X162246868Y-28488229D01*
X162258499Y-28429752D01*
X162258500Y-28429750D01*
X162258500Y-27955833D01*
X162278185Y-27888794D01*
X162294819Y-27868152D01*
X165188152Y-24974819D01*
X165249475Y-24941334D01*
X165275833Y-24938500D01*
X177434000Y-24938500D01*
X177501039Y-24958185D01*
G37*
%TD.AperFunction*%
%TA.AperFunction,Conductor*%
G36*
X158645776Y-29510185D02*
G01*
X158691531Y-29562989D01*
X158701475Y-29632147D01*
X158694918Y-29657835D01*
X158689403Y-29672619D01*
X158689401Y-29672627D01*
X158683000Y-29732155D01*
X158683000Y-29810000D01*
X159359000Y-29810000D01*
X159426039Y-29829685D01*
X159471794Y-29882489D01*
X159483000Y-29934000D01*
X159483000Y-30060000D01*
X159609000Y-30060000D01*
X159676039Y-30079685D01*
X159721794Y-30132489D01*
X159733000Y-30184000D01*
X159733000Y-31131000D01*
X159713315Y-31198039D01*
X159660511Y-31243794D01*
X159609000Y-31255000D01*
X159483000Y-31255000D01*
X159483000Y-31381000D01*
X159463315Y-31448039D01*
X159410511Y-31493794D01*
X159359000Y-31505000D01*
X158683000Y-31505000D01*
X158683000Y-31560500D01*
X158663315Y-31627539D01*
X158610511Y-31673294D01*
X158559000Y-31684500D01*
X158437499Y-31684500D01*
X158370460Y-31664815D01*
X158324705Y-31612011D01*
X158313499Y-31560500D01*
X158313499Y-31373134D01*
X158313499Y-31373132D01*
X158297820Y-31294303D01*
X158238090Y-31204910D01*
X158238089Y-31204909D01*
X158195488Y-31176444D01*
X158150683Y-31122831D01*
X158141976Y-31053506D01*
X158156435Y-31015779D01*
X158155693Y-31015440D01*
X158185427Y-30950331D01*
X158219165Y-30876457D01*
X158239647Y-30734000D01*
X158219165Y-30591543D01*
X158159377Y-30460627D01*
X158096311Y-30387844D01*
X158683000Y-30387844D01*
X158689401Y-30447372D01*
X158689403Y-30447379D01*
X158739645Y-30582086D01*
X158739648Y-30582091D01*
X158740473Y-30583193D01*
X158740953Y-30584481D01*
X158743897Y-30589872D01*
X158743121Y-30590295D01*
X158764887Y-30648658D01*
X158750033Y-30716931D01*
X158740473Y-30731807D01*
X158739648Y-30732908D01*
X158739645Y-30732913D01*
X158689403Y-30867620D01*
X158689401Y-30867627D01*
X158683000Y-30927155D01*
X158683000Y-31005000D01*
X159233000Y-31005000D01*
X159233000Y-30310000D01*
X158683000Y-30310000D01*
X158683000Y-30387844D01*
X158096311Y-30387844D01*
X158065128Y-30351857D01*
X157944053Y-30274047D01*
X157944051Y-30274046D01*
X157944049Y-30274045D01*
X157944050Y-30274045D01*
X157805963Y-30233500D01*
X157805961Y-30233500D01*
X157662039Y-30233500D01*
X157662036Y-30233500D01*
X157523949Y-30274045D01*
X157402873Y-30351856D01*
X157308623Y-30460626D01*
X157308622Y-30460628D01*
X157248834Y-30591543D01*
X157228353Y-30734000D01*
X157248834Y-30876456D01*
X157287779Y-30961732D01*
X157297723Y-31030891D01*
X157268698Y-31094447D01*
X157209920Y-31132221D01*
X157199177Y-31134861D01*
X157147303Y-31145179D01*
X157057910Y-31204910D01*
X156998179Y-31294302D01*
X156982500Y-31373128D01*
X156982500Y-32174166D01*
X156962815Y-32241205D01*
X156946181Y-32261847D01*
X156738489Y-32469540D01*
X156682541Y-32525487D01*
X156682535Y-32525495D01*
X156642982Y-32594004D01*
X156642979Y-32594009D01*
X156631230Y-32637857D01*
X156624694Y-32662252D01*
X156622500Y-32670439D01*
X156622500Y-33921278D01*
X156602815Y-33988317D01*
X156567392Y-34024379D01*
X156498448Y-34070446D01*
X156454132Y-34136769D01*
X156454131Y-34136770D01*
X156442500Y-34195247D01*
X156442500Y-34834752D01*
X156454131Y-34893229D01*
X156454132Y-34893230D01*
X156498447Y-34959552D01*
X156564769Y-35003867D01*
X156564770Y-35003868D01*
X156623247Y-35015499D01*
X156623250Y-35015500D01*
X156623252Y-35015500D01*
X156718500Y-35015500D01*
X156785539Y-35035185D01*
X156831294Y-35087989D01*
X156842500Y-35139500D01*
X156842500Y-35282695D01*
X156825403Y-35340919D01*
X156825765Y-35341069D01*
X156824371Y-35344432D01*
X156822815Y-35349734D01*
X156821604Y-35351582D01*
X156821094Y-35352345D01*
X156821090Y-35352353D01*
X156807500Y-35420677D01*
X156807500Y-36055500D01*
X156787815Y-36122539D01*
X156735011Y-36168294D01*
X156683500Y-36179500D01*
X156048669Y-36179500D01*
X156048578Y-36179509D01*
X156048531Y-36179500D01*
X156042588Y-36179500D01*
X156042588Y-36178372D01*
X155979933Y-36166483D01*
X155948757Y-36143786D01*
X155402539Y-35597568D01*
X155369054Y-35536245D01*
X155369825Y-35480203D01*
X155371135Y-35474883D01*
X155371140Y-35474872D01*
X155391645Y-35306000D01*
X155371140Y-35137128D01*
X155371138Y-35137124D01*
X155338768Y-35051768D01*
X155310818Y-34978070D01*
X155300555Y-34963202D01*
X155276097Y-34927769D01*
X155214183Y-34838071D01*
X155086852Y-34725266D01*
X155086849Y-34725263D01*
X154936226Y-34646210D01*
X154771056Y-34605500D01*
X154600944Y-34605500D01*
X154600940Y-34605500D01*
X154516035Y-34626426D01*
X154446233Y-34623356D01*
X154398681Y-34593710D01*
X154356652Y-34551681D01*
X154323167Y-34490358D01*
X154328151Y-34420666D01*
X154370023Y-34364733D01*
X154435487Y-34340316D01*
X154444333Y-34340000D01*
X154578828Y-34340000D01*
X154578844Y-34339999D01*
X154638372Y-34333598D01*
X154638379Y-34333596D01*
X154773086Y-34283354D01*
X154773093Y-34283350D01*
X154888187Y-34197190D01*
X154888190Y-34197187D01*
X154968290Y-34090189D01*
X155024223Y-34048318D01*
X155067556Y-34040500D01*
X155420750Y-34040500D01*
X155420751Y-34040499D01*
X155435568Y-34037552D01*
X155479229Y-34028868D01*
X155479229Y-34028867D01*
X155479231Y-34028867D01*
X155545552Y-33984552D01*
X155589867Y-33918231D01*
X155589867Y-33918229D01*
X155589868Y-33918229D01*
X155598552Y-33874568D01*
X155601500Y-33859748D01*
X155601500Y-33515471D01*
X155618114Y-33453469D01*
X155638021Y-33418990D01*
X155638022Y-33418988D01*
X155658500Y-33342562D01*
X155658500Y-33263438D01*
X155658500Y-32964499D01*
X155678185Y-32897460D01*
X155730989Y-32851705D01*
X155773930Y-32842363D01*
X155773806Y-32841096D01*
X155779863Y-32840499D01*
X155779868Y-32840499D01*
X155858697Y-32824820D01*
X155948090Y-32765090D01*
X156007820Y-32675697D01*
X156023500Y-32596869D01*
X156023499Y-31373132D01*
X156007820Y-31294303D01*
X155948090Y-31204910D01*
X155887986Y-31164750D01*
X155858697Y-31145179D01*
X155779871Y-31129499D01*
X155773809Y-31128903D01*
X155773996Y-31127002D01*
X155715461Y-31109815D01*
X155669706Y-31057011D01*
X155658500Y-31005500D01*
X155658500Y-29614500D01*
X155678185Y-29547461D01*
X155730989Y-29501706D01*
X155782500Y-29490500D01*
X158578737Y-29490500D01*
X158645776Y-29510185D01*
G37*
%TD.AperFunction*%
%TA.AperFunction,Conductor*%
G36*
X158925539Y-32305185D02*
G01*
X158971294Y-32357989D01*
X158982500Y-32409500D01*
X158982500Y-32424752D01*
X158994131Y-32483229D01*
X158994132Y-32483230D01*
X159038447Y-32549552D01*
X159104769Y-32593867D01*
X159104770Y-32593868D01*
X159163247Y-32605499D01*
X159163250Y-32605500D01*
X159163252Y-32605500D01*
X159802750Y-32605500D01*
X159802751Y-32605499D01*
X159815672Y-32602929D01*
X159859309Y-32594250D01*
X159928900Y-32600477D01*
X159984078Y-32643340D01*
X160007322Y-32709230D01*
X160007500Y-32715867D01*
X160007500Y-35359167D01*
X159987815Y-35426206D01*
X159971181Y-35446848D01*
X159274848Y-36143181D01*
X159213525Y-36176666D01*
X159187167Y-36179500D01*
X159102500Y-36179500D01*
X159035461Y-36159815D01*
X158989706Y-36107011D01*
X158978500Y-36055500D01*
X158978500Y-35420677D01*
X158964908Y-35352349D01*
X158925491Y-35293358D01*
X158913135Y-35274865D01*
X158868449Y-35245007D01*
X158835650Y-35223091D01*
X158767322Y-35209500D01*
X158767320Y-35209500D01*
X158638101Y-35209500D01*
X158571062Y-35189815D01*
X158525307Y-35137011D01*
X158515363Y-35067853D01*
X158521919Y-35042167D01*
X158566596Y-34922379D01*
X158566598Y-34922372D01*
X158572999Y-34862844D01*
X158573000Y-34862827D01*
X158573000Y-34765000D01*
X157917000Y-34765000D01*
X157849961Y-34745315D01*
X157804206Y-34692511D01*
X157793000Y-34641000D01*
X157793000Y-34515000D01*
X157667000Y-34515000D01*
X157599961Y-34495315D01*
X157554206Y-34442511D01*
X157543000Y-34391000D01*
X157543000Y-34265000D01*
X158043000Y-34265000D01*
X158573000Y-34265000D01*
X158573000Y-34167172D01*
X158572999Y-34167155D01*
X158566598Y-34107627D01*
X158566596Y-34107620D01*
X158516354Y-33972913D01*
X158516350Y-33972906D01*
X158430190Y-33857812D01*
X158430187Y-33857809D01*
X158315093Y-33771649D01*
X158315086Y-33771645D01*
X158180379Y-33721403D01*
X158180372Y-33721401D01*
X158120844Y-33715000D01*
X158043000Y-33715000D01*
X158043000Y-34265000D01*
X157543000Y-34265000D01*
X157543000Y-33715000D01*
X157465155Y-33715000D01*
X157405627Y-33721401D01*
X157405620Y-33721403D01*
X157390831Y-33726919D01*
X157321139Y-33731902D01*
X157259817Y-33698415D01*
X157226333Y-33637091D01*
X157223500Y-33610736D01*
X157223500Y-32964499D01*
X157243185Y-32897460D01*
X157295989Y-32851705D01*
X157347496Y-32840499D01*
X158069868Y-32840499D01*
X158148697Y-32824820D01*
X158238090Y-32765090D01*
X158297820Y-32675697D01*
X158305082Y-32639190D01*
X158313500Y-32596871D01*
X158313500Y-32409500D01*
X158333185Y-32342461D01*
X158385989Y-32296706D01*
X158437500Y-32285500D01*
X158858500Y-32285500D01*
X158925539Y-32305185D01*
G37*
%TD.AperFunction*%
%TA.AperFunction,Conductor*%
G36*
X142222941Y-34560186D02*
G01*
X142253657Y-34622941D01*
X142254174Y-34626220D01*
X142262834Y-34686456D01*
X142295708Y-34758438D01*
X142322623Y-34817373D01*
X142416872Y-34926143D01*
X142537947Y-35003953D01*
X142612435Y-35025824D01*
X142671212Y-35063597D01*
X142700238Y-35127152D01*
X142701500Y-35144801D01*
X142701500Y-35281677D01*
X142681815Y-35348716D01*
X142629911Y-35394056D01*
X142621598Y-35397932D01*
X142537935Y-35481595D01*
X142487931Y-35588828D01*
X142481500Y-35637683D01*
X142481500Y-35856167D01*
X142461815Y-35923206D01*
X142445181Y-35943848D01*
X142259348Y-36129681D01*
X142198025Y-36163166D01*
X142171667Y-36166000D01*
X141254500Y-36166000D01*
X141187461Y-36146315D01*
X141141706Y-36093511D01*
X141130500Y-36042000D01*
X141130500Y-35790000D01*
X141150185Y-35722961D01*
X141202989Y-35677206D01*
X141254500Y-35666000D01*
X142180500Y-35666000D01*
X142180500Y-35593172D01*
X142180499Y-35593155D01*
X142174098Y-35533627D01*
X142174096Y-35533620D01*
X142123854Y-35398913D01*
X142123850Y-35398906D01*
X142033180Y-35277787D01*
X142008762Y-35212323D01*
X142017886Y-35156021D01*
X142040148Y-35102277D01*
X142040149Y-35102274D01*
X142051343Y-35046000D01*
X141197487Y-35046000D01*
X141214704Y-35036060D01*
X141270559Y-34980205D01*
X141310055Y-34911796D01*
X141330499Y-34835496D01*
X141330499Y-34756504D01*
X141310055Y-34680204D01*
X141270559Y-34611795D01*
X141214704Y-34555940D01*
X141197487Y-34546000D01*
X142063775Y-34546000D01*
X142093329Y-34525869D01*
X142163173Y-34523998D01*
X142222941Y-34560186D01*
G37*
%TD.AperFunction*%
%TD*%
M02*
