%TF.GenerationSoftware,KiCad,Pcbnew,8.0.7*%
%TF.CreationDate,2025-05-30T15:57:11-04:00*%
%TF.ProjectId,weiland-esp32,7765696c-616e-4642-9d65-737033322e6b,rev?*%
%TF.SameCoordinates,Original*%
%TF.FileFunction,Copper,L2,Bot*%
%TF.FilePolarity,Positive*%
%FSLAX46Y46*%
G04 Gerber Fmt 4.6, Leading zero omitted, Abs format (unit mm)*
G04 Created by KiCad (PCBNEW 8.0.7) date 2025-05-30 15:57:11*
%MOMM*%
%LPD*%
G01*
G04 APERTURE LIST*
%TA.AperFunction,ComponentPad*%
%ADD10C,0.700000*%
%TD*%
%TA.AperFunction,ComponentPad*%
%ADD11O,2.000000X1.100000*%
%TD*%
%TA.AperFunction,ComponentPad*%
%ADD12O,1.800000X1.200000*%
%TD*%
%TA.AperFunction,ViaPad*%
%ADD13C,0.600000*%
%TD*%
%TA.AperFunction,Conductor*%
%ADD14C,0.200000*%
%TD*%
G04 APERTURE END LIST*
D10*
%TO.P,USB1,*%
%TO.N,*%
X140050500Y-36226000D03*
X140050500Y-42006000D03*
D11*
%TO.P,USB1,13,SHELL*%
%TO.N,GND*%
X140580500Y-34796000D03*
D12*
X136370500Y-34796000D03*
D11*
%TO.P,USB1,14,SHELL*%
X140580500Y-43436000D03*
D12*
X136370500Y-43436000D03*
%TD*%
D13*
%TO.N,+5V*%
X157734000Y-30734000D03*
X186436000Y-26670000D03*
X197866000Y-27940000D03*
X195326000Y-36830000D03*
X141478000Y-29972000D03*
X142748000Y-34544000D03*
%TO.N,GND*%
X158750000Y-30734000D03*
X158750000Y-33232000D03*
X156210000Y-30480000D03*
X154432000Y-30480000D03*
X179832000Y-23914000D03*
X176022000Y-25400000D03*
%TO.N,/IO0*%
X177292000Y-32766000D03*
X183388000Y-32766000D03*
%TO.N,/IO22*%
X181102000Y-24384000D03*
X180594000Y-26924000D03*
X159766000Y-38862000D03*
X167132000Y-38862000D03*
%TO.N,/Dn*%
X142494000Y-38608000D03*
X193548000Y-43180000D03*
%TO.N,/Dp*%
X142240000Y-39878000D03*
X193548000Y-44158000D03*
%TO.N,/OUTP*%
X194310000Y-34036000D03*
X149098000Y-35814000D03*
%TO.N,/OUTN*%
X193802000Y-33020000D03*
X150622000Y-35094000D03*
%TO.N,/OUTB*%
X145542000Y-30480000D03*
%TO.N,/OUTA*%
X143510000Y-30480000D03*
X186690000Y-34544000D03*
%TO.N,/OUTB*%
X188214000Y-33782000D03*
%TO.N,/IO15*%
X159766000Y-40110000D03*
X174498000Y-41910000D03*
%TD*%
D14*
%TO.N,GND*%
X158750000Y-30734000D02*
X158750000Y-33232000D01*
X154432000Y-30480000D02*
X156210000Y-30480000D01*
X178496000Y-25250000D02*
X179832000Y-23914000D01*
X176172000Y-25250000D02*
X178496000Y-25250000D01*
X176022000Y-25400000D02*
X176172000Y-25250000D01*
%TO.N,/IO0*%
X183388000Y-32766000D02*
X177292000Y-32766000D01*
%TO.N,/IO22*%
X180594000Y-24892000D02*
X181102000Y-24384000D01*
X180594000Y-26924000D02*
X180594000Y-24892000D01*
X167132000Y-38862000D02*
X159766000Y-38862000D01*
%TO.N,/Dn*%
X142790000Y-38904000D02*
X142494000Y-38608000D01*
X142790000Y-41190000D02*
X142790000Y-38904000D01*
X144780000Y-43180000D02*
X142790000Y-41190000D01*
X193548000Y-43180000D02*
X144780000Y-43180000D01*
%TO.N,/Dp*%
X144742000Y-44158000D02*
X142240000Y-41656000D01*
X142240000Y-41656000D02*
X142240000Y-39878000D01*
X193548000Y-44158000D02*
X144742000Y-44158000D01*
%TO.N,/OUTP*%
X149098000Y-35814000D02*
X192532000Y-35814000D01*
X192532000Y-35814000D02*
X194310000Y-34036000D01*
%TO.N,/OUTN*%
X150622000Y-35094000D02*
X191728000Y-35094000D01*
X191728000Y-35094000D02*
X193802000Y-33020000D01*
%TO.N,/OUTB*%
X145542000Y-33782000D02*
X145542000Y-30480000D01*
X188214000Y-33782000D02*
X145542000Y-33782000D01*
%TO.N,/OUTA*%
X143764000Y-30734000D02*
X143510000Y-30480000D01*
X143764000Y-34544000D02*
X143764000Y-30734000D01*
X186690000Y-34544000D02*
X143764000Y-34544000D01*
%TO.N,/IO15*%
X172698000Y-40110000D02*
X174498000Y-41910000D01*
X159766000Y-40110000D02*
X172698000Y-40110000D01*
%TD*%
%TA.AperFunction,Conductor*%
%TO.N,+5V*%
G36*
X161001039Y-23634185D02*
G01*
X161046794Y-23686989D01*
X161058000Y-23738500D01*
X161058000Y-23880000D01*
X179058000Y-23880000D01*
X179058000Y-23738500D01*
X179077685Y-23671461D01*
X179130489Y-23625706D01*
X179182000Y-23614500D01*
X179227302Y-23614500D01*
X179294341Y-23634185D01*
X179340096Y-23686989D01*
X179350040Y-23756147D01*
X179347116Y-23769587D01*
X179326353Y-23914000D01*
X179326353Y-23914001D01*
X179327661Y-23923103D01*
X179317713Y-23992261D01*
X179292603Y-24028424D01*
X178407848Y-24913181D01*
X178346525Y-24946666D01*
X178320167Y-24949500D01*
X176279727Y-24949500D01*
X176240995Y-24941073D01*
X176240563Y-24942545D01*
X176093963Y-24899500D01*
X176093961Y-24899500D01*
X175950039Y-24899500D01*
X175950036Y-24899500D01*
X175811949Y-24940045D01*
X175690873Y-25017856D01*
X175596623Y-25126626D01*
X175596622Y-25126628D01*
X175536834Y-25257543D01*
X175516353Y-25400000D01*
X175536834Y-25542456D01*
X175569125Y-25613162D01*
X175596623Y-25673373D01*
X175690872Y-25782143D01*
X175811947Y-25859953D01*
X175811950Y-25859954D01*
X175811949Y-25859954D01*
X175950036Y-25900499D01*
X175950038Y-25900500D01*
X175950039Y-25900500D01*
X176093962Y-25900500D01*
X176093962Y-25900499D01*
X176232053Y-25859953D01*
X176353128Y-25782143D01*
X176447377Y-25673373D01*
X176470387Y-25622989D01*
X176516141Y-25570185D01*
X176583181Y-25550500D01*
X178535560Y-25550500D01*
X178535562Y-25550500D01*
X178611989Y-25530021D01*
X178680511Y-25490460D01*
X178736460Y-25434511D01*
X179720151Y-24450818D01*
X179781474Y-24417334D01*
X179807832Y-24414500D01*
X179903962Y-24414500D01*
X179903962Y-24414499D01*
X180042053Y-24373953D01*
X180163128Y-24296143D01*
X180257377Y-24187373D01*
X180317165Y-24056457D01*
X180337647Y-23914000D01*
X180317165Y-23771543D01*
X180315903Y-23762765D01*
X180317720Y-23762503D01*
X180317722Y-23703562D01*
X180355498Y-23644785D01*
X180419055Y-23615762D01*
X180436698Y-23614500D01*
X200840000Y-23614500D01*
X200907039Y-23634185D01*
X200952794Y-23686989D01*
X200964000Y-23738500D01*
X200964000Y-44333500D01*
X200944315Y-44400539D01*
X200891511Y-44446294D01*
X200840000Y-44457500D01*
X194152698Y-44457500D01*
X194085659Y-44437815D01*
X194039904Y-44385011D01*
X194029960Y-44315853D01*
X194032883Y-44302412D01*
X194033163Y-44300459D01*
X194033165Y-44300457D01*
X194053647Y-44158000D01*
X194033165Y-44015543D01*
X193973377Y-43884627D01*
X193879128Y-43775857D01*
X193879127Y-43775856D01*
X193879126Y-43775855D01*
X193875177Y-43773318D01*
X193829420Y-43720516D01*
X193819473Y-43651358D01*
X193848496Y-43587801D01*
X193875177Y-43564682D01*
X193879126Y-43562144D01*
X193879125Y-43562144D01*
X193879128Y-43562143D01*
X193973377Y-43453373D01*
X194033165Y-43322457D01*
X194053647Y-43180000D01*
X194033165Y-43037543D01*
X193973377Y-42906627D01*
X193879128Y-42797857D01*
X193758053Y-42720047D01*
X193758051Y-42720046D01*
X193758049Y-42720045D01*
X193758050Y-42720045D01*
X193619963Y-42679500D01*
X193619961Y-42679500D01*
X193476039Y-42679500D01*
X193476036Y-42679500D01*
X193337949Y-42720045D01*
X193216873Y-42797856D01*
X193216872Y-42797856D01*
X193216872Y-42797857D01*
X193202700Y-42814213D01*
X193183212Y-42836703D01*
X193124433Y-42874477D01*
X193089499Y-42879500D01*
X192410537Y-42879500D01*
X192343498Y-42859815D01*
X192297743Y-42807011D01*
X192287799Y-42737853D01*
X192316824Y-42674297D01*
X192335051Y-42657124D01*
X192401025Y-42606500D01*
X192484738Y-42542265D01*
X192656265Y-42370738D01*
X192803936Y-42178289D01*
X192925224Y-41968212D01*
X193018054Y-41744100D01*
X193080838Y-41509789D01*
X193112500Y-41269288D01*
X193112500Y-41026712D01*
X193110848Y-41014167D01*
X193080838Y-40786214D01*
X193080838Y-40786211D01*
X193018054Y-40551900D01*
X192925224Y-40327788D01*
X192803936Y-40117711D01*
X192656265Y-39925262D01*
X192656260Y-39925256D01*
X192484743Y-39753739D01*
X192484736Y-39753733D01*
X192292293Y-39606067D01*
X192292292Y-39606066D01*
X192292289Y-39606064D01*
X192082212Y-39484776D01*
X192082205Y-39484773D01*
X191858104Y-39391947D01*
X191623785Y-39329161D01*
X191383289Y-39297500D01*
X191383288Y-39297500D01*
X191140712Y-39297500D01*
X191140711Y-39297500D01*
X190900214Y-39329161D01*
X190665895Y-39391947D01*
X190441794Y-39484773D01*
X190441785Y-39484777D01*
X190231706Y-39606067D01*
X190039263Y-39753733D01*
X190039256Y-39753739D01*
X189867739Y-39925256D01*
X189867733Y-39925263D01*
X189720067Y-40117706D01*
X189598777Y-40327785D01*
X189598773Y-40327794D01*
X189505947Y-40551895D01*
X189443161Y-40786214D01*
X189411500Y-41026711D01*
X189411500Y-41269288D01*
X189443161Y-41509785D01*
X189505947Y-41744104D01*
X189598773Y-41968205D01*
X189598776Y-41968212D01*
X189720064Y-42178289D01*
X189720066Y-42178292D01*
X189720067Y-42178293D01*
X189867733Y-42370736D01*
X189867739Y-42370743D01*
X190039256Y-42542260D01*
X190039263Y-42542266D01*
X190188949Y-42657124D01*
X190230152Y-42713552D01*
X190234307Y-42783298D01*
X190200095Y-42844218D01*
X190138378Y-42876971D01*
X190113463Y-42879500D01*
X146207559Y-42879500D01*
X146140520Y-42859815D01*
X146094765Y-42807011D01*
X146084821Y-42737853D01*
X146113846Y-42674297D01*
X146160106Y-42640939D01*
X146190801Y-42628224D01*
X146362212Y-42557224D01*
X146572289Y-42435936D01*
X146764738Y-42288265D01*
X146936265Y-42116738D01*
X147083936Y-41924289D01*
X147205224Y-41714212D01*
X147298054Y-41490100D01*
X147360838Y-41255789D01*
X147392500Y-41015288D01*
X147392500Y-40772712D01*
X147360838Y-40532211D01*
X147298054Y-40297900D01*
X147220223Y-40110000D01*
X159260353Y-40110000D01*
X159280834Y-40252456D01*
X159340622Y-40383371D01*
X159340623Y-40383373D01*
X159434872Y-40492143D01*
X159555947Y-40569953D01*
X159555950Y-40569954D01*
X159555949Y-40569954D01*
X159694036Y-40610499D01*
X159694038Y-40610500D01*
X159694039Y-40610500D01*
X159837962Y-40610500D01*
X159837962Y-40610499D01*
X159976053Y-40569953D01*
X160097128Y-40492143D01*
X160130788Y-40453296D01*
X160189567Y-40415523D01*
X160224501Y-40410500D01*
X172522167Y-40410500D01*
X172589206Y-40430185D01*
X172609848Y-40446819D01*
X173958604Y-41795575D01*
X173992089Y-41856898D01*
X173993661Y-41900902D01*
X173992353Y-41909999D01*
X174012834Y-42052456D01*
X174070301Y-42178289D01*
X174072623Y-42183373D01*
X174166872Y-42292143D01*
X174287947Y-42369953D01*
X174287950Y-42369954D01*
X174287949Y-42369954D01*
X174426036Y-42410499D01*
X174426038Y-42410500D01*
X174426039Y-42410500D01*
X174569962Y-42410500D01*
X174569962Y-42410499D01*
X174691832Y-42374716D01*
X174708050Y-42369954D01*
X174708050Y-42369953D01*
X174708053Y-42369953D01*
X174829128Y-42292143D01*
X174923377Y-42183373D01*
X174983165Y-42052457D01*
X175003647Y-41910000D01*
X174983165Y-41767543D01*
X174923377Y-41636627D01*
X174829128Y-41527857D01*
X174708053Y-41450047D01*
X174708051Y-41450046D01*
X174708049Y-41450045D01*
X174708050Y-41450045D01*
X174569963Y-41409500D01*
X174569961Y-41409500D01*
X174473833Y-41409500D01*
X174406794Y-41389815D01*
X174386152Y-41373181D01*
X172882512Y-39869541D01*
X172882504Y-39869535D01*
X172828640Y-39838437D01*
X172828636Y-39838436D01*
X172813989Y-39829979D01*
X172737562Y-39809500D01*
X172737560Y-39809500D01*
X160224501Y-39809500D01*
X160157462Y-39789815D01*
X160130788Y-39766703D01*
X160097128Y-39727857D01*
X159976053Y-39650047D01*
X159976051Y-39650046D01*
X159976049Y-39650045D01*
X159976050Y-39650045D01*
X159837963Y-39609500D01*
X159832662Y-39608738D01*
X159769106Y-39579714D01*
X159765999Y-39574880D01*
X159762895Y-39579712D01*
X159699340Y-39608738D01*
X159699338Y-39608738D01*
X159694036Y-39609500D01*
X159555949Y-39650045D01*
X159434873Y-39727856D01*
X159340623Y-39836626D01*
X159340622Y-39836628D01*
X159280834Y-39967543D01*
X159260353Y-40110000D01*
X147220223Y-40110000D01*
X147205224Y-40073788D01*
X147083936Y-39863711D01*
X146999547Y-39753733D01*
X146936266Y-39671263D01*
X146936260Y-39671256D01*
X146764743Y-39499739D01*
X146764736Y-39499733D01*
X146572293Y-39352067D01*
X146572292Y-39352066D01*
X146572289Y-39352064D01*
X146362212Y-39230776D01*
X146338932Y-39221133D01*
X146138104Y-39137947D01*
X145903785Y-39075161D01*
X145663289Y-39043500D01*
X145663288Y-39043500D01*
X145420712Y-39043500D01*
X145420711Y-39043500D01*
X145180214Y-39075161D01*
X144945895Y-39137947D01*
X144721794Y-39230773D01*
X144721785Y-39230777D01*
X144511706Y-39352067D01*
X144319263Y-39499733D01*
X144319256Y-39499739D01*
X144147739Y-39671256D01*
X144147733Y-39671263D01*
X144000067Y-39863706D01*
X143878777Y-40073785D01*
X143878773Y-40073794D01*
X143785947Y-40297895D01*
X143723161Y-40532214D01*
X143691500Y-40772711D01*
X143691500Y-41015288D01*
X143723161Y-41255787D01*
X143765318Y-41413117D01*
X143763655Y-41482967D01*
X143724492Y-41540829D01*
X143660264Y-41568333D01*
X143591362Y-41556746D01*
X143557862Y-41532891D01*
X143126819Y-41101848D01*
X143093334Y-41040525D01*
X143090500Y-41014167D01*
X143090500Y-38864439D01*
X143090500Y-38864438D01*
X143089847Y-38862000D01*
X159260353Y-38862000D01*
X159280834Y-39004456D01*
X159313125Y-39075162D01*
X159340623Y-39135373D01*
X159434872Y-39244143D01*
X159555947Y-39321953D01*
X159555950Y-39321954D01*
X159555949Y-39321954D01*
X159658497Y-39352064D01*
X159694039Y-39362500D01*
X159694043Y-39362500D01*
X159699338Y-39363262D01*
X159762894Y-39392286D01*
X159765999Y-39397117D01*
X159769103Y-39392288D01*
X159832658Y-39363262D01*
X159832662Y-39363262D01*
X159837956Y-39362500D01*
X159837961Y-39362500D01*
X159976053Y-39321953D01*
X160097128Y-39244143D01*
X160130788Y-39205296D01*
X160189567Y-39167523D01*
X160224501Y-39162500D01*
X166673499Y-39162500D01*
X166740538Y-39182185D01*
X166767211Y-39205296D01*
X166800872Y-39244143D01*
X166921947Y-39321953D01*
X166921950Y-39321954D01*
X166921949Y-39321954D01*
X167060036Y-39362499D01*
X167060038Y-39362500D01*
X167060039Y-39362500D01*
X167203962Y-39362500D01*
X167203962Y-39362499D01*
X167342053Y-39321953D01*
X167463128Y-39244143D01*
X167557377Y-39135373D01*
X167617165Y-39004457D01*
X167637647Y-38862000D01*
X167617165Y-38719543D01*
X167557377Y-38588627D01*
X167463128Y-38479857D01*
X167342053Y-38402047D01*
X167342051Y-38402046D01*
X167342049Y-38402045D01*
X167342050Y-38402045D01*
X167203963Y-38361500D01*
X167203961Y-38361500D01*
X167060039Y-38361500D01*
X167060036Y-38361500D01*
X166921949Y-38402045D01*
X166800873Y-38479856D01*
X166767212Y-38518703D01*
X166708433Y-38556477D01*
X166673499Y-38561500D01*
X160224501Y-38561500D01*
X160157462Y-38541815D01*
X160130788Y-38518703D01*
X160097128Y-38479857D01*
X159976053Y-38402047D01*
X159976051Y-38402046D01*
X159976049Y-38402045D01*
X159976050Y-38402045D01*
X159837963Y-38361500D01*
X159837961Y-38361500D01*
X159694039Y-38361500D01*
X159694036Y-38361500D01*
X159555949Y-38402045D01*
X159434873Y-38479856D01*
X159340623Y-38588626D01*
X159340622Y-38588628D01*
X159280834Y-38719543D01*
X159260353Y-38862000D01*
X143089847Y-38862000D01*
X143070021Y-38788011D01*
X143070017Y-38788004D01*
X143030464Y-38719495D01*
X143030461Y-38719492D01*
X143030460Y-38719489D01*
X143030457Y-38719486D01*
X143025514Y-38713044D01*
X143027458Y-38711551D01*
X142999910Y-38661101D01*
X142998339Y-38617094D01*
X142999647Y-38608000D01*
X142979165Y-38465543D01*
X142919377Y-38334627D01*
X142825128Y-38225857D01*
X142704053Y-38148047D01*
X142704051Y-38148046D01*
X142704049Y-38148045D01*
X142704050Y-38148045D01*
X142565963Y-38107500D01*
X142565961Y-38107500D01*
X142422039Y-38107500D01*
X142422036Y-38107500D01*
X142283949Y-38148045D01*
X142162873Y-38225856D01*
X142068623Y-38334626D01*
X142068622Y-38334628D01*
X142008834Y-38465543D01*
X141988353Y-38608000D01*
X142008834Y-38750456D01*
X142060889Y-38864438D01*
X142068623Y-38881373D01*
X142162872Y-38990143D01*
X142283947Y-39067953D01*
X142283950Y-39067954D01*
X142283948Y-39067954D01*
X142367955Y-39092619D01*
X142400434Y-39102156D01*
X142459212Y-39139929D01*
X142488238Y-39203485D01*
X142489500Y-39221133D01*
X142489500Y-39263985D01*
X142469815Y-39331024D01*
X142417011Y-39376779D01*
X142347853Y-39386723D01*
X142330567Y-39382963D01*
X142311961Y-39377500D01*
X142168039Y-39377500D01*
X142168036Y-39377500D01*
X142029949Y-39418045D01*
X141908873Y-39495856D01*
X141908872Y-39495856D01*
X141908872Y-39495857D01*
X141905512Y-39499735D01*
X141814623Y-39604626D01*
X141814622Y-39604628D01*
X141754834Y-39735543D01*
X141734353Y-39878000D01*
X141754834Y-40020456D01*
X141799250Y-40117711D01*
X141814623Y-40151373D01*
X141908872Y-40260143D01*
X141908875Y-40260144D01*
X141909213Y-40260535D01*
X141938238Y-40324091D01*
X141939500Y-40341738D01*
X141939500Y-41695562D01*
X141944498Y-41714214D01*
X141959979Y-41771990D01*
X141970006Y-41789356D01*
X141972694Y-41794012D01*
X141998936Y-41839465D01*
X141999539Y-41840509D01*
X141999541Y-41840512D01*
X144404848Y-44245819D01*
X144438333Y-44307142D01*
X144433349Y-44376834D01*
X144391477Y-44432767D01*
X144326013Y-44457184D01*
X144317167Y-44457500D01*
X136897293Y-44457500D01*
X136830254Y-44437815D01*
X136784499Y-44385011D01*
X136774555Y-44315853D01*
X136803580Y-44252297D01*
X136862358Y-44214523D01*
X136873101Y-44211883D01*
X136893231Y-44207878D01*
X136903997Y-44205737D01*
X137049679Y-44145394D01*
X137180789Y-44057789D01*
X137292289Y-43946289D01*
X137379894Y-43815179D01*
X137440237Y-43669497D01*
X137471000Y-43514842D01*
X137471000Y-43509920D01*
X139379999Y-43509920D01*
X139408840Y-43654907D01*
X139408843Y-43654917D01*
X139465412Y-43791488D01*
X139465419Y-43791501D01*
X139547548Y-43914415D01*
X139547551Y-43914419D01*
X139652080Y-44018948D01*
X139652084Y-44018951D01*
X139774998Y-44101080D01*
X139775011Y-44101087D01*
X139881969Y-44145390D01*
X139911587Y-44157658D01*
X139911591Y-44157658D01*
X139911592Y-44157659D01*
X140056579Y-44186500D01*
X140056582Y-44186500D01*
X141104420Y-44186500D01*
X141201962Y-44167096D01*
X141249413Y-44157658D01*
X141385995Y-44101084D01*
X141508916Y-44018951D01*
X141613451Y-43914416D01*
X141695584Y-43791495D01*
X141702062Y-43775857D01*
X141752156Y-43654917D01*
X141752158Y-43654913D01*
X141770106Y-43564685D01*
X141781000Y-43509920D01*
X141781000Y-43362079D01*
X141752159Y-43217092D01*
X141752158Y-43217091D01*
X141752158Y-43217087D01*
X141736796Y-43180000D01*
X141695587Y-43080511D01*
X141695580Y-43080498D01*
X141613451Y-42957584D01*
X141613448Y-42957580D01*
X141508919Y-42853051D01*
X141508915Y-42853048D01*
X141386001Y-42770919D01*
X141385988Y-42770912D01*
X141249417Y-42714343D01*
X141249407Y-42714340D01*
X141104420Y-42685500D01*
X141104418Y-42685500D01*
X140519598Y-42685500D01*
X140452559Y-42665815D01*
X140406804Y-42613011D01*
X140396860Y-42543853D01*
X140425885Y-42480297D01*
X140431917Y-42473819D01*
X140469804Y-42435932D01*
X140531020Y-42374716D01*
X140610077Y-42237784D01*
X140651000Y-42085057D01*
X140651000Y-41926943D01*
X140610077Y-41774216D01*
X140564667Y-41695562D01*
X140531024Y-41637290D01*
X140531018Y-41637282D01*
X140419217Y-41525481D01*
X140419209Y-41525475D01*
X140282290Y-41446426D01*
X140282286Y-41446424D01*
X140282284Y-41446423D01*
X140129557Y-41405500D01*
X139971443Y-41405500D01*
X139818716Y-41446423D01*
X139818709Y-41446426D01*
X139681790Y-41525475D01*
X139681782Y-41525481D01*
X139569981Y-41637282D01*
X139569975Y-41637290D01*
X139490926Y-41774209D01*
X139490923Y-41774216D01*
X139450000Y-41926943D01*
X139450000Y-42085057D01*
X139474983Y-42178293D01*
X139490923Y-42237783D01*
X139490926Y-42237790D01*
X139569975Y-42374709D01*
X139569979Y-42374714D01*
X139569980Y-42374716D01*
X139681784Y-42486520D01*
X139789782Y-42548872D01*
X139837997Y-42599438D01*
X139851221Y-42668045D01*
X139825253Y-42732910D01*
X139779949Y-42767249D01*
X139780375Y-42768046D01*
X139775367Y-42770722D01*
X139775244Y-42770816D01*
X139775014Y-42770911D01*
X139774998Y-42770919D01*
X139652084Y-42853048D01*
X139652080Y-42853051D01*
X139547551Y-42957580D01*
X139547548Y-42957584D01*
X139465419Y-43080498D01*
X139465412Y-43080511D01*
X139408843Y-43217082D01*
X139408840Y-43217092D01*
X139380000Y-43362079D01*
X139380000Y-43362082D01*
X139380000Y-43509918D01*
X139380000Y-43509920D01*
X139379999Y-43509920D01*
X137471000Y-43509920D01*
X137471000Y-43357158D01*
X137471000Y-43357155D01*
X137470999Y-43357153D01*
X137440238Y-43202510D01*
X137440237Y-43202503D01*
X137389707Y-43080511D01*
X137379897Y-43056827D01*
X137379890Y-43056814D01*
X137292289Y-42925711D01*
X137292286Y-42925707D01*
X137180792Y-42814213D01*
X137180788Y-42814210D01*
X137049685Y-42726609D01*
X137049672Y-42726602D01*
X136904001Y-42666264D01*
X136903989Y-42666261D01*
X136749345Y-42635500D01*
X136749342Y-42635500D01*
X135991658Y-42635500D01*
X135991655Y-42635500D01*
X135837010Y-42666261D01*
X135836998Y-42666264D01*
X135691327Y-42726602D01*
X135691314Y-42726609D01*
X135560211Y-42814210D01*
X135560207Y-42814213D01*
X135448713Y-42925707D01*
X135448710Y-42925711D01*
X135361109Y-43056814D01*
X135361102Y-43056827D01*
X135300764Y-43202498D01*
X135300761Y-43202510D01*
X135270000Y-43357153D01*
X135270000Y-43514846D01*
X135300761Y-43669489D01*
X135300764Y-43669501D01*
X135361102Y-43815172D01*
X135361109Y-43815185D01*
X135448710Y-43946288D01*
X135448713Y-43946292D01*
X135560207Y-44057786D01*
X135560211Y-44057789D01*
X135691314Y-44145390D01*
X135691327Y-44145397D01*
X135790560Y-44186500D01*
X135837003Y-44205737D01*
X135837007Y-44205737D01*
X135837008Y-44205738D01*
X135867899Y-44211883D01*
X135929809Y-44244268D01*
X135964384Y-44304984D01*
X135960644Y-44374753D01*
X135919777Y-44431425D01*
X135854759Y-44457006D01*
X135843707Y-44457500D01*
X133424000Y-44457500D01*
X133356961Y-44437815D01*
X133311206Y-44385011D01*
X133300000Y-44333500D01*
X133300000Y-34717153D01*
X135270000Y-34717153D01*
X135270000Y-34874846D01*
X135300761Y-35029489D01*
X135300764Y-35029501D01*
X135361102Y-35175172D01*
X135361109Y-35175185D01*
X135448710Y-35306288D01*
X135448713Y-35306292D01*
X135560207Y-35417786D01*
X135560211Y-35417789D01*
X135691314Y-35505390D01*
X135691327Y-35505397D01*
X135790560Y-35546500D01*
X135837003Y-35565737D01*
X135991653Y-35596499D01*
X135991656Y-35596500D01*
X135991658Y-35596500D01*
X136749344Y-35596500D01*
X136749345Y-35596499D01*
X136903997Y-35565737D01*
X137049679Y-35505394D01*
X137180789Y-35417789D01*
X137292289Y-35306289D01*
X137379894Y-35175179D01*
X137440237Y-35029497D01*
X137471000Y-34874842D01*
X137471000Y-34869920D01*
X139379999Y-34869920D01*
X139408840Y-35014907D01*
X139408843Y-35014917D01*
X139465412Y-35151488D01*
X139465419Y-35151501D01*
X139547548Y-35274415D01*
X139547551Y-35274419D01*
X139652080Y-35378948D01*
X139652084Y-35378951D01*
X139774998Y-35461080D01*
X139775002Y-35461082D01*
X139775005Y-35461084D01*
X139775205Y-35461167D01*
X139775227Y-35461176D01*
X139775324Y-35461254D01*
X139780375Y-35463954D01*
X139779863Y-35464911D01*
X139829633Y-35505013D01*
X139851703Y-35571306D01*
X139834428Y-35639006D01*
X139789782Y-35683127D01*
X139681787Y-35745477D01*
X139681782Y-35745481D01*
X139569981Y-35857282D01*
X139569975Y-35857290D01*
X139490926Y-35994209D01*
X139490923Y-35994216D01*
X139450000Y-36146943D01*
X139450000Y-36305057D01*
X139452531Y-36314500D01*
X139490923Y-36457783D01*
X139490926Y-36457790D01*
X139569975Y-36594709D01*
X139569979Y-36594714D01*
X139569980Y-36594716D01*
X139681784Y-36706520D01*
X139681786Y-36706521D01*
X139681790Y-36706524D01*
X139818709Y-36785573D01*
X139818716Y-36785577D01*
X139971443Y-36826500D01*
X139971445Y-36826500D01*
X140129555Y-36826500D01*
X140129557Y-36826500D01*
X140282284Y-36785577D01*
X140419216Y-36706520D01*
X140531020Y-36594716D01*
X140610077Y-36457784D01*
X140651000Y-36305057D01*
X140651000Y-36146943D01*
X140610077Y-35994216D01*
X140588277Y-35956457D01*
X140531024Y-35857290D01*
X140531018Y-35857282D01*
X140431917Y-35758181D01*
X140398432Y-35696858D01*
X140403416Y-35627166D01*
X140445288Y-35571233D01*
X140510752Y-35546816D01*
X140519598Y-35546500D01*
X141104420Y-35546500D01*
X141201962Y-35527096D01*
X141249413Y-35517658D01*
X141385995Y-35461084D01*
X141508916Y-35378951D01*
X141613451Y-35274416D01*
X141695584Y-35151495D01*
X141752158Y-35014913D01*
X141780020Y-34874846D01*
X141781000Y-34869920D01*
X141781000Y-34722079D01*
X141752159Y-34577092D01*
X141752158Y-34577091D01*
X141752158Y-34577087D01*
X141736520Y-34539334D01*
X141695587Y-34440511D01*
X141695580Y-34440498D01*
X141613451Y-34317584D01*
X141613448Y-34317580D01*
X141508919Y-34213051D01*
X141508915Y-34213048D01*
X141386001Y-34130919D01*
X141385988Y-34130912D01*
X141249417Y-34074343D01*
X141249407Y-34074340D01*
X141104420Y-34045500D01*
X141104418Y-34045500D01*
X140056582Y-34045500D01*
X140056580Y-34045500D01*
X139911592Y-34074340D01*
X139911582Y-34074343D01*
X139775011Y-34130912D01*
X139774998Y-34130919D01*
X139652084Y-34213048D01*
X139652080Y-34213051D01*
X139547551Y-34317580D01*
X139547548Y-34317584D01*
X139465419Y-34440498D01*
X139465412Y-34440511D01*
X139408843Y-34577082D01*
X139408840Y-34577092D01*
X139380000Y-34722079D01*
X139380000Y-34722082D01*
X139380000Y-34869918D01*
X139380000Y-34869920D01*
X139379999Y-34869920D01*
X137471000Y-34869920D01*
X137471000Y-34717158D01*
X137471000Y-34717155D01*
X137470999Y-34717153D01*
X137459629Y-34659995D01*
X137440237Y-34562503D01*
X137432573Y-34544000D01*
X137379897Y-34416827D01*
X137379890Y-34416814D01*
X137292289Y-34285711D01*
X137292286Y-34285707D01*
X137180792Y-34174213D01*
X137180788Y-34174210D01*
X137049685Y-34086609D01*
X137049672Y-34086602D01*
X136904001Y-34026264D01*
X136903989Y-34026261D01*
X136749345Y-33995500D01*
X136749342Y-33995500D01*
X135991658Y-33995500D01*
X135991655Y-33995500D01*
X135837010Y-34026261D01*
X135836998Y-34026264D01*
X135691327Y-34086602D01*
X135691314Y-34086609D01*
X135560211Y-34174210D01*
X135560207Y-34174213D01*
X135448713Y-34285707D01*
X135448710Y-34285711D01*
X135361109Y-34416814D01*
X135361102Y-34416827D01*
X135300764Y-34562498D01*
X135300761Y-34562510D01*
X135270000Y-34717153D01*
X133300000Y-34717153D01*
X133300000Y-30480000D01*
X143004353Y-30480000D01*
X143024834Y-30622456D01*
X143084622Y-30753371D01*
X143084623Y-30753373D01*
X143178872Y-30862143D01*
X143299947Y-30939953D01*
X143374435Y-30961824D01*
X143433212Y-30999597D01*
X143462238Y-31063152D01*
X143463500Y-31080801D01*
X143463500Y-34504438D01*
X143463500Y-34583562D01*
X143477152Y-34634513D01*
X143483979Y-34659990D01*
X143483982Y-34659995D01*
X143523535Y-34728504D01*
X143523539Y-34728509D01*
X143523540Y-34728511D01*
X143579489Y-34784460D01*
X143579491Y-34784461D01*
X143579495Y-34784464D01*
X143648004Y-34824017D01*
X143648011Y-34824021D01*
X143724438Y-34844500D01*
X150009122Y-34844500D01*
X150076161Y-34864185D01*
X150121916Y-34916989D01*
X150131859Y-34986146D01*
X150116353Y-35094000D01*
X150136834Y-35236456D01*
X150183203Y-35337988D01*
X150193147Y-35407147D01*
X150164122Y-35470703D01*
X150105344Y-35508477D01*
X150070409Y-35513500D01*
X149556501Y-35513500D01*
X149489462Y-35493815D01*
X149462788Y-35470703D01*
X149456940Y-35463954D01*
X149429128Y-35431857D01*
X149308053Y-35354047D01*
X149308051Y-35354046D01*
X149308049Y-35354045D01*
X149308050Y-35354045D01*
X149169963Y-35313500D01*
X149169961Y-35313500D01*
X149026039Y-35313500D01*
X149026036Y-35313500D01*
X148887949Y-35354045D01*
X148766873Y-35431856D01*
X148672623Y-35540626D01*
X148672622Y-35540628D01*
X148612834Y-35671543D01*
X148592353Y-35814000D01*
X148612834Y-35956456D01*
X148657591Y-36054458D01*
X148672623Y-36087373D01*
X148766872Y-36196143D01*
X148887947Y-36273953D01*
X148887950Y-36273954D01*
X148887949Y-36273954D01*
X149026036Y-36314499D01*
X149026038Y-36314500D01*
X149026039Y-36314500D01*
X149169962Y-36314500D01*
X149169962Y-36314499D01*
X149308053Y-36273953D01*
X149429128Y-36196143D01*
X149462788Y-36157296D01*
X149521567Y-36119523D01*
X149556501Y-36114500D01*
X192571560Y-36114500D01*
X192571562Y-36114500D01*
X192647989Y-36094021D01*
X192716511Y-36054460D01*
X192772460Y-35998511D01*
X194198151Y-34572818D01*
X194259474Y-34539334D01*
X194285832Y-34536500D01*
X194381962Y-34536500D01*
X194381962Y-34536499D01*
X194520053Y-34495953D01*
X194641128Y-34418143D01*
X194735377Y-34309373D01*
X194795165Y-34178457D01*
X194815647Y-34036000D01*
X194795165Y-33893543D01*
X194735377Y-33762627D01*
X194641128Y-33653857D01*
X194520053Y-33576047D01*
X194520051Y-33576046D01*
X194520049Y-33576045D01*
X194520050Y-33576045D01*
X194381963Y-33535500D01*
X194381961Y-33535500D01*
X194289095Y-33535500D01*
X194222056Y-33515815D01*
X194176301Y-33463011D01*
X194166357Y-33393853D01*
X194195382Y-33330297D01*
X194227377Y-33293373D01*
X194287165Y-33162457D01*
X194307647Y-33020000D01*
X194287165Y-32877543D01*
X194227377Y-32746627D01*
X194133128Y-32637857D01*
X194012053Y-32560047D01*
X194012051Y-32560046D01*
X194012049Y-32560045D01*
X194012050Y-32560045D01*
X193873963Y-32519500D01*
X193873961Y-32519500D01*
X193730039Y-32519500D01*
X193730036Y-32519500D01*
X193591949Y-32560045D01*
X193470873Y-32637856D01*
X193376623Y-32746626D01*
X193376622Y-32746628D01*
X193316834Y-32877543D01*
X193296353Y-33020000D01*
X193296353Y-33020001D01*
X193297661Y-33029103D01*
X193287713Y-33098261D01*
X193262603Y-33134424D01*
X191639848Y-34757181D01*
X191578525Y-34790666D01*
X191552167Y-34793500D01*
X187302878Y-34793500D01*
X187235839Y-34773815D01*
X187190084Y-34721011D01*
X187180140Y-34651853D01*
X187195647Y-34544000D01*
X187175165Y-34401543D01*
X187115377Y-34270627D01*
X187111693Y-34262560D01*
X187113749Y-34261620D01*
X187097564Y-34206503D01*
X187117247Y-34139463D01*
X187170049Y-34093707D01*
X187221564Y-34082500D01*
X187755499Y-34082500D01*
X187822538Y-34102185D01*
X187849211Y-34125296D01*
X187882872Y-34164143D01*
X188003947Y-34241953D01*
X188003950Y-34241954D01*
X188003949Y-34241954D01*
X188142036Y-34282499D01*
X188142038Y-34282500D01*
X188142039Y-34282500D01*
X188285962Y-34282500D01*
X188285962Y-34282499D01*
X188393121Y-34251035D01*
X188424050Y-34241954D01*
X188424050Y-34241953D01*
X188424053Y-34241953D01*
X188545128Y-34164143D01*
X188639377Y-34055373D01*
X188699165Y-33924457D01*
X188719647Y-33782000D01*
X188699165Y-33639543D01*
X188639377Y-33508627D01*
X188545128Y-33399857D01*
X188424053Y-33322047D01*
X188424051Y-33322046D01*
X188424049Y-33322045D01*
X188424050Y-33322045D01*
X188285963Y-33281500D01*
X188285961Y-33281500D01*
X188142039Y-33281500D01*
X188142036Y-33281500D01*
X188003949Y-33322045D01*
X187882873Y-33399856D01*
X187849212Y-33438703D01*
X187790433Y-33476477D01*
X187755499Y-33481500D01*
X183590179Y-33481500D01*
X183523140Y-33461815D01*
X183477385Y-33409011D01*
X183467441Y-33339853D01*
X183496466Y-33276297D01*
X183555244Y-33238523D01*
X183555245Y-33238523D01*
X183598050Y-33225954D01*
X183598050Y-33225953D01*
X183598053Y-33225953D01*
X183719128Y-33148143D01*
X183813377Y-33039373D01*
X183873165Y-32908457D01*
X183893647Y-32766000D01*
X183873165Y-32623543D01*
X183813377Y-32492627D01*
X183719128Y-32383857D01*
X183598053Y-32306047D01*
X183598051Y-32306046D01*
X183598049Y-32306045D01*
X183598050Y-32306045D01*
X183459963Y-32265500D01*
X183459961Y-32265500D01*
X183316039Y-32265500D01*
X183316036Y-32265500D01*
X183177949Y-32306045D01*
X183056873Y-32383856D01*
X183023212Y-32422703D01*
X182964433Y-32460477D01*
X182929499Y-32465500D01*
X177750501Y-32465500D01*
X177683462Y-32445815D01*
X177656788Y-32422703D01*
X177623128Y-32383857D01*
X177502053Y-32306047D01*
X177502051Y-32306046D01*
X177502049Y-32306045D01*
X177502050Y-32306045D01*
X177363963Y-32265500D01*
X177363961Y-32265500D01*
X177220039Y-32265500D01*
X177220036Y-32265500D01*
X177081949Y-32306045D01*
X176960873Y-32383856D01*
X176866623Y-32492626D01*
X176866622Y-32492628D01*
X176806834Y-32623543D01*
X176786353Y-32766000D01*
X176806834Y-32908456D01*
X176857776Y-33020001D01*
X176866623Y-33039373D01*
X176960872Y-33148143D01*
X177081947Y-33225953D01*
X177081950Y-33225954D01*
X177081949Y-33225954D01*
X177124755Y-33238523D01*
X177183533Y-33276297D01*
X177212559Y-33339852D01*
X177202616Y-33409011D01*
X177156861Y-33461815D01*
X177089822Y-33481500D01*
X159362878Y-33481500D01*
X159295839Y-33461815D01*
X159250084Y-33409011D01*
X159240140Y-33339853D01*
X159242700Y-33322047D01*
X159255647Y-33232000D01*
X159235165Y-33089543D01*
X159175377Y-32958627D01*
X159175375Y-32958625D01*
X159175374Y-32958622D01*
X159080787Y-32849462D01*
X159051762Y-32785906D01*
X159050500Y-32768260D01*
X159050500Y-31197738D01*
X159070185Y-31130699D01*
X159080787Y-31116535D01*
X159081124Y-31116144D01*
X159081128Y-31116143D01*
X159175377Y-31007373D01*
X159235165Y-30876457D01*
X159255647Y-30734000D01*
X159235165Y-30591543D01*
X159175377Y-30460627D01*
X159081128Y-30351857D01*
X158960053Y-30274047D01*
X158960051Y-30274046D01*
X158960049Y-30274045D01*
X158960050Y-30274045D01*
X158821963Y-30233500D01*
X158821961Y-30233500D01*
X158678039Y-30233500D01*
X158678036Y-30233500D01*
X158539949Y-30274045D01*
X158418873Y-30351856D01*
X158324623Y-30460626D01*
X158324622Y-30460628D01*
X158264834Y-30591543D01*
X158244353Y-30734000D01*
X158264834Y-30876456D01*
X158303821Y-30961823D01*
X158324623Y-31007373D01*
X158418872Y-31116143D01*
X158418875Y-31116144D01*
X158419213Y-31116535D01*
X158448238Y-31180091D01*
X158449500Y-31197738D01*
X158449500Y-32768260D01*
X158429815Y-32835299D01*
X158419213Y-32849462D01*
X158324625Y-32958622D01*
X158324622Y-32958628D01*
X158264834Y-33089543D01*
X158245222Y-33225953D01*
X158244353Y-33232000D01*
X158257299Y-33322045D01*
X158259860Y-33339853D01*
X158249916Y-33409011D01*
X158204161Y-33461815D01*
X158137122Y-33481500D01*
X145966500Y-33481500D01*
X145899461Y-33461815D01*
X145853706Y-33409011D01*
X145842500Y-33357500D01*
X145842500Y-30943738D01*
X145862185Y-30876699D01*
X145872787Y-30862535D01*
X145873124Y-30862144D01*
X145873128Y-30862143D01*
X145967377Y-30753373D01*
X146027165Y-30622457D01*
X146047647Y-30480000D01*
X153926353Y-30480000D01*
X153946834Y-30622456D01*
X154006622Y-30753371D01*
X154006623Y-30753373D01*
X154100872Y-30862143D01*
X154221947Y-30939953D01*
X154221950Y-30939954D01*
X154221949Y-30939954D01*
X154360036Y-30980499D01*
X154360038Y-30980500D01*
X154360039Y-30980500D01*
X154503962Y-30980500D01*
X154503962Y-30980499D01*
X154611121Y-30949035D01*
X154642050Y-30939954D01*
X154642050Y-30939953D01*
X154642053Y-30939953D01*
X154763128Y-30862143D01*
X154796788Y-30823296D01*
X154855567Y-30785523D01*
X154890501Y-30780500D01*
X155751499Y-30780500D01*
X155818538Y-30800185D01*
X155845211Y-30823296D01*
X155878872Y-30862143D01*
X155999947Y-30939953D01*
X155999950Y-30939954D01*
X155999949Y-30939954D01*
X156138036Y-30980499D01*
X156138038Y-30980500D01*
X156138039Y-30980500D01*
X156281962Y-30980500D01*
X156281962Y-30980499D01*
X156389121Y-30949035D01*
X156420050Y-30939954D01*
X156420050Y-30939953D01*
X156420053Y-30939953D01*
X156541128Y-30862143D01*
X156635377Y-30753373D01*
X156695165Y-30622457D01*
X156715647Y-30480000D01*
X156695165Y-30337543D01*
X156635377Y-30206627D01*
X156541128Y-30097857D01*
X156420053Y-30020047D01*
X156420051Y-30020046D01*
X156420049Y-30020045D01*
X156420050Y-30020045D01*
X156281963Y-29979500D01*
X156281961Y-29979500D01*
X156138039Y-29979500D01*
X156138036Y-29979500D01*
X155999949Y-30020045D01*
X155878873Y-30097856D01*
X155845212Y-30136703D01*
X155786433Y-30174477D01*
X155751499Y-30179500D01*
X154890501Y-30179500D01*
X154823462Y-30159815D01*
X154796788Y-30136703D01*
X154763128Y-30097857D01*
X154642053Y-30020047D01*
X154642051Y-30020046D01*
X154642049Y-30020045D01*
X154642050Y-30020045D01*
X154503963Y-29979500D01*
X154503961Y-29979500D01*
X154360039Y-29979500D01*
X154360036Y-29979500D01*
X154221949Y-30020045D01*
X154100873Y-30097856D01*
X154006623Y-30206626D01*
X154006622Y-30206628D01*
X153946834Y-30337543D01*
X153926353Y-30480000D01*
X146047647Y-30480000D01*
X146027165Y-30337543D01*
X145967377Y-30206627D01*
X145873128Y-30097857D01*
X145752053Y-30020047D01*
X145752051Y-30020046D01*
X145752049Y-30020045D01*
X145752050Y-30020045D01*
X145613963Y-29979500D01*
X145613961Y-29979500D01*
X145470039Y-29979500D01*
X145470036Y-29979500D01*
X145331949Y-30020045D01*
X145210873Y-30097856D01*
X145116623Y-30206626D01*
X145116622Y-30206628D01*
X145056834Y-30337543D01*
X145036353Y-30480000D01*
X145056834Y-30622456D01*
X145116622Y-30753371D01*
X145116623Y-30753373D01*
X145210872Y-30862143D01*
X145210875Y-30862144D01*
X145211213Y-30862535D01*
X145240238Y-30926091D01*
X145241500Y-30943738D01*
X145241500Y-33742438D01*
X145241500Y-33821562D01*
X145255152Y-33872513D01*
X145261979Y-33897990D01*
X145261982Y-33897995D01*
X145301535Y-33966504D01*
X145301541Y-33966512D01*
X145363236Y-34028207D01*
X145361898Y-34029544D01*
X145396952Y-34077555D01*
X145401105Y-34147301D01*
X145366891Y-34208221D01*
X145305173Y-34240972D01*
X145280262Y-34243500D01*
X144188500Y-34243500D01*
X144121461Y-34223815D01*
X144075706Y-34171011D01*
X144064500Y-34119500D01*
X144064500Y-30694439D01*
X144044020Y-30618009D01*
X144040313Y-30611589D01*
X144026875Y-30588314D01*
X144010402Y-30520416D01*
X144011523Y-30508676D01*
X144015647Y-30480000D01*
X143995165Y-30337543D01*
X143935377Y-30206627D01*
X143841128Y-30097857D01*
X143720053Y-30020047D01*
X143720051Y-30020046D01*
X143720049Y-30020045D01*
X143720050Y-30020045D01*
X143581963Y-29979500D01*
X143581961Y-29979500D01*
X143438039Y-29979500D01*
X143438036Y-29979500D01*
X143299949Y-30020045D01*
X143178873Y-30097856D01*
X143084623Y-30206626D01*
X143084622Y-30206628D01*
X143024834Y-30337543D01*
X143004353Y-30480000D01*
X133300000Y-30480000D01*
X133300000Y-27310711D01*
X135055500Y-27310711D01*
X135055500Y-27553288D01*
X135087161Y-27793785D01*
X135149947Y-28028104D01*
X135242773Y-28252205D01*
X135242776Y-28252212D01*
X135364064Y-28462289D01*
X135364066Y-28462292D01*
X135364067Y-28462293D01*
X135511733Y-28654736D01*
X135511739Y-28654743D01*
X135683256Y-28826260D01*
X135683262Y-28826265D01*
X135875711Y-28973936D01*
X136085788Y-29095224D01*
X136309900Y-29188054D01*
X136544211Y-29250838D01*
X136724586Y-29274584D01*
X136784711Y-29282500D01*
X136784712Y-29282500D01*
X137027289Y-29282500D01*
X137075388Y-29276167D01*
X137267789Y-29250838D01*
X137502100Y-29188054D01*
X137726212Y-29095224D01*
X137936289Y-28973936D01*
X138128738Y-28826265D01*
X138300265Y-28654738D01*
X138447936Y-28462289D01*
X138569224Y-28252212D01*
X138662054Y-28028100D01*
X138724838Y-27793789D01*
X138756500Y-27553288D01*
X138756500Y-27310712D01*
X138755898Y-27306143D01*
X138724838Y-27070214D01*
X138724838Y-27070211D01*
X138685661Y-26924000D01*
X180088353Y-26924000D01*
X180108834Y-27066456D01*
X180168622Y-27197371D01*
X180168623Y-27197373D01*
X180262872Y-27306143D01*
X180383947Y-27383953D01*
X180383950Y-27383954D01*
X180383949Y-27383954D01*
X180522036Y-27424499D01*
X180522038Y-27424500D01*
X180522039Y-27424500D01*
X180665962Y-27424500D01*
X180665962Y-27424499D01*
X180804053Y-27383953D01*
X180918020Y-27310711D01*
X189411500Y-27310711D01*
X189411500Y-27553288D01*
X189443161Y-27793785D01*
X189505947Y-28028104D01*
X189598773Y-28252205D01*
X189598776Y-28252212D01*
X189720064Y-28462289D01*
X189720066Y-28462292D01*
X189720067Y-28462293D01*
X189867733Y-28654736D01*
X189867739Y-28654743D01*
X190039256Y-28826260D01*
X190039262Y-28826265D01*
X190231711Y-28973936D01*
X190441788Y-29095224D01*
X190665900Y-29188054D01*
X190900211Y-29250838D01*
X191080586Y-29274584D01*
X191140711Y-29282500D01*
X191140712Y-29282500D01*
X191383289Y-29282500D01*
X191431388Y-29276167D01*
X191623789Y-29250838D01*
X191858100Y-29188054D01*
X192082212Y-29095224D01*
X192292289Y-28973936D01*
X192484738Y-28826265D01*
X192656265Y-28654738D01*
X192803936Y-28462289D01*
X192925224Y-28252212D01*
X193018054Y-28028100D01*
X193080838Y-27793789D01*
X193112500Y-27553288D01*
X193112500Y-27310712D01*
X193111898Y-27306143D01*
X193080838Y-27070214D01*
X193080838Y-27070211D01*
X193018054Y-26835900D01*
X192925224Y-26611788D01*
X192803936Y-26401711D01*
X192656265Y-26209262D01*
X192656260Y-26209256D01*
X192484743Y-26037739D01*
X192484736Y-26037733D01*
X192292293Y-25890067D01*
X192292292Y-25890066D01*
X192292289Y-25890064D01*
X192082212Y-25768776D01*
X192082205Y-25768773D01*
X191858104Y-25675947D01*
X191740944Y-25644554D01*
X191623789Y-25613162D01*
X191623788Y-25613161D01*
X191623785Y-25613161D01*
X191383289Y-25581500D01*
X191383288Y-25581500D01*
X191140712Y-25581500D01*
X191140711Y-25581500D01*
X190900214Y-25613161D01*
X190665895Y-25675947D01*
X190441794Y-25768773D01*
X190441785Y-25768777D01*
X190231706Y-25890067D01*
X190039263Y-26037733D01*
X190039256Y-26037739D01*
X189867739Y-26209256D01*
X189867733Y-26209263D01*
X189720067Y-26401706D01*
X189598777Y-26611785D01*
X189598773Y-26611794D01*
X189505947Y-26835895D01*
X189443161Y-27070214D01*
X189411500Y-27310711D01*
X180918020Y-27310711D01*
X180925128Y-27306143D01*
X181019377Y-27197373D01*
X181079165Y-27066457D01*
X181099647Y-26924000D01*
X181079165Y-26781543D01*
X181019377Y-26650627D01*
X181019375Y-26650625D01*
X181019374Y-26650622D01*
X180924787Y-26541462D01*
X180895762Y-26477906D01*
X180894500Y-26460260D01*
X180894500Y-25067833D01*
X180914185Y-25000794D01*
X180930819Y-24980152D01*
X180990152Y-24920819D01*
X181051475Y-24887334D01*
X181077833Y-24884500D01*
X181173962Y-24884500D01*
X181173962Y-24884499D01*
X181312053Y-24843953D01*
X181433128Y-24766143D01*
X181527377Y-24657373D01*
X181587165Y-24526457D01*
X181607647Y-24384000D01*
X181587165Y-24241543D01*
X181527377Y-24110627D01*
X181433128Y-24001857D01*
X181312053Y-23924047D01*
X181312051Y-23924046D01*
X181312049Y-23924045D01*
X181312050Y-23924045D01*
X181173963Y-23883500D01*
X181173961Y-23883500D01*
X181030039Y-23883500D01*
X181030036Y-23883500D01*
X180891949Y-23924045D01*
X180770873Y-24001856D01*
X180676623Y-24110626D01*
X180676622Y-24110628D01*
X180616834Y-24241543D01*
X180596353Y-24384000D01*
X180596353Y-24384001D01*
X180597661Y-24393103D01*
X180587713Y-24462261D01*
X180562603Y-24498424D01*
X180409489Y-24651540D01*
X180353541Y-24707487D01*
X180353535Y-24707495D01*
X180313982Y-24776004D01*
X180313979Y-24776009D01*
X180300326Y-24826962D01*
X180295774Y-24843954D01*
X180293500Y-24852439D01*
X180293500Y-26460260D01*
X180273815Y-26527299D01*
X180263213Y-26541462D01*
X180168625Y-26650622D01*
X180168622Y-26650628D01*
X180108834Y-26781543D01*
X180088353Y-26924000D01*
X138685661Y-26924000D01*
X138662054Y-26835900D01*
X138569224Y-26611788D01*
X138447936Y-26401711D01*
X138300265Y-26209262D01*
X138300260Y-26209256D01*
X138128743Y-26037739D01*
X138128736Y-26037733D01*
X137936293Y-25890067D01*
X137936292Y-25890066D01*
X137936289Y-25890064D01*
X137726212Y-25768776D01*
X137726205Y-25768773D01*
X137502104Y-25675947D01*
X137384944Y-25644554D01*
X137267789Y-25613162D01*
X137267788Y-25613161D01*
X137267785Y-25613161D01*
X137027289Y-25581500D01*
X137027288Y-25581500D01*
X136784712Y-25581500D01*
X136784711Y-25581500D01*
X136544214Y-25613161D01*
X136309895Y-25675947D01*
X136085794Y-25768773D01*
X136085785Y-25768777D01*
X135875706Y-25890067D01*
X135683263Y-26037733D01*
X135683256Y-26037739D01*
X135511739Y-26209256D01*
X135511733Y-26209263D01*
X135364067Y-26401706D01*
X135242777Y-26611785D01*
X135242773Y-26611794D01*
X135149947Y-26835895D01*
X135087161Y-27070214D01*
X135055500Y-27310711D01*
X133300000Y-27310711D01*
X133300000Y-23738500D01*
X133319685Y-23671461D01*
X133372489Y-23625706D01*
X133424000Y-23614500D01*
X160934000Y-23614500D01*
X161001039Y-23634185D01*
G37*
%TD.AperFunction*%
%TD*%
M02*
