%TF.GenerationSoftware,KiCad,Pcbnew,8.0.7*%
%TF.CreationDate,2025-05-30T15:57:11-04:00*%
%TF.ProjectId,weiland-esp32,7765696c-616e-4642-9d65-737033322e6b,rev?*%
%TF.SameCoordinates,Original*%
%TF.FileFunction,Soldermask,Top*%
%TF.FilePolarity,Negative*%
%FSLAX46Y46*%
G04 Gerber Fmt 4.6, Leading zero omitted, Abs format (unit mm)*
G04 Created by KiCad (PCBNEW 8.0.7) date 2025-05-30 15:57:11*
%MOMM*%
%LPD*%
G01*
G04 APERTURE LIST*
G04 Aperture macros list*
%AMRoundRect*
0 Rectangle with rounded corners*
0 $1 Rounding radius*
0 $2 $3 $4 $5 $6 $7 $8 $9 X,Y pos of 4 corners*
0 Add a 4 corners polygon primitive as box body*
4,1,4,$2,$3,$4,$5,$6,$7,$8,$9,$2,$3,0*
0 Add four circle primitives for the rounded corners*
1,1,$1+$1,$2,$3*
1,1,$1+$1,$4,$5*
1,1,$1+$1,$6,$7*
1,1,$1+$1,$8,$9*
0 Add four rect primitives between the rounded corners*
20,1,$1+$1,$2,$3,$4,$5,0*
20,1,$1+$1,$4,$5,$6,$7,0*
20,1,$1+$1,$6,$7,$8,$9,0*
20,1,$1+$1,$8,$9,$2,$3,0*%
G04 Aperture macros list end*
%ADD10R,0.900000X0.900000*%
%ADD11R,1.500000X0.900000*%
%ADD12R,0.900000X1.500000*%
%ADD13RoundRect,0.102000X0.250000X0.300000X-0.250000X0.300000X-0.250000X-0.300000X0.250000X-0.300000X0*%
%ADD14R,1.701800X2.489200*%
%ADD15R,0.863600X0.254000*%
%ADD16RoundRect,0.102000X-0.280000X-0.300000X0.280000X-0.300000X0.280000X0.300000X-0.280000X0.300000X0*%
%ADD17C,1.000000*%
%ADD18R,0.600000X1.550000*%
%ADD19R,1.200000X1.800000*%
%ADD20C,3.200000*%
%ADD21RoundRect,0.102000X0.400000X0.400000X-0.400000X0.400000X-0.400000X-0.400000X0.400000X-0.400000X0*%
%ADD22RoundRect,0.102000X0.300000X-0.280000X0.300000X0.280000X-0.300000X0.280000X-0.300000X-0.280000X0*%
%ADD23R,1.550000X0.600000*%
%ADD24R,1.800000X1.200000*%
%ADD25RoundRect,0.135000X-0.185000X0.135000X-0.185000X-0.135000X0.185000X-0.135000X0.185000X0.135000X0*%
%ADD26RoundRect,0.102000X-0.300000X0.280000X-0.300000X-0.280000X0.300000X-0.280000X0.300000X0.280000X0*%
%ADD27RoundRect,0.197160X-0.204840X0.174840X-0.204840X-0.174840X0.204840X-0.174840X0.204840X0.174840X0*%
%ADD28RoundRect,0.140000X-0.140000X-0.170000X0.140000X-0.170000X0.140000X0.170000X-0.140000X0.170000X0*%
%ADD29C,0.700000*%
%ADD30R,1.100000X0.550000*%
%ADD31R,1.100000X0.300000*%
%ADD32O,2.000000X1.100000*%
%ADD33O,1.800000X1.200000*%
%ADD34RoundRect,0.197160X-0.174840X-0.204840X0.174840X-0.204840X0.174840X0.204840X-0.174840X0.204840X0*%
%ADD35RoundRect,0.135000X0.185000X-0.135000X0.185000X0.135000X-0.185000X0.135000X-0.185000X-0.135000X0*%
%ADD36RoundRect,0.085050X0.481950X-0.671950X0.481950X0.671950X-0.481950X0.671950X-0.481950X-0.671950X0*%
%ADD37RoundRect,0.113550X1.608450X-0.643450X1.608450X0.643450X-1.608450X0.643450X-1.608450X-0.643450X0*%
%ADD38R,2.600000X0.740000*%
%ADD39R,2.600000X0.800000*%
%ADD40RoundRect,0.059250X0.462750X0.177750X-0.462750X0.177750X-0.462750X-0.177750X0.462750X-0.177750X0*%
%ADD41RoundRect,0.059250X0.177750X0.462750X-0.177750X0.462750X-0.177750X-0.462750X0.177750X-0.462750X0*%
%ADD42RoundRect,0.102000X0.550000X0.550000X-0.550000X0.550000X-0.550000X-0.550000X0.550000X-0.550000X0*%
G04 APERTURE END LIST*
D10*
%TO.C,U1*%
X169958000Y-34540000D03*
X169958000Y-33140000D03*
X169958000Y-31740000D03*
X168558000Y-34540000D03*
X168558000Y-34540000D03*
X168558000Y-33140000D03*
X168558000Y-31740000D03*
X167158000Y-34540000D03*
X167158000Y-34540000D03*
X167158000Y-33140000D03*
X167158000Y-31740000D03*
X167158000Y-31740000D03*
D11*
X178808000Y-25420000D03*
X178808000Y-26690000D03*
X178808000Y-27960000D03*
X178808000Y-29230000D03*
X178808000Y-30500000D03*
X178808000Y-31770000D03*
X178808000Y-33040000D03*
X178808000Y-34310000D03*
X178808000Y-35580000D03*
X178808000Y-36850000D03*
X178808000Y-38120000D03*
X178808000Y-39390000D03*
X178808000Y-40660000D03*
X178808000Y-41930000D03*
D12*
X175768000Y-43180000D03*
X174498000Y-43180000D03*
X173228000Y-43180000D03*
X171958000Y-43180000D03*
X170688000Y-43180000D03*
X169418000Y-43180000D03*
X168148000Y-43180000D03*
X166878000Y-43180000D03*
X165608000Y-43180000D03*
X164338000Y-43180000D03*
D11*
X161308000Y-41930000D03*
X161308000Y-40660000D03*
X161308000Y-39390000D03*
X161308000Y-38120000D03*
X161308000Y-36850000D03*
X161308000Y-35580000D03*
X161308000Y-34310000D03*
X161308000Y-33040000D03*
X161308000Y-31770000D03*
X161308000Y-30500000D03*
X161308000Y-29230000D03*
X161308000Y-27960000D03*
X161308000Y-26690000D03*
X161308000Y-25420000D03*
%TD*%
D13*
%TO.C,FB1*%
X152598000Y-34036000D03*
X151694000Y-34036000D03*
%TD*%
D14*
%TO.C,U5*%
X185166000Y-36830000D03*
D15*
X186606000Y-35829999D03*
X186606000Y-36330001D03*
X186606000Y-36830000D03*
X186606000Y-37329999D03*
X186606000Y-37830001D03*
X183726000Y-37830000D03*
X183726000Y-37329998D03*
X183726000Y-36829999D03*
X183726000Y-36330000D03*
X183726000Y-35829998D03*
%TD*%
D16*
%TO.C,C6*%
X156923000Y-34515000D03*
X157793000Y-34515000D03*
%TD*%
D17*
%TO.C,I17*%
X181102000Y-38354000D03*
%TD*%
D18*
%TO.C,CN5*%
X151138000Y-39208000D03*
X152138000Y-39208000D03*
D19*
X153438000Y-43088000D03*
X149838000Y-43088000D03*
%TD*%
D20*
%TO.C,H2*%
X191262000Y-41148000D03*
%TD*%
D21*
%TO.C,LED1*%
X134805000Y-32512000D03*
X136455000Y-32512000D03*
%TD*%
D22*
%TO.C,C7*%
X152146000Y-37519000D03*
X152146000Y-36649000D03*
%TD*%
D23*
%TO.C,CN2*%
X195901000Y-28832000D03*
X195901000Y-27832000D03*
X195901000Y-26832000D03*
X195901000Y-25832000D03*
D24*
X199781000Y-24532000D03*
X199781000Y-30132000D03*
%TD*%
D23*
%TO.C,CN4*%
X195901000Y-33982000D03*
X195901000Y-32982000D03*
D24*
X199781000Y-31682000D03*
X199781000Y-35282000D03*
%TD*%
D25*
%TO.C,R2*%
X159508000Y-27090000D03*
X159508000Y-28110000D03*
%TD*%
D17*
%TO.C,I18*%
X181102000Y-36068000D03*
%TD*%
%TO.C,N1*%
X154686000Y-37592000D03*
%TD*%
D22*
%TO.C,C1*%
X159483000Y-30060000D03*
X159483000Y-29190000D03*
%TD*%
%TO.C,C8*%
X150971000Y-37509000D03*
X150971000Y-36639000D03*
%TD*%
D26*
%TO.C,C4*%
X159483000Y-31255000D03*
X159483000Y-32125000D03*
%TD*%
D17*
%TO.C,V3*%
X149352000Y-26416000D03*
%TD*%
D23*
%TO.C,CN1*%
X195926000Y-42132000D03*
X195926000Y-41132000D03*
X195926000Y-40132000D03*
X195926000Y-39132000D03*
X195926000Y-38132000D03*
D24*
X199806000Y-43432000D03*
X199806000Y-36832000D03*
%TD*%
D20*
%TO.C,H1*%
X136906000Y-27432000D03*
%TD*%
D27*
%TO.C,C2*%
X159483000Y-25320000D03*
X159483000Y-26180000D03*
%TD*%
D18*
%TO.C,CN3*%
X145518000Y-28864000D03*
X144518000Y-28864000D03*
X143518000Y-28864000D03*
X142518000Y-28864000D03*
D19*
X141218000Y-24984000D03*
X146818000Y-24984000D03*
%TD*%
D17*
%TO.C,I22*%
X182626000Y-24892000D03*
%TD*%
D28*
%TO.C,C9*%
X181753000Y-26755000D03*
X182713000Y-26755000D03*
%TD*%
D29*
%TO.C,USB1*%
X140050500Y-36226000D03*
X140050500Y-42006000D03*
D30*
X141130500Y-35916000D03*
X141130500Y-36716000D03*
D31*
X141130500Y-37366000D03*
X141130500Y-37866000D03*
X141130500Y-38366000D03*
X141130500Y-38866000D03*
X141130500Y-39366000D03*
X141130500Y-39866000D03*
X141130500Y-40366000D03*
X141130500Y-40866000D03*
D30*
X141130500Y-41516000D03*
X141130500Y-42316000D03*
D32*
X140580500Y-34796000D03*
D33*
X136370500Y-34796000D03*
D32*
X140580500Y-43436000D03*
D33*
X136370500Y-43436000D03*
%TD*%
D34*
%TO.C,C3*%
X184278000Y-26755000D03*
X185138000Y-26755000D03*
%TD*%
D16*
%TO.C,R1*%
X137995000Y-32512000D03*
X138865000Y-32512000D03*
%TD*%
D17*
%TO.C,P+1*%
X154686000Y-35306000D03*
%TD*%
%TO.C,I15*%
X181102000Y-43688000D03*
%TD*%
%TO.C,I14*%
X157833000Y-43665000D03*
%TD*%
%TO.C,I16*%
X181102000Y-40640000D03*
%TD*%
D20*
%TO.C,H4*%
X145542000Y-40894000D03*
%TD*%
D16*
%TO.C,C5*%
X154251000Y-33540000D03*
X155121000Y-33540000D03*
%TD*%
D35*
%TO.C,R3*%
X143002000Y-36832000D03*
X143002000Y-35812000D03*
%TD*%
D36*
%TO.C,U2*%
X153068000Y-31985000D03*
X155358000Y-31985000D03*
X157648000Y-31985000D03*
D37*
X155358000Y-25295000D03*
%TD*%
D17*
%TO.C,I19*%
X181102000Y-33782000D03*
%TD*%
D13*
%TO.C,FB2*%
X152598000Y-35306000D03*
X151694000Y-35306000D03*
%TD*%
D38*
%TO.C,U6*%
X181483000Y-28235000D03*
D39*
X185283000Y-28235000D03*
D38*
X181483000Y-29505000D03*
D39*
X185283000Y-29505000D03*
D38*
X181483000Y-30775000D03*
D39*
X185283000Y-30775000D03*
%TD*%
D20*
%TO.C,H3*%
X191262000Y-27432000D03*
%TD*%
D40*
%TO.C,U3*%
X159328000Y-38015000D03*
X159328000Y-37515000D03*
X159328000Y-37015000D03*
X159328000Y-36515000D03*
D41*
X158643000Y-35830000D03*
X158143000Y-35830000D03*
X157643000Y-35830000D03*
X157143000Y-35830000D03*
D40*
X156458000Y-36515000D03*
X156458000Y-37015000D03*
X156458000Y-37515000D03*
X156458000Y-38015000D03*
D41*
X157143000Y-38700000D03*
X157643000Y-38700000D03*
X158143000Y-38700000D03*
X158643000Y-38700000D03*
D42*
X157893000Y-37265000D03*
%TD*%
M02*
