%TF.GenerationSoftware,KiCad,Pcbnew,8.0.7*%
%TF.CreationDate,2025-05-30T15:57:11-04:00*%
%TF.ProjectId,weiland-esp32,7765696c-616e-4642-9d65-737033322e6b,rev?*%
%TF.SameCoordinates,Original*%
%TF.FileFunction,Legend,Top*%
%TF.FilePolarity,Positive*%
%FSLAX46Y46*%
G04 Gerber Fmt 4.6, Leading zero omitted, Abs format (unit mm)*
G04 Created by KiCad (PCBNEW 8.0.7) date 2025-05-30 15:57:11*
%MOMM*%
%LPD*%
G01*
G04 APERTURE LIST*
G04 Aperture macros list*
%AMRoundRect*
0 Rectangle with rounded corners*
0 $1 Rounding radius*
0 $2 $3 $4 $5 $6 $7 $8 $9 X,Y pos of 4 corners*
0 Add a 4 corners polygon primitive as box body*
4,1,4,$2,$3,$4,$5,$6,$7,$8,$9,$2,$3,0*
0 Add four circle primitives for the rounded corners*
1,1,$1+$1,$2,$3*
1,1,$1+$1,$4,$5*
1,1,$1+$1,$6,$7*
1,1,$1+$1,$8,$9*
0 Add four rect primitives between the rounded corners*
20,1,$1+$1,$2,$3,$4,$5,0*
20,1,$1+$1,$4,$5,$6,$7,0*
20,1,$1+$1,$6,$7,$8,$9,0*
20,1,$1+$1,$8,$9,$2,$3,0*%
G04 Aperture macros list end*
%ADD10C,0.150000*%
%ADD11C,0.100000*%
%ADD12C,0.120000*%
%ADD13C,0.152400*%
%ADD14C,0.250000*%
%ADD15C,0.200000*%
%ADD16C,0.127000*%
%ADD17R,0.900000X0.900000*%
%ADD18R,1.500000X0.900000*%
%ADD19R,0.900000X1.500000*%
%ADD20RoundRect,0.102000X0.250000X0.300000X-0.250000X0.300000X-0.250000X-0.300000X0.250000X-0.300000X0*%
%ADD21R,1.701800X2.489200*%
%ADD22R,0.863600X0.254000*%
%ADD23RoundRect,0.102000X-0.280000X-0.300000X0.280000X-0.300000X0.280000X0.300000X-0.280000X0.300000X0*%
%ADD24C,1.000000*%
%ADD25R,0.600000X1.550000*%
%ADD26R,1.200000X1.800000*%
%ADD27C,3.200000*%
%ADD28RoundRect,0.102000X0.400000X0.400000X-0.400000X0.400000X-0.400000X-0.400000X0.400000X-0.400000X0*%
%ADD29RoundRect,0.102000X0.300000X-0.280000X0.300000X0.280000X-0.300000X0.280000X-0.300000X-0.280000X0*%
%ADD30R,1.550000X0.600000*%
%ADD31R,1.800000X1.200000*%
%ADD32RoundRect,0.135000X-0.185000X0.135000X-0.185000X-0.135000X0.185000X-0.135000X0.185000X0.135000X0*%
%ADD33RoundRect,0.102000X-0.300000X0.280000X-0.300000X-0.280000X0.300000X-0.280000X0.300000X0.280000X0*%
%ADD34RoundRect,0.197160X-0.204840X0.174840X-0.204840X-0.174840X0.204840X-0.174840X0.204840X0.174840X0*%
%ADD35RoundRect,0.140000X-0.140000X-0.170000X0.140000X-0.170000X0.140000X0.170000X-0.140000X0.170000X0*%
%ADD36C,0.700000*%
%ADD37R,1.100000X0.550000*%
%ADD38R,1.100000X0.300000*%
%ADD39O,2.000000X1.100000*%
%ADD40O,1.800000X1.200000*%
%ADD41RoundRect,0.197160X-0.174840X-0.204840X0.174840X-0.204840X0.174840X0.204840X-0.174840X0.204840X0*%
%ADD42RoundRect,0.135000X0.185000X-0.135000X0.185000X0.135000X-0.185000X0.135000X-0.185000X-0.135000X0*%
%ADD43RoundRect,0.085050X0.481950X-0.671950X0.481950X0.671950X-0.481950X0.671950X-0.481950X-0.671950X0*%
%ADD44RoundRect,0.113550X1.608450X-0.643450X1.608450X0.643450X-1.608450X0.643450X-1.608450X-0.643450X0*%
%ADD45R,2.600000X0.740000*%
%ADD46R,2.600000X0.800000*%
%ADD47RoundRect,0.059250X0.462750X0.177750X-0.462750X0.177750X-0.462750X-0.177750X0.462750X-0.177750X0*%
%ADD48RoundRect,0.059250X0.177750X0.462750X-0.177750X0.462750X-0.177750X-0.462750X0.177750X-0.462750X0*%
%ADD49RoundRect,0.102000X0.550000X0.550000X-0.550000X0.550000X-0.550000X-0.550000X0.550000X-0.550000X0*%
G04 APERTURE END LIST*
D10*
X169296095Y-16084819D02*
X169296095Y-16894342D01*
X169296095Y-16894342D02*
X169343714Y-16989580D01*
X169343714Y-16989580D02*
X169391333Y-17037200D01*
X169391333Y-17037200D02*
X169486571Y-17084819D01*
X169486571Y-17084819D02*
X169677047Y-17084819D01*
X169677047Y-17084819D02*
X169772285Y-17037200D01*
X169772285Y-17037200D02*
X169819904Y-16989580D01*
X169819904Y-16989580D02*
X169867523Y-16894342D01*
X169867523Y-16894342D02*
X169867523Y-16084819D01*
X170867523Y-17084819D02*
X170296095Y-17084819D01*
X170581809Y-17084819D02*
X170581809Y-16084819D01*
X170581809Y-16084819D02*
X170486571Y-16227676D01*
X170486571Y-16227676D02*
X170391333Y-16322914D01*
X170391333Y-16322914D02*
X170296095Y-16370533D01*
X165296094Y-21099104D02*
X165772284Y-21099104D01*
X165200856Y-21384819D02*
X165534189Y-20384819D01*
X165534189Y-20384819D02*
X165867522Y-21384819D01*
X166200856Y-20718152D02*
X166200856Y-21384819D01*
X166200856Y-20813390D02*
X166248475Y-20765771D01*
X166248475Y-20765771D02*
X166343713Y-20718152D01*
X166343713Y-20718152D02*
X166486570Y-20718152D01*
X166486570Y-20718152D02*
X166581808Y-20765771D01*
X166581808Y-20765771D02*
X166629427Y-20861009D01*
X166629427Y-20861009D02*
X166629427Y-21384819D01*
X166962761Y-20718152D02*
X167343713Y-20718152D01*
X167105618Y-20384819D02*
X167105618Y-21241961D01*
X167105618Y-21241961D02*
X167153237Y-21337200D01*
X167153237Y-21337200D02*
X167248475Y-21384819D01*
X167248475Y-21384819D02*
X167343713Y-21384819D01*
X168057999Y-21337200D02*
X167962761Y-21384819D01*
X167962761Y-21384819D02*
X167772285Y-21384819D01*
X167772285Y-21384819D02*
X167677047Y-21337200D01*
X167677047Y-21337200D02*
X167629428Y-21241961D01*
X167629428Y-21241961D02*
X167629428Y-20861009D01*
X167629428Y-20861009D02*
X167677047Y-20765771D01*
X167677047Y-20765771D02*
X167772285Y-20718152D01*
X167772285Y-20718152D02*
X167962761Y-20718152D01*
X167962761Y-20718152D02*
X168057999Y-20765771D01*
X168057999Y-20765771D02*
X168105618Y-20861009D01*
X168105618Y-20861009D02*
X168105618Y-20956247D01*
X168105618Y-20956247D02*
X167629428Y-21051485D01*
X168534190Y-20718152D02*
X168534190Y-21384819D01*
X168534190Y-20813390D02*
X168581809Y-20765771D01*
X168581809Y-20765771D02*
X168677047Y-20718152D01*
X168677047Y-20718152D02*
X168819904Y-20718152D01*
X168819904Y-20718152D02*
X168915142Y-20765771D01*
X168915142Y-20765771D02*
X168962761Y-20861009D01*
X168962761Y-20861009D02*
X168962761Y-21384819D01*
X169438952Y-20718152D02*
X169438952Y-21384819D01*
X169438952Y-20813390D02*
X169486571Y-20765771D01*
X169486571Y-20765771D02*
X169581809Y-20718152D01*
X169581809Y-20718152D02*
X169724666Y-20718152D01*
X169724666Y-20718152D02*
X169819904Y-20765771D01*
X169819904Y-20765771D02*
X169867523Y-20861009D01*
X169867523Y-20861009D02*
X169867523Y-21384819D01*
X170772285Y-21384819D02*
X170772285Y-20861009D01*
X170772285Y-20861009D02*
X170724666Y-20765771D01*
X170724666Y-20765771D02*
X170629428Y-20718152D01*
X170629428Y-20718152D02*
X170438952Y-20718152D01*
X170438952Y-20718152D02*
X170343714Y-20765771D01*
X170772285Y-21337200D02*
X170677047Y-21384819D01*
X170677047Y-21384819D02*
X170438952Y-21384819D01*
X170438952Y-21384819D02*
X170343714Y-21337200D01*
X170343714Y-21337200D02*
X170296095Y-21241961D01*
X170296095Y-21241961D02*
X170296095Y-21146723D01*
X170296095Y-21146723D02*
X170343714Y-21051485D01*
X170343714Y-21051485D02*
X170438952Y-21003866D01*
X170438952Y-21003866D02*
X170677047Y-21003866D01*
X170677047Y-21003866D02*
X170772285Y-20956247D01*
X171962762Y-21099104D02*
X172438952Y-21099104D01*
X171867524Y-21384819D02*
X172200857Y-20384819D01*
X172200857Y-20384819D02*
X172534190Y-21384819D01*
X172867524Y-21384819D02*
X172867524Y-20718152D01*
X172867524Y-20908628D02*
X172915143Y-20813390D01*
X172915143Y-20813390D02*
X172962762Y-20765771D01*
X172962762Y-20765771D02*
X173058000Y-20718152D01*
X173058000Y-20718152D02*
X173153238Y-20718152D01*
X173867524Y-21337200D02*
X173772286Y-21384819D01*
X173772286Y-21384819D02*
X173581810Y-21384819D01*
X173581810Y-21384819D02*
X173486572Y-21337200D01*
X173486572Y-21337200D02*
X173438953Y-21241961D01*
X173438953Y-21241961D02*
X173438953Y-20861009D01*
X173438953Y-20861009D02*
X173486572Y-20765771D01*
X173486572Y-20765771D02*
X173581810Y-20718152D01*
X173581810Y-20718152D02*
X173772286Y-20718152D01*
X173772286Y-20718152D02*
X173867524Y-20765771D01*
X173867524Y-20765771D02*
X173915143Y-20861009D01*
X173915143Y-20861009D02*
X173915143Y-20956247D01*
X173915143Y-20956247D02*
X173438953Y-21051485D01*
X174772286Y-21384819D02*
X174772286Y-20861009D01*
X174772286Y-20861009D02*
X174724667Y-20765771D01*
X174724667Y-20765771D02*
X174629429Y-20718152D01*
X174629429Y-20718152D02*
X174438953Y-20718152D01*
X174438953Y-20718152D02*
X174343715Y-20765771D01*
X174772286Y-21337200D02*
X174677048Y-21384819D01*
X174677048Y-21384819D02*
X174438953Y-21384819D01*
X174438953Y-21384819D02*
X174343715Y-21337200D01*
X174343715Y-21337200D02*
X174296096Y-21241961D01*
X174296096Y-21241961D02*
X174296096Y-21146723D01*
X174296096Y-21146723D02*
X174343715Y-21051485D01*
X174343715Y-21051485D02*
X174438953Y-21003866D01*
X174438953Y-21003866D02*
X174677048Y-21003866D01*
X174677048Y-21003866D02*
X174772286Y-20956247D01*
D11*
X147502666Y-32699609D02*
X147169333Y-32699609D01*
X147169333Y-33223419D02*
X147169333Y-32223419D01*
X147169333Y-32223419D02*
X147645523Y-32223419D01*
X148359809Y-32699609D02*
X148502666Y-32747228D01*
X148502666Y-32747228D02*
X148550285Y-32794847D01*
X148550285Y-32794847D02*
X148597904Y-32890085D01*
X148597904Y-32890085D02*
X148597904Y-33032942D01*
X148597904Y-33032942D02*
X148550285Y-33128180D01*
X148550285Y-33128180D02*
X148502666Y-33175800D01*
X148502666Y-33175800D02*
X148407428Y-33223419D01*
X148407428Y-33223419D02*
X148026476Y-33223419D01*
X148026476Y-33223419D02*
X148026476Y-32223419D01*
X148026476Y-32223419D02*
X148359809Y-32223419D01*
X148359809Y-32223419D02*
X148455047Y-32271038D01*
X148455047Y-32271038D02*
X148502666Y-32318657D01*
X148502666Y-32318657D02*
X148550285Y-32413895D01*
X148550285Y-32413895D02*
X148550285Y-32509133D01*
X148550285Y-32509133D02*
X148502666Y-32604371D01*
X148502666Y-32604371D02*
X148455047Y-32651990D01*
X148455047Y-32651990D02*
X148359809Y-32699609D01*
X148359809Y-32699609D02*
X148026476Y-32699609D01*
X149550285Y-33223419D02*
X148978857Y-33223419D01*
X149264571Y-33223419D02*
X149264571Y-32223419D01*
X149264571Y-32223419D02*
X149169333Y-32366276D01*
X149169333Y-32366276D02*
X149074095Y-32461514D01*
X149074095Y-32461514D02*
X148978857Y-32509133D01*
X185420095Y-39081419D02*
X185420095Y-39890942D01*
X185420095Y-39890942D02*
X185467714Y-39986180D01*
X185467714Y-39986180D02*
X185515333Y-40033800D01*
X185515333Y-40033800D02*
X185610571Y-40081419D01*
X185610571Y-40081419D02*
X185801047Y-40081419D01*
X185801047Y-40081419D02*
X185896285Y-40033800D01*
X185896285Y-40033800D02*
X185943904Y-39986180D01*
X185943904Y-39986180D02*
X185991523Y-39890942D01*
X185991523Y-39890942D02*
X185991523Y-39081419D01*
X186943904Y-39081419D02*
X186467714Y-39081419D01*
X186467714Y-39081419D02*
X186420095Y-39557609D01*
X186420095Y-39557609D02*
X186467714Y-39509990D01*
X186467714Y-39509990D02*
X186562952Y-39462371D01*
X186562952Y-39462371D02*
X186801047Y-39462371D01*
X186801047Y-39462371D02*
X186896285Y-39509990D01*
X186896285Y-39509990D02*
X186943904Y-39557609D01*
X186943904Y-39557609D02*
X186991523Y-39652847D01*
X186991523Y-39652847D02*
X186991523Y-39890942D01*
X186991523Y-39890942D02*
X186943904Y-39986180D01*
X186943904Y-39986180D02*
X186896285Y-40033800D01*
X186896285Y-40033800D02*
X186801047Y-40081419D01*
X186801047Y-40081419D02*
X186562952Y-40081419D01*
X186562952Y-40081419D02*
X186467714Y-40033800D01*
X186467714Y-40033800D02*
X186420095Y-39986180D01*
X163213819Y-34123333D02*
X163166200Y-34075714D01*
X163166200Y-34075714D02*
X163118580Y-33932857D01*
X163118580Y-33932857D02*
X163118580Y-33837619D01*
X163118580Y-33837619D02*
X163166200Y-33694762D01*
X163166200Y-33694762D02*
X163261438Y-33599524D01*
X163261438Y-33599524D02*
X163356676Y-33551905D01*
X163356676Y-33551905D02*
X163547152Y-33504286D01*
X163547152Y-33504286D02*
X163690009Y-33504286D01*
X163690009Y-33504286D02*
X163880485Y-33551905D01*
X163880485Y-33551905D02*
X163975723Y-33599524D01*
X163975723Y-33599524D02*
X164070961Y-33694762D01*
X164070961Y-33694762D02*
X164118580Y-33837619D01*
X164118580Y-33837619D02*
X164118580Y-33932857D01*
X164118580Y-33932857D02*
X164070961Y-34075714D01*
X164070961Y-34075714D02*
X164023342Y-34123333D01*
X164118580Y-34980476D02*
X164118580Y-34790000D01*
X164118580Y-34790000D02*
X164070961Y-34694762D01*
X164070961Y-34694762D02*
X164023342Y-34647143D01*
X164023342Y-34647143D02*
X163880485Y-34551905D01*
X163880485Y-34551905D02*
X163690009Y-34504286D01*
X163690009Y-34504286D02*
X163309057Y-34504286D01*
X163309057Y-34504286D02*
X163213819Y-34551905D01*
X163213819Y-34551905D02*
X163166200Y-34599524D01*
X163166200Y-34599524D02*
X163118580Y-34694762D01*
X163118580Y-34694762D02*
X163118580Y-34885238D01*
X163118580Y-34885238D02*
X163166200Y-34980476D01*
X163166200Y-34980476D02*
X163213819Y-35028095D01*
X163213819Y-35028095D02*
X163309057Y-35075714D01*
X163309057Y-35075714D02*
X163547152Y-35075714D01*
X163547152Y-35075714D02*
X163642390Y-35028095D01*
X163642390Y-35028095D02*
X163690009Y-34980476D01*
X163690009Y-34980476D02*
X163737628Y-34885238D01*
X163737628Y-34885238D02*
X163737628Y-34694762D01*
X163737628Y-34694762D02*
X163690009Y-34599524D01*
X163690009Y-34599524D02*
X163642390Y-34551905D01*
X163642390Y-34551905D02*
X163547152Y-34504286D01*
X182689619Y-41605419D02*
X182689619Y-40605419D01*
X183689618Y-41605419D02*
X183118190Y-41605419D01*
X183403904Y-41605419D02*
X183403904Y-40605419D01*
X183403904Y-40605419D02*
X183308666Y-40748276D01*
X183308666Y-40748276D02*
X183213428Y-40843514D01*
X183213428Y-40843514D02*
X183118190Y-40891133D01*
X184022952Y-40605419D02*
X184689618Y-40605419D01*
X184689618Y-40605419D02*
X184261047Y-41605419D01*
D10*
X155590523Y-5142580D02*
X155542904Y-5190200D01*
X155542904Y-5190200D02*
X155400047Y-5237819D01*
X155400047Y-5237819D02*
X155304809Y-5237819D01*
X155304809Y-5237819D02*
X155161952Y-5190200D01*
X155161952Y-5190200D02*
X155066714Y-5094961D01*
X155066714Y-5094961D02*
X155019095Y-4999723D01*
X155019095Y-4999723D02*
X154971476Y-4809247D01*
X154971476Y-4809247D02*
X154971476Y-4666390D01*
X154971476Y-4666390D02*
X155019095Y-4475914D01*
X155019095Y-4475914D02*
X155066714Y-4380676D01*
X155066714Y-4380676D02*
X155161952Y-4285438D01*
X155161952Y-4285438D02*
X155304809Y-4237819D01*
X155304809Y-4237819D02*
X155400047Y-4237819D01*
X155400047Y-4237819D02*
X155542904Y-4285438D01*
X155542904Y-4285438D02*
X155590523Y-4333057D01*
X156019095Y-5237819D02*
X156019095Y-4237819D01*
X156019095Y-4237819D02*
X156590523Y-5237819D01*
X156590523Y-5237819D02*
X156590523Y-4237819D01*
X157542904Y-4237819D02*
X157066714Y-4237819D01*
X157066714Y-4237819D02*
X157019095Y-4714009D01*
X157019095Y-4714009D02*
X157066714Y-4666390D01*
X157066714Y-4666390D02*
X157161952Y-4618771D01*
X157161952Y-4618771D02*
X157400047Y-4618771D01*
X157400047Y-4618771D02*
X157495285Y-4666390D01*
X157495285Y-4666390D02*
X157542904Y-4714009D01*
X157542904Y-4714009D02*
X157590523Y-4809247D01*
X157590523Y-4809247D02*
X157590523Y-5047342D01*
X157590523Y-5047342D02*
X157542904Y-5142580D01*
X157542904Y-5142580D02*
X157495285Y-5190200D01*
X157495285Y-5190200D02*
X157400047Y-5237819D01*
X157400047Y-5237819D02*
X157161952Y-5237819D01*
X157161952Y-5237819D02*
X157066714Y-5190200D01*
X157066714Y-5190200D02*
X157019095Y-5142580D01*
X188075095Y-39152819D02*
X188075095Y-38152819D01*
X188075095Y-38629009D02*
X188646523Y-38629009D01*
X188646523Y-39152819D02*
X188646523Y-38152819D01*
X189075095Y-38248057D02*
X189122714Y-38200438D01*
X189122714Y-38200438D02*
X189217952Y-38152819D01*
X189217952Y-38152819D02*
X189456047Y-38152819D01*
X189456047Y-38152819D02*
X189551285Y-38200438D01*
X189551285Y-38200438D02*
X189598904Y-38248057D01*
X189598904Y-38248057D02*
X189646523Y-38343295D01*
X189646523Y-38343295D02*
X189646523Y-38438533D01*
X189646523Y-38438533D02*
X189598904Y-38581390D01*
X189598904Y-38581390D02*
X189027476Y-39152819D01*
X189027476Y-39152819D02*
X189646523Y-39152819D01*
D11*
X133754952Y-31699419D02*
X133278762Y-31699419D01*
X133278762Y-31699419D02*
X133278762Y-30699419D01*
X134088286Y-31175609D02*
X134421619Y-31175609D01*
X134564476Y-31699419D02*
X134088286Y-31699419D01*
X134088286Y-31699419D02*
X134088286Y-30699419D01*
X134088286Y-30699419D02*
X134564476Y-30699419D01*
X134993048Y-31699419D02*
X134993048Y-30699419D01*
X134993048Y-30699419D02*
X135231143Y-30699419D01*
X135231143Y-30699419D02*
X135374000Y-30747038D01*
X135374000Y-30747038D02*
X135469238Y-30842276D01*
X135469238Y-30842276D02*
X135516857Y-30937514D01*
X135516857Y-30937514D02*
X135564476Y-31127990D01*
X135564476Y-31127990D02*
X135564476Y-31270847D01*
X135564476Y-31270847D02*
X135516857Y-31461323D01*
X135516857Y-31461323D02*
X135469238Y-31556561D01*
X135469238Y-31556561D02*
X135374000Y-31651800D01*
X135374000Y-31651800D02*
X135231143Y-31699419D01*
X135231143Y-31699419D02*
X134993048Y-31699419D01*
X136516857Y-31699419D02*
X135945429Y-31699419D01*
X136231143Y-31699419D02*
X136231143Y-30699419D01*
X136231143Y-30699419D02*
X136135905Y-30842276D01*
X136135905Y-30842276D02*
X136040667Y-30937514D01*
X136040667Y-30937514D02*
X135945429Y-30985133D01*
X152312666Y-40785819D02*
X152360285Y-40738200D01*
X152360285Y-40738200D02*
X152503142Y-40690580D01*
X152503142Y-40690580D02*
X152598380Y-40690580D01*
X152598380Y-40690580D02*
X152741237Y-40738200D01*
X152741237Y-40738200D02*
X152836475Y-40833438D01*
X152836475Y-40833438D02*
X152884094Y-40928676D01*
X152884094Y-40928676D02*
X152931713Y-41119152D01*
X152931713Y-41119152D02*
X152931713Y-41262009D01*
X152931713Y-41262009D02*
X152884094Y-41452485D01*
X152884094Y-41452485D02*
X152836475Y-41547723D01*
X152836475Y-41547723D02*
X152741237Y-41642961D01*
X152741237Y-41642961D02*
X152598380Y-41690580D01*
X152598380Y-41690580D02*
X152503142Y-41690580D01*
X152503142Y-41690580D02*
X152360285Y-41642961D01*
X152360285Y-41642961D02*
X152312666Y-41595342D01*
X151979332Y-41690580D02*
X151312666Y-41690580D01*
X151312666Y-41690580D02*
X151741237Y-40690580D01*
D10*
X197937523Y-26775580D02*
X197889904Y-26823200D01*
X197889904Y-26823200D02*
X197747047Y-26870819D01*
X197747047Y-26870819D02*
X197651809Y-26870819D01*
X197651809Y-26870819D02*
X197508952Y-26823200D01*
X197508952Y-26823200D02*
X197413714Y-26727961D01*
X197413714Y-26727961D02*
X197366095Y-26632723D01*
X197366095Y-26632723D02*
X197318476Y-26442247D01*
X197318476Y-26442247D02*
X197318476Y-26299390D01*
X197318476Y-26299390D02*
X197366095Y-26108914D01*
X197366095Y-26108914D02*
X197413714Y-26013676D01*
X197413714Y-26013676D02*
X197508952Y-25918438D01*
X197508952Y-25918438D02*
X197651809Y-25870819D01*
X197651809Y-25870819D02*
X197747047Y-25870819D01*
X197747047Y-25870819D02*
X197889904Y-25918438D01*
X197889904Y-25918438D02*
X197937523Y-25966057D01*
X198366095Y-26870819D02*
X198366095Y-25870819D01*
X198366095Y-25870819D02*
X198937523Y-26870819D01*
X198937523Y-26870819D02*
X198937523Y-25870819D01*
X199366095Y-25966057D02*
X199413714Y-25918438D01*
X199413714Y-25918438D02*
X199508952Y-25870819D01*
X199508952Y-25870819D02*
X199747047Y-25870819D01*
X199747047Y-25870819D02*
X199842285Y-25918438D01*
X199842285Y-25918438D02*
X199889904Y-25966057D01*
X199889904Y-25966057D02*
X199937523Y-26061295D01*
X199937523Y-26061295D02*
X199937523Y-26156533D01*
X199937523Y-26156533D02*
X199889904Y-26299390D01*
X199889904Y-26299390D02*
X199318476Y-26870819D01*
X199318476Y-26870819D02*
X199937523Y-26870819D01*
X197937523Y-33887580D02*
X197889904Y-33935200D01*
X197889904Y-33935200D02*
X197747047Y-33982819D01*
X197747047Y-33982819D02*
X197651809Y-33982819D01*
X197651809Y-33982819D02*
X197508952Y-33935200D01*
X197508952Y-33935200D02*
X197413714Y-33839961D01*
X197413714Y-33839961D02*
X197366095Y-33744723D01*
X197366095Y-33744723D02*
X197318476Y-33554247D01*
X197318476Y-33554247D02*
X197318476Y-33411390D01*
X197318476Y-33411390D02*
X197366095Y-33220914D01*
X197366095Y-33220914D02*
X197413714Y-33125676D01*
X197413714Y-33125676D02*
X197508952Y-33030438D01*
X197508952Y-33030438D02*
X197651809Y-32982819D01*
X197651809Y-32982819D02*
X197747047Y-32982819D01*
X197747047Y-32982819D02*
X197889904Y-33030438D01*
X197889904Y-33030438D02*
X197937523Y-33078057D01*
X198366095Y-33982819D02*
X198366095Y-32982819D01*
X198366095Y-32982819D02*
X198937523Y-33982819D01*
X198937523Y-33982819D02*
X198937523Y-32982819D01*
X199842285Y-33316152D02*
X199842285Y-33982819D01*
X199604190Y-32935200D02*
X199366095Y-33649485D01*
X199366095Y-33649485D02*
X199985142Y-33649485D01*
D11*
X163372580Y-27265333D02*
X163848771Y-26932000D01*
X163372580Y-26693905D02*
X164372580Y-26693905D01*
X164372580Y-26693905D02*
X164372580Y-27074857D01*
X164372580Y-27074857D02*
X164324961Y-27170095D01*
X164324961Y-27170095D02*
X164277342Y-27217714D01*
X164277342Y-27217714D02*
X164182104Y-27265333D01*
X164182104Y-27265333D02*
X164039247Y-27265333D01*
X164039247Y-27265333D02*
X163944009Y-27217714D01*
X163944009Y-27217714D02*
X163896390Y-27170095D01*
X163896390Y-27170095D02*
X163848771Y-27074857D01*
X163848771Y-27074857D02*
X163848771Y-26693905D01*
X164277342Y-27646286D02*
X164324961Y-27693905D01*
X164324961Y-27693905D02*
X164372580Y-27789143D01*
X164372580Y-27789143D02*
X164372580Y-28027238D01*
X164372580Y-28027238D02*
X164324961Y-28122476D01*
X164324961Y-28122476D02*
X164277342Y-28170095D01*
X164277342Y-28170095D02*
X164182104Y-28217714D01*
X164182104Y-28217714D02*
X164086866Y-28217714D01*
X164086866Y-28217714D02*
X163944009Y-28170095D01*
X163944009Y-28170095D02*
X163372580Y-27598667D01*
X163372580Y-27598667D02*
X163372580Y-28217714D01*
X182689619Y-40081419D02*
X182689619Y-39081419D01*
X183689618Y-40081419D02*
X183118190Y-40081419D01*
X183403904Y-40081419D02*
X183403904Y-39081419D01*
X183403904Y-39081419D02*
X183308666Y-39224276D01*
X183308666Y-39224276D02*
X183213428Y-39319514D01*
X183213428Y-39319514D02*
X183118190Y-39367133D01*
X184261047Y-39509990D02*
X184165809Y-39462371D01*
X184165809Y-39462371D02*
X184118190Y-39414752D01*
X184118190Y-39414752D02*
X184070571Y-39319514D01*
X184070571Y-39319514D02*
X184070571Y-39271895D01*
X184070571Y-39271895D02*
X184118190Y-39176657D01*
X184118190Y-39176657D02*
X184165809Y-39129038D01*
X184165809Y-39129038D02*
X184261047Y-39081419D01*
X184261047Y-39081419D02*
X184451523Y-39081419D01*
X184451523Y-39081419D02*
X184546761Y-39129038D01*
X184546761Y-39129038D02*
X184594380Y-39176657D01*
X184594380Y-39176657D02*
X184641999Y-39271895D01*
X184641999Y-39271895D02*
X184641999Y-39319514D01*
X184641999Y-39319514D02*
X184594380Y-39414752D01*
X184594380Y-39414752D02*
X184546761Y-39462371D01*
X184546761Y-39462371D02*
X184451523Y-39509990D01*
X184451523Y-39509990D02*
X184261047Y-39509990D01*
X184261047Y-39509990D02*
X184165809Y-39557609D01*
X184165809Y-39557609D02*
X184118190Y-39605228D01*
X184118190Y-39605228D02*
X184070571Y-39700466D01*
X184070571Y-39700466D02*
X184070571Y-39890942D01*
X184070571Y-39890942D02*
X184118190Y-39986180D01*
X184118190Y-39986180D02*
X184165809Y-40033800D01*
X184165809Y-40033800D02*
X184261047Y-40081419D01*
X184261047Y-40081419D02*
X184451523Y-40081419D01*
X184451523Y-40081419D02*
X184546761Y-40033800D01*
X184546761Y-40033800D02*
X184594380Y-39986180D01*
X184594380Y-39986180D02*
X184641999Y-39890942D01*
X184641999Y-39890942D02*
X184641999Y-39700466D01*
X184641999Y-39700466D02*
X184594380Y-39605228D01*
X184594380Y-39605228D02*
X184546761Y-39557609D01*
X184546761Y-39557609D02*
X184451523Y-39509990D01*
X155956095Y-40843419D02*
X155956095Y-39843419D01*
X155956095Y-39843419D02*
X156527523Y-40843419D01*
X156527523Y-40843419D02*
X156527523Y-39843419D01*
X157527523Y-40843419D02*
X156956095Y-40843419D01*
X157241809Y-40843419D02*
X157241809Y-39843419D01*
X157241809Y-39843419D02*
X157146571Y-39986276D01*
X157146571Y-39986276D02*
X157051333Y-40081514D01*
X157051333Y-40081514D02*
X156956095Y-40129133D01*
X163213819Y-29297333D02*
X163166200Y-29249714D01*
X163166200Y-29249714D02*
X163118580Y-29106857D01*
X163118580Y-29106857D02*
X163118580Y-29011619D01*
X163118580Y-29011619D02*
X163166200Y-28868762D01*
X163166200Y-28868762D02*
X163261438Y-28773524D01*
X163261438Y-28773524D02*
X163356676Y-28725905D01*
X163356676Y-28725905D02*
X163547152Y-28678286D01*
X163547152Y-28678286D02*
X163690009Y-28678286D01*
X163690009Y-28678286D02*
X163880485Y-28725905D01*
X163880485Y-28725905D02*
X163975723Y-28773524D01*
X163975723Y-28773524D02*
X164070961Y-28868762D01*
X164070961Y-28868762D02*
X164118580Y-29011619D01*
X164118580Y-29011619D02*
X164118580Y-29106857D01*
X164118580Y-29106857D02*
X164070961Y-29249714D01*
X164070961Y-29249714D02*
X164023342Y-29297333D01*
X163118580Y-30249714D02*
X163118580Y-29678286D01*
X163118580Y-29964000D02*
X164118580Y-29964000D01*
X164118580Y-29964000D02*
X163975723Y-29868762D01*
X163975723Y-29868762D02*
X163880485Y-29773524D01*
X163880485Y-29773524D02*
X163832866Y-29678286D01*
X149262666Y-36636819D02*
X149310285Y-36589200D01*
X149310285Y-36589200D02*
X149453142Y-36541580D01*
X149453142Y-36541580D02*
X149548380Y-36541580D01*
X149548380Y-36541580D02*
X149691237Y-36589200D01*
X149691237Y-36589200D02*
X149786475Y-36684438D01*
X149786475Y-36684438D02*
X149834094Y-36779676D01*
X149834094Y-36779676D02*
X149881713Y-36970152D01*
X149881713Y-36970152D02*
X149881713Y-37113009D01*
X149881713Y-37113009D02*
X149834094Y-37303485D01*
X149834094Y-37303485D02*
X149786475Y-37398723D01*
X149786475Y-37398723D02*
X149691237Y-37493961D01*
X149691237Y-37493961D02*
X149548380Y-37541580D01*
X149548380Y-37541580D02*
X149453142Y-37541580D01*
X149453142Y-37541580D02*
X149310285Y-37493961D01*
X149310285Y-37493961D02*
X149262666Y-37446342D01*
X148691237Y-37113009D02*
X148786475Y-37160628D01*
X148786475Y-37160628D02*
X148834094Y-37208247D01*
X148834094Y-37208247D02*
X148881713Y-37303485D01*
X148881713Y-37303485D02*
X148881713Y-37351104D01*
X148881713Y-37351104D02*
X148834094Y-37446342D01*
X148834094Y-37446342D02*
X148786475Y-37493961D01*
X148786475Y-37493961D02*
X148691237Y-37541580D01*
X148691237Y-37541580D02*
X148500761Y-37541580D01*
X148500761Y-37541580D02*
X148405523Y-37493961D01*
X148405523Y-37493961D02*
X148357904Y-37446342D01*
X148357904Y-37446342D02*
X148310285Y-37351104D01*
X148310285Y-37351104D02*
X148310285Y-37303485D01*
X148310285Y-37303485D02*
X148357904Y-37208247D01*
X148357904Y-37208247D02*
X148405523Y-37160628D01*
X148405523Y-37160628D02*
X148500761Y-37113009D01*
X148500761Y-37113009D02*
X148691237Y-37113009D01*
X148691237Y-37113009D02*
X148786475Y-37065390D01*
X148786475Y-37065390D02*
X148834094Y-37017771D01*
X148834094Y-37017771D02*
X148881713Y-36922533D01*
X148881713Y-36922533D02*
X148881713Y-36732057D01*
X148881713Y-36732057D02*
X148834094Y-36636819D01*
X148834094Y-36636819D02*
X148786475Y-36589200D01*
X148786475Y-36589200D02*
X148691237Y-36541580D01*
X148691237Y-36541580D02*
X148500761Y-36541580D01*
X148500761Y-36541580D02*
X148405523Y-36589200D01*
X148405523Y-36589200D02*
X148357904Y-36636819D01*
X148357904Y-36636819D02*
X148310285Y-36732057D01*
X148310285Y-36732057D02*
X148310285Y-36922533D01*
X148310285Y-36922533D02*
X148357904Y-37017771D01*
X148357904Y-37017771D02*
X148405523Y-37065390D01*
X148405523Y-37065390D02*
X148500761Y-37113009D01*
X163213819Y-31329333D02*
X163166200Y-31281714D01*
X163166200Y-31281714D02*
X163118580Y-31138857D01*
X163118580Y-31138857D02*
X163118580Y-31043619D01*
X163118580Y-31043619D02*
X163166200Y-30900762D01*
X163166200Y-30900762D02*
X163261438Y-30805524D01*
X163261438Y-30805524D02*
X163356676Y-30757905D01*
X163356676Y-30757905D02*
X163547152Y-30710286D01*
X163547152Y-30710286D02*
X163690009Y-30710286D01*
X163690009Y-30710286D02*
X163880485Y-30757905D01*
X163880485Y-30757905D02*
X163975723Y-30805524D01*
X163975723Y-30805524D02*
X164070961Y-30900762D01*
X164070961Y-30900762D02*
X164118580Y-31043619D01*
X164118580Y-31043619D02*
X164118580Y-31138857D01*
X164118580Y-31138857D02*
X164070961Y-31281714D01*
X164070961Y-31281714D02*
X164023342Y-31329333D01*
X163785247Y-32186476D02*
X163118580Y-32186476D01*
X164166200Y-31948381D02*
X163451914Y-31710286D01*
X163451914Y-31710286D02*
X163451914Y-32329333D01*
X149812476Y-27397419D02*
X150145809Y-28397419D01*
X150145809Y-28397419D02*
X150479142Y-27397419D01*
X150717238Y-27397419D02*
X151336285Y-27397419D01*
X151336285Y-27397419D02*
X151002952Y-27778371D01*
X151002952Y-27778371D02*
X151145809Y-27778371D01*
X151145809Y-27778371D02*
X151241047Y-27825990D01*
X151241047Y-27825990D02*
X151288666Y-27873609D01*
X151288666Y-27873609D02*
X151336285Y-27968847D01*
X151336285Y-27968847D02*
X151336285Y-28206942D01*
X151336285Y-28206942D02*
X151288666Y-28302180D01*
X151288666Y-28302180D02*
X151241047Y-28349800D01*
X151241047Y-28349800D02*
X151145809Y-28397419D01*
X151145809Y-28397419D02*
X150860095Y-28397419D01*
X150860095Y-28397419D02*
X150764857Y-28349800D01*
X150764857Y-28349800D02*
X150717238Y-28302180D01*
D10*
X198191523Y-40745580D02*
X198143904Y-40793200D01*
X198143904Y-40793200D02*
X198001047Y-40840819D01*
X198001047Y-40840819D02*
X197905809Y-40840819D01*
X197905809Y-40840819D02*
X197762952Y-40793200D01*
X197762952Y-40793200D02*
X197667714Y-40697961D01*
X197667714Y-40697961D02*
X197620095Y-40602723D01*
X197620095Y-40602723D02*
X197572476Y-40412247D01*
X197572476Y-40412247D02*
X197572476Y-40269390D01*
X197572476Y-40269390D02*
X197620095Y-40078914D01*
X197620095Y-40078914D02*
X197667714Y-39983676D01*
X197667714Y-39983676D02*
X197762952Y-39888438D01*
X197762952Y-39888438D02*
X197905809Y-39840819D01*
X197905809Y-39840819D02*
X198001047Y-39840819D01*
X198001047Y-39840819D02*
X198143904Y-39888438D01*
X198143904Y-39888438D02*
X198191523Y-39936057D01*
X198620095Y-40840819D02*
X198620095Y-39840819D01*
X198620095Y-39840819D02*
X199191523Y-40840819D01*
X199191523Y-40840819D02*
X199191523Y-39840819D01*
X200191523Y-40840819D02*
X199620095Y-40840819D01*
X199905809Y-40840819D02*
X199905809Y-39840819D01*
X199905809Y-39840819D02*
X199810571Y-39983676D01*
X199810571Y-39983676D02*
X199715333Y-40078914D01*
X199715333Y-40078914D02*
X199620095Y-40126533D01*
X136144095Y-30426819D02*
X136144095Y-29426819D01*
X136144095Y-29903009D02*
X136715523Y-29903009D01*
X136715523Y-30426819D02*
X136715523Y-29426819D01*
X137715523Y-30426819D02*
X137144095Y-30426819D01*
X137429809Y-30426819D02*
X137429809Y-29426819D01*
X137429809Y-29426819D02*
X137334571Y-29569676D01*
X137334571Y-29569676D02*
X137239333Y-29664914D01*
X137239333Y-29664914D02*
X137144095Y-29712533D01*
D11*
X163467819Y-25233333D02*
X163420200Y-25185714D01*
X163420200Y-25185714D02*
X163372580Y-25042857D01*
X163372580Y-25042857D02*
X163372580Y-24947619D01*
X163372580Y-24947619D02*
X163420200Y-24804762D01*
X163420200Y-24804762D02*
X163515438Y-24709524D01*
X163515438Y-24709524D02*
X163610676Y-24661905D01*
X163610676Y-24661905D02*
X163801152Y-24614286D01*
X163801152Y-24614286D02*
X163944009Y-24614286D01*
X163944009Y-24614286D02*
X164134485Y-24661905D01*
X164134485Y-24661905D02*
X164229723Y-24709524D01*
X164229723Y-24709524D02*
X164324961Y-24804762D01*
X164324961Y-24804762D02*
X164372580Y-24947619D01*
X164372580Y-24947619D02*
X164372580Y-25042857D01*
X164372580Y-25042857D02*
X164324961Y-25185714D01*
X164324961Y-25185714D02*
X164277342Y-25233333D01*
X164277342Y-25614286D02*
X164324961Y-25661905D01*
X164324961Y-25661905D02*
X164372580Y-25757143D01*
X164372580Y-25757143D02*
X164372580Y-25995238D01*
X164372580Y-25995238D02*
X164324961Y-26090476D01*
X164324961Y-26090476D02*
X164277342Y-26138095D01*
X164277342Y-26138095D02*
X164182104Y-26185714D01*
X164182104Y-26185714D02*
X164086866Y-26185714D01*
X164086866Y-26185714D02*
X163944009Y-26138095D01*
X163944009Y-26138095D02*
X163372580Y-25566667D01*
X163372580Y-25566667D02*
X163372580Y-26185714D01*
D10*
X143073523Y-27283580D02*
X143025904Y-27331200D01*
X143025904Y-27331200D02*
X142883047Y-27378819D01*
X142883047Y-27378819D02*
X142787809Y-27378819D01*
X142787809Y-27378819D02*
X142644952Y-27331200D01*
X142644952Y-27331200D02*
X142549714Y-27235961D01*
X142549714Y-27235961D02*
X142502095Y-27140723D01*
X142502095Y-27140723D02*
X142454476Y-26950247D01*
X142454476Y-26950247D02*
X142454476Y-26807390D01*
X142454476Y-26807390D02*
X142502095Y-26616914D01*
X142502095Y-26616914D02*
X142549714Y-26521676D01*
X142549714Y-26521676D02*
X142644952Y-26426438D01*
X142644952Y-26426438D02*
X142787809Y-26378819D01*
X142787809Y-26378819D02*
X142883047Y-26378819D01*
X142883047Y-26378819D02*
X143025904Y-26426438D01*
X143025904Y-26426438D02*
X143073523Y-26474057D01*
X143502095Y-27378819D02*
X143502095Y-26378819D01*
X143502095Y-26378819D02*
X144073523Y-27378819D01*
X144073523Y-27378819D02*
X144073523Y-26378819D01*
X144454476Y-26378819D02*
X145073523Y-26378819D01*
X145073523Y-26378819D02*
X144740190Y-26759771D01*
X144740190Y-26759771D02*
X144883047Y-26759771D01*
X144883047Y-26759771D02*
X144978285Y-26807390D01*
X144978285Y-26807390D02*
X145025904Y-26855009D01*
X145025904Y-26855009D02*
X145073523Y-26950247D01*
X145073523Y-26950247D02*
X145073523Y-27188342D01*
X145073523Y-27188342D02*
X145025904Y-27283580D01*
X145025904Y-27283580D02*
X144978285Y-27331200D01*
X144978285Y-27331200D02*
X144883047Y-27378819D01*
X144883047Y-27378819D02*
X144597333Y-27378819D01*
X144597333Y-27378819D02*
X144502095Y-27331200D01*
X144502095Y-27331200D02*
X144454476Y-27283580D01*
D11*
X183959619Y-24841419D02*
X183959619Y-23841419D01*
X184388190Y-23936657D02*
X184435809Y-23889038D01*
X184435809Y-23889038D02*
X184531047Y-23841419D01*
X184531047Y-23841419D02*
X184769142Y-23841419D01*
X184769142Y-23841419D02*
X184864380Y-23889038D01*
X184864380Y-23889038D02*
X184911999Y-23936657D01*
X184911999Y-23936657D02*
X184959618Y-24031895D01*
X184959618Y-24031895D02*
X184959618Y-24127133D01*
X184959618Y-24127133D02*
X184911999Y-24269990D01*
X184911999Y-24269990D02*
X184340571Y-24841419D01*
X184340571Y-24841419D02*
X184959618Y-24841419D01*
X185340571Y-23936657D02*
X185388190Y-23889038D01*
X185388190Y-23889038D02*
X185483428Y-23841419D01*
X185483428Y-23841419D02*
X185721523Y-23841419D01*
X185721523Y-23841419D02*
X185816761Y-23889038D01*
X185816761Y-23889038D02*
X185864380Y-23936657D01*
X185864380Y-23936657D02*
X185911999Y-24031895D01*
X185911999Y-24031895D02*
X185911999Y-24127133D01*
X185911999Y-24127133D02*
X185864380Y-24269990D01*
X185864380Y-24269990D02*
X185292952Y-24841419D01*
X185292952Y-24841419D02*
X185911999Y-24841419D01*
X180427333Y-26016180D02*
X180379714Y-26063800D01*
X180379714Y-26063800D02*
X180236857Y-26111419D01*
X180236857Y-26111419D02*
X180141619Y-26111419D01*
X180141619Y-26111419D02*
X179998762Y-26063800D01*
X179998762Y-26063800D02*
X179903524Y-25968561D01*
X179903524Y-25968561D02*
X179855905Y-25873323D01*
X179855905Y-25873323D02*
X179808286Y-25682847D01*
X179808286Y-25682847D02*
X179808286Y-25539990D01*
X179808286Y-25539990D02*
X179855905Y-25349514D01*
X179855905Y-25349514D02*
X179903524Y-25254276D01*
X179903524Y-25254276D02*
X179998762Y-25159038D01*
X179998762Y-25159038D02*
X180141619Y-25111419D01*
X180141619Y-25111419D02*
X180236857Y-25111419D01*
X180236857Y-25111419D02*
X180379714Y-25159038D01*
X180379714Y-25159038D02*
X180427333Y-25206657D01*
X180903524Y-26111419D02*
X181094000Y-26111419D01*
X181094000Y-26111419D02*
X181189238Y-26063800D01*
X181189238Y-26063800D02*
X181236857Y-26016180D01*
X181236857Y-26016180D02*
X181332095Y-25873323D01*
X181332095Y-25873323D02*
X181379714Y-25682847D01*
X181379714Y-25682847D02*
X181379714Y-25301895D01*
X181379714Y-25301895D02*
X181332095Y-25206657D01*
X181332095Y-25206657D02*
X181284476Y-25159038D01*
X181284476Y-25159038D02*
X181189238Y-25111419D01*
X181189238Y-25111419D02*
X180998762Y-25111419D01*
X180998762Y-25111419D02*
X180903524Y-25159038D01*
X180903524Y-25159038D02*
X180855905Y-25206657D01*
X180855905Y-25206657D02*
X180808286Y-25301895D01*
X180808286Y-25301895D02*
X180808286Y-25539990D01*
X180808286Y-25539990D02*
X180855905Y-25635228D01*
X180855905Y-25635228D02*
X180903524Y-25682847D01*
X180903524Y-25682847D02*
X180998762Y-25730466D01*
X180998762Y-25730466D02*
X181189238Y-25730466D01*
X181189238Y-25730466D02*
X181284476Y-25682847D01*
X181284476Y-25682847D02*
X181332095Y-25635228D01*
X181332095Y-25635228D02*
X181379714Y-25539990D01*
D10*
X143295905Y-37554819D02*
X143295905Y-38364342D01*
X143295905Y-38364342D02*
X143343524Y-38459580D01*
X143343524Y-38459580D02*
X143391143Y-38507200D01*
X143391143Y-38507200D02*
X143486381Y-38554819D01*
X143486381Y-38554819D02*
X143676857Y-38554819D01*
X143676857Y-38554819D02*
X143772095Y-38507200D01*
X143772095Y-38507200D02*
X143819714Y-38459580D01*
X143819714Y-38459580D02*
X143867333Y-38364342D01*
X143867333Y-38364342D02*
X143867333Y-37554819D01*
X144295905Y-38507200D02*
X144438762Y-38554819D01*
X144438762Y-38554819D02*
X144676857Y-38554819D01*
X144676857Y-38554819D02*
X144772095Y-38507200D01*
X144772095Y-38507200D02*
X144819714Y-38459580D01*
X144819714Y-38459580D02*
X144867333Y-38364342D01*
X144867333Y-38364342D02*
X144867333Y-38269104D01*
X144867333Y-38269104D02*
X144819714Y-38173866D01*
X144819714Y-38173866D02*
X144772095Y-38126247D01*
X144772095Y-38126247D02*
X144676857Y-38078628D01*
X144676857Y-38078628D02*
X144486381Y-38031009D01*
X144486381Y-38031009D02*
X144391143Y-37983390D01*
X144391143Y-37983390D02*
X144343524Y-37935771D01*
X144343524Y-37935771D02*
X144295905Y-37840533D01*
X144295905Y-37840533D02*
X144295905Y-37745295D01*
X144295905Y-37745295D02*
X144343524Y-37650057D01*
X144343524Y-37650057D02*
X144391143Y-37602438D01*
X144391143Y-37602438D02*
X144486381Y-37554819D01*
X144486381Y-37554819D02*
X144724476Y-37554819D01*
X144724476Y-37554819D02*
X144867333Y-37602438D01*
X145629238Y-38031009D02*
X145772095Y-38078628D01*
X145772095Y-38078628D02*
X145819714Y-38126247D01*
X145819714Y-38126247D02*
X145867333Y-38221485D01*
X145867333Y-38221485D02*
X145867333Y-38364342D01*
X145867333Y-38364342D02*
X145819714Y-38459580D01*
X145819714Y-38459580D02*
X145772095Y-38507200D01*
X145772095Y-38507200D02*
X145676857Y-38554819D01*
X145676857Y-38554819D02*
X145295905Y-38554819D01*
X145295905Y-38554819D02*
X145295905Y-37554819D01*
X145295905Y-37554819D02*
X145629238Y-37554819D01*
X145629238Y-37554819D02*
X145724476Y-37602438D01*
X145724476Y-37602438D02*
X145772095Y-37650057D01*
X145772095Y-37650057D02*
X145819714Y-37745295D01*
X145819714Y-37745295D02*
X145819714Y-37840533D01*
X145819714Y-37840533D02*
X145772095Y-37935771D01*
X145772095Y-37935771D02*
X145724476Y-37983390D01*
X145724476Y-37983390D02*
X145629238Y-38031009D01*
X145629238Y-38031009D02*
X145295905Y-38031009D01*
X146819714Y-38554819D02*
X146248286Y-38554819D01*
X146534000Y-38554819D02*
X146534000Y-37554819D01*
X146534000Y-37554819D02*
X146438762Y-37697676D01*
X146438762Y-37697676D02*
X146343524Y-37792914D01*
X146343524Y-37792914D02*
X146248286Y-37840533D01*
D11*
X187285333Y-26016180D02*
X187237714Y-26063800D01*
X187237714Y-26063800D02*
X187094857Y-26111419D01*
X187094857Y-26111419D02*
X186999619Y-26111419D01*
X186999619Y-26111419D02*
X186856762Y-26063800D01*
X186856762Y-26063800D02*
X186761524Y-25968561D01*
X186761524Y-25968561D02*
X186713905Y-25873323D01*
X186713905Y-25873323D02*
X186666286Y-25682847D01*
X186666286Y-25682847D02*
X186666286Y-25539990D01*
X186666286Y-25539990D02*
X186713905Y-25349514D01*
X186713905Y-25349514D02*
X186761524Y-25254276D01*
X186761524Y-25254276D02*
X186856762Y-25159038D01*
X186856762Y-25159038D02*
X186999619Y-25111419D01*
X186999619Y-25111419D02*
X187094857Y-25111419D01*
X187094857Y-25111419D02*
X187237714Y-25159038D01*
X187237714Y-25159038D02*
X187285333Y-25206657D01*
X187618667Y-25111419D02*
X188237714Y-25111419D01*
X188237714Y-25111419D02*
X187904381Y-25492371D01*
X187904381Y-25492371D02*
X188047238Y-25492371D01*
X188047238Y-25492371D02*
X188142476Y-25539990D01*
X188142476Y-25539990D02*
X188190095Y-25587609D01*
X188190095Y-25587609D02*
X188237714Y-25682847D01*
X188237714Y-25682847D02*
X188237714Y-25920942D01*
X188237714Y-25920942D02*
X188190095Y-26016180D01*
X188190095Y-26016180D02*
X188142476Y-26063800D01*
X188142476Y-26063800D02*
X188047238Y-26111419D01*
X188047238Y-26111419D02*
X187761524Y-26111419D01*
X187761524Y-26111419D02*
X187666286Y-26063800D01*
X187666286Y-26063800D02*
X187618667Y-26016180D01*
X142747580Y-31680333D02*
X143223771Y-31347000D01*
X142747580Y-31108905D02*
X143747580Y-31108905D01*
X143747580Y-31108905D02*
X143747580Y-31489857D01*
X143747580Y-31489857D02*
X143699961Y-31585095D01*
X143699961Y-31585095D02*
X143652342Y-31632714D01*
X143652342Y-31632714D02*
X143557104Y-31680333D01*
X143557104Y-31680333D02*
X143414247Y-31680333D01*
X143414247Y-31680333D02*
X143319009Y-31632714D01*
X143319009Y-31632714D02*
X143271390Y-31585095D01*
X143271390Y-31585095D02*
X143223771Y-31489857D01*
X143223771Y-31489857D02*
X143223771Y-31108905D01*
X142747580Y-32632714D02*
X142747580Y-32061286D01*
X142747580Y-32347000D02*
X143747580Y-32347000D01*
X143747580Y-32347000D02*
X143604723Y-32251762D01*
X143604723Y-32251762D02*
X143509485Y-32156524D01*
X143509485Y-32156524D02*
X143461866Y-32061286D01*
X149518857Y-32969419D02*
X149518857Y-31969419D01*
X149518857Y-31969419D02*
X149899809Y-31969419D01*
X149899809Y-31969419D02*
X149995047Y-32017038D01*
X149995047Y-32017038D02*
X150042666Y-32064657D01*
X150042666Y-32064657D02*
X150090285Y-32159895D01*
X150090285Y-32159895D02*
X150090285Y-32302752D01*
X150090285Y-32302752D02*
X150042666Y-32397990D01*
X150042666Y-32397990D02*
X149995047Y-32445609D01*
X149995047Y-32445609D02*
X149899809Y-32493228D01*
X149899809Y-32493228D02*
X149518857Y-32493228D01*
X150518857Y-32588466D02*
X151280762Y-32588466D01*
X150899809Y-32969419D02*
X150899809Y-32207514D01*
X152280761Y-32969419D02*
X151709333Y-32969419D01*
X151995047Y-32969419D02*
X151995047Y-31969419D01*
X151995047Y-31969419D02*
X151899809Y-32112276D01*
X151899809Y-32112276D02*
X151804571Y-32207514D01*
X151804571Y-32207514D02*
X151709333Y-32255133D01*
X182435619Y-44399419D02*
X182435619Y-43399419D01*
X183435618Y-44399419D02*
X182864190Y-44399419D01*
X183149904Y-44399419D02*
X183149904Y-43399419D01*
X183149904Y-43399419D02*
X183054666Y-43542276D01*
X183054666Y-43542276D02*
X182959428Y-43637514D01*
X182959428Y-43637514D02*
X182864190Y-43685133D01*
X184340380Y-43399419D02*
X183864190Y-43399419D01*
X183864190Y-43399419D02*
X183816571Y-43875609D01*
X183816571Y-43875609D02*
X183864190Y-43827990D01*
X183864190Y-43827990D02*
X183959428Y-43780371D01*
X183959428Y-43780371D02*
X184197523Y-43780371D01*
X184197523Y-43780371D02*
X184292761Y-43827990D01*
X184292761Y-43827990D02*
X184340380Y-43875609D01*
X184340380Y-43875609D02*
X184387999Y-43970847D01*
X184387999Y-43970847D02*
X184387999Y-44208942D01*
X184387999Y-44208942D02*
X184340380Y-44304180D01*
X184340380Y-44304180D02*
X184292761Y-44351800D01*
X184292761Y-44351800D02*
X184197523Y-44399419D01*
X184197523Y-44399419D02*
X183959428Y-44399419D01*
X183959428Y-44399419D02*
X183864190Y-44351800D01*
X183864190Y-44351800D02*
X183816571Y-44304180D01*
X155511619Y-42621419D02*
X155511619Y-41621419D01*
X156511618Y-42621419D02*
X155940190Y-42621419D01*
X156225904Y-42621419D02*
X156225904Y-41621419D01*
X156225904Y-41621419D02*
X156130666Y-41764276D01*
X156130666Y-41764276D02*
X156035428Y-41859514D01*
X156035428Y-41859514D02*
X155940190Y-41907133D01*
X157368761Y-41954752D02*
X157368761Y-42621419D01*
X157130666Y-41573800D02*
X156892571Y-42288085D01*
X156892571Y-42288085D02*
X157511618Y-42288085D01*
X182689619Y-42875419D02*
X182689619Y-41875419D01*
X183689618Y-42875419D02*
X183118190Y-42875419D01*
X183403904Y-42875419D02*
X183403904Y-41875419D01*
X183403904Y-41875419D02*
X183308666Y-42018276D01*
X183308666Y-42018276D02*
X183213428Y-42113514D01*
X183213428Y-42113514D02*
X183118190Y-42161133D01*
X184546761Y-41875419D02*
X184356285Y-41875419D01*
X184356285Y-41875419D02*
X184261047Y-41923038D01*
X184261047Y-41923038D02*
X184213428Y-41970657D01*
X184213428Y-41970657D02*
X184118190Y-42113514D01*
X184118190Y-42113514D02*
X184070571Y-42303990D01*
X184070571Y-42303990D02*
X184070571Y-42684942D01*
X184070571Y-42684942D02*
X184118190Y-42780180D01*
X184118190Y-42780180D02*
X184165809Y-42827800D01*
X184165809Y-42827800D02*
X184261047Y-42875419D01*
X184261047Y-42875419D02*
X184451523Y-42875419D01*
X184451523Y-42875419D02*
X184546761Y-42827800D01*
X184546761Y-42827800D02*
X184594380Y-42780180D01*
X184594380Y-42780180D02*
X184641999Y-42684942D01*
X184641999Y-42684942D02*
X184641999Y-42446847D01*
X184641999Y-42446847D02*
X184594380Y-42351609D01*
X184594380Y-42351609D02*
X184546761Y-42303990D01*
X184546761Y-42303990D02*
X184451523Y-42256371D01*
X184451523Y-42256371D02*
X184261047Y-42256371D01*
X184261047Y-42256371D02*
X184165809Y-42303990D01*
X184165809Y-42303990D02*
X184118190Y-42351609D01*
X184118190Y-42351609D02*
X184070571Y-42446847D01*
D10*
X147066095Y-39570819D02*
X147066095Y-38570819D01*
X147066095Y-39047009D02*
X147637523Y-39047009D01*
X147637523Y-39570819D02*
X147637523Y-38570819D01*
X148542285Y-38904152D02*
X148542285Y-39570819D01*
X148304190Y-38523200D02*
X148066095Y-39237485D01*
X148066095Y-39237485D02*
X148685142Y-39237485D01*
D11*
X150709333Y-31604180D02*
X150661714Y-31651800D01*
X150661714Y-31651800D02*
X150518857Y-31699419D01*
X150518857Y-31699419D02*
X150423619Y-31699419D01*
X150423619Y-31699419D02*
X150280762Y-31651800D01*
X150280762Y-31651800D02*
X150185524Y-31556561D01*
X150185524Y-31556561D02*
X150137905Y-31461323D01*
X150137905Y-31461323D02*
X150090286Y-31270847D01*
X150090286Y-31270847D02*
X150090286Y-31127990D01*
X150090286Y-31127990D02*
X150137905Y-30937514D01*
X150137905Y-30937514D02*
X150185524Y-30842276D01*
X150185524Y-30842276D02*
X150280762Y-30747038D01*
X150280762Y-30747038D02*
X150423619Y-30699419D01*
X150423619Y-30699419D02*
X150518857Y-30699419D01*
X150518857Y-30699419D02*
X150661714Y-30747038D01*
X150661714Y-30747038D02*
X150709333Y-30794657D01*
X151614095Y-30699419D02*
X151137905Y-30699419D01*
X151137905Y-30699419D02*
X151090286Y-31175609D01*
X151090286Y-31175609D02*
X151137905Y-31127990D01*
X151137905Y-31127990D02*
X151233143Y-31080371D01*
X151233143Y-31080371D02*
X151471238Y-31080371D01*
X151471238Y-31080371D02*
X151566476Y-31127990D01*
X151566476Y-31127990D02*
X151614095Y-31175609D01*
X151614095Y-31175609D02*
X151661714Y-31270847D01*
X151661714Y-31270847D02*
X151661714Y-31508942D01*
X151661714Y-31508942D02*
X151614095Y-31604180D01*
X151614095Y-31604180D02*
X151566476Y-31651800D01*
X151566476Y-31651800D02*
X151471238Y-31699419D01*
X151471238Y-31699419D02*
X151233143Y-31699419D01*
X151233143Y-31699419D02*
X151137905Y-31651800D01*
X151137905Y-31651800D02*
X151090286Y-31604180D01*
D10*
X144359333Y-36522819D02*
X144026000Y-36046628D01*
X143787905Y-36522819D02*
X143787905Y-35522819D01*
X143787905Y-35522819D02*
X144168857Y-35522819D01*
X144168857Y-35522819D02*
X144264095Y-35570438D01*
X144264095Y-35570438D02*
X144311714Y-35618057D01*
X144311714Y-35618057D02*
X144359333Y-35713295D01*
X144359333Y-35713295D02*
X144359333Y-35856152D01*
X144359333Y-35856152D02*
X144311714Y-35951390D01*
X144311714Y-35951390D02*
X144264095Y-35999009D01*
X144264095Y-35999009D02*
X144168857Y-36046628D01*
X144168857Y-36046628D02*
X143787905Y-36046628D01*
X144692667Y-35522819D02*
X145311714Y-35522819D01*
X145311714Y-35522819D02*
X144978381Y-35903771D01*
X144978381Y-35903771D02*
X145121238Y-35903771D01*
X145121238Y-35903771D02*
X145216476Y-35951390D01*
X145216476Y-35951390D02*
X145264095Y-35999009D01*
X145264095Y-35999009D02*
X145311714Y-36094247D01*
X145311714Y-36094247D02*
X145311714Y-36332342D01*
X145311714Y-36332342D02*
X145264095Y-36427580D01*
X145264095Y-36427580D02*
X145216476Y-36475200D01*
X145216476Y-36475200D02*
X145121238Y-36522819D01*
X145121238Y-36522819D02*
X144835524Y-36522819D01*
X144835524Y-36522819D02*
X144740286Y-36475200D01*
X144740286Y-36475200D02*
X144692667Y-36427580D01*
D11*
X151384095Y-23841419D02*
X151384095Y-24650942D01*
X151384095Y-24650942D02*
X151431714Y-24746180D01*
X151431714Y-24746180D02*
X151479333Y-24793800D01*
X151479333Y-24793800D02*
X151574571Y-24841419D01*
X151574571Y-24841419D02*
X151765047Y-24841419D01*
X151765047Y-24841419D02*
X151860285Y-24793800D01*
X151860285Y-24793800D02*
X151907904Y-24746180D01*
X151907904Y-24746180D02*
X151955523Y-24650942D01*
X151955523Y-24650942D02*
X151955523Y-23841419D01*
X152384095Y-23936657D02*
X152431714Y-23889038D01*
X152431714Y-23889038D02*
X152526952Y-23841419D01*
X152526952Y-23841419D02*
X152765047Y-23841419D01*
X152765047Y-23841419D02*
X152860285Y-23889038D01*
X152860285Y-23889038D02*
X152907904Y-23936657D01*
X152907904Y-23936657D02*
X152955523Y-24031895D01*
X152955523Y-24031895D02*
X152955523Y-24127133D01*
X152955523Y-24127133D02*
X152907904Y-24269990D01*
X152907904Y-24269990D02*
X152336476Y-24841419D01*
X152336476Y-24841419D02*
X152955523Y-24841419D01*
X182435619Y-34747419D02*
X182435619Y-33747419D01*
X183435618Y-34747419D02*
X182864190Y-34747419D01*
X183149904Y-34747419D02*
X183149904Y-33747419D01*
X183149904Y-33747419D02*
X183054666Y-33890276D01*
X183054666Y-33890276D02*
X182959428Y-33985514D01*
X182959428Y-33985514D02*
X182864190Y-34033133D01*
X183911809Y-34747419D02*
X184102285Y-34747419D01*
X184102285Y-34747419D02*
X184197523Y-34699800D01*
X184197523Y-34699800D02*
X184245142Y-34652180D01*
X184245142Y-34652180D02*
X184340380Y-34509323D01*
X184340380Y-34509323D02*
X184387999Y-34318847D01*
X184387999Y-34318847D02*
X184387999Y-33937895D01*
X184387999Y-33937895D02*
X184340380Y-33842657D01*
X184340380Y-33842657D02*
X184292761Y-33795038D01*
X184292761Y-33795038D02*
X184197523Y-33747419D01*
X184197523Y-33747419D02*
X184007047Y-33747419D01*
X184007047Y-33747419D02*
X183911809Y-33795038D01*
X183911809Y-33795038D02*
X183864190Y-33842657D01*
X183864190Y-33842657D02*
X183816571Y-33937895D01*
X183816571Y-33937895D02*
X183816571Y-34175990D01*
X183816571Y-34175990D02*
X183864190Y-34271228D01*
X183864190Y-34271228D02*
X183911809Y-34318847D01*
X183911809Y-34318847D02*
X184007047Y-34366466D01*
X184007047Y-34366466D02*
X184197523Y-34366466D01*
X184197523Y-34366466D02*
X184292761Y-34318847D01*
X184292761Y-34318847D02*
X184340380Y-34271228D01*
X184340380Y-34271228D02*
X184387999Y-34175990D01*
X147502666Y-34223609D02*
X147169333Y-34223609D01*
X147169333Y-34747419D02*
X147169333Y-33747419D01*
X147169333Y-33747419D02*
X147645523Y-33747419D01*
X148359809Y-34223609D02*
X148502666Y-34271228D01*
X148502666Y-34271228D02*
X148550285Y-34318847D01*
X148550285Y-34318847D02*
X148597904Y-34414085D01*
X148597904Y-34414085D02*
X148597904Y-34556942D01*
X148597904Y-34556942D02*
X148550285Y-34652180D01*
X148550285Y-34652180D02*
X148502666Y-34699800D01*
X148502666Y-34699800D02*
X148407428Y-34747419D01*
X148407428Y-34747419D02*
X148026476Y-34747419D01*
X148026476Y-34747419D02*
X148026476Y-33747419D01*
X148026476Y-33747419D02*
X148359809Y-33747419D01*
X148359809Y-33747419D02*
X148455047Y-33795038D01*
X148455047Y-33795038D02*
X148502666Y-33842657D01*
X148502666Y-33842657D02*
X148550285Y-33937895D01*
X148550285Y-33937895D02*
X148550285Y-34033133D01*
X148550285Y-34033133D02*
X148502666Y-34128371D01*
X148502666Y-34128371D02*
X148455047Y-34175990D01*
X148455047Y-34175990D02*
X148359809Y-34223609D01*
X148359809Y-34223609D02*
X148026476Y-34223609D01*
X148978857Y-33842657D02*
X149026476Y-33795038D01*
X149026476Y-33795038D02*
X149121714Y-33747419D01*
X149121714Y-33747419D02*
X149359809Y-33747419D01*
X149359809Y-33747419D02*
X149455047Y-33795038D01*
X149455047Y-33795038D02*
X149502666Y-33842657D01*
X149502666Y-33842657D02*
X149550285Y-33937895D01*
X149550285Y-33937895D02*
X149550285Y-34033133D01*
X149550285Y-34033133D02*
X149502666Y-34175990D01*
X149502666Y-34175990D02*
X148931238Y-34747419D01*
X148931238Y-34747419D02*
X149550285Y-34747419D01*
X184912095Y-32087419D02*
X184912095Y-32896942D01*
X184912095Y-32896942D02*
X184959714Y-32992180D01*
X184959714Y-32992180D02*
X185007333Y-33039800D01*
X185007333Y-33039800D02*
X185102571Y-33087419D01*
X185102571Y-33087419D02*
X185293047Y-33087419D01*
X185293047Y-33087419D02*
X185388285Y-33039800D01*
X185388285Y-33039800D02*
X185435904Y-32992180D01*
X185435904Y-32992180D02*
X185483523Y-32896942D01*
X185483523Y-32896942D02*
X185483523Y-32087419D01*
X186388285Y-32087419D02*
X186197809Y-32087419D01*
X186197809Y-32087419D02*
X186102571Y-32135038D01*
X186102571Y-32135038D02*
X186054952Y-32182657D01*
X186054952Y-32182657D02*
X185959714Y-32325514D01*
X185959714Y-32325514D02*
X185912095Y-32515990D01*
X185912095Y-32515990D02*
X185912095Y-32896942D01*
X185912095Y-32896942D02*
X185959714Y-32992180D01*
X185959714Y-32992180D02*
X186007333Y-33039800D01*
X186007333Y-33039800D02*
X186102571Y-33087419D01*
X186102571Y-33087419D02*
X186293047Y-33087419D01*
X186293047Y-33087419D02*
X186388285Y-33039800D01*
X186388285Y-33039800D02*
X186435904Y-32992180D01*
X186435904Y-32992180D02*
X186483523Y-32896942D01*
X186483523Y-32896942D02*
X186483523Y-32658847D01*
X186483523Y-32658847D02*
X186435904Y-32563609D01*
X186435904Y-32563609D02*
X186388285Y-32515990D01*
X186388285Y-32515990D02*
X186293047Y-32468371D01*
X186293047Y-32468371D02*
X186102571Y-32468371D01*
X186102571Y-32468371D02*
X186007333Y-32515990D01*
X186007333Y-32515990D02*
X185959714Y-32563609D01*
X185959714Y-32563609D02*
X185912095Y-32658847D01*
D10*
X190246095Y-30680819D02*
X190246095Y-29680819D01*
X190246095Y-30157009D02*
X190817523Y-30157009D01*
X190817523Y-30680819D02*
X190817523Y-29680819D01*
X191198476Y-29680819D02*
X191817523Y-29680819D01*
X191817523Y-29680819D02*
X191484190Y-30061771D01*
X191484190Y-30061771D02*
X191627047Y-30061771D01*
X191627047Y-30061771D02*
X191722285Y-30109390D01*
X191722285Y-30109390D02*
X191769904Y-30157009D01*
X191769904Y-30157009D02*
X191817523Y-30252247D01*
X191817523Y-30252247D02*
X191817523Y-30490342D01*
X191817523Y-30490342D02*
X191769904Y-30585580D01*
X191769904Y-30585580D02*
X191722285Y-30633200D01*
X191722285Y-30633200D02*
X191627047Y-30680819D01*
X191627047Y-30680819D02*
X191341333Y-30680819D01*
X191341333Y-30680819D02*
X191246095Y-30633200D01*
X191246095Y-30633200D02*
X191198476Y-30585580D01*
D11*
X160019904Y-34832580D02*
X160019904Y-34023057D01*
X160019904Y-34023057D02*
X159972285Y-33927819D01*
X159972285Y-33927819D02*
X159924666Y-33880200D01*
X159924666Y-33880200D02*
X159829428Y-33832580D01*
X159829428Y-33832580D02*
X159638952Y-33832580D01*
X159638952Y-33832580D02*
X159543714Y-33880200D01*
X159543714Y-33880200D02*
X159496095Y-33927819D01*
X159496095Y-33927819D02*
X159448476Y-34023057D01*
X159448476Y-34023057D02*
X159448476Y-34832580D01*
X159067523Y-34832580D02*
X158448476Y-34832580D01*
X158448476Y-34832580D02*
X158781809Y-34451628D01*
X158781809Y-34451628D02*
X158638952Y-34451628D01*
X158638952Y-34451628D02*
X158543714Y-34404009D01*
X158543714Y-34404009D02*
X158496095Y-34356390D01*
X158496095Y-34356390D02*
X158448476Y-34261152D01*
X158448476Y-34261152D02*
X158448476Y-34023057D01*
X158448476Y-34023057D02*
X158496095Y-33927819D01*
X158496095Y-33927819D02*
X158543714Y-33880200D01*
X158543714Y-33880200D02*
X158638952Y-33832580D01*
X158638952Y-33832580D02*
X158924666Y-33832580D01*
X158924666Y-33832580D02*
X159019904Y-33880200D01*
X159019904Y-33880200D02*
X159067523Y-33927819D01*
D12*
%TO.C,U1*%
X179058000Y-43430000D02*
X178308000Y-43430000D01*
X179058000Y-42680000D02*
X179058000Y-43430000D01*
X179058000Y-23870000D02*
X161058000Y-23870000D01*
X179058000Y-17930000D02*
X179058000Y-24680000D01*
X178308000Y-43430000D02*
X176558000Y-43430000D01*
X161808000Y-43430000D02*
X163558000Y-43430000D01*
X161058000Y-43430000D02*
X161808000Y-43430000D01*
X161058000Y-42680000D02*
X161058000Y-43430000D01*
X161058000Y-17930000D02*
X179058000Y-17930000D01*
X161058000Y-17930000D02*
X161058000Y-24680000D01*
D13*
%TO.C,U5*%
X182979060Y-35903829D02*
G75*
G02*
X182979060Y-35756171I-18860J73829D01*
G01*
X186842400Y-35153600D02*
X183489600Y-35153600D01*
X183489600Y-38506400D02*
X186842400Y-38506400D01*
D12*
%TO.C,I17*%
X181802000Y-38354000D02*
G75*
G02*
X180402000Y-38354000I-700000J0D01*
G01*
X180402000Y-38354000D02*
G75*
G02*
X181802000Y-38354000I700000J0D01*
G01*
D14*
%TO.C,CN5*%
X149638000Y-39498000D02*
X150608000Y-39498000D01*
X149638000Y-41348000D02*
X149638000Y-39498000D01*
X149638000Y-41348000D02*
X149638000Y-41948000D01*
X150678000Y-43798000D02*
X152608000Y-43798000D01*
X152678000Y-39498000D02*
X153638000Y-39498000D01*
X153638000Y-39498000D02*
X153638000Y-41948000D01*
D15*
%TO.C,LED1*%
X137955000Y-32512000D02*
G75*
G02*
X137755000Y-32512000I-100000J0D01*
G01*
X137755000Y-32512000D02*
G75*
G02*
X137955000Y-32512000I100000J0D01*
G01*
D14*
%TO.C,CN2*%
X196041000Y-24372000D02*
X198651000Y-24372000D01*
X196041000Y-25292000D02*
X196041000Y-24372000D01*
X196041000Y-29272000D02*
X196041000Y-30352000D01*
X196041000Y-30352000D02*
X198641000Y-30352000D01*
X200301000Y-29352000D02*
X200301000Y-25452000D01*
X196651000Y-29832000D02*
G75*
G02*
X196411000Y-29832000I-120000J0D01*
G01*
X196411000Y-29832000D02*
G75*
G02*
X196651000Y-29832000I120000J0D01*
G01*
%TO.C,CN4*%
X196191000Y-31482000D02*
X198641000Y-31482000D01*
X196191000Y-32442000D02*
X196191000Y-31482000D01*
X196191000Y-35482000D02*
X196191000Y-34512000D01*
X198041000Y-35482000D02*
X196191000Y-35482000D01*
X198041000Y-35482000D02*
X198641000Y-35482000D01*
X200491000Y-34442000D02*
X200491000Y-32512000D01*
D12*
%TO.C,R2*%
X159128000Y-27446359D02*
X159128000Y-27753641D01*
X159888000Y-27446359D02*
X159888000Y-27753641D01*
%TO.C,I18*%
X181802000Y-36068000D02*
G75*
G02*
X180402000Y-36068000I-700000J0D01*
G01*
X180402000Y-36068000D02*
G75*
G02*
X181802000Y-36068000I700000J0D01*
G01*
%TO.C,N1*%
X155386000Y-37592000D02*
G75*
G02*
X153986000Y-37592000I-700000J0D01*
G01*
X153986000Y-37592000D02*
G75*
G02*
X155386000Y-37592000I700000J0D01*
G01*
%TO.C,V3*%
X150052000Y-26416000D02*
G75*
G02*
X148652000Y-26416000I-700000J0D01*
G01*
X148652000Y-26416000D02*
G75*
G02*
X150052000Y-26416000I700000J0D01*
G01*
%TO.C,CN1*%
X196256000Y-43132000D02*
X197446000Y-43132000D01*
X196256000Y-43632000D02*
X196256000Y-42732000D01*
X196316000Y-36672000D02*
X196316000Y-37572000D01*
X196316000Y-37172000D02*
X197516000Y-37172000D01*
X196756000Y-43132000D02*
X196756000Y-43632000D01*
X196756000Y-43632000D02*
X196756000Y-43132000D01*
X196816000Y-36672000D02*
X196816000Y-37172000D01*
X196816000Y-37172000D02*
X196816000Y-36672000D01*
X197446000Y-43132000D02*
X196256000Y-43132000D01*
X197446000Y-43132000D02*
X197446000Y-43632000D01*
X197446000Y-43632000D02*
X197446000Y-43132000D01*
X197516000Y-36672000D02*
X197516000Y-37172000D01*
X197516000Y-37172000D02*
X196316000Y-37172000D01*
X197516000Y-37172000D02*
X197516000Y-36672000D01*
X198596000Y-43632000D02*
X196256000Y-43632000D01*
X198666000Y-36672000D02*
X196316000Y-36672000D01*
X200496000Y-42532000D02*
X200496000Y-37732000D01*
X195686000Y-42882000D02*
G75*
G02*
X195676011Y-42882200I9J-250000D01*
G01*
D16*
%TO.C,C2*%
X159003000Y-25250000D02*
X159003000Y-26250000D01*
X159963000Y-26250000D02*
X159963000Y-25250000D01*
D14*
%TO.C,CN3*%
X141058000Y-28724000D02*
X141058000Y-26114000D01*
X141978000Y-28724000D02*
X141058000Y-28724000D01*
X145958000Y-28724000D02*
X147038000Y-28724000D01*
X146038000Y-24464000D02*
X142138000Y-24464000D01*
X147038000Y-28724000D02*
X147038000Y-26124000D01*
X146638000Y-28234000D02*
G75*
G02*
X146398000Y-28234000I-120000J0D01*
G01*
X146398000Y-28234000D02*
G75*
G02*
X146638000Y-28234000I120000J0D01*
G01*
D12*
%TO.C,I22*%
X183326000Y-24892000D02*
G75*
G02*
X181926000Y-24892000I-700000J0D01*
G01*
X181926000Y-24892000D02*
G75*
G02*
X183326000Y-24892000I700000J0D01*
G01*
%TO.C,C9*%
X182125164Y-26395000D02*
X182340836Y-26395000D01*
X182125164Y-27115000D02*
X182340836Y-27115000D01*
D14*
%TO.C,USB1*%
X133780500Y-34616000D02*
X135400500Y-34616000D01*
X133780500Y-43616000D02*
X133780500Y-34616000D01*
X133930500Y-43686000D02*
X135400500Y-43686000D01*
X137360500Y-34616000D02*
X139350500Y-34616000D01*
X137360500Y-43686000D02*
X139350500Y-43686000D01*
D16*
%TO.C,C3*%
X184208000Y-27235000D02*
X185208000Y-27235000D01*
X185208000Y-26275000D02*
X184208000Y-26275000D01*
D12*
%TO.C,P+1*%
X155386000Y-35306000D02*
G75*
G02*
X153986000Y-35306000I-700000J0D01*
G01*
X153986000Y-35306000D02*
G75*
G02*
X155386000Y-35306000I700000J0D01*
G01*
%TO.C,I15*%
X181802000Y-43688000D02*
G75*
G02*
X180402000Y-43688000I-700000J0D01*
G01*
X180402000Y-43688000D02*
G75*
G02*
X181802000Y-43688000I700000J0D01*
G01*
%TO.C,I14*%
X158533000Y-43665000D02*
G75*
G02*
X157133000Y-43665000I-700000J0D01*
G01*
X157133000Y-43665000D02*
G75*
G02*
X158533000Y-43665000I700000J0D01*
G01*
%TO.C,I16*%
X181802000Y-40640000D02*
G75*
G02*
X180402000Y-40640000I-700000J0D01*
G01*
X180402000Y-40640000D02*
G75*
G02*
X181802000Y-40640000I700000J0D01*
G01*
%TO.C,R3*%
X142622000Y-36475641D02*
X142622000Y-36168359D01*
X143382000Y-36475641D02*
X143382000Y-36168359D01*
D16*
%TO.C,U2*%
X152105500Y-26887500D02*
X158610500Y-26887500D01*
X152105500Y-30392500D02*
X152105500Y-26887500D01*
X158610500Y-26887500D02*
X158610500Y-30392500D01*
X158610500Y-30392500D02*
X152105500Y-30392500D01*
D15*
X153168000Y-33640000D02*
G75*
G02*
X152968000Y-33640000I-100000J0D01*
G01*
X152968000Y-33640000D02*
G75*
G02*
X153168000Y-33640000I100000J0D01*
G01*
D12*
%TO.C,I19*%
X181802000Y-33782000D02*
G75*
G02*
X180402000Y-33782000I-700000J0D01*
G01*
X180402000Y-33782000D02*
G75*
G02*
X181802000Y-33782000I700000J0D01*
G01*
D14*
%TO.C,U6*%
X181783000Y-27505000D02*
X181783000Y-27635000D01*
X181783000Y-28845000D02*
X181783000Y-28905000D01*
X181783000Y-30115000D02*
X181783000Y-30175000D01*
X181783000Y-31385000D02*
X181783000Y-31505000D01*
X181783000Y-31505000D02*
X184983000Y-31505000D01*
X184983000Y-27505000D02*
X181783000Y-27505000D01*
X184983000Y-27605000D02*
X184983000Y-27505000D01*
X184983000Y-28875000D02*
X184983000Y-28875000D01*
X184983000Y-30145000D02*
X184983000Y-30145000D01*
X184983000Y-31505000D02*
X184983000Y-31415000D01*
D16*
%TO.C,U3*%
X156393000Y-35765000D02*
X156393000Y-36060000D01*
X156393000Y-35765000D02*
X156688000Y-35765000D01*
X156393000Y-38765000D02*
X156393000Y-38470000D01*
X156393000Y-38765000D02*
X156688000Y-38765000D01*
X159393000Y-35765000D02*
X159098000Y-35765000D01*
X159393000Y-35765000D02*
X159393000Y-36060000D01*
X159393000Y-38765000D02*
X159098000Y-38765000D01*
X159393000Y-38765000D02*
X159393000Y-38470000D01*
D15*
X160468000Y-38015000D02*
G75*
G02*
X160268000Y-38015000I-100000J0D01*
G01*
X160268000Y-38015000D02*
G75*
G02*
X160468000Y-38015000I100000J0D01*
G01*
%TD*%
%LPC*%
D17*
%TO.C,U1*%
X169958000Y-34540000D03*
X169958000Y-33140000D03*
X169958000Y-31740000D03*
X168558000Y-34540000D03*
X168558000Y-34540000D03*
X168558000Y-33140000D03*
X168558000Y-31740000D03*
X167158000Y-34540000D03*
X167158000Y-34540000D03*
X167158000Y-33140000D03*
X167158000Y-31740000D03*
X167158000Y-31740000D03*
D18*
X178808000Y-25420000D03*
X178808000Y-26690000D03*
X178808000Y-27960000D03*
X178808000Y-29230000D03*
X178808000Y-30500000D03*
X178808000Y-31770000D03*
X178808000Y-33040000D03*
X178808000Y-34310000D03*
X178808000Y-35580000D03*
X178808000Y-36850000D03*
X178808000Y-38120000D03*
X178808000Y-39390000D03*
X178808000Y-40660000D03*
X178808000Y-41930000D03*
D19*
X175768000Y-43180000D03*
X174498000Y-43180000D03*
X173228000Y-43180000D03*
X171958000Y-43180000D03*
X170688000Y-43180000D03*
X169418000Y-43180000D03*
X168148000Y-43180000D03*
X166878000Y-43180000D03*
X165608000Y-43180000D03*
X164338000Y-43180000D03*
D18*
X161308000Y-41930000D03*
X161308000Y-40660000D03*
X161308000Y-39390000D03*
X161308000Y-38120000D03*
X161308000Y-36850000D03*
X161308000Y-35580000D03*
X161308000Y-34310000D03*
X161308000Y-33040000D03*
X161308000Y-31770000D03*
X161308000Y-30500000D03*
X161308000Y-29230000D03*
X161308000Y-27960000D03*
X161308000Y-26690000D03*
X161308000Y-25420000D03*
%TD*%
D20*
%TO.C,FB1*%
X152598000Y-34036000D03*
X151694000Y-34036000D03*
%TD*%
D21*
%TO.C,U5*%
X185166000Y-36830000D03*
D22*
X186606000Y-35829999D03*
X186606000Y-36330001D03*
X186606000Y-36830000D03*
X186606000Y-37329999D03*
X186606000Y-37830001D03*
X183726000Y-37830000D03*
X183726000Y-37329998D03*
X183726000Y-36829999D03*
X183726000Y-36330000D03*
X183726000Y-35829998D03*
%TD*%
D23*
%TO.C,C6*%
X156923000Y-34515000D03*
X157793000Y-34515000D03*
%TD*%
D24*
%TO.C,I17*%
X181102000Y-38354000D03*
%TD*%
D25*
%TO.C,CN5*%
X151138000Y-39208000D03*
X152138000Y-39208000D03*
D26*
X153438000Y-43088000D03*
X149838000Y-43088000D03*
%TD*%
D27*
%TO.C,H2*%
X191262000Y-41148000D03*
%TD*%
D28*
%TO.C,LED1*%
X134805000Y-32512000D03*
X136455000Y-32512000D03*
%TD*%
D29*
%TO.C,C7*%
X152146000Y-37519000D03*
X152146000Y-36649000D03*
%TD*%
D30*
%TO.C,CN2*%
X195901000Y-28832000D03*
X195901000Y-27832000D03*
X195901000Y-26832000D03*
X195901000Y-25832000D03*
D31*
X199781000Y-24532000D03*
X199781000Y-30132000D03*
%TD*%
D30*
%TO.C,CN4*%
X195901000Y-33982000D03*
X195901000Y-32982000D03*
D31*
X199781000Y-31682000D03*
X199781000Y-35282000D03*
%TD*%
D32*
%TO.C,R2*%
X159508000Y-27090000D03*
X159508000Y-28110000D03*
%TD*%
D24*
%TO.C,I18*%
X181102000Y-36068000D03*
%TD*%
%TO.C,N1*%
X154686000Y-37592000D03*
%TD*%
D29*
%TO.C,C1*%
X159483000Y-30060000D03*
X159483000Y-29190000D03*
%TD*%
%TO.C,C8*%
X150971000Y-37509000D03*
X150971000Y-36639000D03*
%TD*%
D33*
%TO.C,C4*%
X159483000Y-31255000D03*
X159483000Y-32125000D03*
%TD*%
D24*
%TO.C,V3*%
X149352000Y-26416000D03*
%TD*%
D30*
%TO.C,CN1*%
X195926000Y-42132000D03*
X195926000Y-41132000D03*
X195926000Y-40132000D03*
X195926000Y-39132000D03*
X195926000Y-38132000D03*
D31*
X199806000Y-43432000D03*
X199806000Y-36832000D03*
%TD*%
D27*
%TO.C,H1*%
X136906000Y-27432000D03*
%TD*%
D34*
%TO.C,C2*%
X159483000Y-25320000D03*
X159483000Y-26180000D03*
%TD*%
D25*
%TO.C,CN3*%
X145518000Y-28864000D03*
X144518000Y-28864000D03*
X143518000Y-28864000D03*
X142518000Y-28864000D03*
D26*
X141218000Y-24984000D03*
X146818000Y-24984000D03*
%TD*%
D24*
%TO.C,I22*%
X182626000Y-24892000D03*
%TD*%
D35*
%TO.C,C9*%
X181753000Y-26755000D03*
X182713000Y-26755000D03*
%TD*%
D36*
%TO.C,USB1*%
X140050500Y-36226000D03*
X140050500Y-42006000D03*
D37*
X141130500Y-35916000D03*
X141130500Y-36716000D03*
D38*
X141130500Y-37366000D03*
X141130500Y-37866000D03*
X141130500Y-38366000D03*
X141130500Y-38866000D03*
X141130500Y-39366000D03*
X141130500Y-39866000D03*
X141130500Y-40366000D03*
X141130500Y-40866000D03*
D37*
X141130500Y-41516000D03*
X141130500Y-42316000D03*
D39*
X140580500Y-34796000D03*
D40*
X136370500Y-34796000D03*
D39*
X140580500Y-43436000D03*
D40*
X136370500Y-43436000D03*
%TD*%
D41*
%TO.C,C3*%
X184278000Y-26755000D03*
X185138000Y-26755000D03*
%TD*%
D23*
%TO.C,R1*%
X137995000Y-32512000D03*
X138865000Y-32512000D03*
%TD*%
D24*
%TO.C,P+1*%
X154686000Y-35306000D03*
%TD*%
%TO.C,I15*%
X181102000Y-43688000D03*
%TD*%
%TO.C,I14*%
X157833000Y-43665000D03*
%TD*%
%TO.C,I16*%
X181102000Y-40640000D03*
%TD*%
D27*
%TO.C,H4*%
X145542000Y-40894000D03*
%TD*%
D23*
%TO.C,C5*%
X154251000Y-33540000D03*
X155121000Y-33540000D03*
%TD*%
D42*
%TO.C,R3*%
X143002000Y-36832000D03*
X143002000Y-35812000D03*
%TD*%
D43*
%TO.C,U2*%
X153068000Y-31985000D03*
X155358000Y-31985000D03*
X157648000Y-31985000D03*
D44*
X155358000Y-25295000D03*
%TD*%
D24*
%TO.C,I19*%
X181102000Y-33782000D03*
%TD*%
D20*
%TO.C,FB2*%
X152598000Y-35306000D03*
X151694000Y-35306000D03*
%TD*%
D45*
%TO.C,U6*%
X181483000Y-28235000D03*
D46*
X185283000Y-28235000D03*
D45*
X181483000Y-29505000D03*
D46*
X185283000Y-29505000D03*
D45*
X181483000Y-30775000D03*
D46*
X185283000Y-30775000D03*
%TD*%
D27*
%TO.C,H3*%
X191262000Y-27432000D03*
%TD*%
D47*
%TO.C,U3*%
X159328000Y-38015000D03*
X159328000Y-37515000D03*
X159328000Y-37015000D03*
X159328000Y-36515000D03*
D48*
X158643000Y-35830000D03*
X158143000Y-35830000D03*
X157643000Y-35830000D03*
X157143000Y-35830000D03*
D47*
X156458000Y-36515000D03*
X156458000Y-37015000D03*
X156458000Y-37515000D03*
X156458000Y-38015000D03*
D48*
X157143000Y-38700000D03*
X157643000Y-38700000D03*
X158143000Y-38700000D03*
X158643000Y-38700000D03*
D49*
X157893000Y-37265000D03*
%TD*%
%LPD*%
M02*
